<?xml version="1.0" encoding="UTF-8"?>
<svg xmlns="http://www.w3.org/2000/svg" xmlns:xlink="http://www.w3.org/1999/xlink" width="80px" height="80px" viewBox="0 0 80 80" version="1.1">
<g id="surface1">
<path style=" stroke:none;fill-rule:evenodd;fill:rgb(40.784314%,73.725492%,44.313726%);fill-opacity:1;" d="M 40 0 C 27.796875 0 13.09375 2.875 0.96875 9.1875 C 0.96875 22.8125 0.8125 56.78125 40 80 C 79.1875 56.78125 79.03125 22.8125 79.03125 9.1875 C 66.90625 2.875 52.203125 0 40 0 "/>
<path style=" stroke:none;fill-rule:evenodd;fill:rgb(40.392157%,69.803923%,47.450981%);fill-opacity:1;" d="M 39.953125 79.96875 C 0.8125 56.765625 0.96875 22.8125 0.96875 9.1875 C 13.078125 2.875 27.765625 0 39.953125 0 Z M 39.953125 79.96875 "/>
<path style=" stroke:none;fill-rule:evenodd;fill:rgb(100%,100%,100%);fill-opacity:1;" d="M 38.578125 53.375 L 62.171875 21.5625 C 60.4375 20.171875 58.921875 21.15625 58.09375 21.90625 L 58.0625 21.90625 L 38.390625 42.375 L 30.984375 33.453125 C 27.453125 29.359375 22.640625 32.484375 21.515625 33.3125 Z M 38.578125 53.375 "/>
</g>
</svg>
