<?xml version="1.0" encoding="UTF-8"?>
<svg xmlns="http://www.w3.org/2000/svg" xmlns:xlink="http://www.w3.org/1999/xlink" width="60px" height="60px" viewBox="0 0 60 60" version="1.1">
<g id="surface1">
<path style=" stroke:none;fill-rule:evenodd;fill:rgb(40.784314%,73.725492%,44.313726%);fill-opacity:1;" d="M 30 0 C 20.847656 0 9.820312 2.15625 0.726562 6.890625 C 0.726562 17.109375 0.609375 42.585938 30 60 C 59.390625 42.585938 59.273438 17.109375 59.273438 6.890625 C 50.179688 2.15625 39.152344 0 30 0 "/>
<path style=" stroke:none;fill-rule:evenodd;fill:rgb(40.392157%,69.803923%,47.450981%);fill-opacity:1;" d="M 29.964844 59.976562 C 0.609375 42.574219 0.726562 17.109375 0.726562 6.890625 C 9.808594 2.15625 20.824219 0 29.964844 0 Z M 29.964844 59.976562 "/>
<path style=" stroke:none;fill-rule:evenodd;fill:rgb(100%,100%,100%);fill-opacity:1;" d="M 28.933594 40.03125 L 46.628906 16.171875 C 45.328125 15.128906 44.191406 15.867188 43.570312 16.429688 L 43.546875 16.429688 L 28.792969 31.78125 L 23.238281 25.089844 C 20.589844 22.019531 16.980469 24.363281 16.136719 24.984375 Z M 28.933594 40.03125 "/>
</g>
</svg>
