<?xml version="1.0" encoding="UTF-8"?>
<svg xmlns="http://www.w3.org/2000/svg" xmlns:xlink="http://www.w3.org/1999/xlink" width="80px" height="80px" viewBox="0 0 80 80" version="1.1">
<defs>
<linearGradient id="linear0" gradientUnits="userSpaceOnUse" x1="255.503006" y1="-477.43399" x2="255.503006" y2="17.434" gradientTransform="matrix(0.15625,0,0,0.15625,0,75.9375)">
<stop offset="0.32" style="stop-color:rgb(80.392157%,61.568627%,28.627451%);stop-opacity:1;"/>
<stop offset="0.99" style="stop-color:rgb(52.941176%,36.470588%,15.294118%);stop-opacity:1;"/>
</linearGradient>
</defs>
<g id="surface1">
<path style=" stroke:none;fill-rule:nonzero;fill:rgb(100%,100%,100%);fill-opacity:1;" d="M 80 40 C 80 17.910156 62.089844 0 40 0 C 17.910156 0 0 17.910156 0 40 C 0 62.089844 17.910156 80 40 80 C 62.089844 80 80 62.089844 80 40 Z M 80 40 "/>
<path style=" stroke:none;fill-rule:nonzero;fill:url(#linear0);" d="M 78.578125 40 C 78.578125 18.652344 61.269531 1.34375 39.921875 1.34375 C 18.574219 1.34375 1.265625 18.652344 1.265625 40 C 1.265625 61.347656 18.574219 78.65625 39.921875 78.65625 C 61.269531 78.65625 78.578125 61.347656 78.578125 40 Z M 78.578125 40 "/>
<path style=" stroke:none;fill-rule:nonzero;fill:rgb(100%,100%,100%);fill-opacity:1;" d="M 65.03125 37.125 C 64.71875 36.859375 64.234375 36.484375 63.5625 36.03125 L 63.5625 30.90625 C 63.5625 17.84375 52.984375 7.265625 39.921875 7.265625 C 26.859375 7.265625 16.28125 17.84375 16.28125 30.90625 L 16.28125 36.03125 C 15.625 36.484375 15.140625 36.875 14.8125 37.125 C 14.546875 37.34375 14.390625 37.671875 14.390625 38.03125 L 14.390625 44.171875 C 14.390625 44.515625 14.546875 44.84375 14.8125 45.078125 C 15.546875 45.6875 17.21875 46.953125 19.828125 48.265625 L 19.828125 48.859375 C 19.828125 50.46875 20.859375 51.765625 22.140625 51.765625 C 23.421875 51.765625 24.453125 50.453125 24.453125 48.859375 L 24.453125 34.140625 C 24.453125 32.53125 23.421875 31.234375 22.140625 31.234375 C 20.90625 31.234375 19.90625 32.4375 19.828125 33.9375 L 19.828125 30.90625 C 19.828125 19.8125 28.828125 10.8125 39.921875 10.8125 C 51.03125 10.8125 60.015625 19.8125 60.015625 30.90625 L 60.015625 33.9375 C 59.9375 32.421875 58.921875 31.234375 57.703125 31.234375 C 56.421875 31.234375 55.390625 32.546875 55.390625 34.140625 L 55.390625 48.859375 C 55.390625 50.46875 56.421875 51.765625 57.703125 51.765625 C 58.984375 51.765625 60.015625 50.453125 60.015625 48.859375 L 60.015625 48.265625 C 62.625 46.953125 64.296875 45.6875 65.03125 45.078125 C 65.296875 44.859375 65.453125 44.515625 65.453125 44.171875 L 65.453125 38.03125 C 65.4375 37.671875 65.296875 37.34375 65.03125 37.125 "/>
<path style=" stroke:none;fill-rule:nonzero;fill:rgb(100%,100%,100%);fill-opacity:1;" d="M 31.671875 62.703125 C 33.21875 62.703125 34.46875 61.453125 34.46875 59.90625 L 34.46875 28.5625 C 34.46875 27.015625 33.21875 25.765625 31.671875 25.765625 L 28.78125 25.765625 C 27.234375 25.765625 25.984375 27.015625 25.984375 28.5625 L 25.984375 59.90625 C 25.984375 61.453125 27.234375 62.703125 28.78125 62.703125 Z M 27.046875 33.28125 L 33.421875 33.28125 L 33.421875 33.953125 L 27.046875 33.953125 Z M 41.359375 62.703125 C 42.90625 62.703125 44.15625 61.453125 44.15625 59.90625 L 44.15625 28.5625 C 44.15625 27.015625 42.90625 25.765625 41.359375 25.765625 L 38.46875 25.765625 C 36.921875 25.765625 35.671875 27.015625 35.671875 28.5625 L 35.671875 59.90625 C 35.671875 61.453125 36.921875 62.703125 38.46875 62.703125 Z M 36.734375 33.28125 L 43.109375 33.28125 L 43.109375 33.953125 L 36.734375 33.953125 Z M 51.0625 62.703125 C 52.609375 62.703125 53.859375 61.453125 53.859375 59.90625 L 53.859375 28.5625 C 53.859375 27.015625 52.609375 25.765625 51.0625 25.765625 L 48.171875 25.765625 C 46.625 25.765625 45.375 27.015625 45.375 28.5625 L 45.375 59.90625 C 45.375 61.453125 46.625 62.703125 48.171875 62.703125 Z M 46.421875 33.28125 L 52.796875 33.28125 L 52.796875 33.953125 L 46.421875 33.953125 Z M 21.15625 63.671875 L 58.6875 63.671875 C 59.84375 63.671875 60.796875 64.609375 60.796875 65.78125 C 60.796875 66.9375 59.859375 67.890625 58.6875 67.890625 L 21.15625 67.890625 C 20 67.890625 19.046875 66.953125 19.046875 65.78125 C 19.046875 64.609375 19.984375 63.671875 21.15625 63.671875 "/>
</g>
</svg>
