<?xml version="1.0" encoding="UTF-8"?>
<svg xmlns="http://www.w3.org/2000/svg" xmlns:xlink="http://www.w3.org/1999/xlink" width="105px" height="80px" viewBox="0 0 104 80" version="1.1">
<g id="surface1">
<path style=" stroke:none;fill-rule:nonzero;fill:rgb(99.215686%,29.411766%,17.647059%);fill-opacity:1;" d="M 56.855469 16.546875 L 60.492188 16.546875 L 60.492188 26.992188 L 56.855469 26.992188 Z M 66.320312 16.097656 L 69.953125 16.097656 L 69.953125 24.257812 L 66.320312 24.257812 Z M 13.277344 28.035156 C 8.402344 28.035156 3.9375 30.726562 1.621094 35.03125 L 7.792969 35.03125 C 10.535156 32.664062 14.496094 31.972656 17.359375 35.03125 L 23.898438 35.03125 C 21.339844 31.542969 17.519531 28.035156 13.277344 28.035156 "/>
<path style=" stroke:none;fill-rule:nonzero;fill:rgb(99.215686%,29.411766%,17.647059%);fill-opacity:1;" d="M 22.089844 41.316406 C 13.582031 59.1875 -1.324219 43.949219 7.792969 35.011719 L 1.621094 35.011719 C -3.210938 43.480469 3.46875 54.90625 13.277344 54.660156 C 20.871094 54.660156 27.125 43.335938 27.125 41.335938 C 27.125 40.460938 25.90625 37.746094 23.878906 35.011719 L 17.359375 35.011719 C 19.53125 36.992188 21.421875 39.847656 22.089844 41.316406 M 22.3125 40.785156 "/>
<path style=" stroke:none;fill-rule:nonzero;fill:rgb(99.215686%,29.411766%,17.647059%);fill-opacity:1;" d="M 103.988281 16.402344 L 103.988281 63.597656 C 103.988281 72.632812 96.660156 80 87.664062 80 L 80.738281 80 L 80.738281 63.921875 L 47.636719 63.921875 L 47.636719 80 L 40.710938 80 C 31.695312 80 24.386719 72.632812 24.386719 63.597656 L 24.386719 48.742188 L 76.859375 48.742188 L 76.859375 20.382812 L 51.515625 20.382812 L 51.515625 36.335938 L 24.363281 36.335938 L 24.363281 16.425781 C 24.363281 15.792969 24.40625 15.160156 24.464844 14.546875 C 24.546875 13.792969 24.691406 13.058594 24.871094 12.34375 C 24.933594 12.121094 24.996094 11.875 25.074219 11.648438 C 25.097656 11.589844 25.117188 11.527344 25.136719 11.488281 C 25.175781 11.363281 25.21875 11.261719 25.238281 11.140625 C 25.277344 11.039062 25.320312 10.914062 25.359375 10.792969 C 25.402344 10.671875 25.460938 10.546875 25.503906 10.425781 C 25.542969 10.304688 25.605469 10.179688 25.664062 10.058594 C 26.070312 9.101562 26.558594 8.160156 27.148438 7.285156 L 27.167969 7.261719 C 27.308594 7.039062 27.472656 6.835938 27.632812 6.609375 C 27.777344 6.425781 27.898438 6.265625 28.039062 6.082031 C 28.203125 5.894531 28.367188 5.691406 28.527344 5.507812 C 28.691406 5.324219 28.851562 5.140625 29.015625 4.976562 L 29.035156 4.957031 C 29.117188 4.855469 29.21875 4.773438 29.320312 4.671875 C 29.929688 4.082031 30.578125 3.53125 31.269531 3.039062 C 31.453125 2.898438 31.65625 2.773438 31.835938 2.652344 C 32.0625 2.507812 32.285156 2.367188 32.507812 2.246094 C 32.933594 2 33.359375 1.753906 33.828125 1.550781 C 33.96875 1.488281 34.113281 1.40625 34.253906 1.347656 C 34.882812 1.082031 35.511719 0.835938 36.164062 0.652344 C 36.40625 0.570312 36.671875 0.511719 36.914062 0.449219 C 37.035156 0.40625 37.160156 0.386719 37.28125 0.367188 C 38.011719 0.203125 38.742188 0.101562 39.492188 0.0390625 L 39.820312 0.0195312 L 39.980469 0.0195312 C 40.226562 0 40.46875 0 40.734375 0 L 87.703125 0 C 87.945312 0 88.210938 0 88.453125 0.0195312 L 88.617188 0.0195312 L 88.941406 0.0390625 C 89.695312 0.101562 90.425781 0.203125 91.15625 0.367188 C 91.277344 0.386719 91.398438 0.429688 91.519531 0.449219 C 91.785156 0.511719 92.027344 0.570312 92.273438 0.652344 C 92.921875 0.835938 93.550781 1.082031 94.179688 1.347656 C 94.324219 1.40625 94.464844 1.46875 94.609375 1.550781 C 95.054688 1.753906 95.5 2 95.929688 2.246094 C 96.152344 2.386719 96.375 2.507812 96.597656 2.652344 C 96.800781 2.773438 96.984375 2.917969 97.167969 3.039062 C 97.957031 3.609375 98.710938 4.265625 99.398438 4.957031 C 99.5625 5.121094 99.746094 5.304688 99.886719 5.488281 C 100.050781 5.671875 100.210938 5.875 100.375 6.058594 C 100.515625 6.222656 100.640625 6.40625 100.78125 6.589844 C 100.945312 6.816406 101.085938 7.019531 101.25 7.242188 L 101.269531 7.261719 C 101.859375 8.140625 102.34375 9.058594 102.75 10.039062 C 102.792969 10.160156 102.851562 10.28125 102.914062 10.40625 C 102.953125 10.527344 103.015625 10.648438 103.054688 10.773438 C 103.097656 10.875 103.136719 10.996094 103.175781 11.121094 C 103.21875 11.242188 103.257812 11.34375 103.277344 11.464844 C 103.300781 11.527344 103.320312 11.589844 103.339844 11.628906 C 103.402344 11.855469 103.480469 12.097656 103.542969 12.324219 C 103.726562 13.058594 103.867188 13.792969 103.949219 14.527344 C 103.949219 15.160156 103.988281 15.773438 103.988281 16.402344 "/>
<path style=" stroke:none;fill-rule:nonzero;fill:rgb(99.215686%,29.411766%,17.647059%);fill-opacity:1;" d="M 101.207031 7.261719 L 27.125 7.261719 C 30.152344 2.734375 35.25 0 40.671875 0 L 87.640625 0 C 93.105469 0 98.183594 2.734375 101.207031 7.261719 M 103.886719 14.527344 L 24.464844 14.527344 C 24.75 11.914062 25.683594 9.425781 27.125 7.261719 L 101.207031 7.261719 C 102.667969 9.425781 103.582031 11.9375 103.886719 14.527344 M 103.988281 16.402344 L 103.988281 21.789062 L 76.839844 21.789062 L 76.839844 20.382812 L 51.515625 20.382812 L 51.515625 21.789062 L 24.363281 21.789062 L 24.363281 16.402344 C 24.363281 15.773438 24.40625 15.140625 24.464844 14.527344 L 103.886719 14.527344 C 103.949219 15.160156 103.988281 15.773438 103.988281 16.402344 M 24.363281 21.789062 L 51.515625 21.789062 L 51.515625 29.054688 L 24.363281 29.054688 Z M 76.839844 21.789062 L 103.988281 21.789062 L 103.988281 29.054688 L 76.839844 29.054688 Z M 24.363281 29.054688 L 51.515625 29.054688 L 51.515625 36.316406 L 24.363281 36.316406 Z M 76.839844 29.054688 L 103.988281 29.054688 L 103.988281 36.316406 L 76.839844 36.316406 Z M 76.839844 29.054688 "/>
</g>
</svg>
