<?xml version="1.0" encoding="UTF-8"?>
<svg xmlns="http://www.w3.org/2000/svg" xmlns:xlink="http://www.w3.org/1999/xlink" width="80px" height="80px" viewBox="0 0 80 100" version="1.1">
<defs>
<linearGradient id="linear0" gradientUnits="userSpaceOnUse" x1="0" y1="0.2" x2="1" y2="1.2" gradientTransform="matrix(80,0,0,100,0,0)">
<stop offset="0" style="stop-color:rgb(45.490196%,48.235294%,100%);stop-opacity:1;"/>
<stop offset="1" style="stop-color:rgb(14.117647%,92.156863%,36.078431%);stop-opacity:1;"/>
</linearGradient>
</defs>
<g id="surface1">
<path style=" stroke:none;fill-rule:nonzero;fill:url(#linear0);" d="M 50 100 L 0 100 L 0 0 L 50 0 C 54.191406 0 58.09375 0.808594 61.714844 2.429688 C 65.234375 3.960938 68.429688 6.140625 71.144531 8.855469 C 73.90625 11.523438 76.046875 14.667969 77.570312 18.285156 C 79.191406 22 80 25.90625 80 30 C 80.015625 31.535156 79.875 33.066406 79.570312 34.570312 C 79.484375 34.953125 79.390625 35.335938 79.285156 35.714844 C 78.785156 37.691406 78.066406 39.609375 77.144531 41.429688 C 76.203125 43.183594 75.050781 44.8125 73.714844 46.285156 C 72.621094 47.535156 71.375 48.640625 70 49.570312 C 69.8125 49.71875 69.621094 49.859375 69.429688 50 C 71.046875 50.953125 72.476562 52.144531 73.714844 53.570312 C 75.046875 55.09375 76.191406 56.761719 77.144531 58.570312 C 78.078125 60.386719 78.796875 62.304688 79.285156 64.285156 C 79.648438 65.691406 79.886719 67.125 80 68.570312 C 80.015625 69.046875 80.015625 69.523438 80 70 C 80 74.191406 79.191406 78.09375 77.570312 81.714844 C 76.039062 85.234375 73.859375 88.429688 71.144531 91.144531 C 68.476562 93.90625 65.332031 96.09375 61.714844 97.714844 C 58.09375 99.238281 54.191406 100 50 100 Z M 20 20 L 20 40 L 50 40 C 51.113281 40.039062 52.222656 39.894531 53.285156 39.570312 C 53.480469 39.484375 53.671875 39.386719 53.855469 39.285156 C 55.09375 38.808594 56.191406 38.09375 57.144531 37.144531 C 58.054688 36.246094 58.78125 35.175781 59.285156 34 C 59.761719 32.761719 60 31.429688 60 30 C 59.996094 28.878906 59.800781 27.769531 59.429688 26.714844 C 59.386719 26.523438 59.339844 26.332031 59.285156 26.144531 C 58.714844 24.90625 58 23.808594 57.144531 22.855469 C 56.1875 21.984375 55.070312 21.304688 53.855469 20.855469 C 52.730469 20.351562 51.519531 20.058594 50.285156 20 C 50.191406 20 50.09375 20 50 20 Z M 20 60 L 20 80 L 50 80 C 51.121094 79.996094 52.230469 79.800781 53.285156 79.429688 C 53.476562 79.386719 53.667969 79.339844 53.855469 79.285156 C 55.09375 78.714844 56.191406 78 57.144531 77.144531 C 58.050781 76.242188 58.777344 75.175781 59.285156 74 C 59.761719 72.820312 60.003906 71.558594 60 70.285156 C 60 70.191406 60 70.09375 60 70 C 59.996094 68.878906 59.800781 67.769531 59.429688 66.714844 C 59.386719 66.523438 59.339844 66.332031 59.285156 66.144531 C 58.714844 64.90625 58 63.808594 57.144531 62.855469 C 56.199219 61.933594 55.082031 61.203125 53.855469 60.714844 C 52.730469 60.207031 51.519531 59.917969 50.285156 59.855469 C 50.191406 59.855469 50.09375 59.855469 50 59.855469 L 20 59.855469 Z M 20 60 "/>
</g>
</svg>
