<?xml version="1.0" encoding="UTF-8"?>
<svg xmlns="http://www.w3.org/2000/svg" xmlns:xlink="http://www.w3.org/1999/xlink" width="80px" height="80px" viewBox="0 0 80 80" version="1.1">
<g id="surface1">
<path style=" stroke:none;fill-rule:nonzero;fill:rgb(9.019608%,9.019608%,9.019608%);fill-opacity:1;" d="M 80 40 C 80 17.910156 62.089844 0 40 0 C 17.910156 0 0 17.910156 0 40 C 0 62.089844 17.910156 80 40 80 C 62.089844 80 80 62.089844 80 40 Z M 80 40 "/>
<path style=" stroke:none;fill-rule:nonzero;fill:rgb(6.27451%,72.549021%,50.588238%);fill-opacity:1;" d="M 41.140625 16.53125 C 45.640625 18.96875 48.6875 23.71875 48.6875 29.1875 C 48.6875 29.40625 48.6875 29.609375 48.671875 29.828125 C 48.640625 30.640625 49.3125 31.34375 50.125 31.34375 C 58.0625 31.34375 64.5 37.78125 64.5 45.71875 C 64.5 53.65625 58.0625 60.09375 50.125 60.09375 L 23.515625 60.09375 C 21.53125 60.09375 19.921875 58.484375 19.921875 56.5 L 19.921875 28.828125 C 20.046875 23.8125 22.75 19.421875 26.75 16.953125 L 26.75 37.765625 C 26.75 38.125 27.140625 38.34375 27.4375 38.1875 L 27.5 38.15625 L 33.671875 33.640625 C 33.84375 33.515625 34.0625 33.515625 34.234375 33.640625 L 40.40625 38.15625 L 40.46875 38.1875 C 40.765625 38.34375 41.15625 38.125 41.15625 37.765625 L 41.15625 16.53125 Z M 41.140625 16.53125 "/>
<path style=" stroke:none;fill-rule:nonzero;fill:rgb(100%,100%,100%);fill-opacity:1;" d="M 34.375 14.8125 C 35.765625 14.8125 37.109375 15.015625 38.375 15.375 L 38.375 33.046875 L 35.9375 31.28125 L 35.828125 31.203125 C 34.6875 30.4375 33.1875 30.46875 32.078125 31.28125 L 29.65625 33.046875 L 29.65625 15.59375 C 31.140625 15.078125 32.71875 14.8125 34.375 14.8125 "/>
</g>
</svg>
