<?xml version="1.0" encoding="UTF-8"?>
<svg xmlns="http://www.w3.org/2000/svg" xmlns:xlink="http://www.w3.org/1999/xlink" width="px" height="80px" viewBox="0 0 80 80" version="1.1">
<g id="surface1">
<path style=" stroke:none;fill-rule:nonzero;fill:rgb(18.82353%,33.725491%,82.745099%);fill-opacity:1;" d="M 39.992188 0 C 17.90625 0 -0.00390625 17.914062 -0.00390625 39.996094 C -0.00390625 62.082031 17.90625 79.996094 39.992188 79.996094 C 62.074219 79.996094 79.988281 62.082031 79.988281 39.996094 C 79.988281 17.914062 62.09375 0 39.992188 0 M 39.992188 4.320312 C 59.695312 4.320312 75.667969 20.292969 75.667969 39.996094 C 75.667969 59.703125 59.695312 75.675781 39.992188 75.675781 C 20.285156 75.675781 4.3125 59.703125 4.3125 39.996094 C 4.3125 20.292969 20.285156 4.320312 39.992188 4.320312 "/>
<path style=" stroke:none;fill-rule:nonzero;fill:rgb(18.82353%,33.725491%,82.745099%);fill-opacity:1;" d="M 11.632812 24.265625 C 11.773438 24.246094 12.453125 24.210938 12.453125 24.210938 L 22.714844 24.210938 C 22.714844 24.210938 23.988281 24.339844 24.191406 24.421875 C 25.199219 24.84375 25.792969 25.183594 26.621094 25.855469 C 26.910156 26.089844 28.277344 27.46875 28.277344 27.46875 L 49.050781 50.539062 C 49.050781 50.539062 49.699219 51.203125 49.84375 51.320312 C 50.328125 51.710938 50.839844 52.109375 51.445312 52.253906 C 51.648438 52.304688 52.539062 52.335938 52.539062 52.335938 L 63.523438 52.335938 L 59.976562 48.699219 C 59.976562 48.699219 59.449219 48.039062 59.394531 47.921875 C 59.214844 47.550781 59.15625 46.882812 59.339844 46.507812 C 59.480469 46.230469 59.925781 45.757812 60.238281 45.714844 C 60.652344 45.65625 61.089844 45.558594 61.453125 45.773438 C 61.582031 45.855469 62.109375 46.304688 62.109375 46.304688 L 69.144531 53.339844 C 69.144531 53.339844 69.6875 53.777344 69.789062 53.984375 C 69.855469 54.117188 69.902344 54.3125 69.847656 54.457031 C 69.777344 54.625 69.273438 55.109375 69.273438 55.109375 L 68.898438 55.503906 L 62.589844 62.085938 C 62.589844 62.085938 62.007812 62.648438 61.867188 62.757812 C 61.5625 63 61.070312 63.117188 60.675781 63.121094 C 60.261719 63.121094 59.621094 62.675781 59.367188 62.351562 C 59.125 62.046875 58.925781 61.460938 59.054688 61.09375 C 59.117188 60.914062 59.570312 60.347656 59.570312 60.347656 L 64.132812 55.808594 L 52.285156 55.796875 L 51.605469 55.832031 C 51.605469 55.832031 49.933594 55.566406 49.488281 55.414062 C 48.835938 55.1875 48.105469 54.683594 47.582031 54.238281 C 47.429688 54.109375 46.863281 53.46875 46.863281 53.46875 L 26.085938 29.640625 C 26.085938 29.640625 25.28125 28.816406 25.105469 28.664062 C 24.554688 28.195312 24.304688 28.011719 23.597656 27.726562 C 23.417969 27.652344 22.207031 27.503906 22.207031 27.503906 L 12.503906 27.414062 C 12.503906 27.414062 11.609375 27.355469 11.453125 27.328125 C 11.019531 27.246094 10.589844 26.898438 10.328125 26.59375 C 10.007812 26.226562 10.089844 25.363281 10.351562 24.945312 C 10.578125 24.589844 11.214844 24.335938 11.632812 24.277344 Z M 11.632812 24.265625 "/>
<path style=" stroke:none;fill-rule:nonzero;fill:rgb(18.82353%,33.725491%,82.745099%);fill-opacity:1;" d="M 32.976562 42.464844 L 26.089844 50.367188 C 26.089844 50.367188 25.285156 51.195312 25.109375 51.34375 C 24.558594 51.8125 24.308594 51.996094 23.601562 52.285156 C 23.421875 52.355469 22.210938 52.507812 22.210938 52.507812 L 12.511719 52.59375 C 12.511719 52.59375 11.613281 52.652344 11.460938 52.679688 C 11.023438 52.761719 10.59375 53.109375 10.332031 53.417969 C 10.011719 53.785156 10.09375 54.644531 10.355469 55.0625 C 10.582031 55.421875 11.21875 55.671875 11.640625 55.730469 C 11.777344 55.75 12.457031 55.785156 12.457031 55.785156 L 22.71875 55.785156 C 22.71875 55.785156 23.992188 55.652344 24.195312 55.570312 C 25.203125 55.148438 25.796875 54.808594 26.625 54.136719 C 26.917969 53.90625 28.28125 52.527344 28.28125 52.527344 L 35.265625 44.765625 Z M 69.851562 25.542969 C 69.785156 25.371094 69.28125 24.886719 69.28125 24.886719 L 68.902344 24.496094 L 62.59375 17.914062 C 62.59375 17.914062 62.011719 17.351562 61.875 17.238281 C 61.566406 16.996094 61.074219 16.882812 60.683594 16.875 C 60.265625 16.875 59.628906 17.320312 59.371094 17.648438 C 59.128906 17.953125 58.929688 18.539062 59.0625 18.90625 C 59.125 19.085938 59.574219 19.652344 59.574219 19.652344 L 64.140625 24.191406 L 52.289062 24.199219 L 51.609375 24.167969 C 51.609375 24.167969 49.941406 24.433594 49.496094 24.582031 C 48.839844 24.8125 48.109375 25.316406 47.585938 25.761719 C 47.433594 25.890625 46.867188 26.53125 46.867188 26.53125 L 39.269531 35.25 L 41.675781 37.652344 L 49.070312 29.449219 C 49.070312 29.449219 49.71875 28.785156 49.863281 28.667969 C 50.347656 28.277344 50.859375 27.878906 51.464844 27.734375 C 51.667969 27.6875 52.558594 27.652344 52.558594 27.652344 L 63.542969 27.652344 L 59.996094 31.289062 C 59.996094 31.289062 59.46875 31.953125 59.414062 32.066406 C 59.234375 32.441406 59.175781 33.109375 59.359375 33.480469 C 59.5 33.757812 59.945312 34.230469 60.257812 34.273438 C 60.671875 34.332031 61.109375 34.429688 61.472656 34.21875 C 61.601562 34.132812 62.128906 33.683594 62.128906 33.683594 L 69.164062 26.652344 C 69.164062 26.652344 69.707031 26.210938 69.808594 26.007812 C 69.875 25.871094 69.921875 25.675781 69.867188 25.53125 Z M 69.851562 25.542969 "/>
</g>
</svg>
