<?xml version="1.0" encoding="UTF-8"?>
<svg xmlns="http://www.w3.org/2000/svg" xmlns:xlink="http://www.w3.org/1999/xlink" width="80px" height="80px" viewBox="0 0 80 80" version="1.1">
<g id="surface1">
<path style=" stroke:none;fill-rule:nonzero;fill:rgb(52.941179%,30.980393%,73.725492%);fill-opacity:1;" d="M 33.25 3.125 C 37.421875 0.71875 42.5625 0.71875 46.734375 3.125 L 68.546875 15.71875 C 72.71875 18.125 75.296875 22.578125 75.296875 27.40625 L 75.296875 52.59375 C 75.296875 57.40625 72.71875 61.859375 68.546875 64.28125 L 46.75 76.875 C 42.578125 79.28125 37.4375 79.28125 33.265625 76.875 L 11.4375 64.28125 C 7.261719 61.871094 4.6875 57.414062 4.6875 52.59375 L 4.6875 27.40625 C 4.6875 22.59375 7.265625 18.140625 11.4375 15.71875 Z M 33.25 3.125 "/>
<path style=" stroke:none;fill-rule:nonzero;fill:rgb(35.294119%,20.784314%,55.686277%);fill-opacity:1;" d="M 40 80 C 37.4375 80 34.875 79.34375 32.59375 78.015625 L 10.78125 65.421875 C 6.203125 62.78125 3.375 57.859375 3.375 52.59375 L 3.375 27.40625 C 3.375 22.125 6.21875 17.203125 10.78125 14.578125 L 32.59375 1.984375 L 33.265625 3.140625 L 32.59375 1.984375 C 37.171875 -0.65625 42.84375 -0.65625 47.40625 1.984375 L 69.21875 14.578125 C 73.796875 17.21875 76.625 22.140625 76.625 27.40625 L 76.625 52.59375 C 76.625 57.875 73.78125 62.796875 69.21875 65.421875 L 47.40625 78.015625 C 45.125 79.34375 42.5625 80 40 80 M 40 2.65625 C 37.890625 2.65625 35.796875 3.203125 33.921875 4.28125 L 12.109375 16.875 C 8.359375 19.046875 6.03125 23.078125 6.03125 27.40625 L 6.03125 52.59375 C 6.03125 56.921875 8.359375 60.953125 12.109375 63.125 L 33.921875 75.71875 C 37.671875 77.890625 42.328125 77.890625 46.078125 75.71875 L 67.890625 63.125 C 71.640625 60.953125 73.96875 56.921875 73.96875 52.59375 L 73.96875 27.40625 C 73.96875 23.078125 71.640625 19.046875 67.890625 16.875 L 46.078125 4.28125 C 44.203125 3.203125 42.109375 2.65625 40 2.65625 "/>
<path style=" stroke:none;fill-rule:nonzero;fill:rgb(100%,100%,100%);fill-opacity:1;" d="M 42.671875 24.03125 C 43.546875 24.03125 44.265625 24.75 44.265625 25.625 L 44.265625 28.15625 C 44.265625 28.8125 44.671875 29.40625 45.265625 29.6875 C 45.640625 29.875 46.015625 30.09375 46.375 30.3125 C 46.921875 30.65625 47.625 30.71875 48.1875 30.390625 L 50.375 29.125 C 51.140625 28.6875 52.109375 28.953125 52.5625 29.703125 L 55.21875 34.3125 C 55.65625 35.078125 55.390625 36.046875 54.640625 36.5 L 52.625 37.671875 C 52.046875 38 51.75 38.671875 51.796875 39.328125 C 51.8125 39.625 51.828125 39.9375 51.828125 40.234375 C 51.828125 40.421875 51.828125 40.59375 51.8125 40.78125 C 51.78125 41.421875 52.078125 42.0625 52.640625 42.390625 L 54.640625 43.546875 C 55.40625 43.984375 55.671875 44.96875 55.21875 45.734375 L 52.5625 50.34375 C 52.125 51.109375 51.140625 51.375 50.375 50.921875 L 48.546875 49.859375 C 47.96875 49.53125 47.25 49.59375 46.6875 49.96875 C 46.234375 50.28125 45.765625 50.5625 45.28125 50.796875 C 44.6875 51.09375 44.28125 51.671875 44.28125 52.328125 L 44.28125 54.421875 C 44.28125 55.296875 43.5625 56.015625 42.6875 56.015625 L 37.359375 56.015625 C 36.484375 56.015625 35.765625 55.296875 35.765625 54.421875 L 35.765625 52.328125 C 35.765625 51.671875 35.359375 51.078125 34.765625 50.796875 C 34.28125 50.546875 33.796875 50.28125 33.359375 49.96875 C 32.8125 49.59375 32.078125 49.515625 31.5 49.859375 L 29.671875 50.921875 C 28.90625 51.359375 27.9375 51.09375 27.484375 50.34375 L 24.828125 45.734375 C 24.390625 44.96875 24.65625 44 25.40625 43.546875 L 27.40625 42.390625 C 27.96875 42.0625 28.265625 41.4375 28.234375 40.78125 C 28.21875 40.59375 28.21875 40.421875 28.21875 40.234375 C 28.21875 39.921875 28.234375 39.625 28.25 39.328125 C 28.296875 38.65625 28 38 27.421875 37.671875 L 25.40625 36.5 C 24.640625 36.0625 24.375 35.078125 24.828125 34.3125 L 27.484375 29.703125 C 27.921875 28.9375 28.90625 28.671875 29.671875 29.125 L 31.859375 30.390625 C 32.421875 30.71875 33.125 30.65625 33.671875 30.3125 C 34.03125 30.078125 34.390625 29.875 34.78125 29.6875 C 35.375 29.390625 35.78125 28.8125 35.78125 28.15625 L 35.78125 25.625 C 35.78125 24.75 36.5 24.03125 37.375 24.03125 Z M 40.015625 34.671875 C 36.921875 34.671875 34.421875 37.171875 34.421875 40.265625 C 34.421875 43.359375 36.921875 45.859375 40.015625 45.859375 C 43.109375 45.859375 45.609375 43.359375 45.609375 40.265625 C 45.609375 37.171875 43.109375 34.671875 40.015625 34.671875 M 52.8125 57.625 C 53.015625 57.828125 53.015625 58.171875 52.8125 58.375 L 52.71875 58.46875 C 45.671875 65.421875 34.328125 65.421875 27.28125 58.46875 L 27.1875 58.375 C 26.984375 58.171875 26.984375 57.828125 27.1875 57.625 L 28.8125 56 C 29.015625 55.796875 29.359375 55.796875 29.5625 56 L 29.578125 56.015625 C 35.328125 61.765625 44.65625 61.765625 50.40625 56.015625 L 50.421875 56 C 50.625 55.796875 50.96875 55.796875 51.171875 56 Z M 24 28.828125 C 24.203125 29.03125 24.203125 29.375 24 29.578125 L 23.984375 29.59375 C 18.234375 35.34375 18.234375 44.671875 23.984375 50.421875 L 24 50.4375 C 24.203125 50.640625 24.203125 50.984375 24 51.1875 L 22.375 52.8125 C 22.171875 53.015625 21.828125 53.015625 21.625 52.8125 L 21.609375 52.796875 C 14.5625 45.75 14.546875 34.359375 21.53125 27.28125 L 21.625 27.1875 C 21.828125 26.984375 22.171875 26.984375 22.375 27.1875 Z M 58.390625 27.203125 L 58.46875 27.28125 C 65.421875 34.328125 65.421875 45.671875 58.46875 52.71875 L 58.375 52.8125 C 58.171875 53.015625 57.828125 53.015625 57.625 52.8125 L 56 51.1875 C 55.796875 50.984375 55.796875 50.640625 56 50.4375 L 56.015625 50.421875 C 61.765625 44.671875 61.765625 35.34375 56.015625 29.59375 L 56 29.578125 C 55.796875 29.375 55.796875 29.03125 56 28.828125 L 57.625 27.203125 C 57.84375 26.984375 58.171875 26.984375 58.390625 27.203125 M 27.28125 21.53125 C 34.359375 14.546875 45.765625 14.578125 52.796875 21.609375 L 52.8125 21.625 C 53.015625 21.828125 53.015625 22.171875 52.8125 22.375 L 51.1875 24 C 50.984375 24.203125 50.640625 24.203125 50.4375 24 L 50.421875 23.984375 C 44.671875 18.234375 35.34375 18.234375 29.59375 23.984375 L 29.578125 24 C 29.375 24.203125 29.03125 24.203125 28.828125 24 L 27.1875 22.375 C 26.984375 22.171875 26.984375 21.828125 27.1875 21.625 Z M 25.296875 60.328125 C 33.4375 68.46875 46.640625 68.46875 54.796875 60.328125 C 55 60.125 55.3125 60.125 55.515625 60.328125 L 57.171875 61.984375 C 57.375 62.1875 57.375 62.5 57.171875 62.703125 L 57.0625 62.8125 C 47.625 72.125 32.453125 72.125 23.015625 62.8125 L 22.890625 62.6875 C 22.6875 62.484375 22.6875 62.140625 22.890625 61.9375 L 24.515625 60.3125 C 24.71875 60.109375 25.0625 60.109375 25.265625 60.3125 Z M 62.703125 22.90625 L 62.8125 23.015625 C 72.125 32.453125 72.125 47.625 62.8125 57.0625 L 62.703125 57.171875 C 62.5 57.375 62.1875 57.375 61.984375 57.171875 L 60.328125 55.515625 C 60.125 55.3125 60.125 55 60.328125 54.796875 C 68.46875 46.65625 68.46875 33.453125 60.328125 25.296875 L 60.3125 25.28125 C 60.109375 25.078125 60.109375 24.734375 60.3125 24.53125 L 61.9375 22.90625 C 62.140625 22.703125 62.484375 22.703125 62.6875 22.90625 Z M 19.75 24.5625 C 19.953125 24.765625 19.953125 25.078125 19.75 25.28125 C 11.609375 33.421875 11.609375 46.625 19.75 54.78125 C 19.921875 54.953125 19.921875 55.25 19.75 55.421875 L 18.015625 57.15625 C 17.84375 57.328125 17.546875 57.328125 17.375 57.15625 C 7.953125 47.734375 7.90625 32.46875 17.265625 23 L 17.375 22.890625 C 17.578125 22.6875 17.890625 22.6875 18.09375 22.890625 Z M 23.015625 17.25 C 32.484375 7.90625 47.75 7.9375 57.171875 17.359375 C 57.34375 17.53125 57.34375 17.828125 57.171875 18 L 55.4375 19.734375 C 55.265625 19.90625 54.96875 19.90625 54.796875 19.734375 C 46.65625 11.59375 33.453125 11.59375 25.296875 19.734375 C 25.09375 19.9375 24.78125 19.9375 24.578125 19.734375 L 22.921875 18.078125 C 22.71875 17.875 22.71875 17.5625 22.921875 17.359375 Z M 23.015625 17.25 "/>
</g>
</svg>
