<?xml version="1.0" encoding="UTF-8"?>
<svg xmlns="http://www.w3.org/2000/svg" xmlns:xlink="http://www.w3.org/1999/xlink" width="80px" height="80px" viewBox="0 0 80 57" version="1.1">
<g id="surface1">
<path style=" stroke:none;fill-rule:nonzero;fill:rgb(13.725491%,58.823532%,92.941177%);fill-opacity:1;" d="M 78.359375 21.757812 C 76.5625 20.527344 72.421875 20.066406 69.203125 20.679688 C 68.828125 17.601562 67.09375 14.902344 64.09375 12.515625 L 62.375 11.285156 L 61.171875 13.054688 C 59.671875 15.367188 58.921875 18.601562 59.140625 21.683594 C 59.21875 22.761719 59.59375 24.6875 60.71875 26.382812 C 59.671875 26.996094 57.484375 27.769531 54.640625 27.769531 L 0.371094 27.769531 L 0.214844 28.382812 C -0.316406 31.464844 -0.316406 41.09375 5.839844 48.488281 C 10.496094 54.113281 17.402344 56.964844 26.480469 56.964844 C 46.152344 56.964844 60.71875 47.640625 67.546875 30.773438 C 70.25 30.847656 76.03125 30.773438 78.953125 24.996094 C 79.03125 24.839844 79.171875 24.53125 79.703125 23.378906 L 80 22.761719 Z M 43.761719 0.0351562 L 35.511719 0.0351562 L 35.511719 7.738281 L 43.761719 7.738281 Z M 43.761719 9.28125 L 35.511719 9.28125 L 35.511719 16.984375 L 43.761719 16.984375 Z M 33.996094 9.28125 L 25.746094 9.28125 L 25.746094 16.984375 L 33.996094 16.984375 Z M 24.246094 9.28125 L 15.996094 9.28125 L 15.996094 16.984375 L 24.246094 16.984375 Z M 14.480469 18.523438 L 6.230469 18.523438 L 6.230469 26.226562 L 14.480469 26.226562 Z M 24.246094 18.523438 L 15.996094 18.523438 L 15.996094 26.226562 L 24.246094 26.226562 Z M 33.996094 18.523438 L 25.746094 18.523438 L 25.746094 26.226562 L 33.996094 26.226562 Z M 43.761719 18.523438 L 35.511719 18.523438 L 35.511719 26.226562 L 43.761719 26.226562 Z M 53.515625 18.523438 L 45.261719 18.523438 L 45.261719 26.226562 L 53.515625 26.226562 Z M 53.515625 18.523438 "/>
</g>
</svg>
