<?xml version="1.0" encoding="UTF-8"?>
<svg xmlns="http://www.w3.org/2000/svg" xmlns:xlink="http://www.w3.org/1999/xlink" width="px" height="80px" viewBox="0 0 132 80" version="1.1">
<g id="surface1">
<path style=" stroke:none;fill-rule:nonzero;fill:rgb(61.56863%,77.64706%,98.431373%);fill-opacity:1;" d="M 131.953125 51.460938 C 131.699219 35.84375 120.488281 23.464844 107.085938 24.023438 C 105.121094 24.109375 103.273438 22.863281 102.328125 20.855469 C 96.515625 8.417969 85.203125 0 72.203125 0 C 58.863281 0 47.308594 8.875 41.632812 21.808594 C 39.972656 25.578125 36.675781 25.078125 35.277344 25.078125 C 24.933594 25.078125 16.164062 32.835938 12.992188 43.628906 C 12.464844 45.417969 11.203125 46.769531 9.667969 47.398438 C 3.878906 49.773438 -0.195312 56.300781 0.0546875 63.898438 C 0.355469 72.960938 6.976562 80 14.753906 80 L 107.464844 80 C 120.929688 80 132.21875 67.152344 131.953125 51.460938 "/>
<path style=" stroke:none;fill-rule:nonzero;fill:rgb(50.196081%,70.588237%,98.431373%);fill-opacity:1;" d="M 30.507812 63.898438 C 30.257812 56.300781 34.347656 49.773438 40.109375 47.414062 C 41.648438 46.785156 42.90625 45.433594 43.433594 43.644531 C 46.605469 32.851562 55.390625 25.09375 65.71875 25.09375 C 67.128906 25.09375 70.425781 25.59375 72.074219 21.824219 C 75.421875 14.183594 80.820312 7.980469 87.417969 4.152344 C 82.824219 1.496094 77.664062 0 72.1875 0 C 58.847656 0 47.296875 8.875 41.621094 21.808594 C 39.960938 25.578125 36.664062 25.078125 35.265625 25.078125 C 24.921875 25.078125 16.148438 32.835938 12.980469 43.628906 C 12.449219 45.417969 11.191406 46.769531 9.65625 47.398438 C 3.878906 49.773438 -0.195312 56.300781 0.0546875 63.898438 C 0.355469 72.960938 6.976562 80 14.753906 80 L 45.207031 80 C 37.429688 80 30.8125 72.960938 30.507812 63.898438 "/>
<path style=" stroke:none;fill-rule:nonzero;fill:rgb(30.19608%,30.19608%,30.19608%);fill-opacity:1;" d="M 89.804688 30.566406 L 87.390625 28.507812 C 86.644531 27.875 85.550781 27.90625 84.84375 28.578125 L 83.511719 29.835938 C 82.382812 29.289062 81.1875 28.902344 79.953125 28.679688 L 79.578125 26.828125 C 79.386719 25.867188 78.503906 25.203125 77.535156 25.285156 L 74.382812 25.554688 C 73.417969 25.640625 72.65625 26.433594 72.628906 27.414062 L 72.566406 29.300781 C 71.355469 29.742188 70.210938 30.34375 69.171875 31.101562 L 67.574219 30.035156 C 66.761719 29.496094 65.679688 29.648438 65.050781 30.394531 L 63.011719 32.84375 C 62.382812 33.59375 62.410156 34.695312 63.078125 35.410156 L 64.476562 36.90625 C 63.992188 38.007812 63.648438 39.15625 63.449219 40.335938 L 61.457031 40.75 C 60.503906 40.941406 59.847656 41.832031 59.925781 42.804688 L 60.195312 45.980469 C 60.28125 46.957031 61.066406 47.722656 62.039062 47.75 L 64.195312 47.820312 C 64.582031 48.851562 65.101562 49.832031 65.71875 50.753906 L 64.515625 52.585938 C 63.980469 53.402344 64.132812 54.492188 64.875 55.128906 L 67.292969 57.183594 C 68.035156 57.816406 69.128906 57.785156 69.835938 57.117188 L 71.417969 55.625 C 72.453125 56.113281 73.542969 56.472656 74.660156 56.691406 L 75.097656 58.871094 C 75.289062 59.828125 76.175781 60.492188 77.140625 60.414062 L 80.292969 60.140625 C 81.257812 60.054688 82.019531 59.261719 82.050781 58.28125 L 82.117188 56.148438 C 83.265625 55.738281 84.355469 55.183594 85.359375 54.496094 L 87.101562 55.65625 C 87.914062 56.195312 88.996094 56.039062 89.625 55.292969 L 91.667969 52.859375 C 92.296875 52.109375 92.265625 51.007812 91.597656 50.292969 L 90.195312 48.796875 C 90.707031 47.699219 91.085938 46.539062 91.300781 45.351562 L 93.214844 44.960938 C 94.167969 44.765625 94.828125 43.875 94.75 42.902344 L 94.480469 39.726562 C 94.394531 38.753906 93.605469 37.988281 92.632812 37.957031 L 90.707031 37.894531 C 90.3125 36.769531 89.769531 35.703125 89.105469 34.710938 L 90.152344 33.121094 C 90.703125 32.296875 90.550781 31.199219 89.804688 30.566406 M 77.929688 48.921875 C 74.527344 49.214844 71.519531 46.65625 71.238281 43.226562 C 70.945312 39.796875 73.484375 36.769531 76.890625 36.484375 C 80.292969 36.191406 83.300781 38.75 83.582031 42.179688 C 83.871094 45.609375 81.335938 48.632812 77.929688 48.921875 "/>
<path style=" stroke:none;fill-rule:nonzero;fill:rgb(30.19608%,30.19608%,30.19608%);fill-opacity:1;" d="M 38.996094 57.460938 C 38.027344 57.5625 37.285156 58.382812 37.277344 59.363281 L 37.253906 61.320312 C 37.238281 62.300781 37.957031 63.132812 38.921875 63.257812 L 40.351562 63.441406 C 40.585938 64.3125 40.925781 65.152344 41.363281 65.9375 L 40.441406 67.078125 C 39.828125 67.84375 39.871094 68.941406 40.554688 69.644531 L 41.914062 71.042969 C 42.59375 71.746094 43.683594 71.824219 44.457031 71.222656 L 45.601562 70.335938 C 46.40625 70.816406 47.257812 71.191406 48.148438 71.457031 L 48.300781 72.9375 C 48.402344 73.914062 49.214844 74.664062 50.1875 74.671875 L 52.128906 74.691406 C 53.101562 74.707031 53.929688 73.984375 54.054688 73.011719 L 54.230469 71.601562 C 55.195312 71.367188 56.117188 71 56.988281 70.519531 L 58.0625 71.390625 C 58.824219 72.011719 59.910156 71.964844 60.609375 71.273438 L 62 69.910156 C 62.695312 69.222656 62.773438 68.125 62.175781 67.34375 L 61.355469 66.269531 C 61.859375 65.417969 62.253906 64.515625 62.519531 63.5625 L 63.792969 63.429688 C 64.757812 63.328125 65.503906 62.511719 65.511719 61.53125 L 65.535156 59.574219 C 65.550781 58.59375 64.832031 57.761719 63.863281 57.636719 L 62.621094 57.472656 C 62.386719 56.53125 62.03125 55.621094 61.574219 54.769531 L 62.347656 53.808594 C 62.960938 53.042969 62.917969 51.949219 62.230469 51.246094 L 60.875 49.84375 C 60.195312 49.140625 59.097656 49.066406 58.328125 49.667969 L 57.402344 50.382812 C 56.527344 49.851562 55.59375 49.441406 54.609375 49.164062 L 54.488281 47.953125 C 54.386719 46.980469 53.574219 46.230469 52.601562 46.222656 L 50.660156 46.199219 C 49.6875 46.183594 48.859375 46.910156 48.734375 47.882812 L 48.582031 49.085938 C 47.570312 49.351562 46.597656 49.75 45.691406 50.273438 L 44.730469 49.488281 C 43.972656 48.867188 42.886719 48.917969 42.183594 49.605469 L 40.789062 50.976562 C 40.089844 51.664062 40.015625 52.765625 40.613281 53.542969 L 41.433594 54.609375 C 40.957031 55.460938 40.582031 56.363281 40.335938 57.316406 C 40.335938 57.328125 38.996094 57.460938 38.996094 57.460938 M 51.515625 55.253906 C 54.296875 55.285156 56.527344 57.59375 56.5 60.402344 C 56.46875 63.203125 54.175781 65.453125 51.390625 65.421875 C 48.609375 65.394531 46.375 63.085938 46.40625 60.277344 C 46.441406 57.46875 48.730469 55.226562 51.515625 55.253906 "/>
</g>
</svg>
