<?xml version="1.0" encoding="UTF-8"?>
<svg xmlns="http://www.w3.org/2000/svg" xmlns:xlink="http://www.w3.org/1999/xlink" width="px" height="80px" viewBox="0 0 80 80" version="1.1">
<defs>
<linearGradient id="linear0" gradientUnits="userSpaceOnUse" x1="256" y1="359.963989" x2="256" y2="4.738" gradientTransform="matrix(0.15625,0,0,-0.15625,0,80.15625)">
<stop offset="0" style="stop-color:rgb(94.117647%,35.294118%,15.686275%);stop-opacity:1;"/>
<stop offset="1" style="stop-color:rgb(98.431373%,79.215686%,3.921569%);stop-opacity:1;"/>
</linearGradient>
</defs>
<g id="surface1">
<path style=" stroke:none;fill-rule:nonzero;fill:url(#linear0);" d="M 76.6875 35.3125 C 76.5625 33.96875 76.328125 32.421875 75.890625 30.703125 C 75.453125 29 74.78125 27.140625 73.8125 25.1875 C 72.84375 23.25 71.59375 21.25 69.953125 19.28125 C 69.3125 18.515625 68.609375 17.765625 67.859375 17.03125 C 68.984375 12.5625 66.5 8.671875 66.5 8.671875 C 62.203125 8.40625 59.46875 10.015625 58.453125 10.75 C 58.28125 10.6875 58.125 10.59375 57.953125 10.53125 C 57.21875 10.25 56.46875 9.953125 55.6875 9.71875 C 54.921875 9.46875 54.125 9.25 53.3125 9.0625 C 52.5 8.859375 51.6875 8.703125 50.84375 8.578125 C 50.6875 8.5625 50.5625 8.53125 50.40625 8.515625 C 48.53125 2.515625 43.140625 0 43.140625 0 C 37.125 3.8125 36 9.140625 36 9.140625 C 36 9.140625 35.984375 9.25 35.9375 9.453125 C 35.609375 9.546875 35.28125 9.65625 34.953125 9.734375 C 34.484375 9.859375 34.03125 10.046875 33.59375 10.21875 C 33.125 10.390625 32.6875 10.578125 32.234375 10.765625 C 31.328125 11.15625 30.421875 11.609375 29.546875 12.09375 C 28.6875 12.578125 27.84375 13.109375 27.03125 13.65625 L 26.8125 13.5625 C 18.46875 10.40625 11.078125 14.21875 11.078125 14.21875 C 10.390625 23.078125 14.40625 28.65625 15.203125 29.671875 C 15 30.21875 14.828125 30.78125 14.65625 31.328125 C 14.046875 33.328125 13.578125 35.390625 13.296875 37.515625 C 13.25 37.828125 13.203125 38.125 13.1875 38.4375 C 5.46875 42.25 3.203125 50.03125 3.203125 50.03125 C 9.609375 57.421875 17.109375 57.875 17.109375 57.875 L 17.125 57.859375 C 18.078125 59.5625 19.171875 61.171875 20.40625 62.6875 C 20.9375 63.328125 21.46875 63.921875 22.03125 64.515625 C 19.6875 71.21875 22.359375 76.765625 22.359375 76.765625 C 29.5 77.03125 34.1875 73.640625 35.1875 72.859375 C 35.890625 73.109375 36.625 73.328125 37.34375 73.5 C 39.546875 74.078125 41.796875 74.40625 44.046875 74.484375 C 44.59375 74.5 45.171875 74.53125 45.71875 74.5 L 46.515625 74.5 L 46.875 74.484375 L 46.875 74.5 C 50.25 79.296875 56.15625 79.984375 56.15625 79.984375 C 60.359375 75.546875 60.609375 71.140625 60.609375 70.203125 L 60.609375 69.8125 C 61.484375 69.203125 62.328125 68.53125 63.125 67.8125 C 64.796875 66.296875 66.28125 64.546875 67.515625 62.671875 C 67.625 62.5 67.734375 62.3125 67.84375 62.140625 C 72.609375 62.40625 75.96875 59.1875 75.96875 59.1875 C 75.171875 54.234375 72.359375 51.796875 71.765625 51.34375 C 71.765625 51.34375 71.75 51.328125 71.703125 51.296875 C 71.65625 51.28125 71.65625 51.25 71.65625 51.25 C 71.640625 51.234375 71.59375 51.203125 71.546875 51.1875 C 71.5625 50.875 71.59375 50.59375 71.609375 50.28125 C 71.65625 49.75 71.65625 49.203125 71.65625 48.671875 L 71.65625 47.84375 L 71.640625 47.515625 L 71.625 47.078125 C 71.625 46.921875 71.609375 46.796875 71.578125 46.65625 C 71.546875 46.515625 71.5625 46.375 71.53125 46.234375 L 71.484375 45.8125 L 71.421875 45.390625 C 71.328125 44.84375 71.25 44.3125 71.109375 43.765625 C 70.609375 41.625 69.765625 39.59375 68.6875 37.765625 C 67.578125 35.9375 66.21875 34.328125 64.65625 32.96875 C 63.109375 31.609375 61.375 30.5 59.5625 29.6875 C 57.734375 28.875 55.84375 28.34375 53.9375 28.09375 C 52.984375 27.96875 52.046875 27.921875 51.09375 27.9375 L 50.375 27.9375 L 50.015625 27.953125 C 49.890625 27.953125 49.75 27.96875 49.640625 27.96875 C 49.15625 28.015625 48.671875 28.078125 48.203125 28.171875 C 46.3125 28.53125 44.515625 29.203125 42.953125 30.15625 C 41.390625 31.109375 40.015625 32.265625 38.921875 33.59375 C 37.8125 34.921875 36.953125 36.390625 36.359375 37.90625 C 35.765625 39.421875 35.4375 41.015625 35.34375 42.53125 C 35.328125 42.90625 35.328125 43.296875 35.328125 43.671875 L 35.328125 43.953125 L 35.34375 44.265625 C 35.359375 44.4375 35.359375 44.640625 35.390625 44.8125 C 35.453125 45.578125 35.609375 46.328125 35.8125 47.03125 C 36.234375 48.46875 36.890625 49.765625 37.703125 50.859375 C 38.515625 51.96875 39.515625 52.859375 40.546875 53.59375 C 41.578125 54.296875 42.703125 54.8125 43.8125 55.140625 C 44.921875 55.46875 46.015625 55.609375 47.046875 55.609375 L 47.625 55.609375 C 47.703125 55.609375 47.75 55.609375 47.828125 55.59375 C 47.9375 55.59375 48.046875 55.578125 48.15625 55.578125 C 48.171875 55.578125 48.21875 55.578125 48.25 55.5625 L 48.359375 55.546875 C 48.421875 55.546875 48.484375 55.53125 48.5625 55.53125 C 48.6875 55.515625 48.8125 55.484375 48.9375 55.46875 C 49.0625 55.453125 49.1875 55.421875 49.296875 55.375 C 49.546875 55.328125 49.765625 55.25 49.984375 55.171875 C 50.421875 55.015625 50.859375 54.84375 51.234375 54.640625 C 51.625 54.4375 51.984375 54.203125 52.34375 53.984375 C 52.4375 53.921875 52.546875 53.859375 52.625 53.765625 C 52.984375 53.484375 53.046875 52.953125 52.75 52.59375 C 52.5 52.28125 52.0625 52.203125 51.71875 52.390625 C 51.625 52.4375 51.546875 52.484375 51.453125 52.515625 C 51.140625 52.671875 50.84375 52.796875 50.5 52.90625 C 50.171875 53.015625 49.8125 53.109375 49.46875 53.171875 C 49.296875 53.1875 49.109375 53.21875 48.921875 53.234375 C 48.828125 53.234375 48.75 53.25 48.640625 53.25 L 48.109375 53.25 C 48 53.25 47.890625 53.25 47.78125 53.234375 L 47.65625 53.234375 C 47.609375 53.234375 47.546875 53.234375 47.5 53.21875 C 47.390625 53.203125 47.296875 53.203125 47.1875 53.171875 C 46.375 53.0625 45.5625 52.8125 44.78125 52.46875 C 43.984375 52.109375 43.234375 51.625 42.5625 51.015625 C 41.890625 50.40625 41.28125 49.671875 40.828125 48.828125 C 40.359375 47.984375 40.03125 47.0625 39.875 46.09375 C 39.8125 45.609375 39.765625 45.109375 39.78125 44.609375 C 39.78125 44.484375 39.796875 44.34375 39.796875 44.21875 L 39.796875 44.046875 C 39.796875 43.984375 39.8125 43.921875 39.8125 43.84375 C 39.828125 43.578125 39.875 43.3125 39.921875 43.046875 C 40.296875 40.9375 41.359375 38.859375 42.984375 37.296875 C 43.40625 36.90625 43.84375 36.546875 44.3125 36.21875 C 44.78125 35.890625 45.28125 35.609375 45.8125 35.359375 C 46.34375 35.109375 46.875 34.921875 47.4375 34.765625 C 47.984375 34.609375 48.5625 34.515625 49.15625 34.453125 C 49.4375 34.4375 49.734375 34.40625 50.03125 34.40625 L 50.71875 34.40625 L 50.96875 34.421875 C 51.609375 34.46875 52.21875 34.546875 52.84375 34.703125 C 54.078125 34.96875 55.296875 35.4375 56.40625 36.046875 C 58.65625 37.296875 60.578125 39.25 61.734375 41.578125 C 62.328125 42.75 62.75 44 62.953125 45.296875 C 63 45.625 63.046875 45.953125 63.0625 46.28125 L 63.09375 46.78125 L 63.09375 47.75 C 63.09375 47.90625 63.078125 48.171875 63.078125 48.328125 C 63.0625 48.6875 63.015625 49.0625 62.96875 49.40625 C 62.921875 49.765625 62.859375 50.109375 62.796875 50.46875 C 62.734375 50.828125 62.640625 51.171875 62.546875 51.5 C 62.375 52.1875 62.15625 52.859375 61.890625 53.546875 C 61.359375 54.875 60.65625 56.140625 59.8125 57.3125 C 58.109375 59.65625 55.796875 61.546875 53.15625 62.75 C 51.828125 63.34375 50.453125 63.78125 49.015625 64 C 48.3125 64.125 47.578125 64.203125 46.859375 64.21875 L 45.765625 64.21875 C 45.375 64.21875 45 64.203125 44.59375 64.15625 C 43.046875 64.046875 41.53125 63.765625 40.03125 63.34375 C 38.546875 62.921875 37.125 62.328125 35.75 61.625 C 33.046875 60.171875 30.59375 58.1875 28.703125 55.78125 C 27.75 54.59375 26.921875 53.296875 26.234375 51.953125 C 25.546875 50.609375 25 49.171875 24.609375 47.75 C 24.21875 46.296875 23.96875 44.8125 23.859375 43.3125 L 23.84375 43.03125 L 23.84375 41.125 C 23.859375 40.390625 23.9375 39.625 24.015625 38.875 C 24.109375 38.125 24.234375 37.359375 24.390625 36.609375 C 24.546875 35.859375 24.71875 35.109375 24.9375 34.359375 C 25.359375 32.875 25.890625 31.453125 26.5 30.109375 C 27.75 27.421875 29.390625 25.015625 31.34375 23.09375 C 31.828125 22.609375 32.328125 22.171875 32.859375 21.734375 C 33.390625 21.3125 33.9375 20.921875 34.515625 20.546875 C 35.0625 20.171875 35.65625 19.84375 36.25 19.53125 C 36.53125 19.375 36.84375 19.21875 37.15625 19.09375 C 37.3125 19.03125 37.46875 18.96875 37.625 18.890625 C 37.78125 18.828125 37.9375 18.765625 38.09375 18.6875 C 38.703125 18.421875 39.34375 18.203125 40.015625 18 C 40.171875 17.953125 40.34375 17.90625 40.5 17.84375 C 40.65625 17.796875 40.828125 17.75 40.984375 17.71875 C 41.3125 17.625 41.640625 17.546875 41.96875 17.46875 C 42.125 17.421875 42.296875 17.40625 42.46875 17.359375 C 42.640625 17.3125 42.796875 17.296875 42.96875 17.25 C 43.140625 17.234375 43.296875 17.1875 43.46875 17.15625 L 43.71875 17.109375 L 43.984375 17.0625 C 44.15625 17.046875 44.3125 17.015625 44.484375 17 C 44.6875 16.984375 44.859375 16.953125 45.0625 16.9375 C 45.21875 16.921875 45.484375 16.890625 45.640625 16.875 C 45.75 16.859375 45.890625 16.859375 46 16.828125 L 46.25 16.8125 L 46.359375 16.796875 L 46.484375 16.796875 C 46.6875 16.78125 46.859375 16.78125 47.0625 16.75 L 47.34375 16.734375 L 47.546875 16.734375 C 47.703125 16.734375 47.875 16.71875 48.03125 16.71875 C 48.671875 16.703125 49.328125 16.703125 49.96875 16.71875 C 51.25 16.765625 52.5 16.921875 53.71875 17.140625 C 56.171875 17.609375 58.453125 18.375 60.546875 19.40625 C 62.640625 20.421875 64.484375 21.671875 66.125 23.046875 C 66.234375 23.140625 66.328125 23.21875 66.4375 23.3125 C 66.53125 23.40625 66.640625 23.484375 66.71875 23.578125 C 66.921875 23.75 67.09375 23.9375 67.296875 24.109375 C 67.5 24.28125 67.671875 24.46875 67.84375 24.640625 C 68.015625 24.8125 68.203125 25 68.375 25.1875 C 69.0625 25.921875 69.703125 26.640625 70.265625 27.390625 C 71.40625 28.875 72.34375 30.359375 73.0625 31.78125 C 73.109375 31.875 73.15625 31.953125 73.1875 32.046875 C 73.234375 32.140625 73.28125 32.21875 73.3125 32.3125 C 73.40625 32.484375 73.484375 32.671875 73.5625 32.84375 C 73.65625 33.015625 73.71875 33.171875 73.8125 33.34375 C 73.875 33.515625 73.96875 33.671875 74.03125 33.84375 C 74.296875 34.5 74.5625 35.140625 74.765625 35.734375 C 75.09375 36.703125 75.34375 37.5625 75.53125 38.3125 C 75.59375 38.625 75.890625 38.8125 76.1875 38.78125 C 76.515625 38.765625 76.765625 38.5 76.765625 38.171875 C 76.828125 37.328125 76.796875 36.390625 76.6875 35.3125 "/>
</g>
</svg>
