<?xml version="1.0" encoding="UTF-8"?>
<svg xmlns="http://www.w3.org/2000/svg" xmlns:xlink="http://www.w3.org/1999/xlink" width="80px" height="80px" viewBox="0 0 80 80" version="1.1">
<g id="surface1">
<path style=" stroke:none;fill-rule:nonzero;fill:rgb(94.901961%,95.686275%,97.647059%);fill-opacity:1;" d="M 80 73.953125 C 80 76.703125 77.75 78.953125 75 78.953125 L 5 78.953125 C 2.25 78.953125 0 76.703125 0 73.953125 L 0 43.953125 C 0 41.203125 1.59375 37.359375 3.53125 35.421875 L 36.46875 2.5 C 38.40625 0.5625 41.59375 0.5625 43.53125 2.5 L 76.46875 35.4375 C 78.40625 37.375 80 41.21875 80 43.96875 Z M 80 73.953125 "/>
<path style=" stroke:none;fill-rule:nonzero;fill:rgb(9.411765%,73.725492%,94.901961%);fill-opacity:1;" d="M 76.46875 35.421875 L 43.53125 2.5 C 41.59375 0.5625 38.40625 0.5625 36.46875 2.5 L 3.53125 35.421875 C 1.59375 37.359375 0 41.203125 0 43.953125 L 0 73.953125 C 0 76.703125 2.25 78.953125 5 78.953125 L 35.75 78.953125 L 22.203125 65.40625 C 21.5 65.640625 20.765625 65.78125 19.984375 65.78125 C 16.21875 65.78125 13.15625 62.71875 13.15625 58.953125 C 13.15625 55.1875 16.21875 52.125 19.984375 52.125 C 23.75 52.125 26.8125 55.1875 26.8125 58.953125 C 26.8125 59.734375 26.671875 60.46875 26.4375 61.171875 L 36.984375 71.71875 L 36.984375 33.09375 C 34.71875 31.984375 33.15625 29.65625 33.15625 26.96875 C 33.15625 23.203125 36.21875 20.140625 39.984375 20.140625 C 43.75 20.140625 46.8125 23.203125 46.8125 26.96875 C 46.8125 29.65625 45.25 31.984375 42.984375 33.09375 L 42.984375 60.1875 L 53.46875 49.703125 C 53.265625 49.046875 53.15625 48.359375 53.15625 47.640625 C 53.15625 43.875 56.21875 40.8125 59.984375 40.8125 C 63.75 40.8125 66.8125 43.875 66.8125 47.640625 C 66.8125 51.40625 63.75 54.46875 59.984375 54.46875 C 59.15625 54.46875 58.359375 54.3125 57.625 54.03125 L 42.984375 68.671875 L 42.984375 78.96875 L 75 78.96875 C 77.75 78.96875 80 76.71875 80 73.96875 L 80 43.96875 C 80 41.21875 78.40625 37.375 76.46875 35.421875 "/>
</g>
</svg>
