<?xml version="1.0" encoding="UTF-8"?>
<svg xmlns="http://www.w3.org/2000/svg" xmlns:xlink="http://www.w3.org/1999/xlink" width="px" height="80px" viewBox="0 0 80 80" version="1.1">
<g id="surface1">
<path style=" stroke:none;fill-rule:nonzero;fill:rgb(98.039216%,16.078432%,12.941177%);fill-opacity:1;" d="M 37.3125 24.296875 C 42.546875 28.9375 46.765625 33.90625 49.484375 38.59375 C 54.15625 30.25 57.265625 20.328125 57.3125 14.015625 L 57.3125 13.890625 C 57.3125 4.546875 47.984375 0.90625 39.953125 0.90625 C 31.921875 0.90625 22.59375 4.53125 22.59375 13.875 L 22.59375 14.375 C 27.078125 16.375 32.375 19.9375 37.3125 24.296875 "/>
<path style=" stroke:none;fill-rule:nonzero;fill:rgb(92.941177%,47.450981%,70.980394%);fill-opacity:1;" d="M 8.734375 49.78125 C 12.015625 46.140625 17.03125 42.1875 22.703125 38.859375 C 28.734375 35.3125 34.765625 32.828125 40.0625 31.703125 C 33.5625 24.6875 25.09375 18.65625 19.109375 16.671875 C 19.0625 16.65625 19.03125 16.640625 19 16.640625 C 10.09375 13.71875 3.75 21.46875 1.265625 29.109375 C -1.21875 36.75 -0.640625 46.734375 8.25 49.625 C 8.375 49.65625 8.53125 49.71875 8.734375 49.78125 "/>
<path style=" stroke:none;fill-rule:nonzero;fill:rgb(100%,70.588237%,0%);fill-opacity:1;" d="M 78.734375 28.96875 C 76.25 21.34375 69.90625 13.59375 61.015625 16.484375 C 60.890625 16.53125 60.734375 16.578125 60.53125 16.640625 C 60.015625 21.515625 58.28125 27.65625 55.65625 33.6875 C 52.859375 40.109375 49.4375 45.65625 45.828125 49.6875 C 55.203125 51.546875 65.59375 51.453125 71.625 49.53125 C 71.671875 49.515625 71.703125 49.5 71.734375 49.5 C 80.640625 46.59375 81.203125 36.609375 78.734375 28.96875 "/>
<path style=" stroke:none;fill-rule:nonzero;fill:rgb(11.764706%,51.372552%,96.862745%);fill-opacity:1;" d="M 32.03125 57.234375 C 30.515625 50.40625 30.03125 43.90625 30.578125 38.515625 C 21.90625 42.53125 13.546875 48.71875 9.796875 53.796875 C 9.765625 53.828125 9.75 53.859375 9.71875 53.890625 C 4.21875 61.453125 9.625 69.875 16.125 74.59375 C 22.625 79.3125 32.296875 81.84375 37.796875 74.296875 C 37.875 74.1875 37.96875 74.0625 38.09375 73.890625 C 35.65625 69.65625 33.453125 63.65625 32.03125 57.234375 "/>
<path style=" stroke:none;fill-rule:nonzero;fill:rgb(9.411765%,76.078433%,28.627452%);fill-opacity:1;" d="M 70.125 53.421875 C 65.328125 54.4375 58.953125 54.6875 52.40625 54.046875 C 45.4375 53.375 39.109375 51.828125 34.15625 49.640625 C 35.28125 59.140625 38.59375 68.984375 42.265625 74.125 C 42.296875 74.15625 42.3125 74.1875 42.34375 74.21875 C 47.84375 81.78125 57.515625 79.25 64.015625 74.515625 C 70.515625 69.796875 75.921875 61.375 70.421875 53.8125 C 70.34375 53.71875 70.25 53.59375 70.125 53.421875 "/>
</g>
</svg>
