<?xml version="1.0" encoding="UTF-8"?>
<svg xmlns="http://www.w3.org/2000/svg" xmlns:xlink="http://www.w3.org/1999/xlink" width="px" height="80px" viewBox="0 0 80 80" version="1.1">
<g id="surface1">
<path style=" stroke:none;fill-rule:nonzero;fill:rgb(29.019609%,67.058825%,95.686275%);fill-opacity:1;" d="M 79.25 48.140625 L 71.609375 15 C 71.1875 13.21875 69.546875 11.359375 67.6875 10.859375 L 32.890625 0.140625 C 32.453125 0 31.953125 0 31.390625 0 C 29.890625 0 28.390625 0.5625 27.3125 1.5 L 2.390625 24.71875 C 1.03125 25.9375 0.3125 28.359375 0.75 30.0625 L 8.890625 65.5625 C 9.3125 67.34375 10.953125 69.203125 12.8125 69.703125 L 45.390625 79.84375 C 45.8125 79.984375 46.3125 79.984375 46.890625 79.984375 C 48.390625 79.984375 49.890625 79.421875 50.953125 78.484375 L 77.59375 53.703125 C 78.96875 52.28125 79.6875 50 79.25 48.140625 M 36.53125 8 L 60.46875 15.359375 C 61.40625 15.640625 61.40625 16.078125 60.46875 16.296875 L 47.90625 19.15625 C 46.96875 19.4375 45.625 19.015625 44.96875 18.296875 L 36.25 8.859375 C 35.46875 8.0625 35.609375 7.71875 36.53125 8 M 51.46875 50.859375 C 51.75 51.796875 51.109375 52.359375 50.1875 52.078125 L 24.40625 44.078125 C 23.46875 43.796875 23.265625 43.015625 23.96875 42.359375 L 43.6875 24 C 44.40625 23.28125 45.1875 23.5625 45.40625 24.5 Z M 8.96875 27.5 L 29.890625 8 C 30.609375 7.28125 31.671875 7.4375 32.390625 8.0625 L 42.890625 19.421875 C 43.609375 20.140625 43.453125 21.203125 42.8125 21.921875 L 21.890625 41.4375 C 21.171875 42.15625 20.109375 42 19.390625 41.359375 L 8.890625 30 C 8.1875 29.21875 8.25 28.0625 8.96875 27.5 M 14.046875 58.359375 L 8.546875 34.0625 C 8.265625 33.140625 8.6875 32.921875 9.328125 33.640625 L 18.046875 43.0625 C 18.765625 43.78125 18.96875 45.140625 18.765625 46.0625 L 14.984375 58.34375 C 14.6875 59.359375 14.25 59.359375 14.046875 58.359375 M 44.6875 72.640625 L 17.328125 64.140625 C 16.375 63.828125 15.828125 62.8125 16.109375 61.859375 L 20.6875 47.140625 C 21 46.1875 22 45.640625 22.96875 45.921875 L 50.328125 54.34375 C 51.265625 54.625 51.828125 55.625 51.546875 56.625 L 46.96875 71.34375 C 46.640625 72.296875 45.65625 72.84375 44.6875 72.640625 M 68.96875 52.71875 L 50.6875 69.71875 C 49.96875 70.4375 49.609375 70.15625 49.90625 69.21875 L 53.6875 56.9375 C 53.96875 56 54.96875 55 55.96875 54.859375 L 68.546875 52 C 69.46875 51.640625 69.609375 52.0625 68.96875 52.71875 M 70.96875 49 L 55.90625 52.4375 C 54.96875 52.71875 53.96875 52.078125 53.765625 51.15625 L 47.328125 23.28125 C 47.046875 22.34375 47.6875 21.34375 48.609375 21.140625 L 63.6875 17.703125 C 64.609375 17.421875 65.609375 18.0625 65.828125 18.984375 L 72.265625 46.84375 C 72.46875 47.9375 71.890625 48.859375 70.96875 49 "/>
</g>
</svg>
