<?xml version="1.0" encoding="UTF-8"?>
<svg xmlns="http://www.w3.org/2000/svg" xmlns:xlink="http://www.w3.org/1999/xlink" width="80px" height="80px" viewBox="0 0 80 80" version="1.1">
<defs>
<linearGradient id="linear0" gradientUnits="userSpaceOnUse" x1="97.508003" y1="308.13501" x2="522.06897" y2="63.019001" gradientTransform="matrix(0.15625,0,0,-0.15625,0,80.3125)">
<stop offset="0" style="stop-color:rgb(66.666667%,36.078431%,76.470588%);stop-opacity:1;"/>
<stop offset="1" style="stop-color:rgb(0%,64.313725%,86.27451%);stop-opacity:1;"/>
</linearGradient>
<linearGradient id="linear1" gradientUnits="userSpaceOnUse" x1="94.193001" y1="302.394012" x2="518.754028" y2="57.278" gradientTransform="matrix(0.15625,0,0,-0.15625,0,80.3125)">
<stop offset="0" style="stop-color:rgb(66.666667%,36.078431%,76.470588%);stop-opacity:1;"/>
<stop offset="1" style="stop-color:rgb(0%,64.313725%,86.27451%);stop-opacity:1;"/>
</linearGradient>
</defs>
<g id="surface1">
<path style=" stroke:none;fill-rule:nonzero;fill:url(#linear0);" d="M 40 30.65625 C 36.5 30.65625 25.1875 51.171875 26.90625 54.625 C 28.625 58.078125 51.40625 58.046875 53.109375 54.625 C 54.8125 51.203125 43.53125 30.65625 40 30.65625 "/>
<path style=" stroke:none;fill-rule:nonzero;fill:url(#linear1);" d="M 40 0 C 29.421875 0 -4.65625 61.78125 0.53125 72.21875 C 5.71875 82.65625 74.328125 82.53125 79.46875 72.21875 C 84.609375 61.90625 50.59375 0 40 0 M 65.875 63.171875 C 62.5 69.921875 17.546875 70.015625 14.140625 63.171875 C 10.734375 56.328125 33.078125 15.84375 40 15.84375 C 46.921875 15.84375 69.25 56.40625 65.875 63.171875 "/>
</g>
</svg>
