<?xml version="1.0" encoding="UTF-8"?>
<svg xmlns="http://www.w3.org/2000/svg" xmlns:xlink="http://www.w3.org/1999/xlink" width="80px" height="80px" viewBox="0 0 80 80" version="1.1">
<defs>
<linearGradient id="linear0" gradientUnits="userSpaceOnUse" x1="-2254.016113" y1="-2831.433105" x2="-2267.51001" y2="-2961.61792" gradientTransform="matrix(0.311804,0,0,-0.311804,730.459702,-825.293534)">
<stop offset="0" style="stop-color:rgb(31.372549%,17.647059%,58.431373%);stop-opacity:1;"/>
<stop offset="0.1" style="stop-color:rgb(42.745098%,21.568627%,67.45098%);stop-opacity:1;"/>
<stop offset="0.57" style="stop-color:rgb(40.392157%,52.54902%,81.960784%);stop-opacity:1;"/>
</linearGradient>
<linearGradient id="linear1" gradientUnits="userSpaceOnUse" x1="-2175.810059" y1="-2839.48291" x2="-2189.302979" y2="-2969.720947" gradientTransform="matrix(0.311804,0,0,-0.311804,730.459702,-825.293534)">
<stop offset="0" style="stop-color:rgb(31.372549%,17.647059%,58.431373%);stop-opacity:1;"/>
<stop offset="0.1" style="stop-color:rgb(42.745098%,21.568627%,67.45098%);stop-opacity:1;"/>
<stop offset="0.57" style="stop-color:rgb(40.392157%,52.54902%,81.960784%);stop-opacity:1;"/>
</linearGradient>
<linearGradient id="linear2" gradientUnits="userSpaceOnUse" x1="-1831.756958" y1="-2576.996094" x2="-1831.756958" y2="-2695.449951" gradientTransform="matrix(0.377728,0,0,-0.377728,748.233401,-915.335381)">
<stop offset="0" style="stop-color:rgb(46.27451%,23.921569%,80.392157%);stop-opacity:1;"/>
<stop offset="0.22" style="stop-color:rgb(55.294118%,38.039216%,92.156863%);stop-opacity:1;"/>
<stop offset="0.37" style="stop-color:rgb(54.901961%,52.54902%,92.54902%);stop-opacity:1;"/>
<stop offset="0.64" style="stop-color:rgb(45.490196%,54.901961%,90.980392%);stop-opacity:1;"/>
<stop offset="0.9" style="stop-color:rgb(41.960784%,63.137255%,90.196078%);stop-opacity:1;"/>
</linearGradient>
<linearGradient id="linear3" gradientUnits="userSpaceOnUse" x1="-1891.134033" y1="-2576.996094" x2="-1891.134033" y2="-2695.449951" gradientTransform="matrix(0.377728,0,0,-0.377728,748.233401,-915.335381)">
<stop offset="0" style="stop-color:rgb(46.27451%,23.921569%,80.392157%);stop-opacity:1;"/>
<stop offset="0.22" style="stop-color:rgb(55.294118%,38.039216%,92.156863%);stop-opacity:1;"/>
<stop offset="0.37" style="stop-color:rgb(54.901961%,52.54902%,92.54902%);stop-opacity:1;"/>
<stop offset="0.64" style="stop-color:rgb(45.490196%,54.901961%,90.980392%);stop-opacity:1;"/>
<stop offset="0.9" style="stop-color:rgb(41.960784%,63.137255%,90.196078%);stop-opacity:1;"/>
</linearGradient>
<linearGradient id="linear4" gradientUnits="userSpaceOnUse" x1="-1922.004028" y1="-2576.996094" x2="-1922.004028" y2="-2695.449951" gradientTransform="matrix(0.377728,0,0,-0.377728,748.233401,-915.335381)">
<stop offset="0" style="stop-color:rgb(46.27451%,23.921569%,80.392157%);stop-opacity:1;"/>
<stop offset="0.22" style="stop-color:rgb(55.294118%,38.039216%,92.156863%);stop-opacity:1;"/>
<stop offset="0.37" style="stop-color:rgb(54.901961%,52.54902%,92.54902%);stop-opacity:1;"/>
<stop offset="0.64" style="stop-color:rgb(45.490196%,54.901961%,90.980392%);stop-opacity:1;"/>
<stop offset="0.9" style="stop-color:rgb(41.960784%,63.137255%,90.196078%);stop-opacity:1;"/>
</linearGradient>
<linearGradient id="linear5" gradientUnits="userSpaceOnUse" x1="-1862.421021" y1="-2576.996094" x2="-1862.421021" y2="-2695.449951" gradientTransform="matrix(0.377728,0,0,-0.377728,748.233401,-915.335381)">
<stop offset="0" style="stop-color:rgb(46.27451%,23.921569%,80.392157%);stop-opacity:1;"/>
<stop offset="0.22" style="stop-color:rgb(55.294118%,38.039216%,92.156863%);stop-opacity:1;"/>
<stop offset="0.37" style="stop-color:rgb(54.901961%,52.54902%,92.54902%);stop-opacity:1;"/>
<stop offset="0.64" style="stop-color:rgb(45.490196%,54.901961%,90.980392%);stop-opacity:1;"/>
<stop offset="0.9" style="stop-color:rgb(41.960784%,63.137255%,90.196078%);stop-opacity:1;"/>
</linearGradient>
<linearGradient id="linear6" gradientUnits="userSpaceOnUse" x1="-1735.547974" y1="-2673.094971" x2="-1586.936035" y2="-2838.189941" gradientTransform="matrix(0.318931,0,0,-0.318931,578.379515,-829.917177)">
<stop offset="0" style="stop-color:rgb(76.470588%,58.431373%,98.823529%);stop-opacity:1;"/>
<stop offset="1" style="stop-color:rgb(30.980392%,39.607843%,96.078431%);stop-opacity:1;"/>
</linearGradient>
<linearGradient id="linear7" gradientUnits="userSpaceOnUse" x1="-1059.871948" y1="-6378.030762" x2="-1059.871948" y2="-6594.774902" gradientTransform="matrix(0.0908686,0,0,-0.0908686,122.559464,-571.141208)">
<stop offset="0" style="stop-color:rgb(100%,100%,100%);stop-opacity:0.4;"/>
<stop offset="1" style="stop-color:rgb(100%,100%,100%);stop-opacity:0;"/>
</linearGradient>
<linearGradient id="linear8" gradientUnits="userSpaceOnUse" x1="-1351.381958" y1="-3908.894043" x2="-1485.194946" y2="-4007.23999" gradientTransform="matrix(0.181737,0,0,-0.181737,295.32294,-682.841862)">
<stop offset="0" style="stop-color:rgb(97.647059%,97.647059%,97.647059%);stop-opacity:1;"/>
<stop offset="1" style="stop-color:rgb(97.647059%,97.647059%,97.647059%);stop-opacity:0;"/>
</linearGradient>
<linearGradient id="linear9" gradientUnits="userSpaceOnUse" x1="-1293.035034" y1="-3139.552002" x2="-1228.343994" y2="-3205.577881" gradientTransform="matrix(0.254788,0,0,-0.254788,361.276622,-770.78125)">
<stop offset="0" style="stop-color:rgb(0%,26.27451%,63.529412%);stop-opacity:1;"/>
<stop offset="1" style="stop-color:rgb(0%,7.45098%,22.745098%);stop-opacity:1;"/>
</linearGradient>
</defs>
<g id="surface1">
<path style=" stroke:none;fill-rule:nonzero;fill:url(#linear0);" d="M 30.449219 55.945312 L 25.640625 54.878906 C 25.640625 54.878906 24.535156 61.933594 24.105469 65.480469 C 23.429688 71.199219 22.609375 79.109375 22.929688 85.167969 C 23.289062 91.832031 25.105469 98.246094 25.710938 98.246094 C 26.316406 98.246094 25.390625 94.164062 25.800781 85.183594 C 26.066406 79.199219 27.066406 72 28.257812 65.496094 C 28.847656 62.289062 30.558594 55.980469 30.558594 55.980469 L 30.449219 55.980469 Z M 30.449219 55.945312 "/>
<path style=" stroke:none;fill-rule:nonzero;fill:url(#linear1);" d="M 50.742188 55.449219 L 52.222656 55.449219 C 54.199219 62.824219 54.574219 73.460938 54.148438 81.480469 C 53.683594 90.296875 51.261719 98.796875 50.476562 98.796875 C 49.691406 98.796875 50.902344 93.398438 50.351562 81.496094 C 49.960938 73.566406 48.285156 66.101562 48.105469 55.449219 Z M 50.742188 55.449219 "/>
<path style=" stroke:none;fill-rule:nonzero;fill:url(#linear2);" d="M 55.199219 32.355469 L 57.566406 32.355469 C 60.738281 44.152344 62.21875 61.203125 61.523438 74.050781 C 60.773438 88.195312 56.910156 101.789062 55.625 101.789062 C 54.34375 101.789062 56.304688 93.132812 55.429688 74.066406 C 54.84375 61.34375 51.242188 49.40625 50.957031 32.339844 Z M 55.199219 32.355469 "/>
<path style=" stroke:none;fill-rule:nonzero;fill:url(#linear3);" d="M 35.027344 32.089844 L 32.660156 32.089844 C 29.488281 43.882812 28.007812 60.933594 28.703125 73.78125 C 29.453125 87.929688 33.320312 101.523438 34.601562 101.523438 C 35.882812 101.523438 33.925781 92.863281 34.796875 73.800781 C 35.386719 61.078125 38.984375 49.140625 39.269531 32.070312 L 35.027344 32.070312 Z M 35.027344 32.089844 "/>
<path style=" stroke:none;fill-rule:nonzero;fill:url(#linear4);" d="M 27.722656 26.726562 L 22.34375 24.800781 C 22.34375 24.800781 20.367188 37.398438 19.617188 43.722656 C 18.421875 53.933594 16.054688 68.0625 16.640625 78.878906 C 17.28125 90.78125 20.527344 102.234375 21.59375 102.234375 C 22.664062 102.234375 21.023438 94.949219 21.773438 78.894531 C 22.273438 68.1875 25.550781 58.050781 26.65625 43.722656 C 27.101562 38.039062 27.957031 26.707031 27.957031 26.707031 Z M 27.722656 26.726562 "/>
<path style=" stroke:none;fill-rule:nonzero;fill:url(#linear5);" d="M 45.523438 32.355469 L 40.660156 33.175781 C 40.660156 33.175781 41.300781 42.621094 41.300781 47.980469 C 41.300781 56.695312 41.640625 65.480469 41.621094 74.621094 C 41.585938 85.113281 43.351562 102.699219 44.257812 102.699219 C 45.167969 102.699219 48.125 80.070312 48.75 66.53125 C 49.15625 57.496094 47.820312 49.585938 47.589844 44.1875 C 47.375 39.375 46.699219 32.890625 46.699219 32.890625 Z M 45.523438 32.355469 "/>
<path style=" stroke:none;fill-rule:nonzero;fill:url(#linear6);" d="M 72.304688 35.226562 C 72.304688 47.484375 70.21875 48.230469 66.816406 53.417969 C 64.355469 57.140625 69.328125 60.027344 67.332031 61.058594 C 64.960938 62.289062 65.710938 60.0625 60.988281 58.796875 C 58.941406 58.261719 54.484375 58.851562 52.6875 59.207031 C 50.902344 59.546875 45.453125 56.515625 44.007812 56.125 C 41.851562 55.535156 36.5625 58.351562 33.335938 58.351562 C 30.113281 58.351562 26.742188 55.535156 22.449219 56.695312 C 17.355469 58.066406 11.207031 61.378906 10.28125 60.292969 C 8.5 58.210938 14.183594 56.625 12.0625 52.917969 C 10.726562 50.566406 6.113281 44.382812 5.96875 38.128906 C 5.542969 18.03125 22.183594 1.050781 40.019531 1.050781 C 57.851562 1.050781 72.285156 16.515625 72.285156 33.816406 "/>
<path style=" stroke:none;fill-rule:evenodd;fill:url(#linear7);" d="M 38.914062 7.429688 C 29.167969 7.429688 15.554688 17.515625 15.554688 27.261719 C 15.554688 28.347656 14.679688 29.21875 13.59375 29.21875 C 12.507812 29.21875 11.632812 28.347656 11.632812 27.261719 C 11.632812 15.359375 26.992188 3.527344 38.914062 3.527344 C 40 3.527344 40.875 4.402344 40.875 5.488281 C 40.875 6.574219 39.980469 7.429688 38.914062 7.429688 "/>
<path style=" stroke:none;fill-rule:nonzero;fill:url(#linear8);" d="M 53.328125 44.277344 C 52.292969 45.96875 50.886719 47.324219 49.230469 48.25 C 48.515625 48.640625 47.769531 48.945312 46.984375 49.175781 C 44.648438 50.226562 42.050781 50.78125 39.394531 50.832031 C 30.34375 50.992188 22.824219 45.203125 22.519531 37.863281 C 22.378906 34.261719 24.535156 30.519531 26.191406 27.652344 C 27.597656 25.210938 30.023438 21.023438 33.210938 19.351562 C 39.714844 15.929688 48.5 19.546875 52.882812 27.472656 C 54.148438 29.773438 54.964844 32.285156 55.234375 34.796875 C 55.429688 35.617188 55.554688 36.453125 55.554688 37.292969 C 55.589844 39.464844 54.949219 41.621094 53.738281 43.546875 C 53.613281 43.796875 53.488281 44.027344 53.34375 44.257812 C 53.34375 44.277344 53.328125 44.277344 53.328125 44.277344 "/>
<path style=" stroke:none;fill-rule:nonzero;fill:url(#linear9);" d="M 39.019531 26.261719 C 44.667969 26.261719 49.230469 30.84375 49.230469 36.472656 C 49.230469 42.101562 44.648438 46.679688 39.019531 46.679688 C 33.390625 46.679688 28.8125 42.101562 28.8125 36.472656 C 28.8125 35.421875 28.972656 34.421875 29.257812 33.460938 C 30.058594 35.242188 31.839844 36.472656 33.90625 36.472656 C 36.722656 36.472656 39.003906 34.171875 39.003906 31.375 C 39.003906 29.308594 37.773438 27.511719 35.992188 26.726562 C 36.953125 26.421875 37.949219 26.28125 39.019531 26.261719 "/>
</g>
</svg>
