<?xml version="1.0" encoding="UTF-8"?>
<svg xmlns="http://www.w3.org/2000/svg" xmlns:xlink="http://www.w3.org/1999/xlink" width="80px" height="80px" viewBox="0 0 80 80" version="1.1">
<g id="surface1">
<path style=" stroke:none;fill-rule:nonzero;fill:rgb(96.078432%,34.509805%,28.235295%);fill-opacity:1;" d="M 31.109375 11.796875 C 19.9375 12.0625 13.546875 12.4375 10.734375 13.015625 C 4.234375 14.3125 1.453125 17.5625 0.34375 25.078125 C 0 27.359375 -0.140625 42.71875 0.125 48.828125 C 0.390625 55.09375 0.828125 57.953125 1.90625 60.484375 C 3.5625 64.34375 6.359375 66.25 11.828125 67.234375 C 15.40625 67.890625 23.671875 68.28125 34.234375 68.296875 C 40.71875 68.296875 60.109375 67.859375 63.046875 67.65625 C 67.59375 67.328125 71.5625 66.5 73.765625 65.46875 C 77.390625 63.734375 79.21875 59.515625 79.84375 51.34375 C 80.046875 48.671875 80.046875 32.15625 79.84375 29.0625 C 79.5 23.765625 78.984375 21.25 77.75 18.703125 C 76.359375 15.859375 74.34375 14.234375 71.171875 13.421875 C 69.125 12.890625 64.203125 12.359375 57.59375 11.96875 C 53.84375 11.71875 38.265625 11.640625 31.109375 11.796875 M 52.15625 27.09375 C 52.15625 27.140625 49.453125 31.78125 46.15625 37.40625 C 42.859375 43.015625 40.15625 47.671875 40.15625 47.71875 C 40.15625 47.765625 42.859375 47.8125 46.15625 47.8125 L 52.15625 47.8125 L 52.15625 52.9375 L 27.84375 52.9375 L 27.84375 47.8125 L 33.859375 47.8125 C 38.8125 47.8125 39.859375 47.78125 39.796875 47.609375 C 39.75 47.484375 37.046875 42.84375 33.78125 37.28125 C 30.515625 31.71875 27.84375 27.15625 27.84375 27.109375 C 27.84375 27.0625 33.3125 27.015625 40 27.015625 C 46.6875 27.015625 52.15625 27.046875 52.15625 27.09375 "/>
</g>
</svg>
