<?xml version="1.0" encoding="UTF-8"?>
<svg xmlns="http://www.w3.org/2000/svg" xmlns:xlink="http://www.w3.org/1999/xlink" width="80px" height="80px" viewBox="0 0 80 80" version="1.1">
<g id="surface1">
<path style=" stroke:none;fill-rule:nonzero;fill:rgb(10.980392%,12.941177%,18.82353%);fill-opacity:1;" d="M 40 0 C 17.910156 0 0 17.910156 0 40 C 0 62.089844 17.910156 80 40 80 C 62.089844 80 80 62.089844 80 40 C 80 17.910156 62.089844 0 40 0 M 40 0 "/>
<path style=" stroke:none;fill-rule:nonzero;fill:rgb(90.196079%,90.980393%,99.215686%);fill-opacity:1;" d="M 58.632812 15.953125 C 59.453125 16.355469 59.921875 16.929688 60.289062 17.757812 C 60.582031 18.632812 60.472656 19.378906 60.074219 20.195312 C 59.671875 20.871094 59.136719 21.414062 58.59375 21.972656 C 58.488281 22.085938 58.382812 22.195312 58.277344 22.308594 C 57.546875 23.070312 56.804688 23.816406 56.054688 24.554688 C 55.761719 24.851562 55.484375 25.160156 55.214844 25.476562 C 54.742188 26.03125 54.230469 26.539062 53.714844 27.050781 C 53.203125 27.554688 52.695312 28.058594 52.230469 28.605469 C 51.765625 29.15625 51.261719 29.65625 50.75 30.164062 C 50.238281 30.664062 49.738281 31.164062 49.277344 31.710938 C 48.703125 32.390625 48.0625 33 47.429688 33.625 C 46.902344 34.152344 46.398438 34.6875 45.917969 35.257812 C 45.4375 35.792969 44.921875 36.289062 44.414062 36.789062 C 43.976562 37.226562 43.550781 37.664062 43.152344 38.140625 C 41.542969 40.015625 41.542969 40.015625 40.296875 40.167969 C 39.351562 40.175781 38.664062 40.0625 37.925781 39.425781 C 37.21875 38.710938 36.882812 38.085938 36.832031 37.082031 C 36.882812 35.566406 37.78125 34.777344 38.824219 33.777344 C 39.160156 33.453125 39.480469 33.113281 39.78125 32.757812 C 40.222656 32.234375 40.703125 31.753906 41.1875 31.273438 C 41.664062 30.804688 42.136719 30.335938 42.570312 29.820312 C 43.085938 29.207031 43.65625 28.652344 44.226562 28.085938 C 44.878906 27.445312 45.507812 26.800781 46.097656 26.101562 C 46.574219 25.566406 47.089844 25.074219 47.597656 24.570312 C 48.023438 24.148438 48.433594 23.726562 48.820312 23.269531 C 49.363281 22.628906 49.964844 22.050781 50.5625 21.460938 C 50.988281 21.035156 51.398438 20.613281 51.785156 20.15625 C 52.328125 19.515625 52.929688 18.9375 53.523438 18.347656 C 53.972656 17.90625 54.386719 17.460938 54.777344 16.972656 C 55.800781 15.773438 57.171875 15.378906 58.632812 15.953125 M 58.632812 15.953125 "/>
<path style=" stroke:none;fill-rule:nonzero;fill:rgb(90.196079%,54.11765%,0%);fill-opacity:1;" d="M 14.382812 38.988281 C 14.382812 38.988281 14.453125 38.964844 15.40625 38.976562 C 15.523438 38.976562 15.640625 38.972656 15.757812 38.972656 L 16.15625 38.96875 C 16.347656 38.96875 16.347656 38.96875 16.539062 38.96875 L 16.894531 38.964844 C 17.273438 38.988281 17.484375 39.371094 17.480469 39.75 L 17.480469 40.289062 C 17.476562 40.832031 17.164062 41.078125 16.617188 41.074219 C 16.332031 41.070312 16.046875 41.070312 15.757812 41.066406 C 14.410156 41.0625 14.351562 41.066406 14.351562 41.066406 L 14.371094 40.117188 Z M 14.382812 38.988281 "/>
<path style=" stroke:none;fill-rule:nonzero;fill:rgb(25.882354%,77.254903%,34.117648%);fill-opacity:1;" d="M 39.085938 15.464844 C 39.09375 14.917969 39.082031 14.484375 39.082031 14.484375 L 40.09375 14.46875 L 41.242188 14.5 C 41.242188 14.5 41.230469 14.929688 41.242188 15.503906 C 41.238281 15.722656 41.234375 15.964844 41.226562 16.15625 C 41.230469 16.335938 41.230469 16.335938 41.230469 16.515625 C 41.234375 16.546875 41.234375 16.574219 41.234375 16.597656 C 41.238281 16.765625 41.230469 16.953125 41.167969 17.109375 C 41.003906 17.515625 40.519531 17.644531 40.078125 17.636719 C 40.074219 17.636719 40.070312 17.632812 40.066406 17.632812 C 39.953125 17.632812 39.835938 17.632812 39.714844 17.632812 L 39.648438 17.621094 C 39.234375 17.558594 39.078125 17.066406 39.085938 16.648438 L 39.089844 16.265625 C 39.09375 15.996094 39.09375 15.730469 39.085938 15.464844 M 39.085938 15.464844 "/>
<path style=" stroke:none;fill-rule:nonzero;fill:rgb(77.254903%,25.882354%,25.882354%);fill-opacity:1;" d="M 63.617188 38.96875 C 63.738281 38.96875 63.855469 38.96875 63.980469 38.96875 C 64.167969 38.972656 64.167969 38.972656 64.359375 38.972656 C 64.484375 38.976562 64.609375 38.976562 64.738281 38.976562 C 65.257812 38.976562 65.667969 38.976562 65.667969 38.976562 L 65.683594 40.039062 L 65.671875 41.058594 C 65.671875 41.058594 65.753906 41.0625 65.226562 41.066406 C 65.132812 41.066406 64.449219 41.066406 64.359375 41.066406 C 64.171875 41.070312 64.171875 41.070312 63.980469 41.070312 C 63.859375 41.070312 63.742188 41.070312 63.617188 41.070312 C 63.507812 41.074219 63.398438 41.074219 63.285156 41.074219 C 62.914062 41.050781 62.707031 40.652344 62.710938 40.277344 L 62.710938 39.84375 C 62.714844 39.351562 63.027344 38.964844 63.570312 38.96875 C 63.585938 38.96875 63.601562 38.96875 63.617188 38.96875 Z M 63.617188 38.96875 "/>
<path style=" stroke:none;fill-rule:nonzero;fill:rgb(90.196079%,90.980393%,99.215686%);fill-opacity:1;" d="M 52.863281 12.5625 C 53.5625 12.902344 53.847656 13.761719 53.292969 14.304688 C 53.195312 14.398438 53.097656 14.492188 53 14.589844 C 52.898438 14.6875 52.796875 14.785156 52.695312 14.886719 C 52.390625 15.183594 52.1875 15.382812 52.019531 15.550781 C 51.34375 16.238281 50.367188 16.566406 49.46875 16.21875 C 46.382812 15.027344 43.355469 14.460938 40.046875 14.480469 C 39.871094 14.480469 39.871094 14.480469 39.691406 14.480469 C 37.933594 14.488281 36.230469 14.546875 34.515625 14.96875 L 34.152344 15.058594 C 30.015625 16.066406 25.484375 17.96875 22.363281 20.890625 C 20.535156 22.917969 18.273438 25.195312 17.117188 27.808594 C 13.566406 35.835938 13.324219 46.210938 17.042969 51.429688 C 17.105469 51.570312 17.140625 51.648438 17.15625 51.71875 C 17.191406 51.867188 17.324219 51.972656 17.464844 51.921875 C 28.691406 47.976562 40.714844 47.128906 62.410156 51.933594 C 62.644531 51.984375 62.886719 51.851562 62.960938 51.621094 C 63.089844 51.242188 63.230469 50.867188 63.386719 50.496094 C 64.070312 48.859375 64.652344 47.234375 65.050781 45.503906 C 65.089844 45.355469 65.089844 45.355469 65.125 45.203125 C 65.894531 41.902344 65.863281 37.820312 65.050781 34.535156 L 64.964844 34.171875 C 64.179688 30.957031 62.902344 27.773438 60.820312 25.175781 C 60.707031 25.03125 60.570312 24.851562 60.507812 24.679688 C 60.402344 24.375 60.605469 24.09375 60.800781 23.839844 C 61.015625 23.566406 61.253906 23.332031 61.523438 23.078125 C 61.605469 22.996094 61.6875 22.914062 61.769531 22.832031 C 62.75 21.863281 64.265625 21.707031 65.015625 22.863281 C 65.132812 23.042969 65.132812 23.042969 65.25 23.222656 C 65.484375 23.585938 65.714844 23.945312 65.941406 24.308594 C 66.003906 24.40625 66.066406 24.503906 66.128906 24.605469 C 70.277344 31.253906 71.1875 39.675781 69.472656 47.21875 C 68.859375 49.734375 67.921875 52.128906 66.683594 54.398438 C 66.636719 54.488281 66.589844 54.574219 66.539062 54.667969 C 64.023438 59.355469 60.203125 63.148438 55.714844 65.960938 C 55.625 66.015625 55.539062 66.074219 55.445312 66.128906 C 48.84375 70.242188 40.484375 71.203125 32.980469 69.542969 C 25.042969 67.675781 18.363281 62.597656 14.0625 55.734375 C 14.007812 55.644531 13.949219 55.554688 13.890625 55.460938 C 9.78125 48.863281 8.816406 40.503906 10.480469 33 C 12.347656 25.0625 17.425781 18.378906 24.289062 14.082031 C 24.421875 13.996094 24.421875 13.996094 24.558594 13.910156 C 32.855469 8.746094 44.082031 8.339844 52.863281 12.5625 M 52.863281 12.5625 "/>
</g>
</svg>
