<?xml version="1.0" encoding="UTF-8"?>
<svg xmlns="http://www.w3.org/2000/svg" xmlns:xlink="http://www.w3.org/1999/xlink" width="80px" height="80px" viewBox="0 0 80 80" version="1.1">
<g id="surface1">
<path style="fill-rule:nonzero;fill:rgb(0%,51.764709%,100%);fill-opacity:1;stroke-width:10.3641;stroke-linecap:butt;stroke-linejoin:miter;stroke:rgb(0%,0%,0%);stroke-opacity:1;stroke-miterlimit:15.118;" d="M 250.8 128 C 250.8 60.175 195.825 5.2 128 5.2 C 60.175 5.2 5.2 60.175 5.2 128 C 5.2 195.825 60.175 250.8 128 250.8 C 195.825 250.8 250.8 195.825 250.8 128 Z M 250.8 128 " transform="matrix(0.3125,0,0,0.3125,0,0)"/>
<path style="fill-rule:nonzero;fill:rgb(100%,100%,100%);fill-opacity:1;stroke-width:9.9999;stroke-linecap:butt;stroke-linejoin:miter;stroke:rgb(0%,0%,0%);stroke-opacity:1;stroke-miterlimit:15.118;" d="M 171.7 128 C 171.7 103.8625 152.1375 84.3 128 84.3 C 103.8625 84.3 84.3 103.8625 84.3 128 C 84.3 152.1375 103.8625 171.7 128 171.7 C 152.1375 171.7 171.7 152.1375 171.7 128 Z M 171.7 128 " transform="matrix(0.3125,0,0,0.3125,0,0)"/>
<path style="fill:none;stroke-width:9.9999;stroke-linecap:round;stroke-linejoin:miter;stroke:rgb(0%,0%,0%);stroke-opacity:1;stroke-miterlimit:15.118;" d="M 201.8 128 C 201.8 168.7 168.8 201.8 128 201.8 M 54.2 128 C 54.2 87.3 87.2 54.2 128 54.2 " transform="matrix(0.3125,0,0,0.3125,0,0)"/>
<path style="fill:none;stroke-width:9.9999;stroke-linecap:round;stroke-linejoin:miter;stroke:rgb(0%,0%,0%);stroke-opacity:1;stroke-miterlimit:15.118;" d="M 224.9 128 C 224.9 129.2 224.9 130.5 224.8 131.7 M 222.6 149.3 C 212.9 192.6 174.2 224.9 128 224.9 M 31.1 128 C 31.1 126.9 31.1 125.8 31.2 124.7 M 33 108.7 C 42 64.5 81.1 31.1 128 31.1 " transform="matrix(0.3125,0,0,0.3125,0,0)"/>
<path style="fill-rule:nonzero;fill:rgb(100%,100%,100%);fill-opacity:1;stroke-width:9.9999;stroke-linecap:butt;stroke-linejoin:miter;stroke:rgb(0%,0%,0%);stroke-opacity:1;stroke-miterlimit:15.118;" d="M 137 128 C 137 123.025 132.975 119 128 119 C 123.025 119 119 123.025 119 128 C 119 132.975 123.025 137 128 137 C 132.975 137 137 132.975 137 128 Z M 137 128 " transform="matrix(0.3125,0,0,0.3125,0,0)"/>
</g>
</svg>
