<?xml version="1.0" encoding="UTF-8"?>
<svg xmlns="http://www.w3.org/2000/svg" xmlns:xlink="http://www.w3.org/1999/xlink" width="80px" height="80px" viewBox="0 0 80 36" version="1.1">
<g id="surface1">
<path style=" stroke:none;fill-rule:nonzero;fill:rgb(21.568628%,51.764709%,78.823531%);fill-opacity:1;" d="M 39.984375 0.046875 C 31.707031 0.046875 24.695312 5.550781 22.476562 13.023438 C 20.570312 9.101562 16.507812 6.351562 11.824219 6.351562 C 5.339844 6.335938 0 11.59375 0 17.992188 C 0 24.390625 5.339844 29.648438 11.839844 29.648438 C 16.523438 29.648438 20.570312 26.898438 22.492188 22.976562 C 24.695312 30.449219 31.722656 35.953125 40 35.953125 C 48.277344 35.953125 55.289062 30.449219 57.507812 22.976562 C 59.414062 26.898438 63.476562 29.648438 68.160156 29.648438 C 74.660156 29.648438 80 24.390625 80 17.992188 C 80 11.59375 74.660156 6.335938 68.160156 6.335938 C 63.476562 6.335938 59.429688 9.089844 57.507812 13.007812 C 55.273438 5.550781 48.261719 0.046875 39.984375 0.046875 M 39.984375 6.964844 C 46.214844 6.964844 51.183594 11.855469 51.183594 17.992188 C 51.183594 24.128906 46.214844 29.019531 39.984375 29.019531 C 33.753906 29.019531 28.785156 24.128906 28.785156 17.992188 C 28.785156 11.855469 33.753906 6.964844 39.984375 6.964844 M 11.839844 13.269531 C 14.527344 13.269531 16.632812 15.347656 16.632812 17.992188 C 16.632812 20.636719 14.527344 22.714844 11.839844 22.714844 C 9.152344 22.714844 7.042969 20.636719 7.042969 17.992188 C 7.042969 15.347656 9.136719 13.269531 11.839844 13.269531 M 68.128906 13.269531 C 70.816406 13.269531 72.925781 15.347656 72.925781 17.992188 C 72.925781 20.636719 70.816406 22.714844 68.128906 22.714844 C 65.441406 22.714844 63.335938 20.636719 63.335938 17.992188 C 63.335938 15.347656 65.441406 13.269531 68.128906 13.269531 "/>
</g>
</svg>
