<?xml version="1.0" encoding="UTF-8"?>
<svg xmlns="http://www.w3.org/2000/svg" xmlns:xlink="http://www.w3.org/1999/xlink" width="80px" height="80px" viewBox="0 0 80 92" version="1.1">
<g id="surface1">
<path style=" stroke:none;fill-rule:evenodd;fill:rgb(98.039216%,64.313728%,18.431373%);fill-opacity:1;" d="M 0.324219 68.828125 L 0 68.667969 L 0 68.988281 L 0.324219 69.152344 Z M 0.324219 68.828125 "/>
<path style=" stroke:none;fill-rule:evenodd;fill:rgb(86.666667%,69.01961%,16.470589%);fill-opacity:1;" d="M 0.324219 57.332031 L 0.324219 51.640625 L 0 51.476562 L 0 57.546875 Z M 0.324219 57.332031 "/>
<path style=" stroke:none;fill-rule:evenodd;fill:rgb(76.862746%,46.666667%,15.686275%);fill-opacity:1;" d="M 4.285156 59.632812 L 0.324219 57.332031 L 0 57.546875 L 0 68.667969 L 0.324219 68.828125 L 4.285156 66.527344 Z M 4.285156 59.632812 "/>
<path style=" stroke:none;fill-rule:evenodd;fill:rgb(94.509804%,34.901962%,20%);fill-opacity:1;" d="M 10.285156 74.523438 L 15.238281 77.414062 L 15.238281 77.738281 L 9.960938 74.738281 Z M 10.285156 74.523438 "/>
<path style=" stroke:none;fill-rule:evenodd;fill:rgb(95.294118%,44.313726%,19.607843%);fill-opacity:1;" d="M 4.285156 66.527344 L 0.324219 68.828125 L 0.324219 69.152344 L 9.960938 74.738281 L 10.285156 74.523438 L 10.285156 69.976562 Z M 4.285156 66.527344 "/>
<path style=" stroke:none;fill-rule:evenodd;fill:rgb(83.92157%,87.843138%,25.882354%);fill-opacity:1;" d="M 0.324219 40.199219 L 0.324219 34.453125 L 0 34.289062 L 0 40.359375 Z M 0.324219 40.199219 "/>
<path style=" stroke:none;fill-rule:evenodd;fill:rgb(98.823529%,91.764706%,23.137255%);fill-opacity:1;" d="M 0 51.476562 L 0.324219 51.640625 L 3.78125 49.664062 C 3.621094 48.441406 3.546875 47.222656 3.566406 46 C 3.566406 44.742188 3.675781 43.429688 3.78125 42.175781 L 0.324219 40.199219 L 0 40.359375 Z M 0 51.476562 "/>
<path style=" stroke:none;fill-rule:evenodd;fill:rgb(98.039216%,64.313728%,18.431373%);fill-opacity:1;" d="M 0.324219 57.386719 L 4.285156 59.632812 L 10.285156 56.238281 L 10.285156 51.640625 L 7.367188 49.933594 C 7.421875 50.757812 7.582031 51.566406 7.746094 52.394531 L 4.554688 54.261719 C 4.160156 52.753906 3.90625 51.207031 3.78125 49.664062 L 0.324219 51.640625 Z M 0.324219 57.386719 "/>
<path style=" stroke:none;fill-rule:evenodd;fill:rgb(94.509804%,34.901962%,20%);fill-opacity:1;" d="M 10.285156 74.523438 L 10.285156 69.976562 L 11.886719 69.042969 L 11.832031 68.988281 C 12.605469 69.921875 13.433594 70.785156 14.246094 71.613281 C 15.632812 72.996094 17.109375 74.253906 18.695312 75.382812 L 15.238281 77.414062 Z M 16.207031 66.527344 L 20.226562 68.828125 L 20.226562 72.167969 C 18.984375 71.269531 17.828125 70.265625 16.765625 69.152344 C 16.117188 68.558594 15.507812 67.910156 14.949219 67.230469 Z M 16.207031 66.527344 "/>
<path style=" stroke:none;fill-rule:evenodd;fill:rgb(88.627452%,14.509805%,45.490196%);fill-opacity:1;" d="M 30.183594 85.960938 L 25.179688 83.125 L 24.90625 83.285156 L 30.183594 86.359375 Z M 30.183594 85.960938 "/>
<path style=" stroke:none;fill-rule:evenodd;fill:rgb(93.725491%,21.960784%,22.352941%);fill-opacity:1;" d="M 24.90625 83.285156 L 25.179688 83.125 L 25.179688 79.121094 C 22.890625 78.113281 20.710938 76.875 18.695312 75.402344 L 15.21875 77.429688 L 15.21875 77.753906 Z M 24.90625 83.285156 "/>
<path style=" stroke:none;fill-rule:evenodd;fill:rgb(73.333335%,83.92157%,29.411766%);fill-opacity:1;" d="M 0.324219 23.011719 L 0.324219 22.847656 L 0 23.011719 L 0 23.171875 Z M 0.324219 23.011719 "/>
<path style=" stroke:none;fill-rule:evenodd;fill:rgb(83.92157%,87.843138%,25.882354%);fill-opacity:1;" d="M 5.277344 25.867188 L 0.324219 23.011719 L 0 23.171875 L 0 34.289062 L 0.324219 34.453125 L 5.277344 31.59375 Z M 5.277344 25.867188 "/>
<path style=" stroke:none;fill-rule:evenodd;fill:rgb(100%,81.176472%,16.078432%);fill-opacity:1;" d="M 0.324219 40.199219 L 3.78125 42.175781 C 4.160156 38.761719 5.007812 35.402344 6.304688 32.222656 L 5.257812 31.632812 L 0.304688 34.488281 L 0.304688 40.199219 Z M 7.367188 41.832031 L 10.285156 40.199219 L 10.285156 34.453125 L 9.402344 33.949219 C 8.394531 36.480469 7.707031 39.140625 7.367188 41.832031 "/>
<path style=" stroke:none;fill-rule:evenodd;fill:rgb(98.039216%,64.313728%,18.431373%);fill-opacity:1;" d="M 7.367188 49.933594 L 10.285156 51.640625 L 15.238281 48.785156 L 15.238281 43.035156 L 10.285156 40.199219 L 7.367188 41.832031 C 7.1875 43.214844 7.097656 44.597656 7.097656 46 C 7.097656 47.3125 7.1875 48.640625 7.367188 49.933594 "/>
<path style=" stroke:none;fill-rule:evenodd;fill:rgb(94.509804%,34.901962%,20%);fill-opacity:1;" d="M 25.179688 60.835938 L 25.179688 65.917969 L 20.226562 68.828125 L 16.207031 66.527344 L 16.207031 59.632812 L 19.667969 57.65625 Z M 25.179688 60.835938 "/>
<path style=" stroke:none;fill-rule:evenodd;fill:rgb(93.333334%,26.274511%,55.29412%);fill-opacity:1;" d="M 25.179688 83.125 L 30.183594 85.960938 L 35.191406 83.125 L 35.191406 81.976562 C 31.679688 81.492188 28.3125 80.554688 25.179688 79.121094 Z M 35.191406 78.417969 L 35.191406 77.429688 L 30.183594 74.539062 L 27.265625 76.226562 C 29.804688 77.304688 32.472656 78.023438 35.191406 78.417969 "/>
<path style=" stroke:none;fill-rule:evenodd;fill:rgb(95.294118%,44.313726%,19.607843%);fill-opacity:1;" d="M 15.238281 48.785156 L 10.285156 51.640625 L 10.285156 56.238281 L 16.226562 59.632812 L 19.683594 57.65625 L 19.683594 51.316406 Z M 15.238281 48.785156 "/>
<path style=" stroke:none;fill-rule:evenodd;fill:rgb(80.000001%,19.215687%,57.254905%);fill-opacity:1;" d="M 35.191406 83.105469 L 30.183594 85.945312 L 30.183594 86.320312 L 39.800781 91.855469 L 40.125 91.691406 L 40.125 85.945312 Z M 35.191406 83.105469 "/>
<path style=" stroke:none;fill-rule:evenodd;fill:rgb(74.117649%,12.54902%,14.509805%);fill-opacity:1;" d="M 27.265625 76.226562 L 30.183594 74.539062 L 30.183594 68.847656 L 25.179688 65.9375 L 20.226562 68.847656 L 20.226562 72.1875 C 22.386719 73.820312 24.746094 75.1875 27.265625 76.226562 "/>
<path style=" stroke:none;fill-rule:evenodd;fill:rgb(60.784316%,22.352941%,58.431375%);fill-opacity:1;" d="M 40.125 91.710938 L 39.800781 91.871094 L 40.019531 91.980469 L 40.289062 91.816406 Z M 40.125 91.710938 "/>
<path style=" stroke:none;fill-rule:evenodd;fill:rgb(94.509804%,92.156863%,34.901962%);fill-opacity:1;" d="M 10.285156 17.261719 L 10.121094 17.210938 L 0.34375 22.847656 L 0.34375 23.011719 L 5.292969 25.867188 L 10.285156 23.011719 Z M 10.285156 17.261719 "/>
<path style=" stroke:none;fill-rule:evenodd;fill:rgb(98.823529%,91.764706%,23.137255%);fill-opacity:1;" d="M 5.277344 31.613281 L 6.320312 32.207031 C 7.582031 29.082031 9.292969 26.242188 11.328125 23.601562 L 10.285156 23.011719 L 5.277344 25.867188 Z M 9.402344 33.949219 L 10.285156 34.453125 L 15.238281 31.613281 L 15.238281 25.867188 L 14.40625 25.433594 C 12.320312 28.003906 10.644531 30.878906 9.402344 33.949219 "/>
<path style=" stroke:none;fill-rule:evenodd;fill:rgb(98.039216%,64.313728%,18.431373%);fill-opacity:1;" d="M 19.683594 40.46875 L 19.683594 34.34375 L 19.847656 34.234375 L 15.238281 31.613281 L 10.285156 34.453125 L 10.285156 40.199219 L 15.238281 43.035156 Z M 19.683594 40.46875 "/>
<path style=" stroke:none;fill-rule:evenodd;fill:rgb(88.627452%,14.509805%,45.490196%);fill-opacity:1;" d="M 40.125 74.523438 L 40.125 69.257812 L 40.019531 69.3125 L 34.632812 66.242188 L 30.183594 68.808594 L 30.183594 74.503906 L 35.191406 77.394531 Z M 40.125 74.523438 "/>
<path style=" stroke:none;fill-rule:evenodd;fill:rgb(96.862745%,59.215689%,37.254903%);fill-opacity:1;" d="M 19.683594 51.316406 L 19.683594 40.484375 L 15.238281 43.054688 L 15.238281 48.800781 Z M 19.683594 51.316406 "/>
<path style=" stroke:none;fill-rule:evenodd;fill:rgb(80.000001%,19.215687%,57.254905%);fill-opacity:1;" d="M 35.191406 83.105469 L 40.144531 85.945312 L 45.152344 83.105469 L 45.152344 81.902344 C 43.457031 82.117188 41.746094 82.226562 40.035156 82.226562 C 38.414062 82.226562 36.8125 82.136719 35.191406 81.957031 Z M 45.132812 78.347656 L 45.132812 77.414062 L 40.125 74.523438 L 35.171875 77.414062 L 35.171875 78.402344 C 36.777344 78.617188 38.398438 78.722656 40.019531 78.722656 C 41.730469 78.742188 43.441406 78.617188 45.132812 78.347656 "/>
<path style=" stroke:none;fill-rule:evenodd;fill:rgb(82.745099%,12.156863%,14.901961%);fill-opacity:1;" d="M 30.183594 68.828125 L 34.632812 66.257812 L 25.179688 60.835938 L 25.179688 65.9375 Z M 30.183594 68.828125 "/>
<path style=" stroke:none;fill-rule:evenodd;fill:rgb(45.09804%,12.54902%,41.568628%);fill-opacity:1;" d="M 50.085938 85.960938 L 45.132812 83.125 L 40.125 85.960938 L 40.125 91.710938 L 40.289062 91.816406 L 50.066406 86.179688 L 50.066406 85.960938 Z M 50.085938 85.960938 "/>
<path style=" stroke:none;fill-rule:evenodd;fill:rgb(83.92157%,87.843138%,25.882354%);fill-opacity:1;" d="M 10.285156 17.261719 L 15.238281 14.40625 L 15.238281 14.246094 L 10.121094 17.210938 Z M 10.285156 17.261719 "/>
<path style=" stroke:none;fill-rule:evenodd;fill:rgb(100%,81.176472%,16.078432%);fill-opacity:1;" d="M 10.285156 23.011719 L 11.328125 23.601562 C 12.265625 22.453125 13.253906 21.410156 14.246094 20.371094 C 15.667969 18.953125 17.21875 17.640625 18.855469 16.492188 L 15.21875 14.40625 L 10.285156 17.261719 Z M 14.40625 25.417969 L 15.238281 25.867188 L 20.242188 23.011719 L 20.242188 19.832031 C 19 20.730469 17.847656 21.734375 16.785156 22.847656 C 15.9375 23.675781 15.164062 24.484375 14.40625 25.417969 "/>
<path style=" stroke:none;fill-rule:evenodd;fill:rgb(98.039216%,64.313728%,18.431373%);fill-opacity:1;" d="M 25.179688 25.867188 L 20.226562 23.011719 L 15.21875 25.867188 L 15.21875 31.613281 L 19.828125 34.234375 L 25.160156 31.164062 L 25.160156 25.867188 Z M 25.179688 25.867188 "/>
<path style=" stroke:none;fill-rule:evenodd;fill:rgb(52.156866%,22.745098%,58.823532%);fill-opacity:1;" d="M 55.09375 83.125 L 50.085938 85.960938 L 50.085938 86.179688 L 55.253906 83.214844 Z M 55.09375 83.125 "/>
<path style=" stroke:none;fill-rule:evenodd;fill:rgb(80.000001%,19.215687%,57.254905%);fill-opacity:1;" d="M 50.085938 68.828125 L 45.527344 66.152344 L 40.144531 69.277344 L 40.144531 74.539062 L 45.152344 77.429688 L 50.105469 74.539062 Z M 50.085938 68.828125 "/>
<path style=" stroke:none;fill-rule:evenodd;fill:rgb(60.784316%,22.352941%,58.431375%);fill-opacity:1;" d="M 45.132812 83.105469 L 50.085938 85.945312 L 55.09375 83.105469 L 55.09375 78.992188 C 51.921875 80.429688 48.574219 81.402344 45.132812 81.902344 Z M 52.894531 76.15625 L 50.085938 74.523438 L 45.132812 77.414062 L 45.132812 78.347656 C 47.835938 77.917969 50.464844 77.199219 52.894531 76.15625 "/>
<path style=" stroke:none;fill-rule:evenodd;fill:rgb(100%,81.176472%,16.078432%);fill-opacity:1;" d="M 15.21875 14.40625 L 18.855469 16.492188 C 20.835938 15.070312 22.960938 13.867188 25.179688 12.878906 L 25.179688 8.660156 L 25.070312 8.605469 L 15.238281 14.246094 Z M 15.21875 14.40625 "/>
<path style=" stroke:none;fill-rule:evenodd;fill:rgb(85.09804%,54.11765%,14.901961%);fill-opacity:1;" d="M 20.226562 23.011719 L 25.179688 25.867188 L 30.183594 23.011719 L 30.183594 17.261719 L 27.484375 15.734375 C 24.835938 16.777344 22.421875 18.195312 20.226562 19.847656 Z M 20.226562 23.011719 "/>
<path style=" stroke:none;fill-rule:evenodd;fill:rgb(56.078434%,30.980393%,62.352943%);fill-opacity:1;" d="M 55.09375 83.125 L 55.253906 83.234375 L 65.035156 77.59375 L 65.035156 77.429688 L 61.394531 75.347656 C 59.414062 76.765625 57.289062 78.007812 55.074219 79.011719 Z M 55.09375 83.125 "/>
<path style=" stroke:none;fill-rule:evenodd;fill:rgb(95.294118%,44.313726%,19.607843%);fill-opacity:1;" d="M 30.183594 23.011719 L 25.179688 25.867188 L 25.179688 31.183594 L 34.796875 25.652344 Z M 30.183594 23.011719 "/>
<path style=" stroke:none;fill-rule:evenodd;fill:rgb(82.352942%,29.411766%,60.784316%);fill-opacity:1;" d="M 50.085938 68.828125 L 55.09375 65.917969 L 55.09375 60.65625 L 45.527344 66.132812 Z M 50.085938 68.828125 "/>
<path style=" stroke:none;fill-rule:evenodd;fill:rgb(69.803923%,38.82353%,65.490198%);fill-opacity:1;" d="M 50.085938 74.523438 L 52.894531 76.15625 C 55.453125 75.078125 57.867188 73.660156 60.046875 71.933594 L 60.046875 68.808594 L 55.09375 65.902344 L 50.085938 68.828125 Z M 50.085938 74.523438 "/>
<path style=" stroke:none;fill-rule:evenodd;fill:rgb(100%,81.176472%,16.078432%);fill-opacity:1;" d="M 25.179688 8.660156 L 30.183594 5.804688 L 30.183594 5.640625 L 25.070312 8.605469 Z M 25.179688 8.660156 "/>
<path style=" stroke:none;fill-rule:evenodd;fill:rgb(98.039216%,64.313728%,18.431373%);fill-opacity:1;" d="M 27.484375 15.734375 L 30.183594 17.261719 L 34.199219 15.019531 L 34.199219 13.761719 L 34.417969 13.707031 C 32.039062 14.121094 29.714844 14.800781 27.484375 15.734375 M 34.183594 8.121094 L 30.167969 5.820312 L 25.160156 8.679688 L 25.160156 12.898438 C 28.042969 11.640625 31.066406 10.742188 34.164062 10.222656 Z M 34.183594 8.121094 "/>
<path style=" stroke:none;fill-rule:evenodd;fill:rgb(41.960785%,16.078432%,47.843137%);fill-opacity:1;" d="M 61.414062 75.347656 L 65.050781 77.429688 L 70.058594 74.539062 L 70.058594 69.996094 L 64.0625 66.546875 L 60.046875 68.847656 L 60.046875 71.972656 C 60.710938 71.539062 61.25 71.039062 61.863281 70.550781 L 65.050781 72.367188 C 63.898438 73.40625 62.675781 74.414062 61.414062 75.347656 "/>
<path style=" stroke:none;fill-rule:evenodd;fill:rgb(47.058824%,16.470589%,56.078434%);fill-opacity:1;" d="M 70.039062 74.523438 L 65.035156 77.414062 L 65.035156 77.574219 L 70.203125 74.613281 Z M 70.039062 74.523438 "/>
<path style=" stroke:none;fill-rule:evenodd;fill:rgb(95.294118%,44.313726%,19.607843%);fill-opacity:1;" d="M 40.019531 22.6875 L 40.125 22.742188 L 40.125 18.414062 L 34.183594 15.019531 L 30.183594 17.261719 L 30.183594 23.011719 L 34.8125 25.632812 Z M 40.019531 22.6875 "/>
<path style=" stroke:none;fill-rule:evenodd;fill:rgb(60.784316%,22.352941%,58.431375%);fill-opacity:1;" d="M 64.042969 66.527344 L 64.042969 59.632812 L 60.316406 57.496094 L 60.316406 57.65625 L 55.09375 60.675781 L 55.09375 65.9375 L 60.046875 68.847656 Z M 64.042969 66.527344 "/>
<path style=" stroke:none;fill-rule:evenodd;fill:rgb(98.039216%,64.313728%,18.431373%);fill-opacity:1;" d="M 40.125 4.671875 L 40.125 0.128906 L 40.019531 0.0195312 L 30.183594 5.660156 L 30.183594 5.820312 L 34.199219 8.121094 Z M 40.125 4.671875 "/>
<path style=" stroke:none;fill-rule:evenodd;fill:rgb(94.509804%,34.901962%,20%);fill-opacity:1;" d="M 40.125 18.414062 L 46.125 15.019531 L 50.085938 17.261719 L 50.085938 23.011719 L 45.347656 25.742188 L 40.125 22.722656 Z M 40.125 18.414062 "/>
<path style=" stroke:none;fill-rule:evenodd;fill:rgb(47.058824%,16.470589%,56.078434%);fill-opacity:1;" d="M 80 68.828125 L 75.984375 66.527344 L 70.039062 69.976562 L 70.039062 74.523438 L 70.203125 74.628906 L 79.980469 68.988281 Z M 80 68.828125 "/>
<path style=" stroke:none;fill-rule:evenodd;fill:rgb(62.7451%,8.627451%,39.215687%);fill-opacity:1;" d="M 65.050781 48.800781 L 65.050781 43.054688 L 60.316406 40.324219 L 60.316406 51.496094 Z M 65.050781 48.800781 "/>
<path style=" stroke:none;fill-rule:evenodd;fill:rgb(75.294119%,12.54902%,14.901961%);fill-opacity:1;" d="M 55.09375 25.867188 L 50.085938 23.011719 L 45.347656 25.742188 L 55.074219 31.324219 L 55.074219 25.867188 Z M 55.09375 25.867188 "/>
<path style=" stroke:none;fill-rule:evenodd;fill:rgb(60.784316%,22.352941%,58.431375%);fill-opacity:1;" d="M 70.039062 56.238281 L 70.039062 51.640625 L 65.035156 48.785156 L 60.316406 51.460938 L 60.316406 57.496094 L 64.042969 59.632812 Z M 70.039062 56.238281 "/>
<path style=" stroke:none;fill-rule:evenodd;fill:rgb(94.509804%,34.901962%,20%);fill-opacity:1;" d="M 46.125 8.121094 L 50.085938 5.820312 L 55.09375 8.679688 L 55.09375 13.007812 C 53.597656 12.324219 52.046875 11.765625 50.464844 11.300781 L 50.464844 14.964844 C 51.238281 15.179688 51.996094 15.46875 52.714844 15.789062 L 50.085938 17.261719 L 46.125 15.019531 Z M 46.125 8.121094 "/>
<path style=" stroke:none;fill-rule:evenodd;fill:rgb(56.470591%,31.764707%,62.7451%);fill-opacity:1;" d="M 70.707031 57.710938 C 70.816406 57.546875 70.886719 57.351562 70.921875 57.152344 C 70.886719 57.367188 70.816406 57.546875 70.707031 57.710938 M 71.03125 56.957031 C 71.824219 54.746094 72.347656 52.449219 72.632812 50.113281 L 70.039062 51.640625 L 70.039062 56.238281 L 71.085938 56.847656 Z M 75.984375 59.632812 L 80 57.332031 L 80 51.640625 L 76.253906 49.503906 C 75.949219 52.644531 75.210938 55.734375 74.109375 58.699219 L 74.164062 58.589844 Z M 75.984375 59.632812 "/>
<path style=" stroke:none;fill-rule:evenodd;fill:rgb(69.01961%,10.588235%,29.019609%);fill-opacity:1;" d="M 60.046875 23.011719 L 55.09375 25.867188 L 55.09375 31.34375 L 60.261719 34.363281 L 65.050781 31.632812 L 65.050781 25.882812 Z M 60.046875 23.011719 "/>
<path style=" stroke:none;fill-rule:evenodd;fill:rgb(77.254903%,27.450982%,15.294118%);fill-opacity:1;" d="M 50.085938 5.820312 L 40.144531 0.128906 L 40.144531 4.671875 L 46.125 8.121094 Z M 50.085938 5.820312 "/>
<path style=" stroke:none;fill-rule:evenodd;fill:rgb(64.313728%,9.019608%,40.784314%);fill-opacity:1;" d="M 70.058594 40.199219 L 70.058594 34.453125 L 65.050781 31.613281 L 60.261719 34.34375 L 60.316406 34.34375 L 60.316406 40.304688 L 65.050781 43.035156 Z M 70.058594 40.199219 "/>
<path style=" stroke:none;fill-rule:evenodd;fill:rgb(93.725491%,21.960784%,22.352941%);fill-opacity:1;" d="M 50.085938 23.011719 L 55.09375 25.867188 L 60.046875 23.011719 L 60.046875 20.046875 C 57.8125 18.285156 55.363281 16.851562 52.734375 15.773438 L 50.085938 17.261719 Z M 50.085938 23.011719 "/>
<path style=" stroke:none;fill-rule:evenodd;fill:rgb(60.784316%,22.352941%,58.431375%);fill-opacity:1;" d="M 65.035156 48.785156 L 70.039062 51.640625 L 72.617188 50.113281 C 72.796875 48.746094 72.886719 47.382812 72.886719 46 C 72.886719 44.5625 72.777344 43.109375 72.617188 41.671875 L 70.023438 40.199219 L 65.035156 43.035156 Z M 65.035156 48.785156 "/>
<path style=" stroke:none;fill-rule:evenodd;fill:rgb(41.960785%,16.078432%,47.843137%);fill-opacity:1;" d="M 76.253906 49.503906 L 80 51.640625 L 80 40.199219 L 76.199219 42.335938 C 76.363281 43.558594 76.433594 44.777344 76.417969 46 C 76.417969 47.203125 76.363281 48.351562 76.253906 49.503906 "/>
<path style=" stroke:none;fill-rule:evenodd;fill:rgb(88.627452%,14.509805%,45.490196%);fill-opacity:1;" d="M 60.027344 23.011719 L 65.035156 25.867188 L 65.644531 25.542969 C 64.925781 24.589844 64.132812 23.710938 63.285156 22.867188 C 62.261719 21.878906 61.179688 20.945312 60.046875 20.082031 L 60.046875 23.011719 Z M 68.726562 23.730469 L 70.039062 23.011719 L 70.039062 17.261719 L 65.035156 14.40625 L 61.304688 16.597656 C 62.890625 17.730469 64.386719 19.003906 65.753906 20.371094 C 66.796875 21.449219 67.789062 22.5625 68.726562 23.730469 "/>
<path style=" stroke:none;fill-rule:evenodd;fill:rgb(80.000001%,19.215687%,57.254905%);fill-opacity:1;" d="M 65.035156 31.613281 L 70.039062 34.46875 L 70.636719 34.144531 C 69.445312 31.039062 67.753906 28.128906 65.628906 25.5625 L 65.035156 25.882812 Z M 73.734375 32.3125 L 74.992188 31.59375 L 74.992188 25.847656 L 70.039062 23.011719 L 68.726562 23.730469 C 70.761719 26.351562 72.453125 29.242188 73.734375 32.3125 "/>
<path style=" stroke:none;fill-rule:evenodd;fill:rgb(93.725491%,21.960784%,22.352941%);fill-opacity:1;" d="M 61.304688 16.597656 L 65.035156 14.40625 L 55.074219 8.660156 L 55.074219 12.988281 C 57.273438 13.976562 59.359375 15.199219 61.304688 16.597656 "/>
<path style=" stroke:none;fill-rule:evenodd;fill:rgb(69.803923%,38.82353%,65.490198%);fill-opacity:1;" d="M 70.039062 40.199219 L 72.632812 41.671875 C 72.273438 39.085938 71.605469 36.550781 70.652344 34.109375 L 70.039062 34.433594 Z M 76.199219 42.335938 L 80 40.199219 L 80 34.453125 L 74.992188 31.59375 L 73.734375 32.3125 C 74.992188 35.492188 75.875 38.832031 76.199219 42.335938 "/>
<path style=" stroke:none;fill-rule:evenodd;fill:rgb(81.960785%,28.627452%,60.392159%);fill-opacity:1;" d="M 74.992188 25.867188 L 80 23.011719 L 70.039062 17.261719 L 70.039062 23.011719 Z M 74.992188 25.867188 "/>
<path style=" stroke:none;fill-rule:evenodd;fill:rgb(60.784316%,22.352941%,58.431375%);fill-opacity:1;" d="M 74.992188 25.867188 L 74.992188 31.613281 L 80 34.46875 L 80 23.011719 Z M 74.992188 25.867188 "/>
<path style=" stroke:none;fill-rule:evenodd;fill:rgb(52.156866%,27.058825%,60.392159%);fill-opacity:1;" d="M 80 57.332031 L 75.984375 59.632812 L 75.984375 66.527344 L 80 68.828125 Z M 80 57.332031 "/>
<path style=" stroke:none;fill-rule:evenodd;fill:rgb(94.509804%,34.901962%,20%);fill-opacity:1;" d="M 30.183594 51.640625 L 30.183594 52.195312 L 29.699219 51.925781 L 29.699219 51.386719 Z M 35.191406 48.785156 L 30.183594 51.640625 L 29.699219 51.371094 L 29.699219 40.46875 L 30.183594 40.199219 L 35.191406 43.035156 Z M 35.191406 48.785156 "/>
<path style=" stroke:none;fill-rule:evenodd;fill:rgb(88.627452%,14.509805%,45.490196%);fill-opacity:1;" d="M 40.125 57.332031 L 39.621094 57.65625 L 40 57.871094 L 40.503906 57.546875 Z M 40.125 57.332031 "/>
<path style=" stroke:none;fill-rule:evenodd;fill:rgb(93.725491%,21.960784%,22.352941%);fill-opacity:1;" d="M 35.191406 48.785156 L 30.183594 51.640625 L 30.183594 52.195312 L 39.640625 57.675781 L 40.144531 57.351562 L 40.144531 51.65625 Z M 35.191406 48.785156 "/>
<path style=" stroke:none;fill-rule:evenodd;fill:rgb(93.333334%,24.705882%,54.11765%);fill-opacity:1;" d="M 50.085938 51.640625 L 45.132812 48.800781 L 40.125 51.640625 L 40.125 57.332031 L 40.503906 57.546875 L 50.066406 52.015625 Z M 50.085938 51.640625 "/>
<path style=" stroke:none;fill-rule:evenodd;fill:rgb(93.725491%,21.960784%,22.352941%);fill-opacity:1;" d="M 45.132812 43.035156 L 40.125 40.199219 L 35.171875 43.035156 L 35.171875 48.785156 L 40.125 51.640625 L 45.132812 48.785156 Z M 45.132812 43.035156 "/>
<path style=" stroke:none;fill-rule:evenodd;fill:rgb(88.627452%,14.509805%,45.490196%);fill-opacity:1;" d="M 50.300781 40.304688 L 50.085938 40.199219 L 45.132812 43.035156 L 45.132812 48.785156 L 50.085938 51.640625 L 50.300781 51.53125 Z M 50.300781 40.304688 "/>
<path style=" stroke:none;fill-rule:evenodd;fill:rgb(80.000001%,19.215687%,57.254905%);fill-opacity:1;" d="M 50.085938 51.640625 L 50.085938 52.015625 L 50.300781 51.910156 L 50.300781 51.53125 Z M 50.085938 51.640625 "/>
<path style=" stroke:none;fill-rule:evenodd;fill:rgb(95.294118%,44.313726%,19.607843%);fill-opacity:1;" d="M 30.183594 40.199219 L 30.183594 39.820312 L 29.699219 40.089844 L 29.699219 40.46875 Z M 30.183594 40.199219 "/>
<path style=" stroke:none;fill-rule:evenodd;fill:rgb(94.509804%,34.901962%,20%);fill-opacity:1;" d="M 40.125 34.453125 L 40.125 40.199219 L 35.171875 43.035156 L 30.167969 40.199219 L 30.167969 39.820312 L 39.785156 34.289062 Z M 40.125 34.453125 "/>
<path style=" stroke:none;fill-rule:evenodd;fill:rgb(95.686275%,50.196081%,37.254903%);fill-opacity:1;" d="M 40.144531 34.453125 L 39.820312 34.289062 L 40.035156 34.183594 L 40.359375 34.34375 Z M 40.144531 34.453125 "/>
<path style=" stroke:none;fill-rule:evenodd;fill:rgb(93.725491%,21.960784%,22.352941%);fill-opacity:1;" d="M 50.085938 39.984375 L 40.359375 34.34375 L 40.144531 34.453125 L 40.144531 40.199219 L 45.152344 43.035156 L 50.105469 40.199219 L 50.105469 39.984375 Z M 50.085938 39.984375 "/>
<path style=" stroke:none;fill-rule:evenodd;fill:rgb(88.627452%,14.509805%,45.490196%);fill-opacity:1;" d="M 50.300781 40.304688 L 50.300781 40.089844 L 50.085938 39.984375 L 50.085938 40.199219 Z M 50.300781 40.304688 "/>
<path style=" stroke:none;fill-rule:evenodd;fill:rgb(95.294118%,44.313726%,19.607843%);fill-opacity:1;" d="M 43.546875 9.59375 L 40.144531 7.617188 L 36.738281 9.59375 L 36.738281 13.527344 L 40.144531 15.503906 L 43.546875 13.527344 Z M 43.546875 9.59375 "/>
<path style=" stroke:none;fill-rule:evenodd;fill:rgb(33.333334%,13.333334%,38.82353%);fill-opacity:1;" d="M 73.460938 61.105469 L 70.058594 59.128906 L 66.601562 61.105469 L 66.601562 65.039062 L 70.058594 67.015625 L 73.460938 65.039062 Z M 73.460938 61.105469 "/>
<path style=" stroke:none;fill-rule:evenodd;fill:rgb(95.294118%,44.313726%,19.607843%);fill-opacity:1;" d="M 13.6875 61.105469 L 10.285156 59.128906 L 6.878906 61.105469 L 6.878906 65.054688 L 10.285156 67.015625 L 13.6875 65.039062 Z M 13.6875 61.105469 "/>
</g>
</svg>
