<?xml version="1.0" encoding="UTF-8"?>
<svg xmlns="http://www.w3.org/2000/svg" xmlns:xlink="http://www.w3.org/1999/xlink" width="80px" height="80px" viewBox="0 0 80 80" version="1.1">
<defs>
<linearGradient id="linear0" gradientUnits="userSpaceOnUse" x1="115.044998" y1="512.747009" x2="142.929993" y2="491.740997" gradientTransform="matrix(2.477875,0,0,-2.477875,-283.788433,1281.278076)">
<stop offset="0" style="stop-color:rgb(20.392157%,53.333333%,47.058824%);stop-opacity:1;"/>
<stop offset="1" style="stop-color:rgb(33.72549%,74.117647%,65.882353%);stop-opacity:1;"/>
</linearGradient>
</defs>
<g id="surface1">
<path style=" stroke:none;fill-rule:nonzero;fill:url(#linear0);" d="M 69.03125 10.125 L 13.234375 10.125 C 9.40625 10.125 6.265625 13.09375 6.265625 16.703125 L 6.3125 61.28125 L 5.265625 67.28125 L 20.203125 62.78125 L 69.015625 62.78125 C 72.84375 62.78125 75.984375 59.8125 75.984375 56.203125 L 75.984375 16.703125 C 76 13.078125 72.859375 10.125 69.03125 10.125 "/>
<path style=" stroke:none;fill-rule:nonzero;fill:rgb(100%,100%,100%);fill-opacity:1;" d="M 12.203125 5.109375 C 6.390625 5.109375 1.40625 9.6875 1.40625 15.5 L 1.46875 64.125 L 0 74.90625 L 19.859375 69.625 L 69.21875 69.625 C 75.03125 69.625 80.015625 65.046875 80.015625 59.234375 L 80.015625 15.5 C 80.015625 9.6875 75.03125 5.109375 69.234375 5.109375 Z M 12.203125 12.4375 L 69.21875 12.4375 C 71.265625 12.4375 72.671875 13.921875 72.671875 15.5 L 72.671875 59.21875 C 72.671875 60.78125 71.265625 62.3125 69.21875 62.28125 L 18.78125 62.28125 L 8.6875 65.328125 L 8.796875 64.734375 L 8.734375 15.5 C 8.734375 13.921875 10.15625 12.4375 12.203125 12.4375 "/>
<path style=" stroke:none;fill-rule:nonzero;fill:rgb(100%,100%,100%);fill-opacity:1;" d="M 18.1875 48.578125 L 18.1875 43.140625 L 29.609375 37.09375 C 29.984375 36.90625 30.328125 36.765625 30.671875 36.671875 C 31.03125 36.546875 31.375 36.453125 31.65625 36.390625 L 32.59375 36.296875 L 32.59375 35.9375 C 32.28125 35.90625 31.96875 35.84375 31.65625 35.75 C 31.359375 35.6875 31.03125 35.609375 30.671875 35.515625 C 30.328125 35.390625 29.96875 35.234375 29.609375 35.046875 L 18.1875 29 L 18.1875 23.515625 L 35.84375 33.125 L 35.84375 38.96875 Z M 18.1875 48.578125 "/>
<path style=" stroke:none;fill-rule:nonzero;fill:rgb(100%,100%,100%);fill-opacity:1;" d="M 17.265625 21.828125 L 17.265625 29.703125 L 29.234375 36.046875 L 29.3125 36.078125 L 29.234375 36.109375 L 17.265625 42.453125 L 17.265625 50.28125 L 18.546875 49.578125 L 36.734375 39.6875 L 36.734375 32.4375 Z M 19.109375 25.21875 L 34.921875 33.828125 L 34.921875 38.28125 L 19.109375 46.890625 L 19.109375 43.859375 L 29.984375 38.109375 L 30 38.09375 C 30.296875 37.9375 30.59375 37.828125 30.90625 37.734375 L 30.921875 37.734375 L 30.953125 37.71875 C 31.28125 37.609375 31.5625 37.53125 31.8125 37.46875 L 33.546875 37.296875 L 33.546875 34.921875 L 32.703125 34.84375 C 32.4375 34.8125 32.15625 34.765625 31.90625 34.671875 L 31.875 34.671875 L 31.84375 34.65625 C 31.53125 34.59375 31.234375 34.515625 30.921875 34.4375 C 30.609375 34.328125 30.296875 34.1875 30 34.03125 L 29.984375 34.015625 L 19.109375 28.28125 Z M 42.90625 46.6875 L 61.765625 46.6875 L 61.765625 51.78125 L 42.90625 51.78125 Z M 42.90625 46.6875 "/>
<path style=" stroke:none;fill-rule:nonzero;fill:rgb(100%,100%,100%);fill-opacity:1;" d="M 41.984375 45.640625 L 41.984375 52.828125 L 62.671875 52.828125 L 62.671875 45.640625 Z M 43.8125 47.734375 L 60.84375 47.734375 L 60.84375 50.734375 L 43.8125 50.734375 Z M 43.8125 47.734375 "/>
</g>
</svg>
