<?xml version="1.0" encoding="UTF-8"?>
<svg xmlns="http://www.w3.org/2000/svg" xmlns:xlink="http://www.w3.org/1999/xlink" width="80px" height="80px" viewBox="0 0 80 80" version="1.1">
<g id="surface1">
<path style=" stroke:none;fill-rule:nonzero;fill:rgb(24.313726%,54.901963%,14.509805%);fill-opacity:1;" d="M 80 40 C 80 17.910156 62.089844 0 40 0 C 17.910156 0 0 17.910156 0 40 C 0 62.089844 17.910156 80 40 80 C 62.089844 80 80 62.089844 80 40 Z M 80 40 "/>
<path style=" stroke:none;fill-rule:nonzero;fill:rgb(100%,100%,100%);fill-opacity:1;" d="M 5.164062 36.429688 C 6.410156 35.847656 7.742188 35.480469 9.109375 35.332031 C 9.578125 35.269531 10.058594 35.242188 10.535156 35.234375 C 11.445312 35.203125 12.351562 35.359375 13.199219 35.695312 C 13.851562 35.957031 14.390625 36.441406 14.722656 37.0625 C 15.078125 37.78125 15.246094 38.578125 15.214844 39.382812 L 15.214844 47.015625 L 12.796875 47.015625 L 12.796875 39.710938 C 12.796875 39.421875 12.757812 39.136719 12.683594 38.855469 C 12.621094 38.570312 12.488281 38.300781 12.292969 38.078125 C 12.078125 37.8125 11.792969 37.609375 11.46875 37.5 C 11.027344 37.351562 10.558594 37.28125 10.09375 37.289062 C 9.238281 37.292969 8.390625 37.445312 7.585938 37.730469 L 7.585938 47.011719 L 5.164062 47.011719 L 5.164062 36.417969 Z M 17.980469 47.019531 L 17.980469 45 L 24.53125 36.804688 L 24.855469 37.398438 L 18.105469 37.398438 L 18.105469 35.492188 L 26.722656 35.492188 L 26.722656 37.460938 L 20.355469 45.640625 L 20.304688 45 L 26.710938 45 L 26.710938 47.019531 Z M 34.324219 47.367188 C 33.71875 47.367188 33.113281 47.328125 32.507812 47.253906 C 31.976562 47.183594 31.449219 47.054688 30.949219 46.863281 C 30.503906 46.691406 30.113281 46.414062 29.804688 46.054688 C 29.535156 45.671875 29.394531 45.214844 29.414062 44.746094 L 29.414062 30.867188 L 31.824219 30.867188 L 31.824219 37.09375 L 31.203125 36.3125 C 31.523438 36.0625 31.882812 35.871094 32.265625 35.734375 C 32.703125 35.585938 33.148438 35.460938 33.601562 35.371094 C 33.984375 35.289062 34.375 35.242188 34.765625 35.234375 C 36.515625 35.234375 37.820312 35.757812 38.710938 36.796875 C 39.597656 37.839844 40.023438 39.265625 40.023438 41.136719 C 40.0625 42.195312 39.890625 43.246094 39.53125 44.238281 C 39.265625 44.972656 38.816406 45.628906 38.222656 46.144531 C 37.6875 46.589844 37.058594 46.910156 36.382812 47.082031 C 35.707031 47.269531 35.003906 47.359375 34.300781 47.359375 L 34.320312 47.359375 Z M 34.210938 45.273438 C 34.949219 45.316406 35.683594 45.125 36.300781 44.71875 C 36.777344 44.355469 37.125 43.847656 37.285156 43.269531 C 37.476562 42.609375 37.574219 41.917969 37.5625 41.226562 C 37.585938 40.492188 37.464844 39.757812 37.214844 39.066406 C 37.027344 38.527344 36.675781 38.0625 36.210938 37.738281 C 35.675781 37.414062 35.0625 37.253906 34.4375 37.277344 C 33.996094 37.285156 33.554688 37.335938 33.125 37.4375 C 32.671875 37.539062 32.242188 37.703125 31.839844 37.929688 L 31.839844 44.140625 C 31.832031 44.429688 31.972656 44.703125 32.210938 44.855469 C 32.480469 45.03125 32.78125 45.148438 33.101562 45.199219 C 33.464844 45.246094 33.828125 45.265625 34.191406 45.265625 L 34.207031 45.265625 Z M 34.210938 45.273438 "/>
<path style=" stroke:none;fill-rule:nonzero;fill:rgb(81.176472%,81.176472%,81.176472%);fill-opacity:1;" d="M 47.398438 47.367188 C 46.410156 47.382812 45.425781 47.144531 44.554688 46.675781 C 43.789062 46.210938 43.179688 45.523438 42.8125 44.707031 C 42.402344 43.71875 42.207031 42.652344 42.242188 41.585938 C 42.210938 40.496094 42.375 39.417969 42.734375 38.394531 C 43.015625 37.644531 43.480469 36.980469 44.089844 36.464844 C 44.667969 36.007812 45.339844 35.6875 46.058594 35.523438 C 46.800781 35.339844 47.5625 35.246094 48.332031 35.246094 C 49.097656 35.234375 49.855469 35.347656 50.585938 35.570312 C 51.207031 35.75 51.769531 36.089844 52.214844 36.554688 C 52.636719 37.007812 52.863281 37.609375 52.835938 38.230469 L 52.835938 47.371094 C 52.84375 47.953125 52.742188 48.53125 52.539062 49.074219 C 52.351562 49.617188 52.039062 50.105469 51.621094 50.5 C 51.152344 50.953125 50.585938 51.292969 49.964844 51.484375 C 49.144531 51.730469 48.289062 51.847656 47.433594 51.832031 C 46.179688 51.816406 44.933594 51.613281 43.738281 51.226562 L 43.738281 49 C 44.433594 49.257812 45.144531 49.449219 45.871094 49.578125 C 46.335938 49.667969 46.804688 49.714844 47.277344 49.714844 C 47.964844 49.753906 48.65625 49.636719 49.296875 49.375 C 49.699219 49.195312 50.027344 48.875 50.210938 48.476562 C 50.363281 48.113281 50.445312 47.722656 50.445312 47.328125 L 50.445312 45.578125 L 51.082031 46.109375 C 50.753906 46.371094 50.398438 46.585938 50.015625 46.75 C 49.601562 46.9375 49.171875 47.082031 48.730469 47.191406 C 48.296875 47.308594 47.851562 47.371094 47.40625 47.371094 Z M 47.796875 45.390625 C 48.71875 45.410156 49.625 45.171875 50.414062 44.703125 L 50.414062 38.683594 C 50.445312 38.359375 50.324219 38.039062 50.09375 37.808594 C 49.863281 37.597656 49.574219 37.453125 49.265625 37.398438 C 48.898438 37.324219 48.519531 37.285156 48.140625 37.285156 C 47.378906 37.238281 46.621094 37.4375 45.980469 37.855469 C 45.496094 38.238281 45.148438 38.773438 44.996094 39.371094 C 44.796875 40.0625 44.695312 40.78125 44.695312 41.5 C 44.652344 42.496094 44.914062 43.484375 45.453125 44.328125 C 46 45.070312 46.886719 45.480469 47.800781 45.414062 L 47.800781 45.398438 Z M 61.097656 47.367188 C 60.070312 47.390625 59.050781 47.152344 58.136719 46.675781 C 57.300781 46.207031 56.628906 45.496094 56.210938 44.632812 C 55.738281 43.597656 55.507812 42.46875 55.542969 41.328125 C 55.542969 39.328125 56.003906 37.808594 56.9375 36.78125 C 58.839844 35.011719 61.675781 34.710938 63.902344 36.046875 C 64.6875 36.621094 65.265625 37.433594 65.554688 38.363281 C 65.921875 39.472656 66.09375 40.644531 66.046875 41.816406 L 56.980469 41.816406 L 56.90625 40.027344 L 64.210938 40.027344 L 63.632812 40.605469 C 63.585938 39.429688 63.34375 38.574219 62.898438 38.03125 C 62.371094 37.441406 61.597656 37.136719 60.808594 37.207031 C 60.261719 37.1875 59.722656 37.324219 59.246094 37.59375 C 58.777344 37.894531 58.429688 38.347656 58.261719 38.878906 C 58.015625 39.679688 57.910156 40.511719 57.941406 41.347656 C 57.863281 42.410156 58.183594 43.464844 58.839844 44.304688 C 59.535156 45.003906 60.5 45.363281 61.480469 45.289062 C 61.96875 45.289062 62.457031 45.25 62.929688 45.152344 C 63.359375 45.070312 63.78125 44.957031 64.191406 44.808594 C 64.578125 44.65625 64.90625 44.507812 65.175781 44.367188 L 65.175781 46.601562 C 64.589844 46.84375 63.984375 47.027344 63.359375 47.152344 C 62.617188 47.316406 61.859375 47.390625 61.097656 47.378906 Z M 72.929688 47.320312 C 72.03125 47.359375 71.152344 47.066406 70.460938 46.496094 C 69.828125 45.847656 69.503906 44.964844 69.566406 44.0625 L 69.566406 37.492188 L 67.699219 37.492188 L 67.699219 35.492188 L 69.5625 35.492188 L 69.5625 32.277344 L 72.027344 32.277344 L 72.027344 35.492188 L 74.835938 35.492188 L 74.835938 37.492188 L 72.027344 37.492188 L 72.027344 43.582031 C 72 44.003906 72.097656 44.429688 72.304688 44.796875 C 72.582031 45.09375 72.984375 45.234375 73.386719 45.1875 C 73.894531 45.207031 74.394531 45.082031 74.835938 44.824219 L 74.835938 46.957031 C 74.230469 47.195312 73.59375 47.324219 72.945312 47.332031 L 72.929688 47.332031 Z M 72.929688 47.320312 "/>
<path style=" stroke:none;fill-rule:nonzero;fill:rgb(100%,78.823531%,4.705882%);fill-opacity:1;" d="M 34.6875 31.605469 C 34.550781 31.265625 34.710938 30.875 35.054688 30.738281 L 35.128906 30.714844 C 37.84375 30.050781 40.660156 31.335938 41.941406 33.820312 C 42.023438 33.992188 42.027344 34.191406 41.953125 34.367188 C 41.878906 34.539062 41.734375 34.675781 41.554688 34.738281 C 41.171875 34.863281 40.757812 34.695312 40.570312 34.335938 C 39.585938 32.601562 37.597656 31.691406 35.636719 32.078125 C 35.25 32.175781 34.847656 31.980469 34.6875 31.617188 Z M 34.6875 31.605469 "/>
<path style=" stroke:none;fill-rule:nonzero;fill:rgb(100%,78.823531%,4.705882%);fill-opacity:1;" d="M 34.734375 29.390625 C 34.578125 29.019531 34.753906 28.59375 35.128906 28.441406 L 35.226562 28.40625 C 38.566406 27.597656 42.054688 29.007812 43.898438 31.910156 C 44.105469 32.253906 44 32.703125 43.65625 32.917969 L 43.597656 32.945312 C 43.203125 33.136719 42.722656 33 42.484375 32.621094 C 41.003906 30.40625 38.3125 29.328125 35.710938 29.914062 C 35.300781 30 34.882812 29.777344 34.726562 29.386719 Z M 34.734375 29.390625 "/>
</g>
</svg>
