<?xml version="1.0" encoding="UTF-8"?>
<svg xmlns="http://www.w3.org/2000/svg" xmlns:xlink="http://www.w3.org/1999/xlink" width="80px" height="80px" viewBox="0 0 80 80" version="1.1">
<defs>
<clipPath id="clip1">
  <path d="M 12 5 L 68 5 L 68 78 L 12 78 Z M 12 5 "/>
</clipPath>
<clipPath id="clip2">
  <path d="M 80 40 C 80 17.910156 62.089844 0 40 0 C 17.910156 0 0 17.910156 0 40 C 0 62.089844 17.910156 80 40 80 C 62.089844 80 80 62.089844 80 40 Z M 80 40 "/>
</clipPath>
<clipPath id="clip3">
  <path d="M 28 35 L 52 35 L 52 54 L 28 54 Z M 28 35 "/>
</clipPath>
<clipPath id="clip4">
  <path d="M 80 40 C 80 17.910156 62.089844 0 40 0 C 17.910156 0 0 17.910156 0 40 C 0 62.089844 17.910156 80 40 80 C 62.089844 80 80 62.089844 80 40 Z M 80 40 "/>
</clipPath>
<clipPath id="clip5">
  <path d="M 23 36 L 57 36 L 57 48 L 23 48 Z M 23 36 "/>
</clipPath>
<clipPath id="clip6">
  <path d="M 80 40 C 80 17.910156 62.089844 0 40 0 C 17.910156 0 0 17.910156 0 40 C 0 62.089844 17.910156 80 40 80 C 62.089844 80 80 62.089844 80 40 Z M 80 40 "/>
</clipPath>
</defs>
<g id="surface1">
<path style=" stroke:none;fill-rule:nonzero;fill:rgb(100%,100%,100%);fill-opacity:1;" d="M 80 40 C 80 17.910156 62.089844 0 40 0 C 17.910156 0 0 17.910156 0 40 C 0 62.089844 17.910156 80 40 80 C 62.089844 80 80 62.089844 80 40 Z M 80 40 "/>
<g clip-path="url(#clip1)" clip-rule="nonzero">
<g clip-path="url(#clip2)" clip-rule="nonzero">
<path style=" stroke:none;fill-rule:nonzero;fill:rgb(0%,0%,0%);fill-opacity:1;" d="M 24.578125 5.609375 C 23.90625 5.71875 23.09375 6.078125 22.53125 6.5 C 20.8125 7.8125 19.46875 10.59375 18.90625 14.0625 C 18.6875 15.375 18.546875 17.1875 18.546875 18.578125 C 18.546875 20.21875 18.734375 22.3125 19.015625 23.75 C 19.078125 24.078125 19.109375 24.359375 19.078125 24.375 C 19.0625 24.390625 18.796875 24.609375 18.515625 24.828125 C 17.546875 25.609375 16.421875 26.796875 15.65625 27.890625 C 14.1875 29.984375 13.234375 32.359375 12.828125 34.921875 C 12.671875 35.9375 12.625 37.984375 12.75 39 C 13.03125 41.34375 13.734375 43.328125 14.9375 45.140625 L 15.328125 45.71875 L 15.21875 45.90625 C 14.40625 47.265625 13.71875 49.234375 13.40625 51.109375 C 13.15625 52.609375 13.125 53 13.125 55 C 13.125 57.015625 13.15625 57.421875 13.390625 58.8125 C 13.671875 60.484375 14.25 62.25 14.90625 63.421875 C 15.125 63.8125 15.640625 64.609375 15.703125 64.640625 C 15.71875 64.65625 15.65625 64.84375 15.5625 65.0625 C 14.8125 66.703125 14.171875 68.875 13.90625 70.703125 C 13.71875 71.953125 13.6875 72.359375 13.6875 73.6875 C 13.6875 75.375 13.78125 76.1875 14.140625 77.53125 L 14.1875 77.734375 L 18.625 77.734375 L 18.484375 77.453125 C 17.59375 75.796875 17.5 72.71875 18.28125 69.640625 C 18.640625 68.21875 19.03125 67.171875 19.78125 65.75 L 20.234375 64.875 L 20.234375 64.34375 C 20.234375 63.84375 20.21875 63.796875 20.0625 63.46875 C 19.9375 63.21875 19.765625 63 19.484375 62.71875 C 18.984375 62.234375 18.625 61.71875 18.328125 61.078125 C 17.046875 58.3125 16.796875 54.203125 17.703125 50.6875 C 18.078125 49.21875 18.6875 47.921875 19.34375 47.21875 C 19.78125 46.734375 20.015625 46.1875 20.015625 45.625 C 20.015625 45.046875 19.8125 44.5625 19.34375 44.046875 C 18 42.609375 17.1875 40.875 16.890625 38.84375 C 16.46875 35.953125 17.234375 32.8125 18.96875 30.3125 C 20.65625 27.859375 23.046875 26.296875 25.703125 25.875 C 26.296875 25.78125 27.40625 25.796875 28.03125 25.90625 C 28.703125 26.03125 29.140625 25.984375 29.578125 25.78125 C 30.125 25.53125 30.390625 25.21875 30.703125 24.484375 C 30.984375 23.84375 31.203125 23.484375 31.78125 22.75 C 32.484375 21.875 33.171875 21.28125 34.25 20.5625 C 35.5 19.75 36.90625 19.15625 38.3125 18.875 C 38.828125 18.765625 39.0625 18.75 40.015625 18.75 C 40.96875 18.75 41.21875 18.765625 41.71875 18.875 C 43.78125 19.296875 45.84375 20.359375 47.484375 21.875 C 47.84375 22.203125 48.6875 23.25 48.953125 23.6875 C 49.0625 23.859375 49.234375 24.21875 49.359375 24.484375 C 49.671875 25.203125 49.9375 25.53125 50.484375 25.78125 C 50.90625 25.984375 51.34375 26.03125 52 25.921875 C 53.03125 25.75 53.828125 25.765625 54.828125 25.96875 C 58.265625 26.65625 61.265625 29.5 62.59375 33.296875 C 63.75 36.625 63.421875 40.125 61.703125 42.78125 C 61.40625 43.234375 61.125 43.59375 60.703125 44.046875 C 59.796875 45.015625 59.796875 46.21875 60.703125 47.21875 C 62.1875 48.84375 63.109375 52.828125 62.828125 56.359375 C 62.640625 58.6875 62.046875 60.765625 61.21875 61.9375 C 61.078125 62.140625 60.765625 62.5 60.546875 62.71875 C 60.25 63.015625 60.078125 63.21875 59.96875 63.46875 C 59.8125 63.796875 59.796875 63.859375 59.796875 64.34375 L 59.796875 64.875 L 60.25 65.75 C 61 67.1875 61.390625 68.234375 61.75 69.640625 C 62.515625 72.671875 62.4375 75.6875 61.578125 77.40625 C 61.5 77.546875 61.4375 77.6875 61.4375 77.703125 C 61.4375 77.71875 62.421875 77.734375 63.640625 77.734375 L 65.84375 77.734375 L 65.90625 77.515625 C 65.9375 77.390625 65.984375 77.21875 66.015625 77.109375 C 66.078125 76.875 66.1875 76.203125 66.28125 75.5625 C 66.375 74.90625 66.375 72.5 66.28125 71.78125 C 65.953125 69.140625 65.390625 67.0625 64.484375 65.078125 C 64.390625 64.859375 64.328125 64.65625 64.34375 64.65625 C 64.375 64.640625 64.515625 64.4375 64.671875 64.203125 C 65.796875 62.5 66.5 60.34375 66.84375 57.5 C 66.9375 56.71875 66.9375 53.359375 66.84375 52.59375 C 66.59375 50.65625 66.296875 49.34375 65.796875 48 C 65.59375 47.453125 65.046875 46.28125 64.8125 45.890625 L 64.703125 45.703125 L 65.09375 45.125 C 66.296875 43.3125 67 41.328125 67.28125 38.984375 C 67.40625 37.96875 67.359375 35.921875 67.203125 34.90625 C 66.796875 32.328125 65.84375 29.96875 64.375 27.875 C 63.609375 26.78125 62.5 25.578125 61.515625 24.8125 C 61.234375 24.578125 60.96875 24.375 60.953125 24.359375 C 60.921875 24.34375 60.953125 24.046875 61.015625 23.734375 C 61.640625 20.46875 61.625 16.390625 60.96875 13.203125 C 60.40625 10.421875 59.359375 8.21875 58.03125 6.9375 C 56.96875 5.921875 55.875 5.484375 54.5625 5.5625 C 51.5625 5.734375 49.15625 9.1875 48.203125 14.625 C 48.046875 15.5 47.90625 16.53125 47.90625 16.8125 C 47.90625 16.921875 47.890625 17.015625 47.859375 17.015625 C 47.828125 17.015625 47.625 16.90625 47.40625 16.78125 C 45.078125 15.4375 42.5 14.703125 40 14.703125 C 37.5 14.703125 34.921875 15.4375 32.609375 16.796875 C 32.390625 16.921875 32.1875 17.03125 32.15625 17.03125 C 32.125 17.03125 32.109375 16.9375 32.109375 16.828125 C 32.109375 16.53125 31.96875 15.484375 31.8125 14.640625 C 30.953125 9.765625 28.96875 6.53125 26.328125 5.71875 C 25.984375 5.625 24.953125 5.546875 24.578125 5.609375 M 25.453125 9.828125 C 26.203125 10.421875 27.03125 12.109375 27.5 14 C 27.59375 14.34375 27.6875 14.734375 27.703125 14.875 C 27.71875 15.015625 27.78125 15.328125 27.828125 15.578125 C 28.03125 16.671875 28.125 17.859375 28.140625 19.3125 L 28.140625 20.734375 L 27.421875 21.796875 L 26.59375 21.796875 C 25.625 21.796875 24.65625 21.921875 23.71875 22.171875 C 23.390625 22.25 23.0625 22.34375 23 22.359375 C 22.90625 22.375 22.890625 22.34375 22.828125 21.921875 C 22.515625 19.609375 22.53125 17.0625 22.875 14.9375 C 23.25 12.5625 24.125 10.421875 24.96875 9.796875 C 25.1875 9.640625 25.21875 9.640625 25.453125 9.828125 M 55.015625 9.796875 C 55.53125 10.171875 56.09375 11.1875 56.515625 12.46875 C 57.359375 15.046875 57.59375 18.5625 57.15625 21.921875 C 57.09375 22.34375 57.078125 22.375 56.984375 22.359375 C 56.921875 22.34375 56.59375 22.265625 56.265625 22.171875 C 55.34375 21.921875 54.375 21.796875 53.390625 21.796875 L 52.5625 21.796875 L 51.84375 20.734375 L 51.84375 19.3125 C 51.859375 17.296875 52.046875 15.734375 52.484375 13.984375 C 52.953125 12.109375 53.796875 10.421875 54.53125 9.828125 C 54.78125 9.640625 54.8125 9.640625 55.015625 9.796875 "/>
</g>
</g>
<g clip-path="url(#clip3)" clip-rule="nonzero">
<g clip-path="url(#clip4)" clip-rule="nonzero">
<path style=" stroke:none;fill-rule:nonzero;fill:rgb(0%,0%,0%);fill-opacity:1;" d="M 39.203125 35.875 C 38.078125 35.984375 37.765625 36.03125 37.234375 36.140625 C 36.359375 36.328125 35.1875 36.71875 34.375 37.125 C 31.546875 38.515625 29.59375 40.8125 29 43.484375 C 28.875 44.015625 28.859375 44.1875 28.859375 45.078125 C 28.859375 45.953125 28.875 46.15625 28.984375 46.65625 C 29.78125 50.140625 32.984375 52.71875 37.15625 53.1875 C 38.0625 53.28125 41.953125 53.28125 42.859375 53.1875 C 46.203125 52.8125 49.0625 51 50.359375 48.453125 C 50.703125 47.78125 50.875 47.328125 51.015625 46.640625 C 51.125 46.140625 51.140625 45.953125 51.140625 45.0625 C 51.140625 44.171875 51.125 44 51 43.46875 C 50.140625 39.59375 46.375 36.53125 41.75 35.953125 C 41.171875 35.90625 39.59375 35.84375 39.203125 35.875 M 41.140625 38.703125 C 42.6875 38.875 44.234375 39.421875 45.46875 40.25 C 46.140625 40.703125 47.078125 41.625 47.484375 42.234375 C 47.984375 42.984375 48.265625 43.765625 48.390625 44.703125 C 48.453125 45.140625 48.421875 45.453125 48.265625 46.15625 C 48.015625 47.1875 47.265625 48.28125 46.25 49.03125 C 45.765625 49.375 44.78125 49.875 44.171875 50.078125 C 43.015625 50.453125 42.265625 50.515625 39.578125 50.5 C 37.828125 50.484375 37.515625 50.46875 37.015625 50.375 C 35.296875 50.046875 33.9375 49.375 32.953125 48.328125 C 32.15625 47.484375 31.796875 46.71875 31.59375 45.484375 C 31.5 44.90625 31.671875 43.953125 32.015625 43.15625 C 32.421875 42.171875 33.484375 40.953125 34.53125 40.265625 C 35.75 39.453125 37.34375 38.875 38.8125 38.71875 C 39.375 38.640625 40.5625 38.640625 41.140625 38.703125 "/>
</g>
</g>
<g clip-path="url(#clip5)" clip-rule="nonzero">
<g clip-path="url(#clip6)" clip-rule="nonzero">
<path style=" stroke:none;fill-rule:nonzero;fill:rgb(0%,0%,0%);fill-opacity:1;" d="M 38.015625 42.484375 C 37.625 42.703125 37.34375 43.234375 37.4375 43.640625 C 37.53125 44.078125 37.90625 44.5 38.5 44.859375 C 38.8125 45.046875 38.84375 45.078125 38.859375 45.265625 C 38.875 45.375 38.828125 45.703125 38.765625 46 C 38.703125 46.28125 38.65625 46.578125 38.65625 46.671875 C 38.65625 46.890625 38.875 47.25 39.09375 47.4375 C 39.28125 47.59375 39.328125 47.59375 39.859375 47.609375 C 40.359375 47.625 40.453125 47.609375 40.65625 47.515625 C 41.171875 47.265625 41.296875 46.8125 41.109375 45.9375 C 40.953125 45.203125 40.984375 45.09375 41.375 44.875 C 41.78125 44.640625 42.21875 44.21875 42.34375 43.9375 C 42.59375 43.390625 42.359375 42.78125 41.8125 42.484375 C 41.671875 42.421875 41.515625 42.390625 41.265625 42.390625 C 40.890625 42.390625 40.640625 42.484375 40.203125 42.765625 L 39.953125 42.921875 L 39.796875 42.828125 C 39.140625 42.4375 39.015625 42.390625 38.625 42.390625 C 38.3125 42.390625 38.15625 42.40625 38.015625 42.484375 M 25.4375 36.46875 C 24.515625 36.765625 23.828125 37.4375 23.484375 38.390625 C 23.3125 38.84375 23.234375 39.5625 23.296875 39.953125 C 23.46875 40.875 24.234375 41.71875 25.09375 41.953125 C 26.1875 42.234375 27 42.046875 27.71875 41.34375 C 28.140625 40.9375 28.359375 40.578125 28.59375 40 C 28.765625 39.59375 28.765625 39.515625 28.765625 38.9375 L 28.765625 38.3125 L 28.546875 37.859375 C 28.203125 37.15625 27.578125 36.625 26.84375 36.4375 C 26.453125 36.34375 25.796875 36.34375 25.4375 36.46875 M 53.125 36.453125 C 52.421875 36.640625 51.78125 37.171875 51.453125 37.875 L 51.234375 38.328125 L 51.234375 38.953125 C 51.234375 39.53125 51.25 39.609375 51.40625 40.015625 C 51.640625 40.59375 51.859375 40.953125 52.28125 41.359375 C 53 42.078125 53.8125 42.265625 54.90625 41.96875 C 55.53125 41.796875 56.15625 41.28125 56.46875 40.65625 C 56.734375 40.125 56.796875 39.75 56.703125 39.15625 C 56.515625 37.796875 55.71875 36.796875 54.53125 36.453125 C 54.171875 36.34375 53.5 36.34375 53.125 36.453125 "/>
</g>
</g>
</g>
</svg>
