<?xml version="1.0" encoding="UTF-8"?>
<svg xmlns="http://www.w3.org/2000/svg" xmlns:xlink="http://www.w3.org/1999/xlink" width="80px" height="80px" viewBox="0 0 80 80" version="1.1">
<g id="surface1">
<path style=" stroke:none;fill-rule:nonzero;fill:rgb(36.470589%,67.450982%,87.450981%);fill-opacity:1;" d="M 78.203125 80 L 1.796875 80 C 0.796875 80 0 79.203125 0 78.203125 L 0 1.796875 C 0 0.796875 0.796875 0 1.796875 0 L 78.203125 0 C 79.203125 0 80 0.796875 80 1.796875 L 80 78.203125 C 80 79.203125 79.1875 80 78.203125 80 "/>
<path style="fill:none;stroke-width:4.7859;stroke-linecap:butt;stroke-linejoin:miter;stroke:rgb(100%,100%,100%);stroke-opacity:1;stroke-miterlimit:4;" d="M 187.695999 573.49801 L 585.695999 573.49801 C 589.795999 573.49801 593.095999 576.79801 593.095999 580.89801 L 593.095999 941.29801 C 593.095999 945.39801 589.795999 948.69801 585.695999 948.69801 L 187.695999 948.69801 C 183.595999 948.69801 180.295999 945.39801 180.295999 941.29801 L 180.295999 580.99801 C 180.295999 576.89801 183.595999 573.49801 187.695999 573.49801 Z M 187.695999 573.49801 " transform="matrix(0.15625,0,0,0.15625,-20.42125,-78.921564)"/>
<path style=" stroke:none;fill-rule:nonzero;fill:rgb(100%,100%,100%);fill-opacity:1;" d="M 16.179688 18.59375 C 15.628906 18.59375 15.152344 19 15.152344 19.550781 L 15.152344 29.9375 C 15.152344 30.453125 15.589844 30.894531 16.179688 30.894531 L 63.832031 30.894531 C 64.382812 30.894531 64.859375 30.453125 64.859375 29.9375 L 64.859375 19.550781 C 64.859375 19.035156 64.417969 18.59375 63.832031 18.59375 Z M 21.980469 21.09375 C 24 21.09375 25.613281 22.742188 25.613281 24.726562 C 25.613281 26.746094 23.960938 28.359375 21.980469 28.359375 C 19.960938 28.359375 18.34375 26.707031 18.34375 24.726562 C 18.308594 22.707031 19.960938 21.09375 21.980469 21.09375 M 21.980469 22.816406 C 20.914062 22.816406 20.070312 23.660156 20.070312 24.726562 C 20.070312 25.789062 20.914062 26.636719 21.980469 26.636719 C 23.042969 26.636719 23.886719 25.789062 23.886719 24.726562 C 23.886719 23.660156 23.007812 22.816406 21.980469 22.816406 "/>
<path style=" stroke:none;fill-rule:nonzero;fill:rgb(100%,100%,100%);fill-opacity:1;" d="M 16.179688 33.867188 C 15.628906 33.867188 15.152344 34.269531 15.152344 34.820312 L 15.152344 45.210938 C 15.152344 45.726562 15.589844 46.164062 16.179688 46.164062 L 63.832031 46.164062 C 64.382812 46.164062 64.859375 45.726562 64.859375 45.210938 L 64.859375 34.820312 C 64.859375 34.308594 64.417969 33.867188 63.832031 33.867188 Z M 21.980469 36.363281 C 24 36.363281 25.613281 38.015625 25.613281 40 C 25.613281 42.015625 23.960938 43.632812 21.980469 43.632812 C 19.960938 43.632812 18.34375 41.980469 18.34375 40 C 18.308594 37.980469 19.960938 36.363281 21.980469 36.363281 M 21.980469 38.089844 C 20.914062 38.089844 20.070312 38.933594 20.070312 40 C 20.070312 41.0625 20.914062 41.90625 21.980469 41.90625 C 23.042969 41.90625 23.886719 41.0625 23.886719 40 C 23.886719 38.96875 23.007812 38.089844 21.980469 38.089844 "/>
<path style=" stroke:none;fill-rule:nonzero;fill:rgb(100%,100%,100%);fill-opacity:1;" d="M 16.179688 49.140625 C 15.628906 49.140625 15.152344 49.542969 15.152344 50.09375 L 15.152344 60.484375 C 15.152344 60.996094 15.589844 61.4375 16.179688 61.4375 L 63.832031 61.4375 C 64.382812 61.4375 64.859375 60.996094 64.859375 60.484375 L 64.859375 50.09375 C 64.859375 49.578125 64.417969 49.140625 63.832031 49.140625 Z M 21.980469 51.636719 C 24 51.636719 25.613281 53.289062 25.613281 55.269531 C 25.613281 57.289062 23.960938 58.90625 21.980469 58.90625 C 19.960938 58.90625 18.34375 57.253906 18.34375 55.269531 C 18.308594 53.25 19.960938 51.636719 21.980469 51.636719 M 21.980469 53.359375 C 20.914062 53.359375 20.070312 54.207031 20.070312 55.269531 C 20.070312 56.335938 20.914062 57.179688 21.980469 57.179688 C 23.042969 57.179688 23.886719 56.335938 23.886719 55.269531 C 23.886719 54.242188 23.007812 53.359375 21.980469 53.359375 "/>
</g>
</svg>
