<?xml version="1.0" encoding="UTF-8"?>
<svg xmlns="http://www.w3.org/2000/svg" xmlns:xlink="http://www.w3.org/1999/xlink" width="80px" height="80px" viewBox="0 0 80 80" version="1.1">
<g id="surface1">
<path style=" stroke:none;fill-rule:evenodd;fill:rgb(100%,43.529412%,23.921569%);fill-opacity:1;" d="M 35 76.015625 L 2.109375 60.8125 C -0.6875 59.484375 -0.6875 57.4375 2.109375 56.21875 L 13.5625 50.90625 L 34.890625 60.796875 C 37.6875 62.125 42.203125 62.125 44.890625 60.796875 L 66.21875 50.90625 L 77.671875 56.21875 C 80.46875 57.546875 80.46875 59.59375 77.671875 60.8125 L 44.765625 76.015625 C 42.1875 77.21875 37.6875 77.21875 35 76.015625 "/>
<path style=" stroke:none;fill-rule:evenodd;fill:rgb(58.431375%,75.294119%,21.960784%);fill-opacity:1;" d="M 35 57.3125 L 2.109375 42.09375 C -0.6875 40.765625 -0.6875 38.71875 2.109375 37.5 L 13.3125 32.3125 L 35 42.34375 C 37.796875 43.671875 42.3125 43.671875 45 42.34375 L 66.6875 32.328125 L 77.90625 37.515625 C 80.703125 38.84375 80.703125 40.890625 77.90625 42.109375 L 45 57.3125 C 42.1875 58.640625 37.6875 58.640625 35 57.3125 "/>
<path style=" stroke:none;fill-rule:evenodd;fill:rgb(36.470589%,75.294119%,90.980393%);fill-opacity:1;" d="M 35 39.078125 L 2.109375 23.875 C -0.6875 22.546875 -0.6875 20.5 2.109375 19.28125 L 35 4.078125 C 37.796875 2.75 42.3125 2.75 45 4.078125 L 77.90625 19.28125 C 80.703125 20.609375 80.703125 22.65625 77.90625 23.875 L 45 39.078125 C 42.1875 40.28125 37.6875 40.28125 35 39.078125 "/>
</g>
</svg>
