<?xml version="1.0" encoding="UTF-8"?>
<svg xmlns="http://www.w3.org/2000/svg" xmlns:xlink="http://www.w3.org/1999/xlink" width="80px" height="80px" viewBox="0 0 80 80" version="1.1">
<g id="surface1">
<path style=" stroke:none;fill-rule:nonzero;fill:rgb(49.803922%,49.803922%,49.803922%);fill-opacity:1;" d="M 39.949219 -0.0703125 C 40.109375 -0.0703125 40.269531 -0.0703125 40.433594 -0.0703125 C 43.003906 -0.0585938 45.480469 0.0898438 48 0.640625 C 48.246094 0.691406 48.246094 0.691406 48.496094 0.746094 C 55.175781 2.210938 61.273438 5.226562 66.398438 9.761719 C 66.605469 9.9375 66.605469 9.9375 66.816406 10.121094 C 68.476562 11.585938 69.996094 13.132812 71.359375 14.878906 C 71.484375 15.03125 71.605469 15.179688 71.730469 15.335938 C 73.574219 17.636719 75.101562 20.199219 76.320312 22.878906 C 76.40625 23.070312 76.40625 23.070312 76.496094 23.265625 C 77.640625 25.785156 78.515625 28.320312 79.148438 31.011719 C 79.179688 31.136719 79.210938 31.261719 79.242188 31.394531 C 79.875 34.222656 80.089844 37.058594 80.070312 39.949219 C 80.070312 40.191406 80.070312 40.191406 80.070312 40.433594 C 80.058594 43.003906 79.910156 45.480469 79.359375 48 C 79.324219 48.164062 79.289062 48.328125 79.253906 48.496094 C 77.789062 55.175781 74.773438 61.273438 70.238281 66.398438 C 70.121094 66.539062 70 66.675781 69.878906 66.816406 C 68.414062 68.476562 66.867188 69.996094 65.121094 71.359375 C 64.96875 71.484375 64.820312 71.605469 64.664062 71.730469 C 62.363281 73.574219 59.800781 75.101562 57.121094 76.320312 C 56.992188 76.378906 56.863281 76.4375 56.734375 76.496094 C 54.214844 77.640625 51.679688 78.515625 48.988281 79.148438 C 48.863281 79.179688 48.738281 79.210938 48.605469 79.242188 C 45.777344 79.875 42.941406 80.089844 40.050781 80.070312 C 39.890625 80.070312 39.730469 80.070312 39.566406 80.070312 C 36.996094 80.058594 34.519531 79.910156 32 79.359375 C 31.835938 79.324219 31.671875 79.289062 31.503906 79.253906 C 24.824219 77.789062 18.726562 74.773438 13.601562 70.238281 C 13.460938 70.121094 13.324219 70 13.183594 69.878906 C 11.523438 68.414062 10.003906 66.867188 8.640625 65.121094 C 8.457031 64.894531 8.457031 64.894531 8.269531 64.664062 C 6.425781 62.363281 4.898438 59.800781 3.679688 57.121094 C 3.621094 56.992188 3.5625 56.863281 3.503906 56.734375 C 2.359375 54.214844 1.484375 51.679688 0.851562 48.988281 C 0.820312 48.863281 0.789062 48.738281 0.757812 48.605469 C 0.125 45.777344 -0.0898438 42.941406 -0.0703125 40.050781 C -0.0703125 39.890625 -0.0703125 39.730469 -0.0703125 39.566406 C -0.0585938 36.996094 0.0898438 34.519531 0.640625 32 C 0.675781 31.835938 0.710938 31.671875 0.746094 31.503906 C 2.210938 24.824219 5.226562 18.726562 9.761719 13.601562 C 9.878906 13.460938 10 13.324219 10.121094 13.183594 C 11.585938 11.523438 13.132812 10.003906 14.878906 8.640625 C 15.03125 8.515625 15.179688 8.394531 15.335938 8.269531 C 17.636719 6.425781 20.199219 4.898438 22.878906 3.679688 C 23.007812 3.621094 23.136719 3.5625 23.265625 3.503906 C 25.785156 2.359375 28.320312 1.484375 31.011719 0.851562 C 31.136719 0.820312 31.261719 0.789062 31.394531 0.757812 C 34.222656 0.125 37.058594 -0.0898438 39.949219 -0.0703125 Z M 39.949219 -0.0703125 "/>
<path style=" stroke:none;fill-rule:nonzero;fill:rgb(0%,0%,0%);fill-opacity:1;" d="M 44.246094 26.679688 C 47.507812 29.503906 49.722656 33.769531 50.078125 38.078125 C 50.363281 43.007812 49.242188 47.585938 45.988281 51.40625 C 42.957031 54.792969 38.964844 57.246094 34.339844 57.648438 C 28.964844 57.917969 24.351562 56.558594 20.300781 52.910156 C 18.042969 50.816406 16.542969 48.320312 15.519531 45.441406 C 15.46875 45.300781 15.417969 45.164062 15.367188 45.023438 C 14 40.980469 14.558594 36.132812 16.320312 32.320312 C 16.738281 31.480469 17.230469 30.695312 17.761719 29.921875 C 17.820312 29.828125 17.882812 29.738281 17.945312 29.644531 C 20.636719 25.78125 24.78125 23.316406 29.359375 22.351562 C 34.835938 21.570312 40.0625 23.121094 44.246094 26.679688 Z M 44.246094 26.679688 "/>
<path style=" stroke:none;fill-rule:nonzero;fill:rgb(49.803922%,49.803922%,49.803922%);fill-opacity:1;" d="M 39.199219 31.679688 C 39.402344 31.835938 39.402344 31.835938 39.609375 31.992188 C 41.304688 33.410156 42.628906 35.875 42.980469 38.058594 C 43.265625 41.285156 42.695312 44.089844 40.761719 46.730469 C 38.9375 48.882812 36.246094 50.285156 33.441406 50.558594 C 30.394531 50.761719 27.496094 49.898438 25.167969 47.890625 C 23.03125 45.746094 21.738281 43 21.691406 39.949219 C 21.710938 37.265625 22.722656 34.8125 24.480469 32.800781 C 24.558594 32.707031 24.640625 32.609375 24.722656 32.511719 C 25.996094 31.113281 27.792969 30.113281 29.601562 29.601562 C 29.714844 29.5625 29.828125 29.527344 29.945312 29.492188 C 33.160156 28.613281 36.640625 29.699219 39.199219 31.679688 Z M 39.199219 31.679688 "/>
<path style=" stroke:none;fill-rule:nonzero;fill:rgb(0%,0%,0%);fill-opacity:1;" d="M 55.679688 22.238281 C 58.003906 22.238281 60.328125 22.238281 62.71875 22.238281 C 62.71875 33.910156 62.71875 45.578125 62.71875 57.601562 C 60.398438 57.601562 58.074219 57.601562 55.679688 57.601562 C 55.679688 45.929688 55.679688 34.261719 55.679688 22.238281 Z M 55.679688 22.238281 "/>
</g>
</svg>
