<?xml version="1.0" encoding="UTF-8"?>
<svg xmlns="http://www.w3.org/2000/svg" xmlns:xlink="http://www.w3.org/1999/xlink" width="72px" height="80px" viewBox="0 0 72 79" version="1.1">
<g id="surface1">
<path style=" stroke:none;fill-rule:nonzero;fill:rgb(41.960785%,76.078433%,97.647059%);fill-opacity:1;" d="M 27.007812 0.0117188 C 26.941406 0.0273438 26.613281 0.0820312 26.285156 0.132812 C 23.890625 0.511719 21.171875 1.832031 18.859375 3.738281 C 18.082031 4.382812 16.507812 5.988281 15.792969 6.863281 C 14.34375 8.648438 11.300781 13.136719 10.199219 15.109375 C 10.128906 15.234375 9.992188 15.476562 9.894531 15.625 C 9.664062 16.023438 8.898438 17.367188 8.449219 18.207031 C 7.824219 19.371094 6.140625 22.785156 6.140625 22.898438 C 6.140625 22.910156 6.011719 23.207031 5.851562 23.546875 C 5.691406 23.890625 5.488281 24.34375 5.402344 24.566406 C 5.324219 24.777344 5.203125 25.066406 5.144531 25.199219 C 4.808594 25.9375 3.957031 28.210938 3.492188 29.609375 C 3.234375 30.390625 2.695312 32.089844 2.648438 32.296875 C 2.625 32.367188 2.488281 32.890625 2.328125 33.464844 C 2.175781 34.03125 2.03125 34.570312 2.007812 34.65625 C 1.8125 35.433594 1.621094 36.253906 1.53125 36.683594 C 1.285156 37.835938 1.089844 38.804688 1.042969 39.144531 C 1.019531 39.34375 0.980469 39.558594 0.964844 39.621094 C 0.921875 39.757812 0.875 40.058594 0.804688 40.535156 C 0.78125 40.707031 0.722656 41.050781 0.683594 41.289062 C 0.644531 41.527344 0.585938 41.925781 0.5625 42.164062 C 0.53125 42.398438 0.5 42.6875 0.484375 42.796875 C 0.46875 42.910156 0.429688 43.226562 0.394531 43.511719 C 0.363281 43.796875 0.332031 44.117188 0.316406 44.226562 C 0.300781 44.339844 0.265625 44.71875 0.242188 45.085938 C 0.210938 45.441406 0.179688 45.800781 0.164062 45.878906 C -0.0351562 46.953125 -0.0429688 55.558594 0.164062 56.625 C 0.179688 56.6875 0.210938 57.101562 0.242188 57.535156 C 0.277344 57.972656 0.316406 58.347656 0.324219 58.371094 C 0.339844 58.394531 0.371094 58.648438 0.394531 58.9375 C 0.429688 59.214844 0.460938 59.53125 0.484375 59.636719 C 0.5 59.738281 0.539062 60.023438 0.574219 60.269531 C 0.597656 60.519531 0.636719 60.738281 0.652344 60.761719 C 0.660156 60.785156 0.699219 60.984375 0.722656 61.199219 C 0.757812 61.414062 0.851562 61.90625 0.941406 62.304688 C 1.03125 62.695312 1.117188 63.097656 1.132812 63.203125 C 1.398438 64.554688 2.054688 66.636719 2.707031 68.183594 C 5.332031 74.40625 9.136719 77.871094 14.078125 78.507812 C 14.566406 78.570312 16.039062 78.570312 16.640625 78.515625 C 17.050781 78.46875 18.117188 78.269531 18.660156 78.125 C 18.773438 78.09375 19.632812 77.800781 20.210938 77.585938 L 20.433594 77.507812 L 19.953125 77.015625 C 19.34375 76.402344 18.894531 75.832031 18.089844 74.648438 C 17.746094 74.136719 17.433594 73.703125 17.394531 73.679688 C 17.351562 73.65625 17.074219 73.597656 16.765625 73.550781 C 16.460938 73.503906 16.109375 73.449219 15.972656 73.425781 C 15.484375 73.347656 14.390625 72.925781 13.789062 72.589844 C 12.609375 71.929688 11.492188 70.628906 10.753906 69.0625 C 10.296875 68.074219 9.566406 65.972656 9.398438 65.128906 C 9.375 65.015625 9.269531 64.5 9.160156 63.976562 C 9.054688 63.453125 8.941406 62.824219 8.917969 62.578125 C 8.886719 62.332031 8.855469 62.0625 8.839844 61.980469 C 8.796875 61.777344 8.703125 60.695312 8.664062 60.050781 C 8.550781 58.019531 8.527344 57.128906 8.527344 55.234375 C 8.527344 53.34375 8.589844 51.34375 8.671875 50.507812 C 8.6875 50.355469 8.71875 49.914062 8.75 49.53125 C 8.773438 49.144531 8.8125 48.714844 8.828125 48.578125 C 8.84375 48.433594 8.878906 48.09375 8.910156 47.808594 C 8.933594 47.519531 8.972656 47.203125 8.988281 47.09375 C 9.003906 46.980469 9.035156 46.664062 9.066406 46.378906 C 9.089844 46.09375 9.132812 45.804688 9.148438 45.742188 C 9.164062 45.679688 9.203125 45.464844 9.226562 45.265625 C 9.25 45.066406 9.304688 44.710938 9.347656 44.472656 C 9.386719 44.230469 9.445312 43.875 9.46875 43.675781 C 9.492188 43.476562 9.53125 43.261719 9.546875 43.199219 C 9.5625 43.136719 9.59375 42.9375 9.625 42.761719 C 9.648438 42.589844 9.683594 42.390625 9.707031 42.324219 C 9.722656 42.261719 9.753906 42.078125 9.777344 41.929688 C 9.800781 41.78125 9.890625 41.324219 9.976562 40.9375 C 10.066406 40.539062 10.15625 40.109375 10.179688 39.980469 C 10.21875 39.800781 10.8125 37.304688 10.996094 36.582031 C 11.011719 36.511719 11.046875 36.382812 11.0625 36.304688 C 11.117188 36.082031 11.503906 34.777344 11.648438 34.300781 C 11.71875 34.0625 11.792969 33.824219 11.800781 33.785156 C 11.847656 33.523438 12.964844 30.199219 13.398438 29.015625 C 14.746094 25.351562 16.351562 21.691406 18.324219 17.773438 C 18.933594 16.570312 19.5625 15.355469 19.714844 15.070312 C 19.867188 14.785156 20.15625 14.269531 20.339844 13.917969 C 21.945312 10.945312 24.144531 8.441406 26.480469 6.925781 C 28.253906 5.773438 30.070312 5.605469 31.828125 6.433594 L 32.363281 6.6875 L 32.992188 6.097656 C 34.121094 5.058594 35.886719 3.691406 36.355469 3.515625 C 36.394531 3.5 36.257812 3.300781 36.03125 3.070312 C 35.445312 2.460938 34.851562 2.046875 33.601562 1.347656 C 33.183594 1.117188 32.003906 0.609375 31.78125 0.558594 C 31.691406 0.542969 31.546875 0.496094 31.457031 0.457031 C 30.945312 0.210938 29.726562 0.0273438 28.449219 0.0117188 C 27.71875 -0.00390625 27.070312 -0.00390625 27.007812 0.0117188 "/>
<path style=" stroke:none;fill-rule:nonzero;fill:rgb(41.960785%,76.078433%,97.647059%);fill-opacity:1;" d="M 46.332031 1.679688 C 46.316406 1.6875 46.074219 1.71875 45.785156 1.75 C 42.449219 2.070312 38.890625 3.992188 35.359375 7.398438 C 34.324219 8.394531 32.421875 10.46875 31.78125 11.285156 C 31.652344 11.460938 31.394531 11.777344 31.210938 12 C 30.300781 13.121094 29.050781 14.882812 27.789062 16.816406 C 27.398438 17.410156 26.359375 19.121094 26.359375 19.167969 C 26.359375 19.183594 26.273438 19.332031 26.167969 19.5 C 26.070312 19.660156 25.871094 20.007812 25.726562 20.273438 C 25.582031 20.535156 25.390625 20.875 25.300781 21.027344 C 24.980469 21.558594 22.996094 25.53125 22.308594 27.027344 C 20.558594 30.800781 19.402344 33.828125 18.34375 37.355469 C 18.125 38.085938 17.476562 40.644531 17.417969 40.996094 C 17.398438 41.140625 17.355469 41.3125 17.339844 41.378906 C 17.316406 41.441406 17.285156 41.574219 17.261719 41.6875 C 17.246094 41.796875 17.171875 42.15625 17.109375 42.480469 C 17.035156 42.808594 16.964844 43.214844 16.941406 43.386719 C 16.90625 43.554688 16.875 43.714844 16.859375 43.746094 C 16.84375 43.769531 16.804688 43.984375 16.78125 44.222656 C 16.75 44.453125 16.71875 44.667969 16.703125 44.699219 C 16.6875 44.722656 16.652344 44.921875 16.621094 45.144531 C 16.597656 45.359375 16.558594 45.683594 16.53125 45.859375 C 16.507812 46.03125 16.46875 46.300781 16.445312 46.453125 C 16.417969 46.605469 16.386719 46.859375 16.371094 47.007812 C 16.347656 47.3125 16.269531 47.996094 16.210938 48.4375 C 16.195312 48.589844 16.15625 48.964844 16.132812 49.273438 C 16.109375 49.578125 16.078125 50.003906 16.054688 50.226562 C 15.859375 52.445312 15.851562 58.769531 16.054688 60.042969 C 16.070312 60.152344 16.101562 60.558594 16.132812 60.945312 C 16.164062 61.34375 16.195312 61.71875 16.210938 61.789062 C 16.226562 61.867188 16.261719 62.113281 16.292969 62.355469 C 16.394531 63.226562 16.75 65.113281 16.980469 66.042969 C 18.058594 70.316406 20.234375 74.113281 22.953125 76.449219 C 23.722656 77.117188 25.183594 77.953125 26.242188 78.34375 C 27.054688 78.644531 27.648438 78.78125 28.785156 78.957031 C 29.289062 79.027344 31.996094 79.011719 32.382812 78.921875 C 32.492188 78.90625 32.808594 78.84375 33.085938 78.796875 C 35.703125 78.34375 39.613281 76.46875 42.613281 74.242188 C 44.308594 72.980469 46.203125 71.121094 46.78125 70.160156 C 46.84375 70.039062 46.746094 70.070312 46.105469 70.359375 C 41.433594 72.421875 37.277344 73.839844 34.949219 74.15625 C 34.75 74.179688 34.515625 74.21875 34.425781 74.246094 C 34.003906 74.347656 31.664062 74.332031 31.0625 74.222656 C 28.472656 73.753906 26.714844 72.195312 25.574219 69.34375 C 25.335938 68.730469 24.886719 67.222656 24.804688 66.722656 C 24.78125 66.570312 24.742188 66.355469 24.714844 66.242188 C 24.53125 65.417969 24.300781 63.289062 24.226562 61.792969 C 24.195312 61.015625 24.195312 57.890625 24.226562 57.304688 C 24.242188 57.082031 24.285156 56.492188 24.308594 55.992188 C 24.339844 55.492188 24.378906 54.933594 24.394531 54.761719 C 24.410156 54.585938 24.453125 54.171875 24.476562 53.847656 C 24.507812 53.523438 24.539062 53.195312 24.554688 53.132812 C 24.570312 53.070312 24.601562 52.726562 24.632812 52.378906 C 24.65625 52.027344 24.699219 51.6875 24.714844 51.625 C 24.730469 51.5625 24.769531 51.304688 24.792969 51.070312 C 24.816406 50.832031 24.871094 50.433594 24.914062 50.195312 C 24.960938 49.957031 25.066406 49.289062 25.164062 48.726562 C 25.332031 47.660156 25.820312 45.226562 25.972656 44.671875 C 26.011719 44.5 26.070312 44.265625 26.09375 44.15625 C 26.195312 43.574219 26.894531 41.03125 27.335938 39.585938 C 28.027344 37.339844 29.335938 33.699219 29.929688 32.355469 C 29.984375 32.222656 30.113281 31.921875 30.207031 31.679688 C 30.304688 31.441406 30.488281 31.023438 30.617188 30.742188 C 30.746094 30.464844 30.851562 30.226562 30.851562 30.203125 C 30.851562 30.1875 30.996094 29.863281 31.171875 29.488281 C 31.347656 29.113281 31.492188 28.796875 31.492188 28.78125 C 31.492188 28.757812 32.441406 26.785156 32.832031 26 C 33.917969 23.816406 35.609375 20.765625 37.085938 18.324219 C 37.519531 17.609375 37.90625 16.957031 37.953125 16.886719 C 38.34375 16.210938 39.40625 14.597656 39.855469 13.976562 C 41.507812 11.707031 43.761719 9.632812 45.527344 8.757812 C 47.246094 7.898438 48.640625 7.835938 50.433594 8.535156 C 50.875 8.710938 51.972656 9.316406 52.238281 9.53125 C 52.289062 9.570312 52.601562 9.816406 52.945312 10.078125 C 53.636719 10.601562 55.097656 12.015625 55.851562 12.882812 C 56.113281 13.183594 56.371094 13.46875 56.421875 13.519531 C 56.6875 13.796875 58.144531 15.75 58.789062 16.703125 C 60.046875 18.5625 60.9375 20.089844 62.078125 22.363281 C 62.476562 23.164062 62.824219 23.816406 62.839844 23.816406 C 62.863281 23.816406 62.863281 23.792969 62.839844 23.753906 C 62.824219 23.71875 62.785156 23.339844 62.761719 22.902344 C 62.710938 22.210938 62.632812 21.519531 62.503906 20.796875 C 62.488281 20.683594 62.449219 20.472656 62.425781 20.320312 C 61.347656 13.804688 58.394531 7.90625 54.488281 4.515625 C 53.019531 3.242188 50.753906 2.136719 49.011719 1.84375 C 48.867188 1.824219 48.628906 1.78125 48.492188 1.757812 C 48.226562 1.703125 46.371094 1.640625 46.332031 1.679688 "/>
<path style=" stroke:none;fill-rule:nonzero;fill:rgb(41.960785%,76.078433%,97.647059%);fill-opacity:1;" d="M 66.453125 23.945312 C 65.972656 24.582031 65.464844 25.257812 65.328125 25.4375 C 64.492188 26.609375 63.757812 27.632812 63.441406 28.070312 C 61.652344 30.558594 61.230469 31.144531 61.15625 31.222656 C 61.105469 31.28125 60.679688 31.851562 60.207031 32.511719 C 59.734375 33.164062 59.035156 34.132812 58.652344 34.65625 C 58.265625 35.179688 57.574219 36.132812 57.109375 36.769531 C 55.707031 38.691406 52.0625 43.652344 51.332031 44.628906 C 50.191406 46.144531 49.1875 47.664062 48.996094 48.164062 C 48.730469 48.839844 48.730469 49.617188 48.996094 50.136719 C 49.226562 50.597656 49.675781 51.019531 50.34375 51.40625 C 51.789062 52.242188 53.289062 52.003906 54.371094 50.753906 C 54.660156 50.429688 55.445312 48.960938 55.734375 48.203125 C 55.792969 48.054688 55.894531 47.863281 55.960938 47.785156 C 56.023438 47.710938 56.054688 47.648438 56.03125 47.648438 C 56.007812 47.648438 56.109375 47.402344 56.261719 47.09375 C 56.40625 46.789062 56.535156 46.519531 56.535156 46.503906 C 56.535156 46.480469 56.738281 46.050781 56.976562 45.542969 C 57.21875 45.027344 57.417969 44.597656 57.417969 44.589844 C 57.417969 44.574219 57.539062 44.304688 57.691406 43.976562 C 57.929688 43.46875 59.09375 40.917969 59.707031 39.582031 C 59.824219 39.320312 60.003906 38.921875 60.105469 38.710938 C 60.203125 38.488281 60.621094 37.582031 61.027344 36.683594 C 61.4375 35.785156 61.855469 34.855469 61.96875 34.617188 C 62.082031 34.378906 62.3125 33.855469 62.492188 33.464844 C 62.851562 32.664062 63.011719 32.296875 63.414062 31.4375 C 63.566406 31.113281 63.734375 30.730469 63.796875 30.605469 C 63.855469 30.46875 63.992188 30.167969 64.105469 29.929688 C 64.273438 29.5625 65.394531 27.082031 65.941406 25.875 C 66.03125 25.675781 66.207031 25.304688 66.328125 25.042969 C 66.453125 24.777344 66.648438 24.359375 66.757812 24.101562 C 66.871094 23.855469 67.058594 23.453125 67.167969 23.210938 C 67.28125 22.976562 67.363281 22.777344 67.34375 22.777344 C 67.34375 22.777344 66.941406 23.300781 66.453125 23.945312 M 52.695312 47.472656 C 53.058594 47.617188 53.265625 48 53.304688 48.59375 C 53.339844 49.046875 53.320312 49.148438 53.152344 49.386719 C 52.78125 49.921875 52.042969 50.113281 51.441406 49.824219 C 51.042969 49.644531 50.816406 49.292969 50.777344 48.808594 C 50.753906 48.46875 50.785156 48.347656 50.976562 48.0625 C 51.371094 47.472656 52.070312 47.234375 52.695312 47.472656 "/>
<path style=" stroke:none;fill-rule:nonzero;fill:rgb(41.960785%,76.078433%,97.647059%);fill-opacity:1;" d="M 52.351562 26.703125 C 52.34375 26.71875 51.820312 26.75 51.203125 26.785156 C 50.058594 26.832031 49.527344 26.871094 48.957031 26.957031 C 48.78125 26.980469 48.539062 27.011719 48.417969 27.027344 C 47.503906 27.148438 46.019531 27.496094 44.921875 27.855469 C 42.183594 28.746094 39.894531 30.121094 38.027344 32.003906 C 37.664062 32.367188 37.289062 32.773438 37.183594 32.910156 C 37.085938 33.035156 36.980469 33.164062 36.957031 33.1875 C 36.644531 33.472656 35.585938 35.125 35.113281 36.039062 C 34.277344 37.683594 33.515625 40.269531 33.308594 42.128906 C 33.285156 42.339844 33.242188 42.613281 33.226562 42.722656 C 32.988281 44.007812 33.035156 47.96875 33.308594 49.636719 C 33.332031 49.785156 33.371094 50.023438 33.386719 50.160156 C 33.402344 50.285156 33.515625 50.828125 33.625 51.351562 C 34.847656 56.753906 38.058594 60.886719 42.734375 63.078125 C 43.761719 63.554688 45.664062 64.222656 46.429688 64.367188 C 46.539062 64.390625 46.957031 64.46875 47.351562 64.558594 C 47.75 64.644531 48.289062 64.738281 48.554688 64.773438 C 48.820312 64.804688 49.125 64.84375 49.234375 64.859375 C 50.519531 65.019531 53.746094 65.074219 55.070312 64.949219 C 55.96875 64.871094 57.953125 64.535156 58.738281 64.328125 C 61.265625 63.667969 63.820312 62.4375 65.609375 61.015625 C 66.699219 60.148438 68.007812 58.726562 68.769531 57.582031 C 68.988281 57.257812 69.226562 56.890625 69.308594 56.777344 C 69.558594 56.414062 70.398438 54.625 70.648438 53.925781 C 70.921875 53.179688 71.171875 52.34375 71.304688 51.742188 C 71.363281 51.519531 71.417969 51.273438 71.433594 51.1875 C 71.496094 50.90625 71.777344 49.285156 71.820312 48.960938 C 72.042969 47.085938 72.050781 43.023438 71.824219 42.167969 C 71.8125 42.105469 71.777344 41.90625 71.746094 41.730469 C 71.3125 38.773438 69.964844 35.828125 67.984375 33.507812 C 67.597656 33.0625 65.800781 31.304688 65.632812 31.21875 C 65.492188 31.140625 65.398438 31.289062 64.613281 32.855469 L 63.746094 34.585938 L 64.683594 36.089844 C 65.207031 36.925781 65.800781 37.941406 66.019531 38.355469 C 66.722656 39.761719 67.230469 41.460938 67.484375 43.3125 C 67.613281 44.234375 67.628906 46.5 67.519531 47.53125 C 67.453125 48.085938 67.15625 49.742188 67.019531 50.234375 C 66.683594 51.472656 66.363281 52.308594 65.769531 53.492188 C 64.421875 56.160156 62.601562 57.957031 59.773438 59.394531 C 58.601562 59.992188 57.011719 60.570312 56.136719 60.730469 C 56.027344 60.753906 55.808594 60.800781 55.65625 60.839844 C 55.503906 60.878906 55.160156 60.9375 54.894531 60.96875 C 54.628906 60.988281 54.339844 61.03125 54.253906 61.054688 C 54.035156 61.09375 51.484375 61.09375 51.285156 61.046875 C 51.195312 61.03125 50.890625 60.992188 50.601562 60.960938 C 50.3125 60.925781 50.0625 60.894531 50.039062 60.878906 C 50.015625 60.863281 49.824219 60.832031 49.605469 60.808594 C 49.390625 60.777344 49.179688 60.738281 49.15625 60.722656 C 49.125 60.707031 48.996094 60.671875 48.871094 60.652344 C 47.953125 60.492188 45.625 59.65625 44.40625 59.054688 C 42.25 57.980469 40.347656 56.289062 39.238281 54.4375 C 38.476562 53.171875 37.652344 50.894531 37.480469 49.597656 C 37.457031 49.421875 37.425781 49.152344 37.402344 49.003906 C 37.273438 48.070312 37.242188 47.507812 37.242188 45.902344 C 37.242188 43.625 37.304688 42.972656 37.683594 41.296875 C 38.742188 36.574219 41.800781 33.398438 46.671875 31.933594 C 47.226562 31.769531 48.367188 31.492188 48.839844 31.410156 C 48.992188 31.386719 49.207031 31.347656 49.320312 31.324219 C 49.433594 31.296875 49.683594 31.257812 49.882812 31.234375 C 50.082031 31.210938 50.425781 31.15625 50.644531 31.117188 C 51.070312 31.046875 54.222656 31.074219 54.695312 31.15625 C 55.714844 31.339844 56.199219 31.394531 57.417969 31.488281 L 58.125 31.539062 L 58.476562 30.988281 C 58.671875 30.695312 59.238281 29.863281 59.746094 29.152344 C 60.242188 28.4375 60.636719 27.84375 60.613281 27.820312 C 60.589844 27.796875 60.179688 27.691406 59.699219 27.589844 C 59.222656 27.484375 58.582031 27.34375 58.269531 27.277344 C 57.964844 27.207031 57.5625 27.128906 57.386719 27.105469 C 57.210938 27.082031 57.007812 27.042969 56.945312 27.035156 C 56.375 26.921875 55.523438 26.859375 53.777344 26.796875 C 53.117188 26.761719 52.53125 26.734375 52.476562 26.71875 C 52.421875 26.695312 52.367188 26.695312 52.351562 26.703125 "/>
<path style=" stroke:none;fill-rule:nonzero;fill:rgb(41.960785%,76.078433%,97.647059%);fill-opacity:1;" d="M 51.058594 34.425781 C 51.050781 34.433594 50.753906 34.457031 50.402344 34.488281 C 48.691406 34.632812 46.605469 35.394531 45.1875 36.402344 C 43.074219 37.898438 41.636719 39.933594 40.804688 42.59375 C 40.644531 43.117188 40.636719 43.125 41.324219 42.269531 C 42.648438 40.632812 44.421875 39.234375 46.300781 38.359375 C 46.832031 38.113281 48.117188 37.660156 48.46875 37.585938 C 48.5625 37.570312 48.820312 37.523438 49.039062 37.484375 C 49.832031 37.324219 50.097656 37.300781 50.964844 37.308594 C 51.503906 37.316406 52.128906 37.378906 52.570312 37.46875 C 52.96875 37.554688 53.316406 37.59375 53.347656 37.570312 C 53.371094 37.539062 53.832031 36.945312 54.367188 36.246094 L 55.332031 34.972656 L 54.996094 34.878906 C 54.5625 34.75 53.574219 34.558594 53.011719 34.488281 C 52.597656 34.441406 51.097656 34.386719 51.058594 34.425781 M 61.058594 40.832031 L 60.402344 42.117188 L 60.617188 42.476562 C 60.730469 42.675781 60.851562 42.855469 60.875 42.882812 C 61.003906 42.984375 61.765625 44.582031 61.984375 45.183594 C 62.433594 46.464844 62.59375 47.511719 62.601562 49.214844 C 62.601562 50.898438 62.59375 50.882812 63.042969 49.753906 C 63.644531 48.261719 63.941406 46.789062 63.933594 45.34375 C 63.933594 44.84375 63.917969 44.359375 63.894531 44.273438 C 63.878906 44.183594 63.835938 43.945312 63.8125 43.738281 C 63.734375 43.167969 63.378906 42.03125 63.109375 41.449219 C 62.730469 40.664062 61.9375 39.542969 61.761719 39.542969 C 61.734375 39.542969 61.414062 40.125 61.058594 40.832031 "/>
</g>
</svg>
