<?xml version="1.0" encoding="UTF-8"?>
<svg xmlns="http://www.w3.org/2000/svg" xmlns:xlink="http://www.w3.org/1999/xlink" width="80px" height="80px" viewBox="0 0 80 80" version="1.1">
<defs>
<linearGradient id="linear0" gradientUnits="userSpaceOnUse" x1="128" y1="386" x2="498.666992" y2="15.333" gradientTransform="matrix(0.15625,0,0,-0.15625,0,80.3125)">
<stop offset="0" style="stop-color:rgb(76.470588%,58.431373%,98.823529%);stop-opacity:1;"/>
<stop offset="1" style="stop-color:rgb(30.980392%,39.607843%,96.078431%);stop-opacity:1;"/>
</linearGradient>
<filter id="alpha" filterUnits="objectBoundingBox" x="0%" y="0%" width="100%" height="100%">
  <feColorMatrix type="matrix" in="SourceGraphic" values="0 0 0 0 1 0 0 0 0 1 0 0 0 0 1 0 0 0 1 0"/>
</filter>
<mask id="mask0">
  <g filter="url(#alpha)">
<rect x="0" y="0" width="80" height="80" style="fill:rgb(0%,0%,0%);fill-opacity:0.2;stroke:none;"/>
  </g>
</mask>
<clipPath id="clip1">
  <rect x="0" y="0" width="80" height="80"/>
</clipPath>
<g id="surface5" clip-path="url(#clip1)">
<path style=" stroke:none;fill-rule:evenodd;fill:rgb(7.450981%,9.803922%,15.686275%);fill-opacity:1;" d="M 66.671875 43.328125 C 66.671875 56.21875 56.21875 66.65625 43.34375 66.65625 C 30.734375 66.65625 20.453125 56.640625 20.03125 44.140625 C 20.015625 44.421875 20.015625 44.703125 20.015625 44.984375 C 20.015625 58.796875 31.203125 69.984375 45.015625 69.984375 C 58.828125 69.984375 70.015625 58.796875 70.015625 44.984375 C 70.015625 31.171875 58.828125 19.984375 45.015625 19.984375 C 44.734375 19.984375 44.453125 19.984375 44.171875 20 C 56.65625 20.453125 66.671875 30.71875 66.671875 43.328125 "/>
</g>
<linearGradient id="linear1" gradientUnits="userSpaceOnUse" x1="149.332993" y1="471.333008" x2="149.332993" y2="258" gradientTransform="matrix(0.15625,0,0,-0.15625,0,80.3125)">
<stop offset="0" style="stop-color:rgb(100%,100%,100%);stop-opacity:0.4;"/>
<stop offset="1" style="stop-color:rgb(100%,100%,100%);stop-opacity:0;"/>
</linearGradient>
</defs>
<g id="surface1">
<path style=" stroke:none;fill-rule:evenodd;fill:url(#linear0);" d="M 40 80 C 62.09375 80 80 62.09375 80 40 C 80 17.90625 62.09375 0 40 0 C 17.90625 0 0 17.90625 0 40 C 0 62.09375 17.90625 80 40 80 M 66.671875 43.328125 C 66.671875 56.21875 56.21875 66.65625 43.34375 66.65625 C 30.46875 66.65625 20 56.21875 20 43.328125 C 20 40.9375 20.359375 38.625 21.03125 36.453125 C 22.859375 40.5 26.9375 43.328125 31.671875 43.328125 C 38.109375 43.328125 43.34375 38.109375 43.34375 31.65625 C 43.34375 26.921875 40.53125 22.84375 36.46875 21.015625 C 38.640625 20.34375 40.953125 19.984375 43.34375 19.984375 C 56.21875 20 66.671875 30.453125 66.671875 43.328125 "/>
<use xlink:href="#surface5" mask="url(#mask0)"/>
<path style=" stroke:none;fill-rule:evenodd;fill:url(#linear1);" d="M 40 10 C 23.4375 10 10 23.4375 10 40 C 10 41.84375 8.5 43.328125 6.671875 43.328125 C 4.828125 43.328125 3.34375 41.828125 3.34375 40 C 3.328125 19.75 19.75 3.328125 40 3.328125 C 41.84375 3.328125 43.328125 4.828125 43.328125 6.65625 C 43.328125 8.5 41.84375 10 40 10 "/>
</g>
</svg>
