<?xml version="1.0" encoding="UTF-8"?>
<svg xmlns="http://www.w3.org/2000/svg" xmlns:xlink="http://www.w3.org/1999/xlink" width="px" height="80px" viewBox="0 0 80 80" version="1.1">
<g id="surface1">
<path style=" stroke:none;fill-rule:nonzero;fill:rgb(22.745098%,51.372552%,98.431373%);fill-opacity:1;" d="M 17.40625 -0.285156 C 18.222656 -0.285156 18.222656 -0.285156 19.050781 -0.285156 C 20.839844 -0.28125 22.625 -0.265625 24.410156 -0.246094 C 25.652344 -0.238281 26.894531 -0.234375 28.132812 -0.234375 C 31.394531 -0.222656 34.65625 -0.199219 37.917969 -0.171875 C 41.25 -0.144531 44.578125 -0.132812 47.910156 -0.121094 C 54.441406 -0.09375 60.96875 -0.0507812 67.5 0 C 66.601562 1.859375 65.660156 3.324219 64.296875 4.882812 C 63.960938 5.273438 63.625 5.664062 63.277344 6.066406 C 59.652344 9.773438 55.703125 12.804688 51.367188 15.625 C 50.875 15.949219 50.382812 16.273438 49.875 16.609375 C 47.230469 18.347656 44.5625 20.046875 41.875 21.71875 C 33.285156 27.167969 25.542969 33.96875 22.929688 44.140625 C 22.789062 44.835938 22.644531 45.53125 22.5 46.25 C 21.882812 46.25 21.261719 46.25 20.625 46.25 C 15.242188 40.152344 13.179688 33.34375 11.25 25.625 C 9.085938 29.648438 9.085938 29.648438 6.875 33.75 C 6.667969 33.75 6.460938 33.75 6.25 33.75 C 6.203125 29.800781 6.167969 25.855469 6.148438 21.90625 C 6.136719 20.5625 6.125 19.21875 6.109375 17.878906 C 6.085938 15.945312 6.074219 14.015625 6.066406 12.082031 C 6.058594 11.484375 6.046875 10.882812 6.039062 10.265625 C 6.035156 4.867188 6.035156 4.867188 8.125 2.5 C 11.277344 -0.0859375 13.507812 -0.351562 17.40625 -0.285156 Z M 17.40625 -0.285156 "/>
<path style=" stroke:none;fill-rule:nonzero;fill:rgb(42.745098%,63.921571%,90.196079%);fill-opacity:1;" d="M 71.25 0 C 71.664062 0 72.074219 0 72.5 0 C 73.390625 3.769531 73.265625 7.574219 73.273438 11.425781 C 73.28125 12.75 73.300781 14.074219 73.320312 15.398438 C 73.433594 29.609375 68.75 42.46875 58.988281 52.90625 C 51.425781 60.359375 40.90625 67.117188 30 67.5 C 29.851562 67.914062 29.707031 68.328125 29.554688 68.757812 C 28.527344 71.144531 27.214844 73.292969 25.859375 75.507812 C 25.597656 75.941406 25.335938 76.375 25.0625 76.820312 C 24.417969 77.882812 23.773438 78.941406 23.125 80 C 21.886719 79.792969 20.648438 79.585938 19.375 79.375 C 19.375 76.695312 19.375 74.011719 19.375 71.25 C 18.34375 70.835938 17.3125 70.425781 16.25 70 C 11.472656 66.21875 7.550781 61.035156 6.25 55 C 5.726562 47.730469 6.027344 41 9.375 34.375 C 10.304688 34.066406 10.304688 34.066406 11.25 33.75 C 11.378906 34.445312 11.507812 35.140625 11.640625 35.859375 C 12.945312 40.957031 16.066406 44.871094 19.453125 48.789062 C 23.203125 53.171875 25.480469 56.960938 25.25 62.859375 C 24.910156 64.910156 24.121094 66.484375 23.101562 68.277344 C 22.339844 69.664062 22.011719 70.929688 21.875 72.5 C 22.183594 73.117188 22.183594 73.117188 22.5 73.75 C 22.757812 73.25 23.019531 72.75 23.285156 72.234375 C 26.664062 66.214844 30.867188 62.367188 36.25 58.125 C 53.207031 44.511719 65.605469 20.691406 71.25 0 Z M 18.125 51.875 C 18.75 53.125 18.75 53.125 18.75 53.125 Z M 18.75 53.125 C 19.375 54.375 19.375 54.375 19.375 54.375 Z M 19.375 54.375 C 19.457031 54.777344 19.539062 55.175781 19.625 55.589844 C 20.265625 58.71875 20.835938 61.832031 21.25 65 C 21.457031 65 21.664062 65 21.875 65 C 22.164062 59.429688 22.164062 59.429688 20 54.375 C 19.792969 54.375 19.585938 54.375 19.375 54.375 Z M 19.375 54.375 "/>
<path style=" stroke:none;fill-rule:nonzero;fill:rgb(42.745098%,63.921571%,90.196079%);fill-opacity:1;" d="M 65.625 6.875 C 66.039062 6.875 66.449219 6.875 66.875 6.875 C 66.457031 9.554688 65.542969 11.910156 64.453125 14.375 C 64.171875 15.015625 64.171875 15.015625 63.882812 15.667969 C 59.980469 24.335938 55.648438 32.957031 50 40.625 C 49.757812 40.957031 49.519531 41.289062 49.269531 41.628906 C 43.542969 49.453125 36.46875 58.007812 28.125 63.125 C 27.710938 63.125 27.300781 63.125 26.875 63.125 C 24.191406 55.035156 23.550781 48.121094 27.03125 40.078125 C 31.980469 31 40.632812 25.511719 49.210938 20.246094 C 58.867188 14.933594 58.867188 14.933594 65.625 6.875 Z M 65.625 6.875 "/>
</g>
</svg>
