<?xml version="1.0" encoding="UTF-8"?>
<svg xmlns="http://www.w3.org/2000/svg" xmlns:xlink="http://www.w3.org/1999/xlink" width="80px" height="80px" viewBox="0 0 80 96" version="1.1">
<g id="surface1">
<path style=" stroke:none;fill-rule:nonzero;fill:rgb(9.019608%,32.941177%,12.156863%);fill-opacity:1;" d="M 17.269531 92.050781 C 16.792969 89.824219 15.84375 85.351562 15.738281 85.351562 C -4.230469 73.457031 -1.871094 52.863281 4.75 41.09375 C 6.179688 55.914062 32.519531 66.160156 17.167969 84.300781 C 17.042969 84.527344 17.871094 87.351562 18.59375 89.949219 C 21.65625 84.773438 26.273438 78.527344 26.042969 77.949219 C 7.128906 32.046875 66.210938 28.523438 78.503906 0.0351562 C 84.046875 27.574219 75.667969 70.179688 28.15625 81.023438 C 27.925781 81.144531 19.527344 95.84375 19.175781 95.964844 C 19.175781 95.738281 15.636719 95.84375 16.113281 94.667969 C 16.339844 93.925781 16.792969 92.996094 17.269531 92.050781 M 28.984375 71.683594 C 21.53125 54.144531 43.40625 34.851562 54.269531 30.027344 C 32.046875 49.792969 28.257812 64.511719 28.984375 71.683594 M 16.691406 80.980469 C 22.710938 74.035156 15.636719 62.140625 11.371094 58.265625 C 18.574219 70.632812 18.097656 77.804688 16.691406 80.980469 "/>
</g>
</svg>
