<?xml version="1.0" encoding="UTF-8"?>
<svg xmlns="http://www.w3.org/2000/svg" xmlns:xlink="http://www.w3.org/1999/xlink" width="px" height="80px" viewBox="0 0 92 80" version="1.1">
<g id="surface1">
<path style=" stroke:none;fill-rule:evenodd;fill:rgb(100%,100%,100%);fill-opacity:1;" d="M 24.777344 0.0195312 C 22.890625 0.0195312 21.238281 0.359375 19.65625 1.046875 C 18.113281 1.730469 16.746094 2.648438 15.542969 3.855469 L 46.089844 37.441406 L 76.566406 3.835938 C 75.359375 2.628906 73.996094 1.710938 72.359375 1.027344 C 70.867188 0.34375 69.125 0 67.328125 0 C 65.441406 0 63.644531 0.394531 62.046875 1.117188 C 60.394531 1.835938 59.046875 2.917969 57.789062 4.179688 L 46.070312 17.1875 L 34.210938 4.179688 C 33.007812 2.917969 31.644531 1.855469 29.953125 1.117188 C 28.460938 0.394531 26.664062 0.0195312 24.777344 0.0195312 M 46.070312 42.523438 L 15.523438 76.164062 C 16.730469 77.332031 18.09375 78.289062 19.640625 78.972656 C 21.238281 79.65625 22.890625 80 24.671875 80 C 26.648438 80 28.355469 79.566406 29.953125 78.882812 C 31.644531 78.109375 33.097656 77.082031 34.300781 75.820312 L 46.070312 62.8125 L 57.824219 75.820312 C 59.027344 77.082031 60.394531 78.109375 62.027344 78.882812 C 63.628906 79.566406 65.371094 80 67.3125 80 C 69.109375 80 70.851562 79.65625 72.34375 78.972656 C 73.996094 78.289062 75.34375 77.316406 76.546875 76.164062 Z M 46.070312 42.523438 "/>
<path style=" stroke:none;fill-rule:evenodd;fill:rgb(89.803922%,43.921569%,0%);fill-opacity:1;" d="M 10.0625 10.109375 C 8.121094 10.164062 6.234375 10.539062 4.546875 11.277344 C 2.804688 12 1.3125 13.027344 0 14.289062 L 23.324219 40 L 0 65.675781 C 1.3125 66.992188 2.804688 68 4.546875 68.773438 C 6.234375 69.550781 8.121094 69.890625 10.0625 69.980469 C 12.148438 69.890625 14.085938 69.550781 15.867188 68.667969 C 17.664062 67.835938 19.207031 66.722656 20.503906 65.316406 L 43.503906 40 L 20.519531 14.722656 C 19.117188 13.371094 17.609375 12.253906 15.832031 11.371094 C 14.035156 10.539062 12.148438 10.164062 10.0625 10.109375 M 81.882812 10.109375 C 79.800781 10.164062 77.964844 10.539062 76.167969 11.371094 C 74.371094 12.234375 72.828125 13.351562 71.480469 14.722656 L 48.585938 40 L 71.480469 65.332031 C 72.828125 66.738281 74.390625 67.855469 76.167969 68.683594 C 77.964844 69.550781 79.800781 69.890625 81.882812 70 C 83.96875 69.910156 85.746094 69.566406 87.453125 68.792969 C 89.285156 68.019531 90.6875 66.992188 92 65.695312 L 68.730469 40 L 92 14.289062 C 90.6875 13.027344 89.285156 12 87.453125 11.277344 C 85.765625 10.539062 83.96875 10.164062 81.882812 10.109375 "/>
</g>
</svg>
