<?xml version="1.0" encoding="UTF-8"?>
<svg xmlns="http://www.w3.org/2000/svg" xmlns:xlink="http://www.w3.org/1999/xlink" width="px" height="80px" viewBox="0 0 80 80" version="1.1">
<g id="surface1">
<path style=" stroke:none;fill-rule:nonzero;fill:rgb(90.196079%,32.156864%,17.254902%);fill-opacity:1;" d="M 40 0 C 17.90625 0 0 17.90625 0 40 C 0 62.09375 17.90625 80 40 80 C 62.09375 80 80 62.09375 80 40 C 80 17.90625 62.09375 0 40 0 M 40 74.859375 C 33.71875 74.859375 28.625 70.65625 28.625 65.484375 L 51.390625 65.484375 C 51.375 70.65625 46.28125 74.859375 40 74.859375 M 58.796875 62.375 L 21.203125 62.375 L 21.203125 55.5625 L 58.796875 55.5625 Z M 58.65625 52.0625 L 21.3125 52.0625 C 21.1875 51.921875 21.0625 51.78125 20.9375 51.625 C 17.09375 46.953125 16.1875 44.515625 15.296875 42.03125 C 15.28125 41.953125 19.96875 42.984375 23.28125 43.734375 C 23.28125 43.734375 24.984375 44.125 27.484375 44.578125 C 25.09375 41.765625 23.65625 38.1875 23.65625 34.546875 C 23.65625 26.53125 29.8125 19.515625 27.59375 13.859375 C 29.75 14.03125 32.0625 18.421875 32.21875 25.265625 C 34.515625 22.09375 35.46875 16.296875 35.46875 12.75 C 35.46875 9.078125 37.890625 4.796875 40.3125 4.65625 C 38.15625 8.21875 40.875 11.265625 43.296875 18.84375 C 44.203125 21.6875 44.09375 26.46875 44.78125 29.515625 C 45.015625 23.203125 46.09375 14.015625 50.09375 10.828125 C 48.328125 14.828125 50.359375 19.828125 51.734375 22.234375 C 53.96875 26.109375 55.328125 29.0625 55.328125 34.625 C 55.328125 38.359375 53.953125 41.859375 51.625 44.609375 C 54.265625 44.109375 56.09375 43.671875 56.09375 43.671875 L 64.671875 42 C 64.703125 42 63.453125 47.125 58.65625 52.0625 "/>
</g>
</svg>
