<?xml version="1.0" encoding="UTF-8"?>
<svg xmlns="http://www.w3.org/2000/svg" xmlns:xlink="http://www.w3.org/1999/xlink" width="px" height="80px" viewBox="0 0 80 80" version="1.1">
<g id="surface1">
<path style=" stroke:none;fill-rule:evenodd;fill:rgb(100%,90.196079%,83.529413%);fill-opacity:1;" d="M 78.382812 40.027344 C 78.382812 61.234375 61.1875 78.429688 39.980469 78.429688 C 18.773438 78.429688 1.582031 61.234375 1.582031 40.027344 C 1.582031 18.820312 18.773438 1.628906 39.980469 1.628906 C 61.1875 1.628906 78.382812 18.820312 78.382812 40.027344 Z M 78.382812 40.027344 "/>
<path style=" stroke:none;fill-rule:nonzero;fill:rgb(51.372552%,20%,10.588235%);fill-opacity:1;" d="M 13.699219 47.023438 L 20.609375 38.917969 L 72.40625 38.746094 L 65.667969 47.023438 Z M 13.699219 47.023438 "/>
<path style=" stroke:none;fill-rule:nonzero;fill:rgb(97.254902%,63.921571%,48.235294%);fill-opacity:1;" d="M 13.699219 47.023438 L 13.699219 68.785156 C 17.625 68.957031 20.609375 70.492188 20.609375 72.285156 L 60.886719 72.285156 C 60.546875 71.855469 60.375 71.34375 60.375 70.832031 C 60.375 68.957031 62.679688 67.421875 65.667969 67.25 L 65.667969 47.023438 Z M 13.699219 47.023438 "/>
<path style=" stroke:none;fill-rule:nonzero;fill:rgb(85.490197%,51.764709%,36.470589%);fill-opacity:1;" d="M 43.480469 50.695312 C 44.332031 50.269531 45.613281 48.902344 44.84375 47.539062 C 44.675781 47.28125 44.589844 47.109375 44.417969 47.023438 L 47.917969 47.023438 C 47.492188 48.050781 45.871094 49.242188 45.871094 49.242188 C 45.871094 49.242188 45.699219 49.5 45.015625 50.097656 C 44.503906 50.351562 43.90625 50.609375 43.480469 50.695312 M 33.15625 50.609375 C 32.726562 50.4375 32.128906 50.097656 31.703125 49.585938 C 30.9375 48.816406 30.851562 47.792969 30.851562 47.792969 L 30.339844 46.941406 L 32.386719 46.941406 C 32.214844 47.023438 32.128906 47.195312 31.960938 47.453125 C 31.191406 48.816406 32.386719 50.097656 33.15625 50.609375 M 42.710938 50.269531 C 42.285156 50.183594 41.433594 50.097656 40.578125 49.839844 C 39.296875 49.414062 38.617188 48.476562 38.617188 48.476562 C 38.617188 48.476562 37.25 49.328125 35.375 49.671875 C 34.777344 49.757812 34.347656 49.839844 34.09375 49.839844 C 34.09375 49.242188 33.921875 48.5625 33.921875 48.5625 C 33.921875 48.5625 33.582031 47.453125 33.070312 47.109375 L 43.820312 47.109375 C 43.308594 47.453125 42.96875 48.5625 42.96875 48.5625 C 42.96875 48.5625 42.710938 49.5 42.710938 50.269531 "/>
<path style=" stroke:none;fill-rule:nonzero;fill:rgb(87.058824%,90.196079%,89.019608%);fill-opacity:1;" d="M 33.835938 48.476562 C 33.835938 48.476562 34.265625 50.523438 33.835938 50.78125 C 33.410156 51.035156 30.851562 49.242188 31.960938 47.453125 C 32.984375 45.746094 33.835938 48.476562 33.835938 48.476562 "/>
<path style=" stroke:none;fill-rule:nonzero;fill:rgb(87.058824%,90.196079%,89.019608%);fill-opacity:1;" d="M 42.882812 48.476562 C 42.882812 48.476562 42.457031 50.523438 42.882812 50.78125 C 43.308594 51.035156 45.871094 49.242188 44.761719 47.453125 C 43.734375 45.746094 42.882812 48.476562 42.882812 48.476562 "/>
<path style=" stroke:none;fill-rule:nonzero;fill:rgb(83.137256%,32.941177%,11.764706%);fill-opacity:1;" d="M 27.695312 31.238281 C 28.207031 33.542969 26.667969 35.761719 24.449219 36.1875 C 22.148438 36.699219 19.929688 35.164062 19.5 32.945312 C 18.988281 30.640625 20.527344 28.421875 22.746094 27.996094 C 24.960938 27.484375 27.179688 28.933594 27.695312 31.238281 "/>
<path style=" stroke:none;fill-rule:nonzero;fill:rgb(52.156866%,18.039216%,10.588235%);fill-opacity:1;" d="M 26.070312 28.679688 C 25.132812 27.996094 23.9375 27.738281 22.746094 27.996094 C 20.441406 28.507812 18.988281 30.726562 19.5 32.945312 C 19.585938 33.457031 19.757812 33.882812 20.011719 34.3125 C 21.804688 33.714844 24.621094 32.175781 26.070312 28.679688 "/>
<path style=" stroke:none;fill-rule:nonzero;fill:rgb(100%,100%,100%);fill-opacity:1;" d="M 25.816406 31.664062 C 26.070312 32.945312 25.304688 34.140625 24.023438 34.480469 C 22.746094 34.738281 21.550781 33.96875 21.207031 32.6875 C 20.953125 31.410156 21.71875 30.214844 23 29.875 C 24.367188 29.53125 25.558594 30.386719 25.816406 31.664062 "/>
<path style=" stroke:none;fill-rule:nonzero;fill:rgb(88.627452%,34.901962%,11.764706%);fill-opacity:1;" d="M 54.660156 30.46875 C 53.71875 30.46875 52.78125 29.875 52.441406 28.847656 C 52.011719 27.65625 52.695312 26.289062 53.890625 25.949219 C 54.574219 25.691406 57.816406 24.410156 56.878906 21.339844 C 56.195312 19.121094 54.828125 18.78125 50.902344 18.351562 C 50.136719 18.269531 49.453125 18.183594 48.683594 18.097656 C 45.871094 17.671875 43.820312 16.5625 42.542969 14.683594 C 40.664062 11.953125 41.433594 8.796875 41.515625 8.453125 C 41.859375 7.175781 43.140625 6.492188 44.332031 6.75 C 45.613281 7.089844 46.296875 8.371094 46.039062 9.5625 C 46.039062 9.5625 45.699219 11.015625 46.464844 12.039062 C 46.980469 12.808594 47.917969 13.234375 49.367188 13.402344 L 51.417969 13.660156 C 55.085938 14.085938 59.695312 14.511719 61.398438 19.804688 C 63.191406 25.4375 58.839844 29.105469 55.425781 30.214844 C 55.171875 30.46875 54.914062 30.46875 54.660156 30.46875 "/>
<path style=" stroke:none;fill-rule:nonzero;fill:rgb(52.156866%,18.039216%,10.588235%);fill-opacity:1;" d="M 46.382812 12.125 L 46.296875 12.039062 C 44.761719 12.976562 42.796875 13.234375 41.773438 13.234375 C 41.945312 13.746094 42.199219 14.171875 42.542969 14.683594 C 42.96875 15.28125 43.480469 15.792969 44.078125 16.304688 C 46.125 15.964844 47.746094 14.429688 48.683594 13.402344 C 47.574219 13.148438 46.808594 12.722656 46.382812 12.125 "/>
<path style=" stroke:none;fill-rule:nonzero;fill:rgb(52.156866%,18.039216%,10.588235%);fill-opacity:1;" d="M 51.332031 18.4375 C 53.039062 18.609375 54.148438 18.78125 55 19.121094 C 55.597656 18.183594 56.367188 16.5625 56.707031 14.769531 C 55.511719 14.257812 54.148438 14 52.867188 13.832031 C 52.953125 15.109375 52.867188 17.074219 51.332031 18.4375 "/>
<path style=" stroke:none;fill-rule:nonzero;fill:rgb(52.156866%,18.039216%,10.588235%);fill-opacity:1;" d="M 61.570312 24.242188 C 61.828125 23.21875 61.828125 22.023438 61.570312 20.742188 C 61.144531 21.085938 60.546875 21.425781 59.777344 21.679688 C 58.5 22.023438 57.644531 22.023438 57.046875 21.9375 C 57.304688 23.21875 56.792969 24.15625 56.109375 24.753906 C 58.15625 25.519531 60.207031 24.925781 61.570312 24.242188 "/>
<path style=" stroke:none;fill-rule:nonzero;fill:rgb(51.372552%,72.941178%,82.352942%);fill-opacity:1;" d="M 57.046875 22.960938 L 57.046875 21.9375 C 57.046875 21.765625 56.960938 21.511719 56.878906 21.339844 C 56.960938 21.511719 56.960938 21.597656 56.960938 21.765625 C 57.132812 22.195312 57.132812 22.621094 57.046875 22.960938 M 56.960938 21.339844 C 56.621094 20.230469 56.023438 19.546875 55.085938 19.121094 C 56.023438 19.546875 56.535156 20.230469 56.960938 21.339844 M 51.332031 18.4375 C 51.160156 18.4375 50.988281 18.4375 50.902344 18.351562 C 50.136719 18.269531 49.453125 18.183594 48.683594 18.097656 L 48.601562 18.097656 L 48.683594 18.097656 C 49.453125 18.183594 50.222656 18.269531 50.902344 18.351562 C 51.074219 18.4375 51.246094 18.4375 51.332031 18.4375 M 48.515625 18.097656 "/>
<path style=" stroke:none;fill-rule:nonzero;fill:rgb(72.941178%,29.019609%,12.156863%);fill-opacity:1;" d="M 61.230469 25.265625 C 60.972656 25.09375 60.71875 24.925781 60.460938 24.667969 C 60.886719 24.496094 61.230469 24.328125 61.570312 24.15625 C 61.484375 24.582031 61.398438 24.925781 61.230469 25.265625 M 57.816406 21.851562 C 57.476562 21.851562 57.21875 21.851562 57.046875 21.765625 C 57.046875 21.597656 56.960938 21.511719 56.960938 21.339844 C 56.621094 20.230469 56.023438 19.546875 55.085938 19.121094 C 55.257812 18.78125 55.511719 18.351562 55.769531 17.839844 C 56.960938 18.351562 57.730469 19.035156 58.328125 20.230469 C 58.585938 20.742188 58.667969 21.253906 58.585938 21.765625 C 58.328125 21.851562 58.070312 21.851562 57.816406 21.851562 M 51.332031 18.4375 C 51.160156 18.4375 50.988281 18.4375 50.902344 18.351562 C 50.136719 18.269531 49.453125 18.183594 48.683594 18.097656 L 48.601562 18.097656 C 46.550781 17.757812 44.84375 17.074219 43.652344 15.878906 L 44.078125 16.304688 C 44.332031 16.304688 44.589844 16.21875 44.761719 16.132812 C 45.953125 16.476562 47.40625 16.816406 49.199219 16.902344 C 50.390625 16.988281 51.417969 17.074219 52.355469 17.160156 C 52.097656 17.585938 51.84375 18.011719 51.332031 18.4375 "/>
<path style=" stroke:none;fill-rule:nonzero;fill:rgb(43.529412%,15.294118%,9.019608%);fill-opacity:1;" d="M 43.992188 16.304688 C 43.820312 16.21875 43.652344 16.050781 43.566406 15.878906 C 43.394531 15.792969 43.308594 15.621094 43.222656 15.539062 C 43.652344 15.707031 44.164062 15.964844 44.761719 16.132812 C 44.503906 16.21875 44.25 16.21875 43.992188 16.304688 "/>
<path style=" stroke:none;fill-rule:nonzero;fill:rgb(43.529412%,15.294118%,9.019608%);fill-opacity:1;" d="M 55.085938 19.121094 C 54.230469 18.78125 53.039062 18.609375 51.417969 18.4375 C 51.84375 18.011719 52.183594 17.585938 52.441406 17.160156 C 53.804688 17.328125 54.914062 17.5 55.851562 17.839844 C 55.511719 18.351562 55.257812 18.78125 55.085938 19.121094 "/>
<path style=" stroke:none;fill-rule:nonzero;fill:rgb(43.529412%,15.294118%,9.019608%);fill-opacity:1;" d="M 60.460938 24.667969 C 59.4375 23.984375 58.328125 23.386719 57.046875 22.960938 C 57.132812 22.621094 57.132812 22.195312 57.046875 21.765625 C 57.21875 21.765625 57.476562 21.851562 57.816406 21.851562 C 58.070312 21.851562 58.328125 21.851562 58.585938 21.765625 C 58.585938 22.023438 58.5 22.277344 58.5 22.449219 C 59.609375 22.960938 60.632812 23.472656 61.570312 24.15625 C 61.230469 24.410156 60.804688 24.582031 60.460938 24.667969 "/>
<path style=" stroke:none;fill-rule:nonzero;fill:rgb(90.196079%,40.392157%,20%);fill-opacity:1;" d="M 60.632812 20.316406 C 60.632812 20.316406 58.753906 17.671875 56.367188 16.390625 C 56.449219 16.050781 56.535156 15.792969 56.621094 15.453125 C 57.046875 15.621094 57.390625 15.878906 57.644531 16.132812 C 59.777344 17.757812 60.632812 20.316406 60.632812 20.316406 M 52.867188 14.941406 C 51.5 14.429688 50.476562 14.171875 50.476562 14.171875 C 50.476562 14.171875 51.5 14.171875 52.867188 14.429688 Z M 52.867188 14.941406 "/>
<path style=" stroke:none;fill-rule:nonzero;fill:rgb(58.039218%,25.098041%,11.372549%);fill-opacity:1;" d="M 56.367188 16.304688 C 56.195312 16.21875 55.9375 16.132812 55.769531 15.964844 C 54.742188 15.539062 53.804688 15.195312 52.953125 14.855469 L 52.953125 14.34375 C 54.148438 14.511719 55.511719 14.855469 56.621094 15.367188 C 56.535156 15.707031 56.449219 16.050781 56.367188 16.304688 "/>
<path style=" stroke:none;fill-rule:nonzero;fill:rgb(93.725491%,36.470589%,13.333334%);fill-opacity:1;" d="M 35.203125 27.738281 C 35.203125 27.738281 41.347656 20.488281 53.890625 22.195312 C 66.433594 23.984375 71.042969 40.285156 71.042969 40.285156 L 65.667969 47.023438 L 35.203125 47.023438 Z M 35.203125 27.738281 "/>
<path style=" stroke:none;fill-rule:nonzero;fill:rgb(52.156866%,18.039216%,10.588235%);fill-opacity:1;" d="M 37.164062 25.949219 C 38.53125 25.605469 40.578125 25.265625 43.90625 25.519531 C 51.84375 26.035156 62.082031 38.746094 62.082031 38.746094 C 62.082031 38.746094 57.558594 24.328125 43.054688 22.960938 C 40.40625 23.816406 38.445312 25.007812 37.164062 25.949219 "/>
<path style=" stroke:none;fill-rule:nonzero;fill:rgb(78.039217%,30.19608%,12.156863%);fill-opacity:1;" d="M 61.910156 44.976562 L 60.121094 44.976562 C 59.609375 43.613281 57.132812 37.125 53.207031 33.714844 C 49.964844 30.898438 45.273438 27.65625 39.382812 27.398438 L 40.238281 27.398438 C 44.503906 27.398438 48.171875 28.933594 51.074219 30.898438 L 51.074219 30.726562 C 51.160156 30.128906 51.417969 29.617188 51.757812 29.105469 C 54.148438 30.8125 56.367188 32.859375 58.070312 34.652344 C 57.644531 35.078125 57.132812 35.335938 56.621094 35.589844 C 59.695312 39.003906 61.570312 43.78125 61.910156 44.976562 M 59.265625 33.117188 C 58.070312 31.238281 56.367188 29.191406 54.230469 27.484375 C 54.316406 27.484375 54.316406 27.484375 54.402344 27.398438 L 54.488281 27.398438 C 54.574219 27.398438 54.742188 27.398438 54.828125 27.3125 L 55.769531 27.3125 C 55.9375 27.3125 56.023438 27.3125 56.195312 27.398438 C 58.5 27.910156 59.949219 30.128906 59.4375 32.347656 C 59.4375 32.6875 59.351562 32.859375 59.265625 33.117188 "/>
<path style=" stroke:none;fill-rule:nonzero;fill:rgb(43.529412%,15.294118%,9.019608%);fill-opacity:1;" d="M 58.242188 34.566406 C 56.535156 32.773438 54.316406 30.726562 51.929688 29.019531 C 52.183594 28.679688 52.527344 28.335938 52.867188 28.082031 C 52.953125 27.996094 53.121094 27.910156 53.207031 27.824219 C 53.292969 27.738281 53.464844 27.65625 53.550781 27.65625 C 53.636719 27.570312 53.804688 27.570312 53.890625 27.484375 L 53.976562 27.484375 C 54.0625 27.484375 54.0625 27.484375 54.148438 27.398438 C 56.367188 29.191406 57.988281 31.238281 59.179688 33.03125 C 59.097656 33.285156 59.011719 33.457031 58.839844 33.628906 C 58.753906 34.054688 58.5 34.3125 58.242188 34.566406 "/>
<path style=" stroke:none;fill-rule:nonzero;fill:rgb(83.137256%,32.941177%,11.764706%);fill-opacity:1;" d="M 49.453125 30.640625 C 48.941406 32.945312 50.476562 35.164062 52.695312 35.589844 C 55 36.101562 57.21875 34.566406 57.644531 32.347656 C 58.15625 30.042969 56.621094 27.824219 54.402344 27.398438 C 52.183594 26.972656 49.878906 28.421875 49.453125 30.640625 "/>
<path style=" stroke:none;fill-rule:nonzero;fill:rgb(52.156866%,18.039216%,10.588235%);fill-opacity:1;" d="M 51.074219 28.167969 C 52.011719 27.484375 53.207031 27.226562 54.402344 27.484375 C 56.707031 27.996094 58.15625 30.214844 57.644531 32.433594 C 57.558594 32.945312 57.390625 33.371094 57.132812 33.796875 C 55.257812 33.117188 52.441406 31.664062 51.074219 28.167969 "/>
<path style=" stroke:none;fill-rule:nonzero;fill:rgb(100%,100%,100%);fill-opacity:1;" d="M 51.246094 31.066406 C 50.988281 32.347656 51.757812 33.542969 53.039062 33.882812 C 54.316406 34.140625 55.511719 33.371094 55.851562 32.09375 C 56.109375 30.8125 55.339844 29.617188 54.0625 29.277344 C 52.78125 29.019531 51.5 29.789062 51.246094 31.066406 "/>
<path style=" stroke:none;fill-rule:nonzero;fill:rgb(95.686275%,41.568628%,18.431373%);fill-opacity:1;" d="M 18.988281 47.023438 L 16.941406 44.890625 C 16.941406 44.890625 23.511719 31.496094 32.644531 28.335938 C 41.6875 25.265625 48.855469 29.875 53.292969 33.714844 C 57.730469 37.554688 60.289062 45.234375 60.289062 45.234375 L 58.667969 47.023438 Z M 18.988281 47.023438 "/>
<path style=" stroke:none;fill-rule:nonzero;fill:rgb(52.156866%,18.039216%,10.588235%);fill-opacity:1;" d="M 29.484375 33.796875 C 29.484375 33.796875 36.910156 27.910156 38.359375 27.910156 C 39.8125 27.910156 46.894531 33.03125 46.894531 33.03125 L 45.699219 34.480469 C 45.699219 34.480469 39.46875 29.445312 38.273438 29.445312 C 37.082031 29.445312 31.277344 34.480469 31.277344 34.480469 Z M 29.484375 33.796875 "/>
<path style=" stroke:none;fill-rule:nonzero;fill:rgb(52.156866%,18.039216%,10.588235%);fill-opacity:1;" d="M 33.15625 36.015625 C 33.15625 36.015625 37.421875 32.433594 38.617188 32.433594 C 39.8125 32.433594 43.90625 35.589844 43.90625 35.589844 L 42.796875 37.722656 C 42.796875 37.722656 39.554688 34.226562 38.617188 34.226562 C 37.675781 34.226562 34.007812 37.46875 34.007812 37.46875 Z M 33.15625 36.015625 "/>
<path style=" stroke:none;fill-rule:nonzero;fill:rgb(100%,100%,100%);fill-opacity:1;" d="M 16.941406 44.890625 L 22.660156 42.929688 C 22.660156 42.929688 20.78125 36.957031 26.15625 34.054688 C 31.535156 31.152344 33.921875 34.140625 34.605469 35.847656 C 35.375 37.554688 35.375 42.074219 35.375 42.074219 L 41.773438 42.074219 C 41.773438 42.074219 41.6875 35.335938 44.417969 33.457031 C 47.148438 31.578125 51.246094 31.324219 52.867188 34.824219 C 54.488281 38.40625 52.867188 41.480469 52.867188 41.480469 L 60.207031 45.148438 L 58.585938 46.941406 L 18.988281 46.941406 Z M 16.941406 44.890625 "/>
<path style=" stroke:none;fill-rule:nonzero;fill:rgb(99.215686%,86.666667%,1.568628%);fill-opacity:1;" d="M 33.835938 38.746094 C 33.835938 40.113281 32.726562 41.308594 31.277344 41.308594 C 29.914062 41.308594 28.71875 40.199219 28.71875 38.746094 C 28.71875 37.382812 29.828125 36.1875 31.277344 36.1875 C 32.726562 36.1875 33.835938 37.296875 33.835938 38.746094 "/>
<path style=" stroke:none;fill-rule:nonzero;fill:rgb(22.352941%,9.803922%,7.450981%);fill-opacity:1;" d="M 33.15625 38.746094 C 33.15625 39.773438 32.300781 40.539062 31.363281 40.539062 C 30.339844 40.539062 29.570312 39.6875 29.570312 38.746094 C 29.570312 37.808594 30.425781 36.957031 31.363281 36.957031 C 32.300781 36.957031 33.15625 37.722656 33.15625 38.746094 "/>
<path style=" stroke:none;fill-rule:nonzero;fill:rgb(100%,100%,100%);fill-opacity:1;" d="M 30.9375 37.636719 C 30.9375 38.066406 30.59375 38.40625 30.167969 38.40625 C 29.742188 38.40625 29.398438 38.066406 29.398438 37.636719 C 29.398438 37.210938 29.742188 36.871094 30.167969 36.871094 C 30.59375 36.871094 30.9375 37.210938 30.9375 37.636719 "/>
<path style=" stroke:none;fill-rule:nonzero;fill:rgb(99.215686%,86.666667%,1.568628%);fill-opacity:1;" d="M 48.257812 38.746094 C 48.257812 40.113281 47.148438 41.308594 45.699219 41.308594 C 44.332031 41.308594 43.140625 40.199219 43.140625 38.746094 C 43.140625 37.382812 44.25 36.1875 45.699219 36.1875 C 47.148438 36.1875 48.257812 37.296875 48.257812 38.746094 "/>
<path style=" stroke:none;fill-rule:nonzero;fill:rgb(22.352941%,9.803922%,7.450981%);fill-opacity:1;" d="M 47.574219 38.746094 C 47.574219 39.773438 46.722656 40.539062 45.785156 40.539062 C 44.761719 40.539062 43.992188 39.6875 43.992188 38.746094 C 43.992188 37.808594 44.761719 36.957031 45.785156 36.957031 C 46.722656 36.957031 47.574219 37.722656 47.574219 38.746094 "/>
<path style=" stroke:none;fill-rule:nonzero;fill:rgb(100%,100%,100%);fill-opacity:1;" d="M 45.359375 37.636719 C 45.359375 38.066406 45.015625 38.40625 44.589844 38.40625 C 44.164062 38.40625 43.820312 38.066406 43.820312 37.636719 C 43.820312 37.210938 44.164062 36.871094 44.589844 36.871094 C 45.015625 36.871094 45.359375 37.210938 45.359375 37.636719 "/>
<path style=" stroke:none;fill-rule:nonzero;fill:rgb(78.039217%,30.19608%,12.156863%);fill-opacity:1;" d="M 65.667969 47.023438 L 60.375 47.023438 L 61.996094 45.234375 C 61.996094 45.234375 61.996094 45.148438 61.910156 44.976562 L 65.667969 44.976562 L 70.617188 38.917969 C 70.957031 39.773438 71.042969 40.285156 71.042969 40.285156 Z M 65.667969 47.023438 "/>
<path style=" stroke:none;fill-rule:nonzero;fill:rgb(63.921571%,24.705882%,11.764706%);fill-opacity:1;" d="M 60.375 47.023438 L 58.585938 47.023438 L 60.207031 45.234375 C 60.207031 45.234375 60.207031 45.148438 60.121094 44.976562 L 61.910156 44.976562 C 61.996094 45.148438 61.996094 45.234375 61.996094 45.234375 Z M 60.375 47.023438 "/>
<path style=" stroke:none;fill-rule:nonzero;fill:rgb(87.058824%,34.509805%,11.372549%);fill-opacity:1;" d="M 60.289062 45.234375 L 59.777344 44.976562 L 60.207031 44.976562 C 60.207031 45.148438 60.289062 45.234375 60.289062 45.234375 "/>
<path style=" stroke:none;fill-rule:nonzero;fill:rgb(83.529413%,81.568629%,80.392158%);fill-opacity:1;" d="M 58.585938 47.023438 L 18.988281 47.023438 L 16.941406 44.976562 L 59.695312 44.976562 L 60.207031 45.234375 Z M 58.585938 47.023438 "/>
<path style=" stroke:none;fill-rule:nonzero;fill:rgb(100%,100%,100%);fill-opacity:1;" d="M 34.605469 41.480469 C 34.605469 41.480469 32.214844 42.074219 31.277344 44.378906 C 30.425781 46.683594 31.617188 48.390625 33.582031 48.816406 C 35.628906 49.242188 38.53125 47.792969 38.53125 47.792969 C 38.53125 47.792969 40.921875 50.097656 43.820312 49.5 C 46.722656 48.902344 47.660156 45.660156 46.210938 43.613281 C 44.84375 41.648438 41.433594 41.394531 41.433594 41.394531 C 41.433594 41.394531 36.226562 42.929688 34.605469 41.480469 "/>
<path style=" stroke:none;fill-rule:nonzero;fill:rgb(65.098041%,72.549021%,70.980394%);fill-opacity:1;" d="M 38.617188 47.792969 C 38.617188 47.792969 38.703125 47.878906 38.957031 48.050781 L 38.957031 44.378906 C 38.957031 44.210938 38.785156 44.125 38.703125 44.125 C 38.53125 44.125 38.445312 44.292969 38.445312 44.378906 L 38.445312 47.878906 C 38.53125 47.878906 38.617188 47.792969 38.617188 47.792969 "/>
<path style=" stroke:none;fill-rule:nonzero;fill:rgb(52.156866%,18.039216%,10.588235%);fill-opacity:1;" d="M 41.773438 44.039062 C 41.773438 44.039062 43.652344 41.820312 42.457031 40.882812 C 41.261719 39.941406 40.066406 41.5625 38.53125 41.394531 C 36.996094 41.222656 35.375 40.113281 34.777344 41.136719 C 34.09375 42.246094 35.800781 43.527344 35.800781 43.527344 C 35.800781 43.527344 36.226562 42.417969 37.164062 42.929688 C 38.105469 43.441406 37.335938 44.636719 37.335938 44.636719 C 37.335938 44.636719 38.019531 45.148438 38.617188 45.234375 C 39.214844 45.320312 40.152344 44.550781 40.152344 44.550781 C 40.152344 44.550781 39.640625 43.269531 40.664062 42.757812 C 41.601562 42.246094 41.773438 44.039062 41.773438 44.039062 "/>
<path style=" stroke:none;fill-rule:nonzero;fill:rgb(52.156866%,18.039216%,10.588235%);fill-opacity:1;" d="M 23.171875 37.210938 C 23.171875 37.210938 21.71875 39.089844 21.890625 41.820312 C 21.976562 44.550781 25.988281 47.023438 25.988281 47.023438 L 24.449219 44.636719 C 24.023438 44.039062 24.195312 43.269531 24.792969 42.757812 L 27.179688 40.796875 C 27.179688 40.796875 23.9375 41.820312 23.339844 41.050781 C 22.746094 40.285156 23.171875 37.210938 23.171875 37.210938 "/>
<path style=" stroke:none;fill-rule:nonzero;fill:rgb(52.156866%,18.039216%,10.588235%);fill-opacity:1;" d="M 53.207031 35.589844 C 53.207031 35.589844 52.953125 37.980469 52.355469 39.175781 C 51.757812 40.371094 49.710938 39.855469 49.710938 39.855469 C 49.710938 39.855469 52.011719 41.050781 52.011719 41.734375 C 52.011719 42.503906 50.476562 44.808594 50.476562 44.808594 C 50.476562 44.808594 55.511719 41.648438 53.207031 35.589844 "/>
<path style=" stroke:none;fill-rule:nonzero;fill:rgb(52.156866%,18.039216%,10.588235%);fill-opacity:1;" d="M 23.085938 47.023438 C 23.085938 47.023438 22.0625 46.257812 21.464844 45.234375 C 20.78125 44.210938 20.609375 43.527344 20.609375 43.527344 C 20.609375 43.527344 20.527344 44.890625 20.953125 45.832031 C 21.378906 46.769531 21.636719 47.023438 21.636719 47.023438 Z M 23.085938 47.023438 "/>
<path style=" stroke:none;fill-rule:nonzero;fill:rgb(52.156866%,18.039216%,10.588235%);fill-opacity:1;" d="M 53.976562 47.023438 C 53.976562 47.023438 54.914062 46.257812 55.769531 44.808594 C 56.621094 43.355469 56.878906 41.480469 56.878906 41.480469 C 56.878906 41.480469 57.304688 44.210938 57.046875 45.320312 C 56.792969 46.511719 56.367188 46.941406 56.367188 46.941406 L 53.976562 46.941406 "/>
<path style=" stroke:none;fill-rule:nonzero;fill:rgb(52.156866%,18.039216%,10.588235%);fill-opacity:1;" d="M 57.730469 23.300781 C 56.535156 22.789062 55.257812 22.449219 53.890625 22.195312 C 52.695312 22.023438 51.671875 21.9375 50.5625 21.9375 C 52.609375 22.449219 56.878906 23.730469 60.289062 26.886719 C 64.984375 31.152344 66.777344 35.078125 66.777344 35.078125 C 66.777344 35.078125 63.960938 27.3125 57.730469 23.300781 "/>
<path style=" stroke:none;fill-rule:nonzero;fill:rgb(52.156866%,18.039216%,10.588235%);fill-opacity:1;" d="M 60.632812 28.507812 C 60.632812 28.507812 63.703125 30.898438 65.496094 35.589844 C 67.289062 40.285156 67.289062 41.480469 67.289062 41.480469 L 59.609375 31.835938 L 64.726562 36.53125 C 64.644531 36.53125 64.472656 33.796875 60.632812 28.507812 "/>
<path style=" stroke:none;fill-rule:nonzero;fill:rgb(96.470588%,52.156866%,30.980393%);fill-opacity:1;" d="M 72.40625 38.746094 L 65.667969 47.023438 L 65.667969 66.226562 C 66.179688 65.542969 66.777344 65.203125 67.375 65.203125 C 67.972656 65.203125 68.566406 65.542969 68.996094 66.140625 L 72.324219 60.082031 L 72.324219 38.746094 Z M 72.40625 38.746094 "/>
<path style=" stroke:none;fill-rule:nonzero;fill:rgb(52.156866%,18.039216%,10.588235%);fill-opacity:1;" d="M 58.414062 54.707031 L 61.398438 54.707031 L 61.398438 52.144531 L 62.765625 52.144531 L 59.863281 48.902344 L 56.960938 52.144531 L 58.328125 52.144531 L 58.328125 54.707031 "/>
<path style=" stroke:none;fill-rule:nonzero;fill:rgb(52.156866%,18.039216%,10.588235%);fill-opacity:1;" d="M 59.863281 55.472656 L 56.960938 55.472656 L 56.960938 56.496094 L 62.679688 56.496094 L 62.679688 55.472656 Z M 59.863281 55.472656 "/>
<path style=" stroke:none;fill-rule:nonzero;fill:rgb(94.117647%,42.352942%,20.392157%);fill-opacity:1;" d="M 57.988281 25.007812 C 56.535156 24.496094 54.574219 23.984375 52.441406 23.898438 L 51.585938 23.898438 C 50.390625 23.898438 49.199219 23.984375 48.089844 23.984375 L 46.296875 23.472656 C 47.660156 23.132812 49.367188 22.875 51.246094 22.875 C 51.757812 22.875 52.269531 22.875 52.78125 22.960938 C 53.464844 23.046875 54.148438 23.132812 54.742188 23.21875 C 55.683594 23.730469 56.878906 24.328125 57.988281 25.007812 "/>
<path style=" stroke:none;fill-rule:nonzero;fill:rgb(58.039218%,25.098041%,11.372549%);fill-opacity:1;" d="M 42.796875 24.582031 C 42.796875 24.582031 44.164062 23.984375 46.210938 23.472656 L 48.003906 23.984375 C 45.1875 24.242188 42.796875 24.582031 42.796875 24.582031 "/>
<path style=" stroke:none;fill-rule:nonzero;fill:rgb(58.039218%,25.098041%,11.372549%);fill-opacity:1;" d="M 60.289062 26.035156 C 60.289062 26.035156 59.4375 25.519531 57.988281 25.007812 C 56.878906 24.242188 55.769531 23.730469 54.660156 23.21875 C 58.585938 24.070312 60.289062 26.035156 60.289062 26.035156 "/>
<path style=" stroke:none;fill-rule:evenodd;fill:rgb(90.196079%,37.64706%,0.392157%);fill-opacity:1;" d="M 39.980469 0.0078125 C 17.878906 0.0078125 -0.0390625 17.925781 -0.0390625 40.027344 C -0.0390625 62.128906 17.878906 80.050781 39.980469 80.050781 C 62.082031 80.050781 80.003906 62.128906 80.003906 40.027344 C 80.003906 17.925781 62.082031 0.0078125 39.980469 0.0078125 M 39.980469 8.027344 C 57.644531 8.027344 71.980469 22.363281 71.980469 40.027344 C 71.980469 57.691406 57.644531 72.027344 39.980469 72.027344 C 22.316406 72.027344 7.980469 57.691406 7.980469 40.027344 C 7.980469 22.363281 22.316406 8.027344 39.980469 8.027344 "/>
<path style=" stroke:none;fill-rule:nonzero;fill:rgb(100%,100%,100%);fill-opacity:1;" d="M 46.382812 12.125 C 45.699219 11.101562 45.953125 9.648438 45.953125 9.648438 C 46.296875 8.371094 45.527344 7.175781 44.25 6.832031 C 42.96875 6.492188 41.773438 7.261719 41.433594 8.539062 C 41.347656 8.882812 40.664062 11.78125 42.285156 14.429688 C 43.566406 14.171875 45.359375 13.660156 46.636719 12.464844 C 46.636719 12.292969 46.464844 12.210938 46.382812 12.125 "/>
</g>
</svg>
