<?xml version="1.0" encoding="UTF-8"?>
<svg xmlns="http://www.w3.org/2000/svg" xmlns:xlink="http://www.w3.org/1999/xlink" width="80px" height="80px" viewBox="0 0 80 80" version="1.1">
<g id="surface1">
<path style=" stroke:none;fill-rule:nonzero;fill:rgb(56.470591%,29.019609%,1.568628%);fill-opacity:1;" d="M 58.140625 39.125 C 58.140625 39.125 58 39.734375 58 39.84375 C 58 39.953125 54.453125 39.53125 54.453125 39.53125 L 54.59375 38.40625 Z M 58.140625 39.125 "/>
<path style=" stroke:none;fill-rule:nonzero;fill:rgb(56.470591%,29.019609%,1.568628%);fill-opacity:1;" d="M 57.53125 38.84375 C 57.53125 38.84375 48.53125 36.15625 44.640625 36.875 C 40.75 37.59375 43.265625 39.6875 43.265625 39.6875 Z M 21.84375 39.21875 C 21.84375 39.21875 21.984375 39.828125 21.984375 39.9375 C 21.984375 40.046875 25.53125 39.625 25.53125 39.625 L 25.390625 38.5 Z M 21.84375 39.21875 "/>
<path style=" stroke:none;fill-rule:nonzero;fill:rgb(56.470591%,29.019609%,1.568628%);fill-opacity:1;" d="M 22.453125 38.953125 C 22.453125 38.953125 31.453125 36.265625 35.34375 36.984375 C 39.234375 37.703125 36.71875 39.796875 36.71875 39.796875 Z M 22.453125 38.953125 "/>
<path style=" stroke:none;fill-rule:nonzero;fill:rgb(69.803923%,40.392157%,20.392157%);fill-opacity:1;" d="M 57.03125 45.46875 C 57.03125 40.835938 49.65625 37.078125 40.5625 37.078125 C 31.46875 37.078125 24.09375 40.835938 24.09375 45.46875 C 24.09375 50.101562 31.46875 53.859375 40.5625 53.859375 C 49.65625 53.859375 57.03125 50.101562 57.03125 45.46875 Z M 57.03125 45.46875 "/>
<path style=" stroke:none;fill-rule:nonzero;fill:rgb(69.803923%,40.392157%,20.392157%);fill-opacity:1;" d="M 35.65625 37.484375 L 26.5625 38.921875 L 20.6875 39.828125 L 19.109375 41.453125 L 19.109375 44.328125 L 19.40625 47.90625 L 24.359375 49.703125 L 28.21875 49.953125 C 27.09375 38.4375 35.65625 37.484375 35.65625 37.484375 "/>
<path style=" stroke:none;fill-rule:nonzero;fill:rgb(42.745098%,23.529412%,5.882353%);fill-opacity:1;" d="M 31.125 46.59375 C 31.125 46.59375 29.28125 43.734375 24.484375 45.265625 C 19.671875 46.796875 27.140625 48.125 27.140625 48.125 Z M 17.34375 69.859375 C 17.34375 69.859375 20.515625 66.3125 27.75 65.75 C 30.578125 65.53125 29.921875 72.15625 29.921875 72.15625 L 34.734375 67.859375 L 44.15625 68.625 L 47.96875 71.4375 C 47.96875 71.4375 50.40625 65.390625 55.0625 65.515625 C 59.71875 65.640625 62.53125 69.328125 62.53125 69.328125 L 56.609375 50.65625 L 22.390625 50.65625 Z M 17.34375 69.859375 "/>
<path style=" stroke:none;fill-rule:nonzero;fill:rgb(69.803923%,40.392157%,20.392157%);fill-opacity:1;" d="M 48.59375 55.140625 C 46.6875 63.015625 46.203125 71.109375 40.140625 71.109375 C 34.09375 71.109375 33.671875 63.859375 32.015625 55.765625 C 30.5 48.359375 35.28125 43.421875 40.140625 43.421875 C 41.703125 43.4375 43.234375 43.859375 44.578125 44.640625 C 47.640625 46.4375 49.8125 50.09375 48.59375 55.140625 "/>
<path style=" stroke:none;fill-rule:nonzero;fill:rgb(74.117649%,43.137255%,20.784314%);fill-opacity:1;" d="M 46.1875 57.265625 C 46.1875 62.953125 42.21875 69.28125 39.234375 67.984375 C 36.109375 66.625 34.4375 62.578125 33.828125 56.671875 C 33.234375 51.046875 36.8125 46.875 39.9375 46.875 C 43.046875 46.875 46.1875 51.578125 46.1875 57.265625 "/>
<path style=" stroke:none;fill-rule:nonzero;fill:rgb(69.803923%,40.392157%,20.392157%);fill-opacity:1;" d="M 44.34375 37.375 L 53.4375 38.8125 L 59.296875 39.703125 L 60.875 41.328125 L 60.875 44.21875 L 60.578125 47.796875 L 55.625 49.59375 L 51.765625 49.84375 C 52.90625 38.328125 44.34375 37.375 44.34375 37.375 "/>
<path style=" stroke:none;fill-rule:nonzero;fill:rgb(64.705884%,37.64706%,19.607843%);fill-opacity:1;" d="M 33.90625 37.796875 L 37.46875 45.46875 L 41.046875 49.21875 L 43.953125 45.15625 L 47.3125 37.796875 L 42.4375 36.96875 L 37.6875 37.328125 Z M 33.90625 37.796875 "/>
<path style=" stroke:none;fill-rule:nonzero;fill:rgb(22.745098%,22.745098%,22.745098%);fill-opacity:1;" d="M 48.09375 49.65625 C 48.09375 49.65625 49.03125 54.46875 47.1875 55.078125 C 45.34375 55.6875 43.609375 51.09375 43.609375 51.09375 L 39.71875 51.09375 L 39.609375 48.640625 L 45.953125 47.40625 Z M 48.09375 49.65625 "/>
<path style=" stroke:none;fill-rule:nonzero;fill:rgb(22.745098%,22.745098%,22.745098%);fill-opacity:1;" d="M 32.390625 49.65625 C 32.390625 49.65625 31.453125 54.46875 33.296875 55.078125 C 35.140625 55.6875 36.875 51.09375 36.875 51.09375 L 40.765625 51.09375 L 40.875 48.640625 L 34.53125 47.40625 Z M 32.390625 49.65625 "/>
<path style=" stroke:none;fill-rule:nonzero;fill:rgb(26.666668%,26.666668%,26.666668%);fill-opacity:1;" d="M 34.21875 50.578125 L 35.140625 49.96875 L 35.546875 49.453125 L 44.953125 49.453125 L 45.265625 49.96875 L 46.078125 50.375 L 45.46875 47.5 L 39.234375 47.09375 L 35.03125 47.5 Z M 34.21875 50.578125 "/>
<path style=" stroke:none;fill-rule:nonzero;fill:rgb(31.764707%,31.764707%,31.764707%);fill-opacity:1;" d="M 48.046875 48.078125 C 48.046875 48.078125 48.5625 50.28125 47.03125 50.734375 C 45.5 51.1875 44.984375 48.015625 44.984375 48.015625 L 46.109375 47.703125 Z M 32.375 48.078125 C 32.375 48.078125 31.859375 50.28125 33.390625 50.734375 C 34.921875 51.1875 35.4375 48.015625 35.4375 48.015625 L 34.3125 47.703125 Z M 32.375 48.078125 "/>
<path style=" stroke:none;fill-rule:nonzero;fill:rgb(18.82353%,18.82353%,18.82353%);fill-opacity:1;" d="M 42.203125 46.171875 L 46.390625 46.171875 L 48.125 48.125 L 46.28125 48.21875 L 44.03125 47.921875 L 42.296875 48.125 Z M 38.3125 46.171875 L 34.125 46.171875 L 32.390625 48.125 L 34.234375 48.21875 L 36.484375 47.921875 L 38.21875 48.125 Z M 38.3125 46.171875 "/>
<path style=" stroke:none;fill-rule:nonzero;fill:rgb(31.764707%,31.764707%,31.764707%);fill-opacity:1;" d="M 42.296875 48.125 L 38.109375 48.125 L 37.1875 46.171875 L 43.421875 46.171875 Z M 42.296875 48.125 "/>
<path style=" stroke:none;fill-rule:nonzero;fill:rgb(66.666669%,66.666669%,66.666669%);fill-opacity:1;" d="M 42.5 46.890625 C 42.5 46.71875 42.359375 46.578125 42.1875 46.578125 C 42.015625 46.578125 41.875 46.71875 41.875 46.890625 C 41.875 47.0625 42.015625 47.203125 42.1875 47.203125 C 42.359375 47.203125 42.5 47.0625 42.5 46.890625 Z M 42.5 46.890625 "/>
<path style=" stroke:none;fill-rule:nonzero;fill:rgb(66.666669%,66.666669%,66.666669%);fill-opacity:1;" d="M 39.8125 47.5 L 40.703125 47.5 C 40.734375 47.5 40.765625 47.53125 40.765625 47.5625 L 40.765625 47.625 C 40.765625 47.65625 40.734375 47.6875 40.703125 47.6875 L 39.8125 47.6875 C 39.78125 47.6875 39.75 47.65625 39.75 47.625 L 39.75 47.5625 C 39.734375 47.53125 39.765625 47.5 39.8125 47.5 "/>
<path style=" stroke:none;fill-rule:nonzero;fill:rgb(22.745098%,22.745098%,22.745098%);fill-opacity:1;" d="M 33.640625 50.3125 C 33.953125 49.734375 34.15625 49.09375 34.25 48.4375 C 34.265625 48.375 34.15625 48.375 34.140625 48.4375 C 34.0625 49.078125 33.859375 49.703125 33.546875 50.265625 C 33.53125 50.3125 33.609375 50.375 33.640625 50.3125 M 46.8125 50.265625 C 46.5 49.703125 46.296875 49.078125 46.21875 48.4375 C 46.203125 48.375 46.109375 48.375 46.109375 48.4375 C 46.1875 49.09375 46.40625 49.734375 46.71875 50.3125 C 46.765625 50.375 46.84375 50.3125 46.8125 50.265625 "/>
<path style=" stroke:none;fill-rule:nonzero;fill:rgb(64.313728%,34.117648%,12.156863%);fill-opacity:1;" d="M 36.5625 47.109375 C 27.609375 55.796875 25.703125 72.84375 25.703125 72.84375 C 25.703125 72.84375 23.984375 65.125 22.25 64.84375 C 19.953125 64.453125 17.390625 69.5625 17.390625 69.5625 C 17.390625 69.5625 19.71875 60.0625 18.875 56.71875 C 18.09375 53.5625 13.828125 48.765625 16.390625 42.890625 C 16.390625 42.890625 18.65625 39.171875 24.40625 38.625 C 24.40625 38.625 6.75 44 36.09375 46.859375 L 37.078125 46.859375 Z M 36.5625 47.109375 "/>
<path style=" stroke:none;fill-rule:nonzero;fill:rgb(56.470591%,29.019609%,1.568628%);fill-opacity:1;" d="M 34.1875 48.203125 C 27.0625 55.125 25.65625 69.328125 25.65625 69.328125 C 25.65625 69.328125 24.03125 63.1875 22.671875 62.953125 C 20.84375 62.640625 18.671875 66.65625 18.671875 66.65625 C 18.671875 66.65625 21.125 58.984375 19.984375 56.484375 C 16.65625 49.21875 16.453125 47.25 16.765625 45.328125 C 16.765625 45.328125 16.765625 41.84375 20.125 40.328125 C 20.125 40.328125 10.46875 45.53125 33.828125 47.796875 L 34.59375 47.796875 Z M 34.1875 48.203125 "/>
<path style=" stroke:none;fill-rule:nonzero;fill:rgb(42.745098%,23.529412%,5.882353%);fill-opacity:1;" d="M 49.484375 46.484375 C 49.484375 46.484375 51.328125 43.625 56.125 45.15625 C 60.921875 46.6875 53.46875 48.015625 53.46875 48.015625 Z M 49.484375 46.484375 "/>
<path style=" stroke:none;fill-rule:nonzero;fill:rgb(64.313728%,34.117648%,12.156863%);fill-opacity:1;" d="M 43.421875 47 C 52.375 55.6875 54.28125 72.734375 54.28125 72.734375 C 54.28125 72.734375 56 65.015625 57.734375 64.734375 C 60.03125 64.34375 62.609375 69.453125 62.609375 69.453125 C 62.609375 69.453125 60.28125 59.953125 61.125 56.609375 C 61.90625 53.453125 66.171875 48.65625 63.609375 42.78125 C 63.609375 42.78125 61.34375 39.0625 55.59375 38.515625 C 55.59375 38.515625 73.25 43.890625 43.90625 46.75 L 42.921875 46.75 Z M 43.421875 47 "/>
<path style=" stroke:none;fill-rule:nonzero;fill:rgb(56.470591%,29.019609%,1.568628%);fill-opacity:1;" d="M 45.8125 48.09375 C 52.9375 55.015625 54.34375 69.21875 54.34375 69.21875 C 54.34375 69.21875 55.96875 63.078125 57.328125 62.84375 C 59.15625 62.53125 61.328125 66.546875 61.328125 66.546875 C 61.328125 66.546875 58.875 58.875 60.015625 56.375 C 63.34375 49.109375 63.546875 47.140625 63.234375 45.21875 C 63.234375 45.21875 63.234375 41.734375 59.875 40.21875 C 59.875 40.21875 69.53125 45.421875 46.171875 47.6875 L 45.40625 47.6875 Z M 45.8125 48.09375 "/>
<path style=" stroke:none;fill-rule:nonzero;fill:rgb(64.705884%,37.64706%,19.607843%);fill-opacity:1;" d="M 28.734375 38.53125 C 28.734375 38.53125 30.21875 41.375 35.96875 41.375 C 36.234375 41.375 35.375 40.9375 35.375 40.9375 C 35.375 40.9375 31.65625 41.15625 29.328125 38.484375 C 29.078125 38.1875 28.734375 38.53125 28.734375 38.53125 "/>
<path style=" stroke:none;fill-rule:nonzero;fill:rgb(64.313728%,34.117648%,12.156863%);fill-opacity:1;" d="M 21.671875 45.328125 L 21.671875 47.953125 L 22.953125 45.71875 Z M 20.875 44.765625 L 20.875 46.671875 L 21.796875 45.046875 Z M 58.3125 45.21875 L 58.3125 47.859375 L 57.046875 45.609375 Z M 59.109375 44.671875 L 59.109375 46.5625 L 58.1875 44.9375 Z M 59.109375 44.671875 "/>
<path style=" stroke:none;fill-rule:nonzero;fill:rgb(50.980395%,25.098041%,3.529412%);fill-opacity:1;" d="M 34.140625 36.859375 L 33.890625 37.765625 L 36.0625 37.796875 L 36.15625 36.96875 Z M 47.375 36.796875 L 47.296875 37.8125 L 45.4375 37.453125 L 45.5625 36.671875 Z M 47.375 36.796875 "/>
<path style=" stroke:none;fill-rule:nonzero;fill:rgb(69.803923%,40.392157%,20.392157%);fill-opacity:1;" d="M 37.265625 71.671875 C 36.40625 74.1875 35.796875 75.953125 34.4375 75.953125 C 33.078125 75.953125 31.65625 73.46875 31.65625 70.8125 C 31.65625 68.15625 32.890625 64.734375 34.265625 64.734375 C 35.625 64.734375 38.21875 68.859375 37.265625 71.671875 "/>
<path style=" stroke:none;fill-rule:nonzero;fill:rgb(69.803923%,40.392157%,20.392157%);fill-opacity:1;" d="M 35.890625 77.03125 L 33.046875 76.765625 L 33.78125 74.625 L 35.640625 74.5625 Z M 35.890625 77.03125 "/>
<path style=" stroke:none;fill-rule:nonzero;fill:rgb(64.313728%,34.117648%,12.156863%);fill-opacity:1;" d="M 33.125 76.53125 L 35.875 76.890625 L 37.125 79.984375 C 34.078125 76.640625 31.015625 79.5 31.015625 79.5 Z M 33.125 76.53125 "/>
<path style=" stroke:none;fill-rule:nonzero;fill:rgb(64.313728%,34.117648%,12.156863%);fill-opacity:1;" d="M 33.28125 77.953125 C 33.28125 77.953125 32.359375 79.3125 32.671875 80 L 33.6875 78.984375 L 34.890625 77.96875 Z M 33.28125 77.953125 "/>
<path style=" stroke:none;fill-rule:nonzero;fill:rgb(69.803923%,40.392157%,20.392157%);fill-opacity:1;" d="M 43.0625 71.203125 C 43.8125 73.75 44.140625 75.609375 45.5 75.609375 C 46.859375 75.609375 48.28125 73.125 48.28125 70.46875 C 48.28125 67.8125 47.046875 64.390625 45.671875 64.390625 C 44.296875 64.390625 42.234375 68.390625 43.0625 71.203125 "/>
<path style=" stroke:none;fill-rule:nonzero;fill:rgb(69.803923%,40.392157%,20.392157%);fill-opacity:1;" d="M 44.046875 76.671875 L 46.890625 76.40625 L 46.15625 74.265625 L 44.28125 74.1875 Z M 44.046875 76.671875 "/>
<path style=" stroke:none;fill-rule:nonzero;fill:rgb(64.313728%,34.117648%,12.156863%);fill-opacity:1;" d="M 46.8125 76.171875 L 44.0625 76.53125 L 42.8125 79.625 C 45.859375 76.28125 48.921875 79.140625 48.921875 79.140625 Z M 46.8125 76.171875 "/>
<path style=" stroke:none;fill-rule:nonzero;fill:rgb(64.313728%,34.117648%,12.156863%);fill-opacity:1;" d="M 46.421875 77.640625 C 46.421875 77.640625 47.34375 79 47.03125 79.6875 L 46.015625 78.671875 L 44.8125 77.65625 Z M 46.421875 77.640625 "/>
<path style=" stroke:none;fill-rule:nonzero;fill:rgb(24.705882%,24.705882%,24.705882%);fill-opacity:1;" d="M 34.734375 41.140625 L 36.875 41.140625 C 37.109375 41.140625 37.296875 41.328125 37.296875 41.5625 L 37.296875 42.0625 C 37.296875 42.296875 37.109375 42.484375 36.875 42.484375 L 34.75 42.484375 C 34.515625 42.484375 34.328125 42.296875 34.328125 42.0625 L 34.328125 41.5625 C 34.328125 41.328125 34.515625 41.140625 34.734375 41.140625 "/>
<path style=" stroke:none;fill-rule:nonzero;fill:rgb(18.82353%,18.82353%,18.82353%);fill-opacity:1;" d="M 49.953125 16.6875 C 49.953125 16.6875 49.953125 15.984375 48.5 15.765625 C 47.90625 15.671875 44.5 15.71875 44.5 15.71875 L 43.4375 13.375 C 43.4375 13.375 48.140625 13.421875 49.625 14.15625 C 51.109375 14.875 50.78125 16 50.640625 17.171875 M 28.625 18.078125 C 28.625 18.078125 28.53125 17.375 29.9375 16.96875 C 30.515625 16.8125 33.890625 16.40625 33.890625 16.40625 L 35.265625 13.90625 C 35.265625 13.90625 29.96875 14.609375 28.59375 15.515625 C 27.21875 16.421875 27.6875 17.5 27.984375 18.625 "/>
<path style=" stroke:none;fill-rule:nonzero;fill:rgb(69.803923%,40.392157%,20.392157%);fill-opacity:1;" d="M 33.71875 35.046875 C 33.625 35.3125 34.015625 35.734375 34.15625 35.90625 C 35.28125 37.3125 36.15625 38.90625 37.15625 40.40625 C 37.59375 41.0625 40.328125 45.09375 41.171875 44.203125 C 42.609375 42.6875 43.65625 40.796875 44.6875 39 C 45.765625 37.09375 46.734375 35.109375 47.328125 33.015625 C 47.359375 32.953125 47.359375 32.875 47.359375 32.796875 C 47.296875 32.234375 44.84375 32.1875 44.375 32.109375 L 42.96875 31.890625 C 42.84375 31.875 42.515625 31.75 42.390625 31.796875 L 35.8125 34.25 L 34.5 34.734375 C 34.328125 34.796875 33.828125 34.828125 33.734375 35.015625 C 33.734375 35.03125 33.734375 35.046875 33.71875 35.046875 "/>
<path style=" stroke:none;fill-rule:nonzero;fill:rgb(64.313728%,34.117648%,12.156863%);fill-opacity:1;" d="M 34.671875 35.5625 L 38.5625 41.671875 L 39.515625 42.515625 L 40.71875 43.5625 L 41.90625 42.359375 L 45.3125 37.015625 L 47.09375 32.78125 L 42.140625 32.109375 Z M 34.671875 35.5625 "/>
<path style=" stroke:none;fill-rule:nonzero;fill:rgb(79.607844%,38.82353%,82.745099%);fill-opacity:1;" d="M 44.578125 37.359375 L 36.296875 36.9375 L 38.453125 41.34375 L 39.265625 42.15625 L 40.390625 43.078125 L 41.109375 42.46875 L 41.609375 41.953125 L 42.125 41.234375 "/>
<path style=" stroke:none;fill-rule:nonzero;fill:rgb(69.803923%,37.254903%,54.901963%);fill-opacity:1;" d="M 38.65625 40.1875 L 39.359375 41.40625 L 40.28125 42.328125 L 43.75 39.265625 L 39.78125 38.859375 Z M 38.65625 40.1875 "/>
<path style=" stroke:none;fill-rule:nonzero;fill:rgb(74.117649%,43.137255%,20.784314%);fill-opacity:1;" d="M 41.234375 0 C 40.921875 0.046875 40.578125 0.421875 40.421875 0.609375 C 38.234375 3.265625 36.90625 6.515625 35.765625 9.765625 C 35.140625 11.53125 34.5625 13.3125 33.890625 15.0625 C 33.234375 16.765625 32.328125 18.375 31.734375 20.09375 C 31.078125 22.046875 30.828125 24.125 30.953125 26.171875 C 31.109375 29.125 31.53125 32.796875 33.671875 35.046875 C 36.953125 38.5 39.3125 40.953125 39.3125 40.953125 L 40.703125 42.0625 L 42.125 40.78125 C 42.125 40.78125 45.9375 37.390625 46.359375 35.890625 C 46.78125 34.390625 46.796875 34.5 47.140625 33.703125 C 47.484375 32.90625 48.0625 32.859375 48.5 30.65625 C 49.546875 25.34375 47.671875 19.9375 45.828125 15.015625 C 44.78125 12.21875 43.671875 9.4375 42.96875 6.546875 C 42.65625 5.296875 42.4375 4.03125 42.171875 2.765625 C 42.046875 2.140625 41.90625 1.515625 41.75 0.890625 C 41.703125 0.671875 41.671875 0.140625 41.4375 0.03125 C 41.359375 0 41.296875 0 41.234375 0 "/>
<path style=" stroke:none;fill-rule:nonzero;fill:rgb(69.803923%,40.392157%,20.392157%);fill-opacity:1;" d="M 41.5 0.078125 C 41.734375 0.390625 41.375 0.640625 41.40625 1.015625 C 41.453125 1.484375 41.5 1.9375 41.546875 2.390625 C 41.65625 3.34375 41.796875 4.28125 41.96875 5.234375 C 42.296875 7.09375 42.71875 8.921875 43.25 10.734375 C 44.703125 15.734375 46.90625 20.609375 47.03125 25.8125 C 47.171875 31.109375 45.078125 36.28125 42.171875 40.71875 C 45.28125 38.046875 47.5625 35.0625 48.546875 30.390625 C 49.09375 27.796875 48.828125 25.015625 48.265625 22.421875 C 47.984375 21.15625 47.359375 20.015625 47.03125 18.78125 C 46.671875 17.421875 46.21875 16.09375 45.75 14.765625 C 44.8125 12.125 43.765625 9.5 42.984375 6.8125 C 42.46875 5.015625 42.296875 3.140625 41.84375 1.328125 C 41.8125 1.203125 41.671875 -0.203125 41.21875 0.03125 "/>
<path style=" stroke:none;fill-rule:nonzero;fill:rgb(100%,100%,100%);fill-opacity:1;" d="M 35.984375 28.609375 C 36.03125 29.375 35.5 30.046875 34.796875 30.09375 C 34.09375 30.140625 33.46875 29.546875 33.421875 28.78125 C 33.375 28 33.9375 27.890625 34.640625 27.84375 C 35.34375 27.796875 35.921875 27.84375 35.984375 28.609375 M 47.203125 27.953125 C 47.25 28.765625 46.671875 29.453125 45.890625 29.515625 C 45.109375 29.578125 44.4375 28.953125 44.390625 28.140625 C 44.34375 27.328125 44.953125 27.1875 45.734375 27.140625 C 46.515625 27.09375 47.140625 27.140625 47.203125 27.953125 "/>
<path style=" stroke:none;fill-rule:nonzero;fill:rgb(56.862748%,33.725491%,17.647059%);fill-opacity:1;" d="M 38.265625 34.40625 C 38.148438 34.042969 37.90625 33.800781 37.726562 33.859375 C 37.546875 33.917969 37.496094 34.257812 37.613281 34.617188 C 37.730469 34.980469 37.972656 35.226562 38.152344 35.167969 C 38.332031 35.105469 38.382812 34.765625 38.265625 34.40625 Z M 38.265625 34.40625 "/>
<path style=" stroke:none;fill-rule:nonzero;fill:rgb(56.862748%,33.725491%,17.647059%);fill-opacity:1;" d="M 43.027344 33.847656 C 42.84375 33.789062 42.601562 34.03125 42.484375 34.394531 C 42.367188 34.753906 42.417969 35.09375 42.597656 35.152344 C 42.78125 35.210938 43.019531 34.96875 43.140625 34.605469 C 43.257812 34.246094 43.207031 33.90625 43.027344 33.847656 Z M 43.027344 33.847656 "/>
<path style=" stroke:none;fill-rule:nonzero;fill:rgb(13.725491%,13.725491%,13.725491%);fill-opacity:1;" d="M 35.609375 29.3125 C 35.609375 29.027344 35.378906 28.796875 35.09375 28.796875 C 34.808594 28.796875 34.578125 29.027344 34.578125 29.3125 C 34.578125 29.597656 34.808594 29.828125 35.09375 29.828125 C 35.378906 29.828125 35.609375 29.597656 35.609375 29.3125 Z M 35.609375 29.3125 "/>
<path style=" stroke:none;fill-rule:nonzero;fill:rgb(13.725491%,13.725491%,13.725491%);fill-opacity:1;" d="M 46.046875 28.609375 C 46.046875 28.316406 45.808594 28.078125 45.515625 28.078125 C 45.222656 28.078125 44.984375 28.316406 44.984375 28.609375 C 44.984375 28.902344 45.222656 29.140625 45.515625 29.140625 C 45.808594 29.140625 46.046875 28.902344 46.046875 28.609375 Z M 46.046875 28.609375 "/>
<path style=" stroke:none;fill-rule:nonzero;fill:rgb(24.705882%,24.705882%,24.705882%);fill-opacity:1;" d="M 48.25 22.21875 L 49.59375 22.125 C 49.734375 22.109375 49.84375 22.21875 49.859375 22.359375 L 50.359375 30.015625 C 50.375 30.15625 50.265625 30.265625 50.125 30.28125 L 48.78125 30.375 C 48.640625 30.390625 48.53125 30.28125 48.515625 30.140625 L 48.015625 22.484375 C 48.015625 22.34375 48.125 22.21875 48.25 22.21875 "/>
<path style=" stroke:none;fill-rule:nonzero;fill:rgb(8.627451%,8.627451%,8.627451%);fill-opacity:1;" d="M 50.171875 22.496094 L 50.78125 22.457031 L 51.25 29.707031 L 50.644531 29.746094 Z M 51.03125 22.953125 L 51.640625 22.90625 C 51.75 22.90625 51.84375 22.984375 51.859375 23.09375 L 52.25 29.109375 C 52.25 29.21875 52.171875 29.3125 52.0625 29.328125 L 51.453125 29.375 C 51.34375 29.375 51.25 29.296875 51.234375 29.1875 L 50.84375 23.171875 C 50.828125 23.0625 50.90625 22.96875 51.03125 22.953125 "/>
<path style=" stroke:none;fill-rule:nonzero;fill:rgb(18.82353%,18.82353%,18.82353%);fill-opacity:1;" d="M 49.734375 30.515625 L 49.6875 29.078125 L 50.046875 28.453125 L 49.6875 22.828125 L 49.078125 22.15625 L 49.015625 21.953125 L 49.828125 21.796875 L 50.359375 22.078125 L 50.875 30.03125 L 50.390625 30.46875 Z M 50.4375 21.65625 L 50.734375 22.453125 L 51.21875 29.90625 L 50.90625 30.4375 L 51.8125 30.171875 L 51.28125 22.015625 Z M 49.96875 16.6875 L 50.671875 16.96875 L 51.03125 21.484375 L 50.421875 21.59375 Z M 49.96875 16.6875 "/>
<path style=" stroke:none;fill-rule:nonzero;fill:rgb(18.82353%,18.82353%,18.82353%);fill-opacity:1;" d="M 50.4375 21.65625 L 50.421875 20.015625 L 51.28125 22.015625 Z M 27.515625 28.78125 L 27.859375 28.765625 C 27.96875 28.765625 28.046875 28.84375 28.0625 28.9375 L 28.140625 30.09375 C 28.140625 30.203125 28.0625 30.28125 27.96875 30.296875 L 27.625 30.3125 C 27.515625 30.3125 27.4375 30.234375 27.421875 30.140625 L 27.34375 28.984375 C 27.328125 28.875 27.40625 28.796875 27.515625 28.78125 "/>
<path style=" stroke:none;fill-rule:nonzero;fill:rgb(18.82353%,18.82353%,18.82353%);fill-opacity:1;" d="M 27.296875 28.28125 C 27.296875 28.28125 22.125 43.375 36 42.46875 L 36.296875 42.453125 L 36.234375 41.53125 C 36.234375 41.53125 24.921875 44 27.71875 30.296875 C 28.171875 28.09375 27.59375 28.359375 27.59375 28.359375 Z M 27.296875 28.28125 "/>
<path style=" stroke:none;fill-rule:nonzero;fill:rgb(24.705882%,24.705882%,24.705882%);fill-opacity:1;" d="M 31.5625 31.484375 L 30.21875 31.578125 C 30.078125 31.59375 29.96875 31.484375 29.953125 31.34375 L 29.453125 23.6875 C 29.4375 23.546875 29.546875 23.4375 29.6875 23.421875 L 31.03125 23.328125 C 31.171875 23.3125 31.28125 23.421875 31.296875 23.5625 L 31.796875 31.21875 C 31.796875 31.359375 31.703125 31.484375 31.5625 31.484375 "/>
<path style=" stroke:none;fill-rule:nonzero;fill:rgb(8.627451%,8.627451%,8.627451%);fill-opacity:1;" d="M 28.546875 23.902344 L 29.15625 23.863281 L 29.625 31.113281 L 29.019531 31.152344 Z M 28.546875 23.902344 "/>
<path style=" stroke:none;fill-rule:nonzero;fill:rgb(8.627451%,8.627451%,8.627451%);fill-opacity:1;" d="M 28.796875 30.859375 L 28.1875 30.90625 C 28.078125 30.90625 27.984375 30.828125 27.96875 30.71875 L 27.578125 24.703125 C 27.578125 24.59375 27.65625 24.5 27.765625 24.484375 L 28.375 24.4375 C 28.484375 24.4375 28.578125 24.515625 28.59375 24.625 L 28.984375 30.640625 C 29 30.75 28.90625 30.84375 28.796875 30.859375 "/>
<path style=" stroke:none;fill-rule:nonzero;fill:rgb(18.82353%,18.82353%,18.82353%);fill-opacity:1;" d="M 30.640625 31.765625 L 30.5 30.328125 L 30.0625 29.75 L 29.6875 24.140625 L 30.203125 23.390625 L 30.25 23.171875 L 29.421875 23.125 L 28.921875 23.46875 L 29.453125 31.421875 L 29.984375 31.796875 Z M 28.78125 23.0625 L 28.59375 23.90625 L 29.078125 31.34375 L 29.46875 31.828125 L 28.546875 31.6875 L 28.015625 23.53125 Z M 28.640625 18.0625 L 28 18.59375 L 28.1875 22.96875 L 28.8125 22.984375 Z M 28.640625 18.0625 "/>
<path style=" stroke:none;fill-rule:nonzero;fill:rgb(18.82353%,18.82353%,18.82353%);fill-opacity:1;" d="M 28.796875 23.0625 L 28.59375 21.4375 L 28.015625 23.53125 Z M 28.796875 23.0625 "/>
<path style=" stroke:none;fill-rule:nonzero;fill:rgb(48.627451%,26.666668%,11.764706%);fill-opacity:1;" d="M 31.390625 21.5 C 31.890625 21.15625 32.546875 21.109375 33.125 21.046875 C 33.796875 20.96875 34.484375 20.921875 35.140625 21.09375 C 35.71875 21.25 35.953125 20.359375 35.390625 20.203125 C 34.609375 20 33.8125 20.03125 33.015625 20.125 C 32.3125 20.21875 31.546875 20.28125 30.9375 20.6875 C 30.4375 21.03125 30.90625 21.828125 31.390625 21.5 M 44.140625 20.765625 C 45.234375 20.3125 46.453125 20.234375 47.59375 20.5625 C 48.171875 20.71875 48.40625 19.828125 47.84375 19.671875 C 46.546875 19.296875 45.15625 19.375 43.890625 19.875 C 43.65625 19.96875 43.5 20.1875 43.5625 20.4375 C 43.640625 20.65625 43.921875 20.859375 44.140625 20.765625 "/>
<path style=" stroke:none;fill-rule:nonzero;fill:rgb(13.725491%,13.725491%,13.725491%);fill-opacity:1;" d="M 41.671875 27.171875 C 41.640625 26.703125 40.796875 26.125 39.78125 26.171875 C 38.765625 26.21875 37.96875 26.875 38 27.34375 C 38.03125 27.8125 38.8125 27.109375 39.828125 27.0625 C 40.84375 27.015625 41.6875 27.640625 41.671875 27.171875 "/>
<path style=" stroke:none;fill-rule:nonzero;fill:rgb(100%,100%,100%);fill-opacity:1;" d="M 38.210938 26.445312 C 38.074219 23.703125 36.355469 21.5625 34.375 21.660156 C 32.390625 21.761719 30.894531 24.0625 31.035156 26.804688 C 31.171875 29.546875 32.890625 31.6875 34.871094 31.585938 C 36.855469 31.488281 38.351562 29.183594 38.210938 26.445312 Z M 38.210938 26.445312 "/>
<path style=" stroke:none;fill-rule:nonzero;fill:rgb(100%,100%,100%);fill-opacity:1;" d="M 48.539062 25.929688 C 48.402344 23.1875 46.683594 21.046875 44.703125 21.144531 C 42.71875 21.246094 41.222656 23.546875 41.363281 26.289062 C 41.5 29.03125 43.21875 31.171875 45.199219 31.070312 C 47.183594 30.972656 48.679688 28.667969 48.539062 25.929688 Z M 48.539062 25.929688 "/>
<path style=" stroke:none;fill-rule:nonzero;fill:rgb(13.725491%,13.725491%,13.725491%);fill-opacity:1;" d="M 32.4375 23.125 C 31.875 23.921875 31.546875 24.359375 31.171875 24.375 C 30.796875 24.390625 30.4375 23.71875 30.40625 22.890625 C 30.359375 22.078125 32.734375 21.953125 33.125 21.9375 C 33.484375 21.921875 32.5625 22.9375 32.4375 23.125 M 46.609375 22.40625 C 47.234375 23.15625 47.625 23.546875 48 23.53125 C 48.375 23.515625 48.65625 22.796875 48.625 21.984375 C 48.578125 21.171875 46.203125 21.28125 45.828125 21.3125 C 45.4375 21.328125 46.453125 22.234375 46.609375 22.40625 "/>
<path style=" stroke:none;fill-rule:nonzero;fill:rgb(13.725491%,13.725491%,13.725491%);fill-opacity:1;" d="M 35.984375 29.53125 C 35.984375 28.859375 35.4375 28.3125 34.765625 28.3125 C 34.09375 28.3125 33.546875 28.859375 33.546875 29.53125 C 33.546875 30.203125 34.09375 30.75 34.765625 30.75 C 35.4375 30.75 35.984375 30.203125 35.984375 29.53125 Z M 35.984375 29.53125 "/>
<path style=" stroke:none;fill-rule:nonzero;fill:rgb(13.725491%,13.725491%,13.725491%);fill-opacity:1;" d="M 46.640625 29 C 46.640625 28.265625 46.046875 27.671875 45.3125 27.671875 C 44.578125 27.671875 43.984375 28.265625 43.984375 29 C 43.984375 29.734375 44.578125 30.328125 45.3125 30.328125 C 46.046875 30.328125 46.640625 29.734375 46.640625 29 Z M 46.640625 29 "/>
<path style=" stroke:none;fill-rule:nonzero;fill:rgb(100%,100%,100%);fill-opacity:1;" d="M 35.359375 30.09375 C 35.359375 29.914062 35.210938 29.765625 35.03125 29.765625 C 34.851562 29.765625 34.703125 29.914062 34.703125 30.09375 C 34.703125 30.273438 34.851562 30.421875 35.03125 30.421875 C 35.210938 30.421875 35.359375 30.273438 35.359375 30.09375 Z M 35.359375 30.09375 "/>
<path style=" stroke:none;fill-rule:nonzero;fill:rgb(100%,100%,100%);fill-opacity:1;" d="M 45.328125 29.65625 C 45.328125 29.457031 45.167969 29.296875 44.96875 29.296875 C 44.769531 29.296875 44.609375 29.457031 44.609375 29.65625 C 44.609375 29.855469 44.769531 30.015625 44.96875 30.015625 C 45.167969 30.015625 45.328125 29.855469 45.328125 29.65625 Z M 45.328125 29.65625 "/>
<path style=" stroke:none;fill-rule:nonzero;fill:rgb(100%,76.47059%,24.313726%);fill-opacity:1;" d="M 31.050781 22.710938 C 31.035156 22.660156 30.929688 22.652344 30.8125 22.695312 C 30.699219 22.734375 30.621094 22.804688 30.640625 22.855469 C 30.65625 22.902344 30.761719 22.910156 30.875 22.871094 C 30.992188 22.832031 31.070312 22.757812 31.050781 22.710938 Z M 31.050781 22.710938 "/>
<path style=" stroke:none;fill-rule:nonzero;fill:rgb(100%,76.47059%,24.313726%);fill-opacity:1;" d="M 48.195312 21.816406 C 48.085938 21.761719 47.980469 21.757812 47.957031 21.804688 C 47.933594 21.851562 48.003906 21.933594 48.113281 21.984375 C 48.222656 22.035156 48.328125 22.039062 48.351562 21.996094 C 48.375 21.949219 48.304688 21.867188 48.195312 21.816406 Z M 48.195312 21.816406 "/>
<path style=" stroke:none;fill-rule:nonzero;fill:rgb(50.980395%,25.098041%,3.529412%);fill-opacity:1;" d="M 28.734375 38.578125 C 28.734375 38.578125 28.375 37.78125 28.34375 37.515625 C 28.328125 37.453125 28.78125 37.4375 28.78125 37.4375 L 29.34375 38.46875 Z M 28.734375 38.578125 "/>
</g>
</svg>
