<?xml version="1.0" encoding="UTF-8"?>
<svg xmlns="http://www.w3.org/2000/svg" xmlns:xlink="http://www.w3.org/1999/xlink" width="80px" height="80px" viewBox="0 0 80 80" version="1.1">
<g id="surface1">
<path style=" stroke:none;fill-rule:nonzero;fill:rgb(41.176471%,60.784316%,87.450981%);fill-opacity:1;" d="M 65.203125 8.464844 C 72.089844 14.34375 76.597656 21.296875 79.0625 30 C 79.167969 30.367188 79.277344 30.738281 79.386719 31.117188 C 81.742188 41.082031 79.746094 52.335938 74.488281 61.03125 C 71.210938 66.246094 66.828125 70.847656 61.5625 74.0625 C 61.226562 74.277344 60.890625 74.488281 60.546875 74.710938 C 51.839844 80.011719 40.75 81.566406 30.816406 79.324219 C 28.382812 78.707031 26.046875 77.882812 23.75 76.875 C 23.546875 76.785156 23.339844 76.699219 23.128906 76.605469 C 13.726562 72.453125 6.316406 64.460938 2.539062 54.9375 C 1.929688 53.3125 1.410156 51.671875 0.9375 50 C 0.832031 49.632812 0.722656 49.261719 0.613281 48.882812 C -1.742188 38.917969 0.253906 27.664062 5.511719 18.96875 C 11.226562 9.875 19.742188 3.84375 30 0.9375 C 30.367188 0.832031 30.738281 0.722656 31.117188 0.613281 C 42.730469 -2.128906 56.003906 0.917969 65.203125 8.464844 Z M 65.203125 8.464844 "/>
<path style=" stroke:none;fill-rule:nonzero;fill:rgb(37.254903%,58.039218%,86.666667%);fill-opacity:1;" d="M 65.203125 8.464844 C 72.089844 14.34375 76.597656 21.296875 79.0625 30 C 79.167969 30.367188 79.277344 30.738281 79.386719 31.117188 C 81.742188 41.082031 79.746094 52.335938 74.488281 61.03125 C 71.210938 66.246094 66.828125 70.847656 61.5625 74.0625 C 61.226562 74.277344 60.890625 74.488281 60.546875 74.710938 C 51.839844 80.011719 40.75 81.566406 30.816406 79.324219 C 28.382812 78.707031 26.046875 77.882812 23.75 76.875 C 23.546875 76.785156 23.339844 76.699219 23.128906 76.605469 C 13.726562 72.453125 6.316406 64.460938 2.539062 54.9375 C 1.929688 53.3125 1.410156 51.671875 0.9375 50 C 0.832031 49.632812 0.722656 49.261719 0.613281 48.882812 C -1.742188 38.917969 0.253906 27.664062 5.511719 18.96875 C 11.226562 9.875 19.742188 3.84375 30 0.9375 C 30.367188 0.832031 30.738281 0.722656 31.117188 0.613281 C 42.730469 -2.128906 56.003906 0.917969 65.203125 8.464844 Z M 19.375 17.5 C 19.132812 17.71875 18.890625 17.933594 18.640625 18.160156 C 13.070312 23.410156 9.859375 30.773438 9.613281 38.371094 C 9.542969 42.25 9.664062 45.691406 10.9375 49.375 C 11.003906 49.570312 11.066406 49.765625 11.136719 49.96875 C 12.769531 54.777344 15.496094 58.613281 19.0625 62.1875 C 19.285156 62.414062 19.511719 62.644531 19.742188 62.878906 C 26.085938 68.921875 34.191406 70.519531 42.640625 70.335938 C 50.398438 70.09375 57.441406 65.941406 62.742188 60.480469 C 68.964844 53.390625 70.828125 45.070312 70.269531 35.859375 C 69.582031 28.402344 65.246094 21.40625 59.6875 16.5625 C 54.078125 12.167969 47.683594 9.546875 40.527344 9.609375 C 40.179688 9.613281 39.835938 9.613281 39.480469 9.617188 C 31.75 9.71875 25.09375 12.28125 19.375 17.5 Z M 19.375 17.5 "/>
<path style=" stroke:none;fill-rule:nonzero;fill:rgb(83.137256%,88.627452%,96.078432%);fill-opacity:1;" d="M 49.375 10.9375 C 49.667969 11.035156 49.667969 11.035156 49.96875 11.136719 C 54.777344 12.769531 58.613281 15.496094 62.1875 19.0625 C 62.414062 19.285156 62.644531 19.511719 62.878906 19.742188 C 68.851562 26.007812 70.5 34.058594 70.398438 42.421875 C 70.324219 44.894531 69.875 47.035156 69.0625 49.375 C 68.992188 49.574219 68.925781 49.777344 68.855469 49.980469 C 66.164062 57.683594 60.671875 63.625 53.515625 67.421875 C 46.519531 70.785156 38.125 71.425781 30.683594 69.179688 C 22.246094 66.152344 15.917969 60.425781 12.03125 52.316406 C 10.332031 48.445312 9.570312 44.746094 9.609375 40.527344 C 9.613281 40.179688 9.613281 39.835938 9.617188 39.480469 C 9.71875 31.75 12.28125 25.09375 17.5 19.375 C 17.71875 19.132812 17.933594 18.890625 18.160156 18.640625 C 25.910156 10.421875 38.691406 7.242188 49.375 10.9375 Z M 20.753906 22.867188 C 16.027344 28.390625 13.953125 34.984375 14.375 42.1875 C 14.859375 47.835938 17.214844 52.957031 20.9375 57.1875 C 21.25 57.542969 21.25 57.542969 21.570312 57.910156 C 25.722656 62.355469 31.96875 65.425781 38.054688 65.710938 C 45.015625 65.902344 51.753906 64.019531 56.972656 59.238281 C 57.574219 58.667969 58.164062 58.085938 58.75 57.5 C 58.960938 57.292969 59.167969 57.089844 59.382812 56.878906 C 63.964844 52.035156 65.824219 45.222656 65.710938 38.71875 C 65.421875 31.574219 61.9375 25.398438 56.871094 20.492188 C 45.976562 11.097656 30.410156 12.84375 20.753906 22.867188 Z M 20.753906 22.867188 "/>
<path style=" stroke:none;fill-rule:nonzero;fill:rgb(22.745098%,48.235294%,83.529413%);fill-opacity:1;" d="M 65.203125 8.464844 C 72.089844 14.34375 76.597656 21.296875 79.0625 30 C 79.167969 30.367188 79.277344 30.738281 79.386719 31.117188 C 81.742188 41.082031 79.746094 52.335938 74.488281 61.03125 C 71.210938 66.246094 66.828125 70.847656 61.5625 74.0625 C 61.226562 74.277344 60.890625 74.488281 60.546875 74.710938 C 51.839844 80.011719 40.75 81.566406 30.816406 79.324219 C 28.382812 78.707031 26.046875 77.882812 23.75 76.875 C 23.546875 76.785156 23.339844 76.699219 23.128906 76.605469 C 13.726562 72.453125 6.316406 64.460938 2.539062 54.9375 C 1.929688 53.3125 1.410156 51.671875 0.9375 50 C 0.832031 49.632812 0.722656 49.261719 0.613281 48.882812 C -1.742188 38.917969 0.253906 27.664062 5.511719 18.96875 C 11.226562 9.875 19.742188 3.84375 30 0.9375 C 30.367188 0.832031 30.738281 0.722656 31.117188 0.613281 C 42.730469 -2.128906 56.003906 0.917969 65.203125 8.464844 Z M 15.3125 10.9375 C 15.09375 11.109375 14.878906 11.285156 14.652344 11.464844 C 13.25 12.609375 12.085938 13.914062 10.9375 15.3125 C 10.695312 15.601562 10.453125 15.890625 10.203125 16.1875 C 3.121094 24.863281 1.679688 34.761719 2.1875 45.625 C 2.378906 47.480469 2.828125 49.171875 3.4375 50.9375 C 3.535156 51.242188 3.535156 51.242188 3.636719 51.554688 C 6.863281 61.589844 14.039062 69.519531 23.316406 74.359375 C 28.417969 76.914062 33.789062 77.992188 39.472656 77.929688 C 39.683594 77.929688 39.894531 77.925781 40.113281 77.925781 C 50.945312 77.824219 60.167969 73.796875 67.800781 66.078125 C 72.347656 61.332031 75.097656 55.660156 76.875 49.375 C 76.980469 49.003906 77.089844 48.632812 77.199219 48.25 C 77.875 45.359375 77.910156 42.464844 77.929688 39.511719 C 77.933594 39.109375 77.9375 38.707031 77.941406 38.289062 C 77.925781 34.519531 77.339844 30.894531 76.035156 27.34375 C 75.957031 27.125 75.875 26.90625 75.792969 26.679688 C 72.257812 17.277344 65.109375 9.671875 56.074219 5.332031 C 50.929688 3.074219 45.714844 2.066406 40.097656 2.089844 C 39.789062 2.089844 39.789062 2.089844 39.472656 2.09375 C 30.328125 2.140625 22.335938 5.085938 15.3125 10.9375 Z M 15.3125 10.9375 "/>
<path style=" stroke:none;fill-rule:nonzero;fill:rgb(96.078432%,96.470588%,96.862745%);fill-opacity:1;" d="M 47.082031 30.078125 C 48.226562 30.9375 49.195312 31.941406 50 33.125 C 50 33.332031 50 33.539062 50 33.75 C 50.207031 33.75 50.414062 33.75 50.625 33.75 C 51.730469 35.8125 52.070312 37.515625 52.03125 39.84375 C 52.039062 40.257812 52.039062 40.257812 52.046875 40.683594 C 52.027344 44 50.539062 46.652344 48.21875 48.964844 C 45.675781 51.242188 43.453125 51.9375 40.097656 51.972656 C 39.828125 51.980469 39.558594 51.992188 39.28125 52 C 35.9375 52.03125 33.433594 50.507812 31.046875 48.265625 C 28.753906 45.824219 27.675781 42.648438 27.726562 39.335938 C 28.019531 36.269531 29.128906 33.777344 31.25 31.5625 C 31.539062 31.257812 31.539062 31.257812 31.835938 30.949219 C 36.175781 26.800781 42.222656 27.015625 47.082031 30.078125 Z M 47.082031 30.078125 "/>
</g>
</svg>
