<?xml version="1.0" encoding="UTF-8"?>
<svg xmlns="http://www.w3.org/2000/svg" xmlns:xlink="http://www.w3.org/1999/xlink" width="px" height="80px" viewBox="0 0 80 80" version="1.1">
<g id="surface1">
<path style=" stroke:none;fill-rule:nonzero;fill:rgb(14.117648%,16.078432%,18.039216%);fill-opacity:1;" d="M 12.546875 12.625 L 13.15625 70.8125 C 8.25 71.421875 4.578125 68.96875 4.578125 64.078125 L 3.96875 15.6875 C 3.96875 0.375 18.0625 -3.296875 26.640625 2.828125 L 70.125 27.9375 C 76.25 32.21875 77.46875 40.1875 74.40625 45.703125 C 73.796875 41.421875 71.953125 38.96875 68.28125 36.515625 L 19.28125 8.9375 C 15.609375 6.5 12.546875 7.109375 12.546875 12.625 "/>
<path style=" stroke:none;fill-rule:nonzero;fill:rgb(14.117648%,16.078432%,18.039216%);fill-opacity:1;" d="M 8.875 73.875 C 12.546875 75.09375 16.21875 74.484375 19.28125 72.65625 L 69.515625 43.25 C 72.578125 47.53125 71.96875 51.828125 68.296875 54.28125 L 26.015625 78.78125 C 19.890625 81.84375 11.9375 78.78125 8.875 73.875 "/>
<path style=" stroke:none;fill-rule:nonzero;fill:rgb(100%,76.078433%,18.82353%);fill-opacity:1;" d="M 23.578125 56.71875 L 53.59375 39.578125 L 24.1875 23.03125 Z M 23.578125 56.71875 "/>
</g>
</svg>
