<?xml version="1.0" encoding="UTF-8"?>
<svg xmlns="http://www.w3.org/2000/svg" xmlns:xlink="http://www.w3.org/1999/xlink" width="80px" height="80px" viewBox="0 0 80 80" version="1.1">
<g id="surface1">
<path style="fill-rule:nonzero;fill:rgb(93.333334%,93.333334%,93.333334%);fill-opacity:1;stroke-width:1.5;stroke-linecap:butt;stroke-linejoin:miter;stroke:rgb(26.666668%,23.529412%,23.529412%);stroke-opacity:1;stroke-miterlimit:4;" d="M 512 256 C 512 114.625 397.375 0 256 0 C 114.625 0 0 114.625 0 256 C 0 397.375 114.625 512 256 512 C 397.375 512 512 397.375 512 256 Z M 512 256 " transform="matrix(0.15625,0,0,0.15625,0,0)"/>
<path style="fill-rule:nonzero;fill:rgb(26.666668%,23.529412%,23.529412%);fill-opacity:1;stroke-width:1.5;stroke-linecap:butt;stroke-linejoin:miter;stroke:rgb(26.666668%,23.529412%,23.529412%);stroke-opacity:1;stroke-miterlimit:4;" d="M 476.9 256 C 476.9 134 378 35.1 256 35.1 C 134 35.1 35.1 134 35.1 256 C 35.1 378 134 476.9 256 476.9 C 378 476.9 476.9 378 476.9 256 Z M 476.9 256 " transform="matrix(0.15625,0,0,0.15625,0,0)"/>
<path style="fill-rule:nonzero;fill:rgb(55.686277%,13.333334%,13.333334%);fill-opacity:1;stroke-width:1.5;stroke-linecap:butt;stroke-linejoin:miter;stroke:rgb(26.666668%,23.529412%,23.529412%);stroke-opacity:1;stroke-miterlimit:4;" d="M 450.3 256 C 450.3 148.7 363.3 61.7 256 61.7 C 148.7 61.7 61.7 148.7 61.7 256 C 61.7 363.3 148.7 450.3 256 450.3 C 363.3 450.3 450.3 363.3 450.3 256 Z M 450.3 256 " transform="matrix(0.15625,0,0,0.15625,0,0)"/>
<path style="fill-rule:nonzero;fill:rgb(93.333334%,93.333334%,93.333334%);fill-opacity:1;stroke-width:1.5;stroke-linecap:butt;stroke-linejoin:miter;stroke:rgb(55.686277%,13.333334%,13.333334%);stroke-opacity:1;stroke-miterlimit:4;" d="M 445.7 256 C 445.7 151.225 360.775 66.3 256 66.3 C 151.225 66.3 66.3 151.225 66.3 256 C 66.3 360.775 151.225 445.7 256 445.7 C 360.775 445.7 445.7 360.775 445.7 256 Z M 445.7 256 " transform="matrix(0.15625,0,0,0.15625,0,0)"/>
<path style="fill-rule:nonzero;fill:rgb(26.666668%,23.529412%,23.529412%);fill-opacity:1;stroke-width:1.5;stroke-linecap:butt;stroke-linejoin:miter;stroke:rgb(26.666668%,23.529412%,23.529412%);stroke-opacity:1;stroke-miterlimit:4;" d="M 388.3 256.7 C 388.3 183.25 328.75 123.7 255.3 123.7 C 181.85 123.7 122.3 183.25 122.3 256.7 C 122.3 330.15 181.85 389.7 255.3 389.7 C 328.75 389.7 388.3 330.15 388.3 256.7 Z M 388.3 256.7 " transform="matrix(0.15625,0,0,0.15625,0,0)"/>
<path style="fill-rule:nonzero;fill:rgb(93.333334%,93.333334%,93.333334%);fill-opacity:1;stroke-width:10;stroke-linecap:butt;stroke-linejoin:miter;stroke:rgb(55.686277%,13.333334%,13.333334%);stroke-opacity:1;stroke-miterlimit:4;" d="M 87.2 341 C 87.2 341 84.7 162.3 84.3 162 C 84.6 135.3 93.1 138 99.6 137.2 C 199.3 142.6 235.6 173 237.8 174.1 C 244.5 176.6 248.3 190.1 248 189.7 C 248.3 190 250.2 400.8 249.9 400.5 C 251.5 411.8 243.2 411 242.9 410.7 C 180.2 361.4 93.5 349 93.2 348.7 C 87.2 348.2 87.2 341 87.2 341 Z M 87.2 341 " transform="matrix(0.15625,0,0,0.15625,0,0)"/>
<path style="fill-rule:nonzero;fill:rgb(93.333334%,93.333334%,93.333334%);fill-opacity:1;stroke-width:10;stroke-linecap:butt;stroke-linejoin:miter;stroke:rgb(55.686277%,13.333334%,13.333334%);stroke-opacity:1;stroke-miterlimit:4;" d="M 423.5 341.4 C 423.5 341.4 426 162.3 426.4 161.9 C 426.1 135.2 417.6 137.8 411.1 137 C 311.4 142.4 275.1 172.9 272.9 174 C 266.2 176.5 262.4 190 262.7 189.7 C 262.4 190 260.5 401.3 260.8 401 C 259.2 412.3 267.5 411.6 267.8 411.2 C 330.5 361.8 417.2 349.4 417.5 349 C 423.5 348.7 423.5 341.4 423.5 341.4 Z M 423.5 341.4 " transform="matrix(0.15625,0,0,0.15625,0,0)"/>
<path style="fill-rule:nonzero;fill:rgb(55.686277%,13.333334%,13.333334%);fill-opacity:1;stroke-width:5;stroke-linecap:butt;stroke-linejoin:miter;stroke:rgb(55.686277%,13.333334%,13.333334%);stroke-opacity:1;stroke-miterlimit:4;" d="M 85.9 369.7 C 85.9 369.7 83.3 191 83 190.7 C 83.3 164 91.9 166.7 98.5 165.9 C 199.8 171.3 236.7 201.7 238.9 202.8 C 245.7 205.3 249.6 218.8 249.3 218.4 C 249.6 218.7 251.6 429.5 251.2 429.2 C 252.8 440.5 244.4 439.7 244.1 439.4 C 180.3 390.1 92.3 377.7 92 377.4 C 85.9 377 85.9 369.7 85.9 369.7 Z M 85.9 369.7 " transform="matrix(0.15625,0,0,0.15625,0,0)"/>
<path style="fill-rule:nonzero;fill:rgb(55.686277%,13.333334%,13.333334%);fill-opacity:1;stroke-width:5;stroke-linecap:butt;stroke-linejoin:miter;stroke:rgb(55.686277%,13.333334%,13.333334%);stroke-opacity:1;stroke-miterlimit:4;" d="M 424.8 370 C 424.8 370 427.4 190.9 427.7 190.5 C 427.4 163.8 418.8 166.4 412.2 165.6 C 310.9 171 274 201.5 271.7 202.6 C 264.9 205.1 261 218.6 261.3 218.3 C 261 218.6 259 429.9 259.4 429.6 C 257.8 440.9 266.2 440.2 266.5 439.8 C 330.3 390.4 418.3 378 418.6 377.6 C 424.8 377.3 424.8 370 424.8 370 Z M 424.8 370 " transform="matrix(0.15625,0,0,0.15625,0,0)"/>
</g>
</svg>
