<?xml version="1.0" encoding="UTF-8"?>
<svg xmlns="http://www.w3.org/2000/svg" xmlns:xlink="http://www.w3.org/1999/xlink" width="80px" height="80px" viewBox="0 0 80 80" version="1.1">
<g id="surface1">
<path style=" stroke:none;fill-rule:nonzero;fill:rgb(1.568628%,0.392157%,0.784314%);fill-opacity:1;" d="M 55.902344 4.660156 C 59.316406 7.753906 61.839844 11.675781 62.253906 16.363281 C 62.390625 19.769531 62.355469 22.839844 61.25 26.09375 C 60.136719 29.410156 59.53125 32.296875 61.082031 35.617188 C 61.625 36.679688 62.214844 37.714844 62.8125 38.75 C 65.132812 42.886719 66.957031 47.175781 68.75 51.5625 C 68.878906 51.878906 69.007812 52.191406 69.144531 52.515625 C 76.089844 69.460938 76.089844 69.460938 75 75.625 C 74.792969 75.832031 74.585938 76.039062 74.375 76.25 C 72.320312 76.070312 72.320312 76.070312 71.875 75.625 C 71.667969 76.039062 71.460938 76.449219 71.25 76.875 C 69.972656 76.714844 69.371094 76.386719 68.457031 75.488281 C 66.960938 74.125 65.613281 73.5625 63.546875 73.636719 C 61.695312 73.925781 59.691406 74.492188 58.519531 76.019531 C 58.117188 76.761719 58.117188 76.761719 57.832031 77.503906 C 57.414062 78.289062 57.085938 78.464844 56.25 78.75 C 55.59375 78.800781 55.59375 78.800781 54.941406 78.769531 C 54.546875 78.761719 54.15625 78.757812 53.75 78.75 C 53.648438 78.851562 53.542969 78.957031 53.4375 79.0625 C 52.351562 78.992188 51.273438 78.878906 50.191406 78.769531 C 49.03125 78.75 48.273438 79 47.1875 79.375 C 46.6875 79.144531 46.1875 78.914062 45.695312 78.671875 C 43.015625 77.769531 39.726562 78.519531 37.007812 78.925781 C 36.089844 79.042969 35.238281 79.085938 34.316406 79.0625 C 33.1875 78.964844 33.1875 78.964844 32.539062 79.394531 C 31.613281 79.800781 31.035156 79.605469 30.058594 79.394531 C 28.855469 79.160156 28.121094 79.0625 26.894531 79.257812 C 25.9375 79.375 25.9375 79.375 25.039062 78.925781 C 24.109375 77.804688 24.109375 77.074219 24.0625 75.625 C 24.164062 75.417969 24.269531 75.210938 24.375 75 C 24.074219 74.953125 24.074219 74.953125 23.769531 74.902344 C 22.960938 74.722656 22.257812 74.488281 21.484375 74.199219 C 20.035156 73.71875 18.703125 73.410156 17.1875 73.75 C 16.261719 74.277344 15.488281 74.925781 14.6875 75.625 C 13.597656 76.351562 13.15625 76.328125 11.875 76.25 C 11.132812 76.09375 11.132812 76.09375 10.625 75.9375 C 10.625 76.144531 10.625 76.351562 10.625 76.5625 C 10.109375 76.683594 9.585938 76.785156 9.0625 76.875 C 8.53125 76.34375 8.65625 75.714844 8.632812 74.980469 C 8.699219 68.976562 10.789062 63.082031 12.8125 57.5 C 12.929688 57.175781 12.929688 57.175781 13.046875 56.84375 C 13.707031 55.015625 14.453125 53.257812 15.292969 51.503906 C 16.054688 49.898438 16.605469 48.292969 17.128906 46.601562 C 17.726562 44.679688 18.464844 43.039062 19.550781 41.347656 C 21.476562 38.347656 23.050781 34.894531 22.386719 31.25 C 22.234375 30.621094 22.070312 29.996094 21.894531 29.375 C 20.121094 22.953125 20.496094 15.945312 23.625 9.984375 C 26.765625 4.800781 31.476562 2.433594 37.1875 0.9375 C 43.761719 -0.472656 50.636719 0.15625 55.902344 4.660156 Z M 55.902344 4.660156 "/>
<path style=" stroke:none;fill-rule:nonzero;fill:rgb(94.117647%,58.823532%,20.392157%);fill-opacity:1;" d="M 36.25 3.125 C 37.578125 3.078125 38.90625 3.050781 40.234375 3.027344 C 40.789062 3.007812 40.789062 3.007812 41.359375 2.988281 C 44.058594 2.949219 46.042969 3.457031 48.4375 4.6875 C 48.773438 4.859375 49.109375 5.03125 49.457031 5.207031 C 52.941406 7.394531 55.875 10.605469 56.875 14.6875 C 57.621094 19.4375 57.054688 23.605469 55.59375 28.132812 C 54.6875 31.125 54.90625 33.859375 55.625 36.875 C 53.371094 36.109375 53.371094 36.109375 52.792969 34.96875 C 52.648438 34.480469 52.515625 33.992188 52.390625 33.496094 C 52.113281 32.570312 51.570312 31.96875 50.9375 31.25 C 50.9375 31.042969 50.9375 30.835938 50.9375 30.625 C 51.222656 30.425781 51.503906 30.226562 51.796875 30.019531 C 53.449219 28.699219 53.921875 26.585938 54.21875 24.570312 C 53.855469 21.941406 53.246094 19.34375 51.25 17.5 C 49.703125 16.542969 48.003906 16.625 46.25 16.875 C 44.398438 17.667969 43.113281 18.851562 42.1875 20.625 C 41.875 21.605469 41.84375 22.492188 41.855469 23.515625 C 41.859375 23.792969 41.859375 24.074219 41.863281 24.359375 C 41.867188 24.570312 41.871094 24.78125 41.875 25 C 42.183594 25 42.492188 25 42.8125 25 C 42.832031 24.824219 42.851562 24.652344 42.871094 24.472656 C 43.207031 22.398438 44.039062 21.070312 45.625 19.6875 C 46.785156 19.300781 47.855469 19.203125 49.0625 19.375 C 50.480469 20.226562 51.296875 21.3125 51.777344 22.890625 C 52.058594 25.367188 51.894531 26.878906 50.625 29.0625 C 50.417969 28.960938 50.210938 28.855469 50 28.75 C 50.101562 28.542969 50.207031 28.335938 50.3125 28.125 C 50.488281 26.253906 50.457031 24.726562 49.375 23.125 C 48.496094 22.410156 48.496094 22.410156 47.519531 22.519531 C 46.3125 22.886719 45.964844 23.308594 45.3125 24.375 C 45.195312 24.894531 45.085938 25.414062 45 25.9375 C 44.691406 26.09375 44.691406 26.09375 44.375 26.25 C 44.382812 26.863281 44.382812 26.863281 44.6875 27.5 C 44.957031 27.570312 45.222656 27.644531 45.5 27.71875 C 46.949219 28.273438 47.769531 29.183594 48.828125 30.292969 C 49.023438 30.492188 49.21875 30.6875 49.417969 30.894531 C 51.496094 33.019531 51.496094 33.019531 51.699219 34.277344 C 51.410156 36.464844 49.960938 38.0625 48.308594 39.4375 C 45.460938 41.421875 42.304688 43.160156 38.808594 43.320312 C 38.59375 43.332031 38.375 43.34375 38.152344 43.355469 C 37.621094 43.386719 37.09375 43.414062 36.5625 43.4375 C 38.238281 44.277344 40.695312 44.09375 42.5 43.75 C 44.925781 42.859375 47.226562 41.417969 49.1875 39.738281 C 50 39.0625 50 39.0625 50.625 39.0625 C 51.152344 40.121094 51.667969 41.183594 52.1875 42.246094 C 52.335938 42.546875 52.484375 42.847656 52.640625 43.15625 C 52.78125 43.445312 52.921875 43.738281 53.066406 44.035156 C 53.199219 44.304688 53.328125 44.570312 53.464844 44.84375 C 53.777344 45.703125 53.851562 46.28125 53.75 47.1875 C 53.253906 47.96875 52.769531 48.644531 52.1875 49.355469 C 52.03125 49.550781 51.875 49.742188 51.714844 49.945312 C 50.308594 51.648438 48.832031 52.859375 46.914062 53.945312 C 46.132812 54.449219 45.902344 54.742188 45.625 55.625 C 45.441406 56.5625 45.441406 56.5625 45.625 57.5 C 46.277344 58.300781 46.800781 58.65625 47.808594 58.902344 C 49.804688 59.082031 50.949219 58.246094 52.480469 57.039062 C 53.125 56.5625 53.125 56.5625 53.75 56.5625 C 53.851562 56.253906 53.957031 55.945312 54.0625 55.625 C 54.269531 55.726562 54.476562 55.832031 54.6875 55.9375 C 52.902344 61.75 50.875 66.347656 45.3125 69.296875 C 42.285156 70.75 38.492188 70.738281 35.3125 69.6875 C 30.566406 67.871094 28.265625 64.433594 26.140625 60.070312 C 25.363281 58.296875 25.082031 56.617188 25 54.6875 C 25.296875 54.953125 25.59375 55.214844 25.898438 55.488281 C 26.324219 55.847656 26.753906 56.207031 27.1875 56.5625 C 27.554688 56.863281 27.554688 56.863281 27.929688 57.175781 C 29.453125 58.34375 30.550781 59.03125 32.503906 58.867188 C 33.289062 58.71875 33.980469 58.492188 34.6875 58.125 C 34.777344 57.070312 34.8125 56.054688 34.6875 55 C 34.097656 54.234375 34.097656 54.234375 33.125 53.75 C 30.84375 52.40625 29.347656 50.902344 27.8125 48.75 C 27.644531 48.523438 27.472656 48.292969 27.296875 48.058594 C 26.234375 46.527344 26.234375 46.527344 26.296875 45.398438 C 26.683594 43.90625 27.34375 42.578125 28.015625 41.199219 C 28.617188 39.898438 28.617188 39.898438 28.691406 38.480469 C 28.402344 37.722656 28 37.195312 27.5 36.5625 C 27.5 36.355469 27.5 36.148438 27.5 35.9375 C 27.285156 36.023438 27.070312 36.109375 26.847656 36.199219 C 26.425781 36.371094 26.425781 36.371094 25.996094 36.542969 C 25.578125 36.710938 25.578125 36.710938 25.148438 36.882812 C 24.585938 37.105469 24.011719 37.308594 23.4375 37.5 C 23.488281 37.105469 23.539062 36.714844 23.59375 36.308594 C 23.929688 33.1875 23.664062 30.449219 22.957031 27.40625 C 21.695312 21.628906 22.140625 15.109375 25.3125 10 C 26.476562 8.246094 26.476562 8.246094 27.1875 7.5 C 27.394531 7.5 27.601562 7.5 27.8125 7.5 C 27.8125 7.292969 27.8125 7.085938 27.8125 6.875 C 30.304688 4.792969 32.394531 3.839844 35.625 3.4375 C 35.625 8.078125 35.625 12.71875 35.625 17.5 C 36.863281 17.5 38.101562 17.5 39.375 17.5 C 39.375 16.570312 39.375 15.644531 39.375 14.6875 C 40.101562 15.574219 40.335938 16.03125 40.625 17.1875 C 41.863281 17.289062 43.101562 17.394531 44.375 17.5 C 44.242188 17.128906 44.113281 16.753906 43.976562 16.371094 C 43.804688 15.882812 43.628906 15.390625 43.457031 14.902344 C 43.371094 14.65625 43.285156 14.410156 43.195312 14.160156 C 43.109375 13.921875 43.027344 13.683594 42.941406 13.441406 C 42.863281 13.222656 42.785156 13.003906 42.707031 12.78125 C 42.53125 12.273438 42.359375 11.761719 42.1875 11.25 C 42.335938 11.113281 42.484375 10.980469 42.636719 10.839844 C 43.695312 9.699219 43.542969 8.238281 43.523438 6.769531 C 43.480469 5.886719 43.480469 5.886719 42.96875 4.980469 C 41.09375 3.527344 38.53125 3.597656 36.25 3.4375 C 36.25 3.335938 36.25 3.230469 36.25 3.125 Z M 36.25 3.125 "/>
<path style=" stroke:none;fill-rule:nonzero;fill:rgb(9.803922%,1.568628%,0.392157%);fill-opacity:1;" d="M 46.25 2.1875 C 50.964844 3.984375 55.070312 7.457031 57.207031 12.097656 C 58.207031 14.535156 58.628906 16.984375 58.632812 19.609375 C 58.636719 20.066406 58.636719 20.066406 58.636719 20.535156 C 58.578125 23.234375 57.941406 25.628906 57.027344 28.160156 C 55.960938 31.15625 55.875 33.929688 57.1875 36.875 C 57.5 37.347656 57.824219 37.808594 58.164062 38.261719 C 60.699219 41.671875 62.519531 45.921875 63.253906 50.101562 C 63.59375 52.027344 64.179688 53.730469 64.941406 55.527344 C 67.398438 61.507812 69.976562 68.144531 70 74.6875 C 69.847656 74.558594 69.695312 74.429688 69.539062 74.300781 C 66.792969 72.089844 64.082031 71.886719 60.625 72.1875 C 58.484375 72.628906 56.53125 73.175781 54.6875 74.375 C 54.789062 74.683594 54.894531 74.992188 55 75.3125 C 55.285156 75.152344 55.285156 75.152344 55.574219 74.992188 C 58.492188 73.4375 61.085938 73 64.375 73.125 C 64.375 73.226562 64.375 73.332031 64.375 73.4375 C 64.097656 73.519531 63.816406 73.601562 63.53125 73.6875 C 62.980469 73.855469 62.980469 73.855469 62.421875 74.023438 C 61.878906 74.1875 61.878906 74.1875 61.324219 74.351562 C 59.734375 74.820312 59.734375 74.820312 58.640625 75.964844 C 58.464844 76.339844 58.464844 76.339844 58.28125 76.71875 C 57.65625 78.019531 57.65625 78.019531 56.90625 78.523438 C 56.199219 78.765625 55.6875 78.804688 54.941406 78.769531 C 54.546875 78.761719 54.15625 78.757812 53.75 78.75 C 53.648438 78.851562 53.542969 78.957031 53.4375 79.0625 C 52.351562 78.992188 51.273438 78.878906 50.191406 78.769531 C 49.03125 78.75 48.273438 79 47.1875 79.375 C 46.6875 79.144531 46.1875 78.914062 45.695312 78.671875 C 43.015625 77.769531 39.726562 78.519531 37.007812 78.925781 C 36.089844 79.042969 35.238281 79.085938 34.316406 79.0625 C 33.1875 78.964844 33.1875 78.964844 32.539062 79.394531 C 31.613281 79.800781 31.035156 79.605469 30.058594 79.394531 C 28.855469 79.160156 28.121094 79.0625 26.894531 79.257812 C 25.9375 79.375 25.9375 79.375 25.039062 78.925781 C 24.109375 77.804688 24.109375 77.074219 24.0625 75.625 C 24.164062 75.417969 24.269531 75.210938 24.375 75 C 24.074219 74.953125 24.074219 74.953125 23.769531 74.902344 C 22.960938 74.722656 22.257812 74.488281 21.484375 74.199219 C 20.035156 73.71875 18.703125 73.410156 17.1875 73.75 C 16.261719 74.277344 15.488281 74.925781 14.6875 75.625 C 13.597656 76.351562 13.15625 76.328125 11.875 76.25 C 11.132812 76.09375 11.132812 76.09375 10.625 75.9375 C 10.625 76.144531 10.625 76.351562 10.625 76.5625 C 10.109375 76.683594 9.585938 76.785156 9.0625 76.875 C 8.53125 76.34375 8.65625 75.714844 8.632812 74.980469 C 8.699219 68.976562 10.789062 63.082031 12.8125 57.5 C 12.929688 57.175781 12.929688 57.175781 13.046875 56.84375 C 13.96875 54.285156 15.082031 51.828125 16.25 49.375 C 16.351562 49.375 16.457031 49.375 16.5625 49.375 C 16.554688 49.785156 16.546875 50.199219 16.539062 50.621094 C 16.472656 55.90625 16.984375 60.941406 20.070312 65.433594 C 20.625 66.25 20.625 66.25 20.625 66.875 C 20.832031 66.875 21.039062 66.875 21.25 66.875 C 21.703125 67.355469 21.703125 67.355469 22.226562 68.007812 C 23.179688 69.132812 24.167969 69.992188 25.375 70.835938 C 25.9375 71.25 25.9375 71.25 26.875 72.1875 C 26.257812 72.804688 25.636719 73.425781 25 74.0625 C 25.296875 73.816406 25.59375 73.574219 25.898438 73.320312 C 26.066406 73.183594 26.230469 73.042969 26.402344 72.902344 C 26.785156 72.578125 27.144531 72.230469 27.5 71.875 C 27.5 72.082031 27.5 72.289062 27.5 72.5 C 27.796875 72.488281 28.09375 72.472656 28.398438 72.460938 C 29.375 72.5 29.375 72.5 30 73.125 C 30.875 73.417969 31.417969 73.480469 32.324219 73.476562 C 32.5625 73.476562 32.800781 73.476562 33.046875 73.480469 C 33.730469 73.464844 33.730469 73.464844 34.289062 73.277344 C 35.226562 73.074219 36.101562 73.101562 37.0625 73.117188 C 37.671875 73.121094 37.671875 73.121094 38.289062 73.128906 C 38.925781 73.136719 39.566406 73.144531 40.203125 73.15625 C 42.722656 73.195312 45.054688 73.136719 47.5 72.5 C 47.851562 72.417969 48.199219 72.335938 48.5625 72.253906 C 53.351562 70.910156 56.75 67.984375 59.417969 63.875 C 61.976562 59.203125 62.773438 53.371094 61.425781 48.199219 C 60.417969 44.804688 58.941406 40.175781 55.726562 38.363281 C 55.304688 38.144531 54.878906 37.925781 54.453125 37.714844 C 54.234375 37.601562 54.015625 37.492188 53.792969 37.375 C 53.257812 37.101562 52.722656 36.832031 52.1875 36.5625 C 52.289062 36.148438 52.394531 35.738281 52.5 35.3125 C 52.730469 35.410156 52.964844 35.507812 53.203125 35.605469 C 53.910156 35.878906 54.578125 36.074219 55.3125 36.25 C 55.210938 35.902344 55.105469 35.554688 55 35.195312 C 54.175781 31.816406 55.015625 28.925781 56.132812 25.722656 C 57.460938 21.777344 57.523438 16.328125 55.675781 12.546875 C 55.082031 11.453125 54.464844 10.398438 53.75 9.375 C 53.625 9.191406 53.496094 9.007812 53.367188 8.820312 C 51.328125 6.179688 47.960938 4.082031 44.6875 3.4375 C 43.019531 3.3125 41.355469 3.363281 39.6875 3.4375 C 40.066406 3.5 40.449219 3.566406 40.839844 3.632812 C 41.984375 3.933594 42.765625 4.328125 43.484375 5.320312 C 44.042969 6.625 43.949219 7.996094 43.75 9.375 C 43.300781 10.332031 43.300781 10.332031 42.8125 10.9375 C 42.710938 11.144531 42.605469 11.351562 42.5 11.5625 C 42.785156 12.347656 43.085938 13.101562 43.417969 13.867188 C 43.960938 15.125 44.375 16.097656 44.375 17.5 C 43.136719 17.5 41.898438 17.5 40.625 17.5 C 40.316406 16.777344 40.007812 16.054688 39.6875 15.3125 C 39.585938 16.035156 39.480469 16.757812 39.375 17.5 C 38.136719 17.5 36.898438 17.5 35.625 17.5 C 35.625 12.652344 35.625 7.804688 35.625 2.8125 C 35.832031 2.8125 36.039062 2.8125 36.25 2.8125 C 36.351562 2.503906 36.457031 2.195312 36.5625 1.875 C 38.941406 0.683594 43.808594 1.472656 46.25 2.1875 Z M 46.25 2.1875 "/>
<path style=" stroke:none;fill-rule:nonzero;fill:rgb(88.235295%,88.235295%,92.941177%);fill-opacity:1;" d="M 29.0625 39.0625 C 30.121094 39.542969 30.976562 40.171875 31.894531 40.878906 C 34.988281 43.117188 37.894531 44.414062 41.777344 43.917969 C 44.476562 43.296875 47.101562 41.527344 49.1875 39.738281 C 50 39.0625 50 39.0625 50.625 39.0625 C 51.152344 40.121094 51.667969 41.183594 52.1875 42.246094 C 52.335938 42.546875 52.484375 42.847656 52.640625 43.15625 C 52.78125 43.445312 52.921875 43.738281 53.066406 44.035156 C 53.199219 44.304688 53.328125 44.570312 53.464844 44.84375 C 53.777344 45.703125 53.851562 46.28125 53.75 47.1875 C 53.253906 47.96875 52.769531 48.644531 52.1875 49.355469 C 52.03125 49.550781 51.875 49.742188 51.714844 49.945312 C 50.308594 51.648438 48.832031 52.859375 46.914062 53.945312 C 46.132812 54.449219 45.902344 54.742188 45.625 55.625 C 45.441406 56.5625 45.441406 56.5625 45.625 57.5 C 46.277344 58.300781 46.800781 58.65625 47.808594 58.902344 C 49.804688 59.082031 50.949219 58.246094 52.480469 57.039062 C 53.125 56.5625 53.125 56.5625 53.75 56.5625 C 53.851562 56.253906 53.957031 55.945312 54.0625 55.625 C 54.269531 55.726562 54.476562 55.832031 54.6875 55.9375 C 52.902344 61.75 50.875 66.347656 45.3125 69.296875 C 42.285156 70.75 38.492188 70.738281 35.3125 69.6875 C 30.566406 67.871094 28.265625 64.433594 26.140625 60.070312 C 25.363281 58.296875 25.082031 56.617188 25 54.6875 C 25.296875 54.953125 25.59375 55.214844 25.898438 55.488281 C 26.324219 55.847656 26.753906 56.207031 27.1875 56.5625 C 27.433594 56.765625 27.675781 56.964844 27.929688 57.175781 C 29.453125 58.34375 30.550781 59.03125 32.503906 58.867188 C 33.289062 58.71875 33.980469 58.492188 34.6875 58.125 C 34.777344 57.070312 34.8125 56.054688 34.6875 55 C 34.097656 54.234375 34.097656 54.234375 33.125 53.75 C 30.84375 52.40625 29.347656 50.902344 27.8125 48.75 C 27.644531 48.523438 27.472656 48.292969 27.296875 48.058594 C 26.234375 46.527344 26.234375 46.527344 26.300781 45.402344 C 26.625 44.125 27.113281 42.976562 27.65625 41.777344 C 27.757812 41.550781 27.855469 41.324219 27.960938 41.089844 C 28.703125 39.421875 28.703125 39.421875 29.0625 39.0625 Z M 29.0625 39.0625 "/>
<path style=" stroke:none;fill-rule:nonzero;fill:rgb(2.745098%,2.352941%,0.392157%);fill-opacity:1;" d="M 16.25 49.375 C 16.351562 49.375 16.457031 49.375 16.5625 49.375 C 16.554688 49.785156 16.546875 50.199219 16.539062 50.621094 C 16.472656 55.90625 16.984375 60.941406 20.070312 65.433594 C 20.625 66.25 20.625 66.25 20.625 66.875 C 20.832031 66.875 21.039062 66.875 21.25 66.875 C 21.703125 67.355469 21.703125 67.355469 22.226562 68.007812 C 23.179688 69.132812 24.167969 69.992188 25.375 70.835938 C 25.9375 71.25 25.9375 71.25 26.875 72.1875 C 26.257812 72.804688 25.636719 73.425781 25 74.0625 C 25.296875 73.816406 25.59375 73.574219 25.898438 73.320312 C 26.066406 73.183594 26.230469 73.042969 26.402344 72.902344 C 26.785156 72.578125 27.144531 72.230469 27.5 71.875 C 27.5 72.082031 27.5 72.289062 27.5 72.5 C 28.117188 72.5 28.738281 72.5 29.375 72.5 C 29.375 72.601562 29.375 72.707031 29.375 72.8125 C 28.871094 72.929688 28.871094 72.929688 28.359375 73.046875 C 26.882812 73.535156 26.882812 73.535156 25.9375 74.6875 C 25.835938 75.632812 25.863281 76.550781 25.9375 77.5 C 26.515625 77.714844 26.515625 77.714844 27.1875 77.8125 C 27.496094 77.605469 27.804688 77.398438 28.125 77.1875 C 29.398438 77.082031 29.851562 77.089844 30.9375 77.8125 C 31.824219 77.703125 32.585938 77.472656 33.4375 77.1875 C 34.1875 77.164062 34.933594 77.160156 35.683594 77.167969 C 36.082031 77.171875 36.480469 77.171875 36.886719 77.175781 C 37.195312 77.179688 37.5 77.183594 37.8125 77.1875 C 37.65625 75.796875 37.65625 75.796875 37.5 74.375 C 38.839844 74.375 40.179688 74.375 41.5625 74.375 C 41.460938 75.199219 41.355469 76.023438 41.25 76.875 C 41.5 76.867188 41.746094 76.859375 42.003906 76.851562 C 43.792969 76.824219 45.183594 76.882812 46.875 77.5 C 47.398438 77.414062 47.917969 77.304688 48.4375 77.1875 C 49.9375 77.117188 51.363281 77.078125 52.8125 77.5 C 53.488281 76.484375 53.609375 76.179688 53.4375 75 C 52.832031 74.316406 52.832031 74.316406 52.1875 73.75 C 52.1875 73.542969 52.1875 73.335938 52.1875 73.125 C 51.980469 73.125 51.773438 73.125 51.5625 73.125 C 51.664062 72.816406 51.769531 72.507812 51.875 72.1875 C 53.257812 72.609375 53.875 73.1875 54.6875 74.375 C 54.789062 74.683594 54.894531 74.992188 55 75.3125 C 55.285156 75.152344 55.285156 75.152344 55.574219 74.992188 C 58.492188 73.4375 61.085938 73 64.375 73.125 C 64.375 73.226562 64.375 73.332031 64.375 73.4375 C 63.957031 73.5625 63.957031 73.5625 63.53125 73.6875 C 63.164062 73.800781 62.796875 73.910156 62.421875 74.023438 C 62.058594 74.132812 61.695312 74.242188 61.324219 74.351562 C 59.734375 74.820312 59.734375 74.820312 58.640625 75.96875 C 58.523438 76.214844 58.402344 76.464844 58.28125 76.71875 C 57.65625 78.019531 57.65625 78.019531 56.90625 78.523438 C 56.199219 78.765625 55.6875 78.804688 54.941406 78.769531 C 54.546875 78.761719 54.15625 78.757812 53.75 78.75 C 53.648438 78.851562 53.542969 78.957031 53.4375 79.0625 C 52.351562 78.992188 51.273438 78.878906 50.191406 78.769531 C 49.03125 78.75 48.273438 79 47.1875 79.375 C 46.6875 79.144531 46.1875 78.914062 45.695312 78.671875 C 43.015625 77.769531 39.726562 78.519531 37.007812 78.925781 C 36.089844 79.042969 35.238281 79.085938 34.316406 79.0625 C 33.1875 78.964844 33.1875 78.964844 32.539062 79.394531 C 31.613281 79.800781 31.035156 79.605469 30.058594 79.394531 C 28.855469 79.160156 28.121094 79.0625 26.894531 79.257812 C 25.9375 79.375 25.9375 79.375 25.039062 78.925781 C 24.109375 77.804688 24.109375 77.074219 24.0625 75.625 C 24.164062 75.417969 24.269531 75.210938 24.375 75 C 24.175781 74.96875 23.976562 74.9375 23.769531 74.902344 C 22.960938 74.722656 22.257812 74.488281 21.484375 74.199219 C 20.035156 73.71875 18.703125 73.410156 17.1875 73.75 C 16.261719 74.277344 15.488281 74.925781 14.6875 75.625 C 13.597656 76.351562 13.15625 76.328125 11.875 76.25 C 11.132812 76.09375 11.132812 76.09375 10.625 75.9375 C 10.625 76.144531 10.625 76.351562 10.625 76.5625 C 10.109375 76.683594 9.585938 76.785156 9.0625 76.875 C 8.53125 76.34375 8.65625 75.714844 8.632812 74.980469 C 8.699219 68.976562 10.789062 63.082031 12.8125 57.5 C 12.929688 57.175781 12.929688 57.175781 13.046875 56.84375 C 13.96875 54.285156 15.082031 51.828125 16.25 49.375 Z M 16.25 49.375 "/>
<path style=" stroke:none;fill-rule:nonzero;fill:rgb(94.901961%,83.92157%,9.803922%);fill-opacity:1;" d="M 43.417969 26.464844 C 43.847656 26.695312 44.269531 26.9375 44.6875 27.1875 C 44.882812 27.285156 45.078125 27.386719 45.28125 27.488281 C 47.699219 28.804688 50.046875 31.160156 51.5625 33.4375 C 51.816406 34.996094 51.355469 35.933594 50.496094 37.1875 C 48.25 40.023438 44.632812 41.949219 41.25 43.125 C 37.769531 43.421875 34.914062 42.097656 32.1875 40 C 28.265625 36.566406 28.265625 36.566406 28.007812 34.257812 C 28.1875 32.515625 29.003906 31.570312 30.308594 30.4375 C 30.652344 30.179688 31 29.921875 31.347656 29.667969 C 31.527344 29.535156 31.710938 29.398438 31.894531 29.257812 C 32.40625 28.878906 32.921875 28.5 33.4375 28.125 C 33.78125 27.863281 33.78125 27.863281 34.132812 27.597656 C 36.773438 25.636719 40.339844 25.136719 43.417969 26.464844 Z M 43.417969 26.464844 "/>
<path style=" stroke:none;fill-rule:nonzero;fill:rgb(7.058824%,6.27451%,15.686275%);fill-opacity:1;" d="M 33.4375 16.5625 C 35.355469 17.324219 36.730469 18.726562 37.804688 20.460938 C 38.378906 21.882812 38.238281 23.175781 38.125 24.6875 C 39.363281 24.585938 40.601562 24.480469 41.875 24.375 C 41.875 24.582031 41.875 24.789062 41.875 25 C 42.183594 25 42.492188 25 42.8125 25 C 42.832031 24.824219 42.851562 24.652344 42.871094 24.472656 C 43.207031 22.398438 44.039062 21.070312 45.625 19.6875 C 46.785156 19.300781 47.855469 19.203125 49.0625 19.375 C 50.480469 20.226562 51.296875 21.3125 51.777344 22.890625 C 52.058594 25.367188 51.894531 26.878906 50.625 29.0625 C 50.417969 28.960938 50.210938 28.855469 50 28.75 C 50.15625 28.441406 50.15625 28.441406 50.3125 28.125 C 50.488281 26.253906 50.457031 24.726562 49.375 23.125 C 48.496094 22.410156 48.496094 22.410156 47.519531 22.519531 C 46.3125 22.886719 45.964844 23.308594 45.3125 24.375 C 45.195312 24.894531 45.085938 25.414062 45 25.9375 C 44.691406 26.09375 44.691406 26.09375 44.375 26.25 C 44.375 26.558594 44.375 26.867188 44.375 27.1875 C 44.058594 27.03125 43.742188 26.878906 43.417969 26.71875 C 41.246094 25.902344 38.402344 25.761719 36.242188 26.632812 C 35.164062 27.277344 34.140625 27.972656 33.125 28.710938 C 32.941406 28.84375 32.757812 28.972656 32.566406 29.109375 C 30.035156 30.746094 30.035156 30.746094 28.4375 33.125 C 28.296875 34.375 28.332031 35.101562 28.90625 36.230469 C 31.574219 39.5 34.574219 41.859375 38.75 42.8125 C 38.125 43.4375 38.125 43.4375 37.011719 43.574219 C 35.332031 43.519531 34.183594 42.796875 32.8125 41.875 C 32.496094 41.664062 32.179688 41.453125 31.855469 41.234375 C 29.925781 39.867188 28.550781 38.699219 27.5 36.5625 C 27.5 36.355469 27.5 36.148438 27.5 35.9375 C 27.292969 35.9375 27.085938 35.9375 26.875 35.9375 C 26.726562 33.847656 26.75 32.570312 28.125 30.9375 C 28 30.78125 27.875 30.628906 27.746094 30.46875 C 26.085938 28.335938 25.097656 26.523438 25.183594 23.761719 C 25.496094 21.457031 26.234375 19.140625 28.027344 17.578125 C 29.730469 16.324219 31.359375 16.300781 33.4375 16.5625 Z M 33.4375 16.5625 "/>
<path style=" stroke:none;fill-rule:nonzero;fill:rgb(93.725491%,58.431375%,12.54902%);fill-opacity:1;" d="M 63.4375 52.8125 C 64.457031 53.324219 64.597656 54.425781 64.960938 55.449219 C 65.117188 55.878906 65.269531 56.308594 65.425781 56.738281 C 65.507812 56.964844 65.589844 57.1875 65.671875 57.421875 C 65.945312 58.144531 66.242188 58.851562 66.542969 59.566406 C 67.289062 61.421875 67.820312 63.332031 68.332031 65.269531 C 68.496094 65.875 68.664062 66.480469 68.832031 67.089844 C 69.515625 69.628906 69.902344 72.058594 70 74.6875 C 69.832031 74.550781 69.667969 74.414062 69.496094 74.269531 C 66.792969 72.066406 64.035156 71.890625 60.625 72.1875 C 58.75 72.585938 56.917969 72.992188 55.3125 74.0625 C 54.898438 74.0625 54.488281 74.0625 54.0625 74.0625 C 53.339844 73.339844 53.339844 73.339844 52.8125 72.5 C 53.207031 71.3125 53.65625 71.136719 54.6875 70.449219 C 58.085938 68.023438 59.867188 65.289062 61.5625 61.5625 C 61.675781 61.347656 61.789062 61.136719 61.90625 60.914062 C 63.078125 58.414062 63.296875 55.535156 63.4375 52.8125 Z M 63.4375 52.8125 "/>
<path style=" stroke:none;fill-rule:nonzero;fill:rgb(93.725491%,58.431375%,12.941177%);fill-opacity:1;" d="M 15.9375 53.4375 C 16.039062 53.4375 16.144531 53.4375 16.25 53.4375 C 16.292969 53.78125 16.335938 54.125 16.378906 54.480469 C 16.734375 57.097656 17.242188 59.511719 18.261719 61.953125 C 18.351562 62.167969 18.441406 62.382812 18.535156 62.605469 C 18.972656 63.609375 19.449219 64.523438 20.070312 65.425781 C 20.625 66.25 20.625 66.25 20.625 66.875 C 20.832031 66.875 21.039062 66.875 21.25 66.875 C 21.703125 67.355469 21.703125 67.355469 22.226562 68.007812 C 23.179688 69.132812 24.167969 69.992188 25.375 70.835938 C 25.933594 71.246094 26.398438 71.6875 26.875 72.1875 C 26.191406 72.988281 26.191406 72.988281 25.3125 73.75 C 24.117188 73.636719 23.039062 73.191406 21.914062 72.792969 C 18.890625 71.847656 15.820312 71.78125 12.8125 72.8125 C 12.058594 73.195312 12.058594 73.195312 11.425781 73.632812 C 11.054688 73.878906 10.683594 74.128906 10.3125 74.375 C 10.183594 71.984375 10.539062 69.902344 11.152344 67.597656 C 11.238281 67.269531 11.320312 66.941406 11.410156 66.605469 C 12.289062 63.265625 13.320312 60.050781 14.6875 56.875 C 14.921875 56.257812 15.148438 55.640625 15.371094 55.019531 C 15.480469 54.71875 15.585938 54.421875 15.695312 54.113281 C 15.816406 53.777344 15.816406 53.777344 15.9375 53.4375 Z M 15.9375 53.4375 "/>
<path style=" stroke:none;fill-rule:nonzero;fill:rgb(2.745098%,1.960784%,1.568628%);fill-opacity:1;" d="M 51.09375 17.089844 C 53.332031 19.160156 54.121094 21.589844 54.53125 24.570312 C 54.183594 26.929688 53.503906 29.144531 51.5625 30.625 C 51.355469 30.625 51.148438 30.625 50.9375 30.625 C 51.1875 30.933594 51.441406 31.242188 51.699219 31.5625 C 52.609375 32.847656 52.8125 33.738281 52.8125 35.3125 C 52.441406 36.289062 52.441406 36.289062 51.875 37.1875 C 51.695312 37.488281 51.515625 37.785156 51.332031 38.09375 C 50.214844 39.625 48.6875 40.527344 47.109375 41.527344 C 46.59375 41.855469 46.085938 42.199219 45.578125 42.542969 C 42.871094 44.226562 40.304688 44.535156 37.1875 44.0625 C 36.566406 43.582031 36.566406 43.582031 36.25 43.125 C 36.703125 43.132812 36.703125 43.132812 37.167969 43.144531 C 40.71875 43.125 43.230469 42.117188 46.25 40.3125 C 46.542969 40.140625 46.832031 39.972656 47.132812 39.796875 C 48.882812 38.703125 50.558594 37.328125 51.25 35.3125 C 51.367188 34.171875 51.367188 33.617188 50.722656 32.648438 C 50.484375 32.398438 50.246094 32.152344 50 31.894531 C 49.746094 31.628906 49.488281 31.359375 49.226562 31.085938 C 47.414062 29.21875 47.414062 29.21875 45.265625 27.804688 C 44.4375 27.367188 44.335938 26.800781 44.0625 25.9375 C 44.371094 25.9375 44.679688 25.9375 45 25.9375 C 44.96875 25.71875 44.9375 25.5 44.902344 25.273438 C 45.046875 23.953125 45.617188 23.402344 46.5625 22.5 C 47.5 22.148438 47.5 22.148438 48.4375 22.1875 C 49.34375 22.722656 49.855469 23.207031 50.410156 24.101562 C 50.730469 25.441406 50.671875 26.753906 50.625 28.125 C 50.625 28.226562 50.625 28.332031 50.625 28.4375 C 51.792969 26.539062 51.828125 24.875 51.328125 22.753906 C 50.53125 20.925781 50.53125 20.925781 49.0625 19.6875 C 47.394531 19.578125 46.351562 19.539062 45 20.625 C 43.585938 21.960938 43.398438 23.460938 43.125 25.3125 C 42.519531 25.195312 42.519531 25.195312 41.875 25 C 41.1875 23.621094 41.476562 22.140625 41.933594 20.742188 C 43.851562 17.171875 47.164062 15.195312 51.09375 17.089844 Z M 51.09375 17.089844 "/>
<path style=" stroke:none;fill-rule:nonzero;fill:rgb(10.196079%,1.960784%,0.392157%);fill-opacity:1;" d="M 36.25 2.1875 C 36.25 2.394531 36.25 2.601562 36.25 2.8125 C 36.042969 2.8125 35.835938 2.8125 35.625 2.8125 C 35.625 3.019531 35.625 3.226562 35.625 3.4375 C 35.363281 3.507812 35.105469 3.574219 34.835938 3.644531 C 32.753906 4.230469 31.050781 4.871094 29.3125 6.164062 C 28.75 6.5625 28.75 6.5625 27.8125 6.875 C 27.8125 7.082031 27.8125 7.289062 27.8125 7.5 C 27.484375 7.800781 27.484375 7.800781 27.148438 8.105469 C 24.222656 10.941406 22.847656 15.730469 22.761719 19.703125 C 22.757812 20.296875 22.753906 20.890625 22.753906 21.484375 C 22.75 21.925781 22.75 21.925781 22.742188 22.375 C 22.738281 24.363281 22.976562 26.191406 23.4375 28.125 C 24.1875 31.394531 24.292969 34.234375 23.4375 37.5 C 23.625 37.386719 23.816406 37.273438 24.007812 37.160156 C 24.257812 37.011719 24.507812 36.867188 24.765625 36.71875 C 25.136719 36.5 25.136719 36.5 25.511719 36.28125 C 26.25 35.9375 26.25 35.9375 27.5 35.9375 C 27.484375 36.492188 27.484375 36.492188 27.1875 37.1875 C 26.441406 37.617188 25.722656 37.980469 24.941406 38.339844 C 22.84375 39.378906 21.660156 40.351562 20.625 42.5 C 20.515625 42.679688 20.40625 42.859375 20.296875 43.046875 C 17.683594 47.582031 17.039062 53.199219 18.183594 58.261719 C 18.359375 58.84375 18.546875 59.425781 18.75 60 C 18.851562 60.304688 18.957031 60.613281 19.0625 60.929688 C 20.835938 65.6875 24.253906 69.28125 28.75 71.5625 C 29.484375 71.835938 30.171875 72.019531 30.9375 72.1875 C 30.9375 72.394531 30.9375 72.601562 30.9375 72.8125 C 31.246094 72.914062 31.554688 73.019531 31.875 73.125 C 31.875 73.332031 31.875 73.539062 31.875 73.75 C 30.945312 73.542969 30.019531 73.335938 29.0625 73.125 C 29.0625 73.023438 29.0625 72.917969 29.0625 72.8125 C 28.234375 72.484375 28.234375 72.484375 27.1875 72.5 C 26.363281 73.035156 25.683594 73.675781 25 74.375 C 24.84375 74.066406 24.84375 74.066406 24.6875 73.75 C 25.304688 73.234375 25.925781 72.71875 26.5625 72.1875 C 26.34375 72.015625 26.128906 71.847656 25.90625 71.671875 C 24.917969 70.871094 23.96875 70.035156 23.027344 69.179688 C 22.769531 68.949219 22.769531 68.949219 22.507812 68.714844 C 22.074219 68.324219 21.660156 67.914062 21.25 67.5 C 21.25 67.292969 21.25 67.085938 21.25 66.875 C 21.042969 66.875 20.835938 66.875 20.625 66.875 C 16.90625 61.679688 15.46875 55.453125 16.484375 49.160156 C 16.605469 48.605469 16.734375 48.050781 16.875 47.5 C 16.949219 47.210938 17.019531 46.917969 17.097656 46.621094 C 17.652344 44.710938 18.457031 43.132812 19.511719 41.464844 C 21.429688 38.417969 23.058594 34.933594 22.386719 31.25 C 22.234375 30.621094 22.070312 29.996094 21.894531 29.375 C 20.121094 22.953125 20.496094 15.945312 23.625 9.984375 C 25.988281 6.082031 29.339844 3.3125 33.757812 1.984375 C 34.644531 1.828125 35.390625 1.945312 36.25 2.1875 Z M 36.25 2.1875 "/>
<path style=" stroke:none;fill-rule:nonzero;fill:rgb(4.705882%,3.921569%,3.137255%);fill-opacity:1;" d="M 39.765625 1.503906 C 40.117188 1.5 40.117188 1.5 40.476562 1.492188 C 41.902344 1.488281 43.035156 1.648438 44.375 2.1875 C 44.0625 2.8125 44.0625 2.8125 43.4375 3.125 C 42.800781 3.195312 42.164062 3.253906 41.523438 3.300781 C 41.179688 3.328125 40.839844 3.351562 40.484375 3.378906 C 40.089844 3.410156 40.089844 3.410156 39.6875 3.4375 C 40.066406 3.5 40.449219 3.566406 40.839844 3.632812 C 41.984375 3.933594 42.765625 4.328125 43.484375 5.320312 C 44.042969 6.625 43.949219 7.996094 43.75 9.375 C 43.300781 10.332031 43.300781 10.332031 42.8125 10.9375 C 42.710938 11.144531 42.605469 11.351562 42.5 11.5625 C 42.785156 12.347656 43.085938 13.101562 43.417969 13.867188 C 43.960938 15.125 44.375 16.097656 44.375 17.5 C 43.136719 17.5 41.898438 17.5 40.625 17.5 C 40.160156 16.417969 40.160156 16.417969 39.6875 15.3125 C 39.585938 16.035156 39.480469 16.757812 39.375 17.5 C 38.136719 17.5 36.898438 17.5 35.625 17.5 C 35.625 12.652344 35.625 7.804688 35.625 2.8125 C 35.832031 2.8125 36.039062 2.8125 36.25 2.8125 C 36.351562 2.503906 36.457031 2.195312 36.5625 1.875 C 37.570312 1.371094 38.660156 1.503906 39.765625 1.503906 Z M 39.765625 1.503906 "/>
<path style=" stroke:none;fill-rule:nonzero;fill:rgb(1.960784%,1.176471%,14.117648%);fill-opacity:1;" d="M 16.25 49.375 C 16.351562 49.375 16.457031 49.375 16.5625 49.375 C 16.511719 52.144531 16.007812 54.3125 14.949219 56.855469 C 13.457031 60.558594 12.191406 64.363281 11.25 68.242188 C 11.183594 68.503906 11.121094 68.765625 11.054688 69.035156 C 10.660156 70.746094 10.570312 72.308594 10.625 74.0625 C 10.863281 73.863281 10.863281 73.863281 11.105469 73.664062 C 11.320312 73.492188 11.535156 73.320312 11.757812 73.144531 C 11.96875 72.972656 12.179688 72.804688 12.394531 72.628906 C 14.679688 71.25 18.347656 71.605469 20.851562 72.109375 C 22.589844 72.609375 23.785156 72.992188 25 74.375 C 24.898438 74.582031 24.792969 74.789062 24.6875 75 C 23.546875 74.855469 22.535156 74.597656 21.464844 74.199219 C 20.023438 73.714844 18.695312 73.410156 17.1875 73.75 C 16.261719 74.277344 15.488281 74.925781 14.6875 75.625 C 13.597656 76.351562 13.15625 76.328125 11.875 76.25 C 11.132812 76.09375 11.132812 76.09375 10.625 75.9375 C 10.625 76.144531 10.625 76.351562 10.625 76.5625 C 10.109375 76.683594 9.585938 76.785156 9.0625 76.875 C 8.53125 76.34375 8.65625 75.714844 8.632812 74.980469 C 8.699219 68.976562 10.789062 63.082031 12.8125 57.5 C 12.929688 57.175781 12.929688 57.175781 13.046875 56.84375 C 13.96875 54.285156 15.082031 51.828125 16.25 49.375 Z M 16.25 49.375 "/>
<path style=" stroke:none;fill-rule:nonzero;fill:rgb(2.745098%,1.960784%,1.176471%);fill-opacity:1;" d="M 33.4375 16.5625 C 35.203125 17.277344 36.621094 18.519531 37.5625 20.175781 C 38.074219 21.738281 37.921875 23.378906 37.8125 25 C 37.398438 25 36.988281 25 36.5625 25 C 36.550781 24.691406 36.535156 24.382812 36.523438 24.0625 C 36.308594 22.53125 35.441406 21.398438 34.375 20.3125 C 33.089844 19.511719 31.785156 19.386719 30.3125 19.6875 C 28.660156 21.164062 28.117188 22.761719 27.988281 24.921875 C 28.011719 26.757812 28.765625 28.136719 29.6875 29.6875 C 29.277344 30.15625 29.277344 30.15625 28.75 30.625 C 28.441406 30.625 28.132812 30.625 27.8125 30.625 C 26.09375 28.519531 25.097656 26.523438 25.183594 23.761719 C 25.496094 21.457031 26.234375 19.140625 28.027344 17.578125 C 29.730469 16.324219 31.359375 16.300781 33.4375 16.5625 Z M 33.4375 16.5625 "/>
<path style=" stroke:none;fill-rule:nonzero;fill:rgb(1.960784%,1.176471%,13.725491%);fill-opacity:1;" d="M 62.5 47.1875 C 63.140625 47.828125 63.347656 48.238281 63.6875 49.0625 C 63.792969 49.3125 63.898438 49.5625 64.003906 49.820312 C 64.113281 50.085938 64.222656 50.351562 64.335938 50.625 C 64.449219 50.898438 64.5625 51.167969 64.675781 51.449219 C 64.996094 52.214844 65.308594 52.984375 65.625 53.75 C 65.75 54.046875 65.875 54.34375 66 54.652344 C 68.425781 60.546875 70.320312 66.734375 71.289062 73.046875 C 71.339844 73.378906 71.394531 73.714844 71.449219 74.058594 C 71.550781 74.90625 71.585938 75.710938 71.5625 76.5625 C 71.050781 76.804688 71.050781 76.804688 70.3125 76.875 C 69.445312 76.3125 69.445312 76.3125 68.496094 75.527344 C 66.203125 73.636719 64.144531 73.234375 61.25 73.4375 C 58.851562 73.707031 56.835938 74.554688 54.6875 75.625 C 54.53125 74.851562 54.53125 74.851562 54.375 74.0625 C 55.410156 73.628906 56.453125 73.214844 57.5 72.8125 C 57.746094 72.714844 57.996094 72.621094 58.25 72.519531 C 61.128906 71.519531 64.277344 71.457031 67.167969 72.453125 C 68.113281 72.980469 68.871094 73.667969 69.6875 74.375 C 69.210938 67.921875 67.253906 61.75 64.691406 55.835938 C 63.75 53.664062 63.027344 51.738281 62.753906 49.375 C 62.714844 49.054688 62.714844 49.054688 62.675781 48.730469 C 62.613281 48.21875 62.558594 47.703125 62.5 47.1875 Z M 62.5 47.1875 "/>
<path style=" stroke:none;fill-rule:nonzero;fill:rgb(94.509804%,83.92157%,9.411765%);fill-opacity:1;" d="M 30 73.125 C 30.273438 73.226562 30.550781 73.332031 30.832031 73.4375 C 32.316406 73.882812 33.796875 73.988281 35.335938 74.128906 C 37.125 74.3125 37.125 74.3125 37.8125 75 C 37.851562 76.132812 37.851562 76.132812 37.8125 77.1875 C 37.515625 77.203125 37.21875 77.21875 36.910156 77.234375 C 36.519531 77.257812 36.125 77.28125 35.722656 77.304688 C 35.140625 77.335938 35.140625 77.335938 34.546875 77.371094 C 33.527344 77.488281 32.804688 77.722656 31.875 78.125 C 31.144531 78.019531 30.65625 77.828125 30 77.5 C 28.734375 77.417969 28.269531 77.40625 27.1875 78.125 C 26.089844 77.964844 26.089844 77.964844 25.625 77.5 C 25.394531 76.261719 25.316406 75.144531 26.035156 74.074219 C 27.351562 72.820312 28.207031 72.605469 30 73.125 Z M 30 73.125 "/>
<path style=" stroke:none;fill-rule:nonzero;fill:rgb(94.117647%,83.529413%,9.411765%);fill-opacity:1;" d="M 52.1875 73.125 C 52.1875 73.332031 52.1875 73.539062 52.1875 73.75 C 52.496094 73.851562 52.804688 73.957031 53.125 74.0625 C 53.75 75 53.75 75 53.671875 76.113281 C 53.4375 77.1875 53.4375 77.1875 52.8125 77.8125 C 52.246094 77.699219 52.246094 77.699219 51.5625 77.5 C 50.21875 77.425781 48.894531 77.394531 47.578125 77.695312 C 46.875 77.8125 46.875 77.8125 46.074219 77.539062 C 44.496094 77.023438 42.898438 76.976562 41.25 76.875 C 41.238281 76.144531 41.238281 75.417969 41.25 74.6875 C 41.738281 74.199219 42.261719 74.289062 42.941406 74.242188 C 43.367188 74.207031 43.367188 74.207031 43.800781 74.171875 C 44.394531 74.125 44.992188 74.082031 45.585938 74.039062 C 47.699219 73.863281 50.238281 72.457031 52.1875 73.125 Z M 52.1875 73.125 "/>
<path style=" stroke:none;fill-rule:nonzero;fill:rgb(5.490196%,4.705882%,14.509805%);fill-opacity:1;" d="M 45 24.375 C 45.101562 24.375 45.207031 24.375 45.3125 24.375 C 45.332031 24.660156 45.351562 24.945312 45.371094 25.242188 C 45.691406 26.515625 46.070312 26.71875 47.167969 27.402344 C 49.460938 28.960938 51.988281 31.003906 52.8125 33.75 C 52.734375 35.890625 51.9375 37.316406 50.585938 38.90625 C 49.3125 40.011719 47.976562 40.957031 46.5625 41.875 C 46.257812 42.082031 45.957031 42.289062 45.644531 42.5 C 42.898438 44.203125 40.34375 44.542969 37.1875 44.0625 C 36.566406 43.582031 36.566406 43.582031 36.25 43.125 C 36.554688 43.132812 36.855469 43.136719 37.167969 43.144531 C 40.71875 43.125 43.230469 42.117188 46.25 40.3125 C 46.542969 40.140625 46.832031 39.972656 47.132812 39.796875 C 48.882812 38.703125 50.558594 37.328125 51.25 35.3125 C 51.367188 34.171875 51.367188 33.617188 50.722656 32.648438 C 50.484375 32.398438 50.246094 32.152344 50 31.894531 C 49.746094 31.628906 49.488281 31.359375 49.226562 31.085938 C 47.414062 29.21875 47.414062 29.21875 45.265625 27.804688 C 44.4375 27.367188 44.335938 26.800781 44.0625 25.9375 C 44.371094 25.9375 44.679688 25.9375 45 25.9375 C 45 25.421875 45 24.90625 45 24.375 Z M 45 24.375 "/>
<path style=" stroke:none;fill-rule:nonzero;fill:rgb(95.294118%,95.294118%,94.901961%);fill-opacity:1;" d="M 49.0625 19.375 C 50.480469 20.226562 51.296875 21.3125 51.777344 22.890625 C 52.058594 25.367188 51.894531 26.878906 50.625 29.0625 C 50.417969 28.960938 50.210938 28.855469 50 28.75 C 50.101562 28.542969 50.207031 28.335938 50.3125 28.125 C 50.488281 26.253906 50.457031 24.726562 49.375 23.125 C 48.496094 22.410156 48.496094 22.410156 47.519531 22.519531 C 46.3125 22.886719 45.964844 23.308594 45.3125 24.375 C 45.066406 25.214844 45.066406 25.214844 45 25.9375 C 44.226562 25.628906 44.226562 25.628906 43.4375 25.3125 C 43.253906 23.898438 43.136719 22.6875 43.890625 21.433594 C 45.402344 19.6875 46.6875 19.039062 49.0625 19.375 Z M 49.0625 19.375 "/>
<path style=" stroke:none;fill-rule:nonzero;fill:rgb(95.686275%,95.686275%,95.294118%);fill-opacity:1;" d="M 33.125 19.375 C 34.597656 19.996094 35.539062 21.074219 36.25 22.5 C 36.273438 22.980469 36.277344 23.464844 36.269531 23.945312 C 36.265625 24.199219 36.265625 24.457031 36.261719 24.71875 C 36.257812 24.914062 36.253906 25.109375 36.25 25.3125 C 35.734375 25.519531 35.21875 25.726562 34.6875 25.9375 C 34.632812 25.769531 34.582031 25.597656 34.527344 25.421875 C 34.183594 24.410156 33.894531 23.605469 33.183594 22.792969 C 32.167969 22.355469 31.660156 22.425781 30.625 22.8125 C 29.085938 24.632812 29.238281 26.453125 29.375 28.75 C 28.433594 27.894531 27.894531 27.128906 27.707031 25.855469 C 27.667969 23.472656 28.289062 21.800781 29.589844 19.824219 C 30.730469 19.117188 31.820312 19.183594 33.125 19.375 Z M 33.125 19.375 "/>
<path style=" stroke:none;fill-rule:nonzero;fill:rgb(93.725491%,93.725491%,93.725491%);fill-opacity:1;" d="M 36.875 4.6875 C 40.832031 4.6875 40.832031 4.6875 42.1875 5.625 C 42.957031 6.777344 43.03125 7.726562 42.8125 9.0625 C 42.226562 10 42.226562 10 41.5625 10.625 C 41.355469 10.625 41.148438 10.625 40.9375 10.625 C 41.074219 10.980469 41.207031 11.332031 41.347656 11.695312 C 41.523438 12.160156 41.699219 12.621094 41.875 13.085938 C 41.964844 13.320312 42.054688 13.550781 42.144531 13.792969 C 42.8125 15.554688 42.8125 15.554688 42.8125 16.25 C 42.296875 16.25 41.78125 16.25 41.25 16.25 C 40.996094 15.554688 40.742188 14.855469 40.488281 14.160156 C 40.417969 13.964844 40.34375 13.769531 40.269531 13.566406 C 39.882812 12.488281 39.5625 11.441406 39.375 10.3125 C 39.625 10.203125 39.878906 10.09375 40.136719 9.980469 C 41.050781 9.425781 41.050781 9.425781 41.191406 8.28125 C 41.226562 7.605469 41.25 6.925781 41.25 6.25 C 40.21875 6.042969 39.1875 5.835938 38.125 5.625 C 38.125 9.132812 38.125 12.636719 38.125 16.25 C 37.710938 16.25 37.300781 16.25 36.875 16.25 C 36.875 12.433594 36.875 8.617188 36.875 4.6875 Z M 36.875 4.6875 "/>
<path style=" stroke:none;fill-rule:nonzero;fill:rgb(2.745098%,1.568628%,1.568628%);fill-opacity:1;" d="M 33.125 22.5 C 34.101562 23.347656 34.464844 24.0625 34.570312 25.332031 C 34.375 26.5625 34.375 26.5625 33.476562 27.34375 C 32.5 27.8125 32.5 27.8125 31.875 27.8125 C 31.875 28.019531 31.875 28.226562 31.875 28.4375 C 31.171875 28.863281 30.773438 29.074219 29.941406 29.003906 C 29.753906 28.921875 29.566406 28.835938 29.375 28.75 C 28.871094 27.242188 28.722656 25.753906 29.390625 24.269531 C 30.457031 22.53125 31.007812 21.90625 33.125 22.5 Z M 33.125 22.5 "/>
<path style=" stroke:none;fill-rule:nonzero;fill:rgb(13.333334%,13.333334%,12.941177%);fill-opacity:1;" d="M 38.125 5.625 C 40.3125 5.625 40.3125 5.625 41.25 6.25 C 41.566406 7.453125 41.679688 8.160156 41.191406 9.316406 C 40.605469 10.023438 40.234375 10.328125 39.375 10.625 C 39.066406 10.625 38.757812 10.625 38.4375 10.625 C 38.4375 12.480469 38.4375 14.335938 38.4375 16.25 C 38.335938 16.25 38.230469 16.25 38.125 16.25 C 38.125 12.742188 38.125 9.238281 38.125 5.625 Z M 38.125 5.625 "/>
<path style=" stroke:none;fill-rule:nonzero;fill:rgb(97.254902%,97.254902%,97.254902%);fill-opacity:1;" d="M 36.875 4.6875 C 37.804688 4.6875 38.730469 4.6875 39.6875 4.6875 C 39.6875 4.894531 39.6875 5.101562 39.6875 5.3125 C 39.171875 5.3125 38.65625 5.3125 38.125 5.3125 C 38.125 8.921875 38.125 12.53125 38.125 16.25 C 37.710938 16.25 37.300781 16.25 36.875 16.25 C 36.875 12.433594 36.875 8.617188 36.875 4.6875 Z M 36.875 4.6875 "/>
<path style=" stroke:none;fill-rule:nonzero;fill:rgb(21.176471%,10.196079%,3.529412%);fill-opacity:1;" d="M 39.765625 1.503906 C 40.117188 1.5 40.117188 1.5 40.476562 1.492188 C 41.902344 1.488281 43.035156 1.648438 44.375 2.1875 C 44.0625 2.8125 44.0625 2.8125 43.4375 3.125 C 42.800781 3.195312 42.164062 3.253906 41.523438 3.300781 C 41.179688 3.328125 40.839844 3.351562 40.484375 3.378906 C 40.089844 3.410156 40.089844 3.410156 39.6875 3.4375 C 39.6875 3.539062 39.6875 3.644531 39.6875 3.75 C 38.449219 3.75 37.210938 3.75 35.9375 3.75 C 35.9375 8.289062 35.9375 12.824219 35.9375 17.5 C 35.835938 17.5 35.730469 17.5 35.625 17.5 C 35.625 12.652344 35.625 7.804688 35.625 2.8125 C 35.832031 2.8125 36.039062 2.8125 36.25 2.8125 C 36.351562 2.503906 36.457031 2.195312 36.5625 1.875 C 37.570312 1.371094 38.660156 1.503906 39.765625 1.503906 Z M 39.765625 1.503906 "/>
<path style=" stroke:none;fill-rule:nonzero;fill:rgb(11.764706%,3.137255%,0%);fill-opacity:1;" d="M 36.71875 73.042969 C 36.964844 73.042969 37.210938 73.039062 37.46875 73.039062 C 37.988281 73.039062 38.507812 73.039062 39.03125 73.042969 C 39.820312 73.046875 40.609375 73.042969 41.402344 73.039062 C 41.910156 73.039062 42.417969 73.039062 42.929688 73.042969 C 43.160156 73.039062 43.394531 73.039062 43.636719 73.039062 C 45.222656 73.050781 46.597656 73.316406 48.125 73.75 C 48.125 73.851562 48.125 73.957031 48.125 74.0625 C 46.886719 74.167969 45.652344 74.273438 44.414062 74.375 C 43.894531 74.417969 43.894531 74.417969 43.363281 74.464844 C 40.304688 74.71875 37.382812 74.773438 34.335938 74.375 C 34.097656 74.34375 33.855469 74.316406 33.609375 74.285156 C 33.03125 74.210938 32.453125 74.136719 31.875 74.0625 C 31.875 73.960938 31.875 73.855469 31.875 73.75 C 33.535156 73.199219 34.976562 73.03125 36.71875 73.042969 Z M 36.71875 73.042969 "/>
<path style=" stroke:none;fill-rule:nonzero;fill:rgb(27.843139%,25.490198%,11.764706%);fill-opacity:1;" d="M 30.3125 35.3125 C 30.472656 35.433594 30.628906 35.554688 30.792969 35.679688 C 33.949219 38.066406 36.234375 39.476562 40.3125 39.0625 C 42.359375 38.511719 44.222656 37.214844 46.03125 36.136719 C 47.433594 35.3125 47.433594 35.3125 48.125 35.3125 C 48.125 35.519531 48.125 35.726562 48.125 35.9375 C 47.4375 36.433594 47.4375 36.433594 46.523438 36.992188 C 45.554688 37.589844 44.613281 38.179688 43.691406 38.847656 C 41.28125 40.292969 38.441406 40.273438 35.742188 39.785156 C 33.390625 39.191406 31.703125 37.894531 30.3125 35.9375 C 30.3125 35.730469 30.3125 35.523438 30.3125 35.3125 Z M 30.3125 35.3125 "/>
<path style=" stroke:none;fill-rule:nonzero;fill:rgb(11.764706%,9.411765%,14.509805%);fill-opacity:1;" d="M 37.8125 21.25 C 37.914062 21.25 38.019531 21.25 38.125 21.25 C 38.125 22.382812 38.125 23.519531 38.125 24.6875 C 39.980469 24.53125 39.980469 24.53125 41.875 24.375 C 41.875 24.582031 41.875 24.789062 41.875 25 C 42.183594 25 42.492188 25 42.8125 25 C 42.914062 24.484375 43.019531 23.96875 43.125 23.4375 C 43.226562 23.4375 43.332031 23.4375 43.4375 23.4375 C 43.476562 23.734375 43.515625 24.03125 43.554688 24.335938 C 43.660156 25.339844 43.660156 25.339844 44.375 25.9375 C 44.570312 26.601562 44.570312 26.601562 44.6875 27.1875 C 44.136719 26.957031 44.136719 26.957031 43.574219 26.71875 C 41.382812 25.976562 38.457031 25.828125 36.25 26.5625 C 36.503906 25.957031 36.503906 25.957031 36.875 25.3125 C 37.183594 25.210938 37.492188 25.105469 37.8125 25 C 37.8125 23.761719 37.8125 22.523438 37.8125 21.25 Z M 37.8125 21.25 "/>
<path style=" stroke:none;fill-rule:nonzero;fill:rgb(0.392157%,0.392157%,1.568628%);fill-opacity:1;" d="M 16.953125 73.105469 C 17.546875 73.109375 17.546875 73.109375 18.148438 73.113281 C 18.449219 73.117188 18.753906 73.121094 19.0625 73.125 C 19.0625 73.226562 19.0625 73.332031 19.0625 73.4375 C 18.53125 73.523438 18.53125 73.523438 17.988281 73.613281 C 16.785156 73.902344 16.058594 74.402344 15.117188 75.195312 C 13.875 76.234375 13.875 76.234375 12.636719 76.386719 C 12.386719 76.339844 12.132812 76.296875 11.875 76.25 C 11.773438 75.835938 11.667969 75.425781 11.5625 75 C 13.441406 73.335938 14.394531 73.082031 16.953125 73.105469 Z M 16.953125 73.105469 "/>
<path style=" stroke:none;fill-rule:nonzero;fill:rgb(17.647059%,16.470589%,12.156863%);fill-opacity:1;" d="M 48.125 35.3125 C 48.125 35.519531 48.125 35.726562 48.125 35.9375 C 47.429688 36.445312 47.429688 36.445312 46.503906 37.011719 C 46.203125 37.199219 45.902344 37.382812 45.59375 37.578125 C 45.144531 37.847656 45.144531 37.847656 44.6875 38.125 C 44.417969 38.300781 44.148438 38.480469 43.871094 38.664062 C 43.125 39.0625 43.125 39.0625 41.875 39.0625 C 41.875 38.855469 41.875 38.648438 41.875 38.4375 C 42.125 38.316406 42.371094 38.195312 42.628906 38.070312 C 44.753906 37.046875 44.753906 37.046875 46.757812 35.820312 C 47.5 35.3125 47.5 35.3125 48.125 35.3125 Z M 48.125 35.3125 "/>
<path style=" stroke:none;fill-rule:nonzero;fill:rgb(10.980392%,6.666667%,0.392157%);fill-opacity:1;" d="M 44.375 73.125 C 45.632812 73.296875 46.882812 73.484375 48.125 73.75 C 48.125 73.851562 48.125 73.957031 48.125 74.0625 C 45.925781 74.355469 43.78125 74.410156 41.5625 74.375 C 42.566406 73.828125 43.226562 73.6875 44.375 73.75 C 44.375 73.542969 44.375 73.335938 44.375 73.125 Z M 44.375 73.125 "/>
<path style=" stroke:none;fill-rule:nonzero;fill:rgb(9.019608%,8.235294%,15.294118%);fill-opacity:1;" d="M 44.199219 42.128906 C 44.359375 42.25 44.523438 42.375 44.6875 42.5 C 44.199219 43.472656 43.484375 43.664062 42.5 44.0625 C 41.601562 43.964844 41.601562 43.964844 40.9375 43.75 C 41.25 42.8125 41.25 42.8125 42.285156 42.246094 C 43.4375 41.875 43.4375 41.875 44.199219 42.128906 Z M 44.199219 42.128906 "/>
<path style=" stroke:none;fill-rule:nonzero;fill:rgb(17.254902%,16.078432%,12.156863%);fill-opacity:1;" d="M 30.3125 35.3125 C 30.464844 35.429688 30.617188 35.546875 30.773438 35.667969 C 32.234375 36.785156 33.734375 37.800781 35.3125 38.75 C 34.386719 39.035156 34.121094 39.082031 33.164062 38.75 C 31.976562 37.992188 31.105469 37.101562 30.3125 35.9375 C 30.3125 35.730469 30.3125 35.523438 30.3125 35.3125 Z M 30.3125 35.3125 "/>
<path style=" stroke:none;fill-rule:nonzero;fill:rgb(87.450981%,55.686277%,19.215687%);fill-opacity:1;" d="M 54.375 33.75 C 54.582031 33.75 54.789062 33.75 55 33.75 C 55.207031 34.78125 55.414062 35.8125 55.625 36.875 C 54.851562 36.566406 54.851562 36.566406 54.0625 36.25 C 54.0625 36.042969 54.0625 35.835938 54.0625 35.625 C 54.269531 35.625 54.476562 35.625 54.6875 35.625 C 54.585938 35.007812 54.480469 34.386719 54.375 33.75 Z M 54.375 33.75 "/>
<path style=" stroke:none;fill-rule:nonzero;fill:rgb(13.725491%,4.313726%,1.568628%);fill-opacity:1;" d="M 56.25 25 C 56.457031 25.414062 56.664062 25.824219 56.875 26.25 C 57.082031 26.351562 57.289062 26.457031 57.5 26.5625 C 57.097656 26.992188 56.679688 27.410156 56.25 27.8125 C 56.042969 27.8125 55.835938 27.8125 55.625 27.8125 C 55.832031 26.882812 56.039062 25.957031 56.25 25 Z M 56.25 25 "/>
<path style=" stroke:none;fill-rule:nonzero;fill:rgb(16.470589%,8.235294%,0.784314%);fill-opacity:1;" d="M 44.375 73.125 C 45.632812 73.296875 46.882812 73.484375 48.125 73.75 C 48.125 73.851562 48.125 73.957031 48.125 74.0625 C 47.675781 74.070312 47.226562 74.078125 46.777344 74.082031 C 46.402344 74.085938 46.402344 74.085938 46.019531 74.09375 C 45.3125 74.0625 45.3125 74.0625 44.375 73.75 C 44.375 73.542969 44.375 73.335938 44.375 73.125 Z M 44.375 73.125 "/>
<path style=" stroke:none;fill-rule:nonzero;fill:rgb(83.137256%,82.745099%,85.882354%);fill-opacity:1;" d="M 25 54.6875 C 25.617188 55.203125 26.238281 55.71875 26.875 56.25 C 26.566406 56.40625 26.566406 56.40625 26.25 56.5625 C 26.042969 56.460938 25.835938 56.355469 25.625 56.25 C 25.625 56.765625 25.625 57.28125 25.625 57.8125 C 25.523438 57.8125 25.417969 57.8125 25.3125 57.8125 C 25.210938 56.78125 25.105469 55.75 25 54.6875 Z M 25 54.6875 "/>
<path style=" stroke:none;fill-rule:nonzero;fill:rgb(23.529412%,21.568628%,12.156863%);fill-opacity:1;" d="M 40.9375 28.75 C 41.453125 28.75 41.96875 28.75 42.5 28.75 C 42.601562 29.164062 42.707031 29.574219 42.8125 30 C 42.296875 29.898438 41.78125 29.792969 41.25 29.6875 C 41.148438 29.378906 41.042969 29.070312 40.9375 28.75 Z M 40.9375 28.75 "/>
<path style=" stroke:none;fill-rule:nonzero;fill:rgb(81.176472%,53.333336%,18.431373%);fill-opacity:1;" d="M 39.375 6.875 C 39.683594 6.976562 39.992188 7.082031 40.3125 7.1875 C 40.3125 7.703125 40.3125 8.21875 40.3125 8.75 C 40.003906 8.851562 39.695312 8.957031 39.375 9.0625 C 39.375 8.339844 39.375 7.617188 39.375 6.875 Z M 39.375 6.875 "/>
<path style=" stroke:none;fill-rule:nonzero;fill:rgb(80.000001%,79.607844%,81.960785%);fill-opacity:1;" d="M 54.0625 55.625 C 54.269531 55.726562 54.476562 55.832031 54.6875 55.9375 C 54.222656 57.019531 54.222656 57.019531 53.75 58.125 C 53.125 57.1875 53.125 57.1875 53.125 56.5625 C 53.332031 56.5625 53.539062 56.5625 53.75 56.5625 C 53.851562 56.253906 53.957031 55.945312 54.0625 55.625 Z M 54.0625 55.625 "/>
</g>
</svg>
