<?xml version="1.0" encoding="UTF-8"?>
<svg xmlns="http://www.w3.org/2000/svg" xmlns:xlink="http://www.w3.org/1999/xlink" width="px" height="80px" viewBox="0 0 80 80" version="1.1">
<g id="surface1">
<path style=" stroke:none;fill-rule:nonzero;fill:rgb(0%,44.313726%,100%);fill-opacity:1;" d="M 12.972656 -0.078125 C 13.214844 -0.0820312 13.460938 -0.0820312 13.703125 -0.0820312 C 14.363281 -0.0859375 15.027344 -0.0820312 15.6875 -0.0820312 C 16.40625 -0.0820312 17.121094 -0.0820312 17.839844 -0.0859375 C 19.242188 -0.0859375 20.640625 -0.0859375 22.042969 -0.0859375 C 23.183594 -0.0820312 24.320312 -0.0820312 25.460938 -0.0820312 C 25.625 -0.0820312 25.785156 -0.0820312 25.953125 -0.0820312 C 26.285156 -0.0859375 26.613281 -0.0859375 26.945312 -0.0859375 C 30.035156 -0.0859375 33.128906 -0.0859375 36.222656 -0.0820312 C 38.871094 -0.078125 41.519531 -0.078125 44.171875 -0.0820312 C 47.253906 -0.0859375 50.335938 -0.0859375 53.417969 -0.0859375 C 53.746094 -0.0859375 54.074219 -0.0820312 54.402344 -0.0820312 C 54.644531 -0.0820312 54.644531 -0.0820312 54.894531 -0.0820312 C 56.03125 -0.0820312 57.167969 -0.0820312 58.304688 -0.0859375 C 59.691406 -0.0859375 61.082031 -0.0859375 62.46875 -0.0820312 C 63.175781 -0.0820312 63.882812 -0.0820312 64.585938 -0.0820312 C 65.234375 -0.0859375 65.882812 -0.0820312 66.53125 -0.0820312 C 66.765625 -0.078125 67 -0.078125 67.234375 -0.0820312 C 70.347656 -0.101562 72.957031 0.925781 75.3125 2.96875 C 75.507812 3.117188 75.507812 3.117188 75.703125 3.269531 C 77.832031 5.039062 79.550781 8.050781 80 10.78125 C 80.015625 11.117188 80.019531 11.453125 80.019531 11.789062 C 80.023438 11.992188 80.023438 12.199219 80.023438 12.410156 C 80.023438 12.636719 80.023438 12.863281 80.023438 13.089844 C 80.023438 13.332031 80.023438 13.574219 80.023438 13.8125 C 80.027344 14.476562 80.027344 15.140625 80.027344 15.804688 C 80.027344 16.519531 80.03125 17.234375 80.03125 17.953125 C 80.035156 19.679688 80.035156 21.40625 80.035156 23.136719 C 80.039062 23.949219 80.039062 24.765625 80.039062 25.578125 C 80.042969 28.289062 80.042969 30.996094 80.046875 33.703125 C 80.046875 34.40625 80.046875 35.109375 80.046875 35.8125 C 80.046875 35.988281 80.046875 36.160156 80.046875 36.339844 C 80.046875 39.167969 80.050781 41.996094 80.058594 44.824219 C 80.0625 47.726562 80.066406 50.632812 80.066406 53.535156 C 80.066406 55.167969 80.066406 56.796875 80.070312 58.425781 C 80.074219 59.816406 80.074219 61.203125 80.074219 62.59375 C 80.074219 63.300781 80.074219 64.007812 80.078125 64.714844 C 80.078125 65.367188 80.078125 66.015625 80.078125 66.664062 C 80.078125 66.898438 80.078125 67.132812 80.078125 67.367188 C 80.09375 69.421875 79.757812 71.351562 78.777344 73.183594 C 78.726562 73.289062 78.671875 73.390625 78.617188 73.5 C 78.175781 74.332031 77.648438 75.066406 77.03125 75.78125 C 76.9375 75.90625 76.84375 76.027344 76.75 76.15625 C 74.855469 78.398438 71.816406 79.777344 68.929688 80.058594 C 68.296875 80.078125 67.664062 80.082031 67.027344 80.078125 C 66.785156 80.082031 66.539062 80.082031 66.296875 80.082031 C 65.636719 80.085938 64.972656 80.082031 64.3125 80.082031 C 63.59375 80.082031 62.878906 80.082031 62.160156 80.085938 C 60.757812 80.085938 59.359375 80.085938 57.957031 80.085938 C 56.816406 80.082031 55.679688 80.082031 54.539062 80.082031 C 54.375 80.082031 54.214844 80.082031 54.046875 80.082031 C 53.714844 80.085938 53.386719 80.085938 53.054688 80.085938 C 49.964844 80.085938 46.871094 80.085938 43.777344 80.082031 C 41.128906 80.078125 38.480469 80.078125 35.828125 80.082031 C 32.746094 80.085938 29.664062 80.085938 26.582031 80.085938 C 26.253906 80.085938 25.925781 80.082031 25.597656 80.082031 C 25.433594 80.082031 25.273438 80.082031 25.105469 80.082031 C 23.96875 80.082031 22.832031 80.082031 21.695312 80.085938 C 20.308594 80.085938 18.917969 80.085938 17.53125 80.082031 C 16.824219 80.082031 16.117188 80.082031 15.414062 80.082031 C 14.765625 80.085938 14.117188 80.082031 13.46875 80.082031 C 13.234375 80.078125 13 80.078125 12.765625 80.082031 C 9.652344 80.101562 7.042969 79.074219 4.6875 77.03125 C 4.558594 76.929688 4.429688 76.832031 4.296875 76.730469 C 2.167969 74.960938 0.449219 71.949219 0 69.21875 C -0.015625 68.882812 -0.0195312 68.546875 -0.0195312 68.210938 C -0.0234375 68.007812 -0.0234375 67.800781 -0.0234375 67.589844 C -0.0234375 67.363281 -0.0234375 67.136719 -0.0234375 66.910156 C -0.0234375 66.667969 -0.0234375 66.425781 -0.0234375 66.1875 C -0.0273438 65.523438 -0.0273438 64.859375 -0.0273438 64.195312 C -0.0273438 63.480469 -0.03125 62.765625 -0.03125 62.046875 C -0.0351562 60.320312 -0.0351562 58.59375 -0.0351562 56.863281 C -0.0390625 56.050781 -0.0390625 55.234375 -0.0390625 54.421875 C -0.0429688 51.710938 -0.0429688 49.003906 -0.046875 46.296875 C -0.046875 45.59375 -0.046875 44.890625 -0.046875 44.1875 C -0.046875 44.011719 -0.046875 43.839844 -0.046875 43.660156 C -0.046875 40.832031 -0.0507812 38.003906 -0.0585938 35.175781 C -0.0625 32.273438 -0.0664062 29.367188 -0.0664062 26.464844 C -0.0664062 24.832031 -0.0664062 23.203125 -0.0703125 21.574219 C -0.0742188 20.183594 -0.0742188 18.796875 -0.0742188 17.40625 C -0.0742188 16.699219 -0.0742188 15.992188 -0.078125 15.285156 C -0.078125 14.632812 -0.078125 13.984375 -0.078125 13.335938 C -0.078125 13.101562 -0.078125 12.867188 -0.078125 12.632812 C -0.09375 10.578125 0.242188 8.648438 1.21875 6.816406 C 1.273438 6.710938 1.328125 6.609375 1.382812 6.5 C 1.824219 5.667969 2.347656 4.929688 2.96875 4.21875 C 3.148438 3.992188 3.148438 3.992188 3.335938 3.761719 C 5.683594 0.945312 9.449219 -0.101562 12.972656 -0.078125 Z M 12.972656 -0.078125 "/>
<path style=" stroke:none;fill-rule:nonzero;fill:rgb(99.215686%,99.607843%,100%);fill-opacity:1;" d="M 47.1875 13.59375 C 47.316406 13.636719 47.445312 13.675781 47.574219 13.71875 C 54.859375 16.105469 60.875 21.058594 64.351562 27.917969 C 67.746094 34.859375 68.265625 43.566406 65.761719 50.875 C 63.222656 57.949219 58.210938 63.660156 51.40625 66.90625 C 49.109375 67.960938 45.851562 69.433594 43.28125 69.0625 C 42.414062 68.613281 41.765625 67.945312 41.40625 67.03125 C 41.359375 66.585938 41.324219 66.152344 41.308594 65.703125 C 41.300781 65.507812 41.300781 65.507812 41.292969 65.308594 C 41.273438 64.894531 41.261719 64.480469 41.25 64.0625 C 41.242188 63.855469 41.242188 63.855469 41.238281 63.640625 C 41.222656 63.226562 41.21875 62.816406 41.210938 62.402344 C 41.207031 62.277344 41.203125 62.152344 41.199219 62.023438 C 41.195312 60.949219 41.390625 59.972656 42.039062 59.101562 C 42.980469 58.382812 44.015625 57.980469 45.121094 57.585938 C 49.363281 56.085938 52.585938 53.324219 54.539062 49.238281 C 56.285156 45.308594 56.664062 40.5625 55.625 36.40625 C 55.582031 36.214844 55.542969 36.023438 55.5 35.828125 C 54.550781 31.800781 52.105469 28.328125 48.589844 26.140625 C 47.03125 25.214844 45.363281 24.507812 43.648438 23.917969 C 42.109375 23.375 42.109375 23.375 41.714844 22.6875 C 41.253906 21.441406 41.335938 20.070312 41.34375 18.761719 C 41.347656 18.351562 41.34375 17.9375 41.34375 17.527344 C 41.34375 17.261719 41.34375 16.992188 41.34375 16.726562 C 41.34375 16.605469 41.34375 16.484375 41.339844 16.359375 C 41.355469 15.367188 41.523438 14.371094 42.132812 13.5625 C 43.703125 12.398438 45.476562 13.042969 47.1875 13.59375 Z M 47.1875 13.59375 "/>
<path style=" stroke:none;fill-rule:nonzero;fill:rgb(99.215686%,99.607843%,100%);fill-opacity:1;" d="M 35.359375 13.222656 C 36.0625 13.84375 36.589844 14.351562 36.71875 15.3125 C 36.773438 16.191406 36.769531 17.074219 36.773438 17.957031 C 36.777344 18.242188 36.78125 18.53125 36.785156 18.816406 C 36.851562 22.019531 36.851562 22.019531 35.9375 23.125 C 35.253906 23.726562 34.453125 23.96875 33.601562 24.257812 C 29.1875 25.828125 25.660156 28.785156 23.613281 33.046875 C 23.058594 34.242188 22.640625 35.429688 22.34375 36.71875 C 22.304688 36.863281 22.304688 36.863281 22.261719 37.007812 C 21.953125 38.167969 21.976562 39.34375 21.984375 40.539062 C 21.984375 40.648438 21.984375 40.757812 21.984375 40.875 C 22.003906 45.265625 23.117188 49.507812 25.9375 52.96875 C 26.097656 53.167969 26.097656 53.167969 26.261719 53.371094 C 28.207031 55.65625 30.769531 57 33.585938 57.886719 C 34.777344 58.273438 35.855469 58.765625 36.5625 59.84375 C 36.757812 60.433594 36.742188 60.988281 36.746094 61.601562 C 36.746094 61.730469 36.746094 61.855469 36.746094 61.988281 C 36.746094 62.257812 36.746094 62.527344 36.746094 62.796875 C 36.746094 63.207031 36.75 63.617188 36.753906 64.023438 C 36.765625 67.316406 36.765625 67.316406 36.074219 68.273438 C 35.136719 68.945312 34.28125 69.160156 33.125 69.0625 C 32.527344 68.960938 31.945312 68.820312 31.359375 68.671875 C 31.191406 68.628906 31.027344 68.589844 30.859375 68.546875 C 29.304688 68.132812 27.855469 67.570312 26.40625 66.875 C 26.304688 66.828125 26.199219 66.777344 26.09375 66.726562 C 23.671875 65.5625 21.519531 63.976562 19.605469 62.097656 C 19.386719 61.886719 19.164062 61.675781 18.9375 61.46875 C 14.996094 57.707031 12.535156 52.625 11.40625 47.34375 C 11.382812 47.234375 11.359375 47.128906 11.335938 47.015625 C 10.585938 43.484375 10.554688 39.292969 11.40625 35.78125 C 11.4375 35.644531 11.472656 35.507812 11.503906 35.367188 C 12.199219 32.535156 13.15625 29.914062 14.53125 27.34375 C 14.582031 27.246094 14.632812 27.152344 14.6875 27.050781 C 15.410156 25.707031 16.238281 24.476562 17.1875 23.28125 C 17.292969 23.140625 17.402344 23.003906 17.511719 22.859375 C 19.722656 20.054688 22.394531 17.878906 25.46875 16.09375 C 25.628906 16 25.628906 16 25.789062 15.90625 C 27.488281 14.933594 29.238281 14.207031 31.09375 13.59375 C 31.199219 13.558594 31.304688 13.523438 31.414062 13.488281 C 34.09375 12.601562 34.09375 12.601562 35.359375 13.222656 Z M 35.359375 13.222656 "/>
</g>
</svg>
