<?xml version="1.0" encoding="UTF-8"?>
<svg xmlns="http://www.w3.org/2000/svg" xmlns:xlink="http://www.w3.org/1999/xlink" width="px" height="80px" viewBox="0 0 80 80" version="1.1">
<g id="surface1">
<path style="fill-rule:nonzero;fill:rgb(0%,0%,0%);fill-opacity:1;stroke-width:74;stroke-linecap:butt;stroke-linejoin:round;stroke:rgb(0%,0%,0%);stroke-opacity:1;stroke-miterlimit:4;" d="M 200.390625 39.306641 L 798.486328 39.306641 L 798.486328 477.099609 L 959.521484 477.099609 L 499.414062 960.107422 L 39.404297 477.001953 L 200.390625 477.001953 Z M 200.390625 39.306641 " transform="matrix(0.08,0,0,0.08,0,0)"/>
<path style=" stroke:none;fill-rule:evenodd;fill:rgb(100%,70.19608%,0%);fill-opacity:1;" d="M 16.03125 3.144531 L 63.878906 3.144531 L 63.878906 38.167969 L 76.761719 38.167969 L 39.953125 76.808594 L 3.152344 38.167969 L 16.03125 38.167969 Z M 16.03125 3.144531 "/>
<path style=" stroke:none;fill-rule:evenodd;fill:rgb(100%,79.215688%,15.686275%);fill-opacity:1;" d="M 39.953125 76.816406 L 16.089844 3.152344 L 63.824219 3.152344 Z M 39.953125 76.816406 "/>
<path style="fill-rule:nonzero;fill:rgb(0%,0%,0%);fill-opacity:1;stroke-width:74;stroke-linecap:round;stroke-linejoin:round;stroke:rgb(0%,0%,0%);stroke-opacity:1;stroke-miterlimit:4;" d="M 329.199219 843.505859 L 83.007812 843.505859 L 83.007812 791.699219 L 229.101562 791.699219 L 229.101562 745.800781 L 83.007812 745.800781 L 83.007812 596.923828 L 329.199219 596.923828 L 329.199219 648.388672 L 183.105469 648.388672 L 183.105469 694.287109 L 329.199219 694.287109 Z M 621.386719 843.505859 L 375.195312 843.505859 L 375.195312 694.287109 L 521.289062 694.287109 L 521.289062 648.388672 L 375.195312 648.388672 L 375.195312 596.923828 L 621.386719 596.923828 Z M 475.292969 745.703125 L 521.289062 745.703125 L 521.289062 791.699219 L 475.292969 791.699219 Z M 667.382812 843.505859 L 667.382812 499.511719 L 767.480469 499.511719 L 767.480469 596.923828 L 913.623047 596.923828 L 913.623047 843.505859 Z M 767.480469 648.291016 L 813.476562 648.291016 L 813.476562 791.699219 L 767.480469 791.699219 Z M 767.480469 648.291016 " transform="matrix(0.08,0,0,0.08,0,0)"/>
<path style=" stroke:none;fill-rule:evenodd;fill:rgb(100%,100%,100%);fill-opacity:1;" d="M 26.335938 67.480469 L 6.640625 67.480469 L 6.640625 63.335938 L 18.328125 63.335938 L 18.328125 59.664062 L 6.640625 59.664062 L 6.640625 47.753906 L 26.335938 47.753906 L 26.335938 51.871094 L 14.648438 51.871094 L 14.648438 55.542969 L 26.335938 55.542969 Z M 49.710938 67.480469 L 30.015625 67.480469 L 30.015625 55.542969 L 41.703125 55.542969 L 41.703125 51.871094 L 30.015625 51.871094 L 30.015625 47.753906 L 49.710938 47.753906 Z M 38.023438 63.335938 L 41.703125 63.335938 L 41.703125 59.65625 L 38.023438 59.65625 Z M 53.390625 67.488281 L 53.390625 39.96875 L 61.398438 39.96875 L 61.398438 47.761719 L 73.089844 47.761719 L 73.089844 67.488281 Z M 61.398438 63.335938 L 65.078125 63.335938 L 65.078125 51.871094 L 61.398438 51.871094 Z M 61.398438 63.335938 "/>
</g>
</svg>
