<?xml version="1.0" encoding="UTF-8"?>
<svg xmlns="http://www.w3.org/2000/svg" xmlns:xlink="http://www.w3.org/1999/xlink" width="px" height="80px" viewBox="0 0 80 80" version="1.1">
<g id="surface1">
<path style=" stroke:none;fill-rule:evenodd;fill:rgb(93.333334%,93.333334%,93.333334%);fill-opacity:1;" d="M 79.96875 40 C 79.96875 51 76.078125 60.4375 68.3125 68.296875 C 68.046875 68.609375 67.765625 68.890625 67.453125 69.140625 C 66.171875 70.390625 64.828125 71.53125 63.390625 72.546875 C 56.65625 77.515625 48.875 80 40.046875 80 C 31.203125 80 23.4375 77.515625 16.734375 72.546875 C 14.96875 71.296875 13.296875 69.875 11.75 68.28125 C 5.703125 62.296875 2 55.3125 0.625 47.375 C 0.359375 45.828125 0.171875 44.25 0.09375 42.65625 C 0.0625 41.765625 0.03125 40.890625 0.03125 40 C 0.03125 39.0625 0.046875 38.171875 0.09375 37.328125 C 0.09375 37.234375 0.125 37.15625 0.171875 37.0625 C 0.75 27.25 4.609375 18.78125 11.75 11.625 C 19.609375 3.875 29.03125 0 40.03125 0 C 51.078125 0 60.5 3.875 68.296875 11.640625 C 76.078125 19.546875 79.96875 29 79.96875 40 "/>
<path style=" stroke:none;fill-rule:evenodd;fill:rgb(22.745098%,24.705882%,31.764707%);fill-opacity:1;" d="M 71.828125 15.671875 L 63.5625 23.9375 C 58.734375 28.765625 58.3125 32.96875 58.3125 40.390625 C 58.3125 47 59.359375 53.0625 64.28125 57.984375 C 67.875 61.578125 71.296875 64.96875 71.296875 64.96875 C 70.375 66.09375 69.375 67.203125 68.3125 68.28125 C 68.046875 68.59375 67.765625 68.875 67.453125 69.125 C 66.515625 70.046875 65.546875 70.90625 64.546875 71.6875 L 58.078125 65.21875 C 52.328125 59.46875 47.75 58.90625 40.15625 58.90625 C 32.859375 58.90625 27.90625 59.578125 22.5625 64.921875 C 19.375 68.109375 15.71875 71.78125 15.71875 71.78125 C 14.328125 70.71875 13.015625 69.5625 11.765625 68.28125 C 10.734375 67.25 9.765625 66.1875 8.875 65.109375 C 8.875 65.109375 12.484375 61.484375 15.9375 58.03125 C 21.046875 52.921875 21.875 47 21.875 40.375 C 21.875 33.921875 20.8125 27.90625 16.125 23.203125 C 12.84375 19.953125 8.328125 15.46875 8.328125 15.46875 C 9.375 14.140625 10.515625 12.859375 11.734375 11.640625 C 12.8125 10.578125 13.921875 9.59375 15.046875 8.671875 L 22.546875 16.171875 C 27.34375 20.96875 33.484375 22.203125 40.109375 22.203125 C 46.921875 22.203125 53.046875 20.890625 58.03125 15.890625 C 61.09375 12.828125 65.15625 8.796875 65.15625 8.796875 C 66.21875 9.671875 67.265625 10.609375 68.296875 11.640625 C 69.59375 12.9375 70.765625 14.28125 71.828125 15.671875 "/>
<path style=" stroke:none;fill-rule:evenodd;fill:rgb(0%,80.000001%,100%);fill-opacity:1;" d="M 29.0625 42.046875 C 28.984375 41.609375 28.9375 41.1875 28.921875 40.734375 C 28.90625 40.484375 28.90625 40.25 28.90625 40 C 28.90625 39.734375 28.90625 39.5 28.921875 39.265625 C 28.921875 39.234375 28.921875 39.21875 28.9375 39.1875 C 29.09375 36.46875 30.171875 34.125 32.140625 32.140625 C 34.3125 29.984375 36.921875 28.90625 39.984375 28.90625 C 43.046875 28.90625 45.65625 29.984375 47.828125 32.140625 C 49.984375 34.328125 51.0625 36.953125 51.0625 40 C 51.0625 43.046875 49.984375 45.65625 47.828125 47.84375 C 47.75 47.921875 47.671875 48.015625 47.59375 48.078125 C 47.234375 48.421875 46.859375 48.734375 46.46875 49.015625 C 44.59375 50.390625 42.4375 51.078125 40 51.078125 C 36.34375 51.078125 35.40625 50.390625 33.546875 49.015625 C 33.0625 48.671875 32.59375 48.28125 32.15625 47.828125 C 30.46875 46.171875 29.453125 44.25 29.0625 42.046875 "/>
<path style="fill:none;stroke-width:2;stroke-linecap:butt;stroke-linejoin:miter;stroke:rgb(0%,80.000001%,100%);stroke-opacity:1;stroke-miterlimit:1;" d="M 372.7 141 L 337.3 175.6 M 72.9 76.8 L 169.4 172.9 M 369.1 371.8 L 434.7 439.7 M 439.1 76.4 L 372.7 141 M 76.6 438.5 L 141.2 373.8 " transform="matrix(0.15625,0,0,0.15625,0,0)"/>
<path style="fill:none;stroke-width:7;stroke-linecap:butt;stroke-linejoin:miter;stroke:rgb(0%,80.000001%,100%);stroke-opacity:1;stroke-miterlimit:1;" d="M 372.7 141 L 332.7 181.6 M 139.4 143.1 L 180 183.6 M 141 374 L 180.5 332.9 M 326.7 329.6 L 369.3 372 " transform="matrix(0.15625,0,0,0.15625,0,0)"/>
</g>
</svg>
