<?xml version="1.0" encoding="UTF-8"?>
<svg xmlns="http://www.w3.org/2000/svg" xmlns:xlink="http://www.w3.org/1999/xlink" width="80px" height="80px" viewBox="0 0 80 96" version="1.1">
<defs>
<linearGradient id="linear0" gradientUnits="userSpaceOnUse" x1="291.877014" y1="125.153999" x2="304.066986" y2="227.244995" gradientTransform="matrix(0.275275,0,0,-0.272759,-26.266752,130.22611)">
<stop offset="0" style="stop-color:rgb(86.27451%,94.509804%,95.294118%);stop-opacity:1;"/>
<stop offset="1" style="stop-color:rgb(76.078431%,76.078431%,78.823529%);stop-opacity:1;"/>
</linearGradient>
<linearGradient id="linear1" gradientUnits="userSpaceOnUse" x1="205.908005" y1="178.072998" x2="225.274002" y2="450.81601" gradientTransform="matrix(0.274953,0,0,-0.27259,-26.182218,130.15936)">
<stop offset="0" style="stop-color:rgb(86.27451%,94.509804%,95.294118%);stop-opacity:1;"/>
<stop offset="1" style="stop-color:rgb(76.078431%,76.078431%,78.823529%);stop-opacity:1;"/>
</linearGradient>
</defs>
<g id="surface1">
<path style=" stroke:none;fill-rule:nonzero;fill:rgb(75.294119%,13.333334%,13.725491%);fill-opacity:1;" d="M 58.175781 0.136719 L 8.625 10.953125 C 3.613281 12.0625 0.0390625 16.46875 0.0390625 21.566406 L 0.0390625 83.964844 C 0.0390625 88.40625 3.386719 92.117188 7.792969 92.625 L 33.796875 96 L 56.699219 73.40625 L 79.902344 49.820312 L 79.488281 14.125 C 79.429688 9.773438 75.363281 6.550781 71.089844 7.46875 L 65.339844 8.707031 L 65.378906 6.003906 C 65.4375 2.179688 61.898438 -0.667969 58.175781 0.136719 "/>
<path style=" stroke:none;fill-rule:nonzero;fill:rgb(53.333336%,14.117648%,14.509805%);fill-opacity:1;" d="M 65.417969 8.6875 L 65.417969 65.289062 L 79.960938 49.765625 L 79.542969 12.886719 C 79.507812 9.136719 76.007812 6.378906 72.320312 7.1875 Z M 65.417969 8.6875 "/>
<path style=" stroke:none;fill-rule:nonzero;fill:url(#linear0);" d="M 33.796875 96 L 72.699219 85.949219 L 79.960938 49.785156 Z M 33.796875 96 "/>
<path style=" stroke:none;fill-rule:nonzero;fill:url(#linear1);" d="M 45.371094 39.847656 C 45.371094 39.847656 40.925781 34.109375 37.636719 32.554688 C 35.535156 31.578125 32.433594 31.203125 29.996094 32.402344 C 26.402344 34.183594 26.023438 39.191406 29.332031 41.179688 C 30.109375 41.664062 31.167969 42.078125 32.53125 42.398438 C 39.847656 44.066406 51.933594 47.515625 50.457031 61.425781 C 50.457031 61.425781 49.605469 74.476562 35.765625 75.976562 C 33.324219 76.238281 30.847656 76.070312 28.484375 75.507812 C 25.191406 74.796875 19.386719 73.3125 16.550781 71.570312 L 16.019531 56.683594 L 17.417969 56.683594 C 17.417969 56.683594 20.179688 63.300781 28.027344 66.507812 C 29.484375 67.089844 31.074219 67.3125 32.625 67.089844 C 34.574219 66.808594 36.859375 65.757812 37.789062 62.625 C 37.789062 62.625 39.355469 58.050781 31.226562 55.539062 C 24.71875 53.515625 18.59375 51.453125 16.058594 44.648438 C 14.867188 41.421875 14.660156 37.859375 15.472656 34.429688 C 16.550781 29.964844 19.632812 23.683594 28.332031 20.984375 C 28.332031 20.984375 39.773438 17.910156 47.621094 22.074219 L 47.28125 39.847656 Z M 45.371094 39.847656 "/>
</g>
</svg>
