<?xml version="1.0" encoding="UTF-8"?>
<svg xmlns="http://www.w3.org/2000/svg" xmlns:xlink="http://www.w3.org/1999/xlink" width="118px" height="80px" viewBox="0 0 118 80" version="1.1">
<g id="surface1">
<path style=" stroke:none;fill-rule:nonzero;fill:rgb(32.549021%,73.725492%,91.764706%);fill-opacity:1;" d="M 44.800781 6.65625 C 38.433594 10.296875 33.195312 13.332031 33.140625 13.359375 C 33.027344 13.496094 43.230469 19.316406 43.5625 19.316406 C 43.699219 19.316406 46.703125 17.6875 50.175781 15.703125 L 56.519531 12.0625 L 56.519531 6.050781 C 56.519531 2.714844 56.488281 0.0078125 56.433594 0.0078125 C 56.410156 0.0078125 51.171875 2.988281 44.800781 6.65625 "/>
<path style=" stroke:none;fill-rule:nonzero;fill:rgb(21.568628%,57.647061%,82.745099%);fill-opacity:1;" d="M 61.207031 5.9375 L 61.207031 11.867188 L 62.253906 12.53125 C 64.375 13.910156 73.945312 19.316406 74.246094 19.316406 C 74.578125 19.316406 84.007812 13.992188 84.449219 13.550781 C 84.613281 13.386719 61.8125 0.0078125 61.34375 0.0078125 C 61.261719 0.0078125 61.207031 2.6875 61.207031 5.9375 "/>
<path style=" stroke:none;fill-rule:nonzero;fill:rgb(67.843139%,67.843139%,67.843139%);fill-opacity:1;" d="M 53.734375 19.121094 C 51.089844 20.667969 48.855469 22.046875 48.828125 22.210938 C 48.714844 22.542969 58.476562 28.167969 59.027344 28.058594 C 59.605469 27.976562 69.171875 22.539062 69.199219 22.292969 C 69.199219 22.074219 59.164062 16.28125 58.835938 16.308594 C 58.695312 16.308594 56.410156 17.605469 53.734375 19.121094 "/>
<path style=" stroke:none;fill-rule:nonzero;fill:rgb(32.549021%,73.725492%,91.764706%);fill-opacity:1;" d="M 14.003906 24.363281 C 7.664062 28.003906 2.566406 31.089844 2.699219 31.203125 C 3.140625 31.671875 12.570312 36.964844 12.902344 36.964844 C 13.285156 36.964844 24.644531 30.511719 25.445312 29.851562 C 25.859375 29.464844 25.914062 28.800781 25.914062 23.535156 C 25.914062 20.308594 25.832031 17.664062 25.71875 17.691406 C 25.585938 17.6875 20.316406 20.695312 14.003906 24.363281 "/>
<path style=" stroke:none;fill-rule:nonzero;fill:rgb(21.568628%,57.647061%,82.745099%);fill-opacity:1;" d="M 30.605469 23.644531 L 30.605469 29.683594 L 36.917969 33.324219 C 40.417969 35.339844 43.394531 36.964844 43.589844 36.964844 C 43.894531 36.964844 52.6875 32.058594 53.59375 31.367188 C 53.953125 31.089844 52.464844 30.128906 44.195312 25.382812 C 38.789062 22.265625 33.523438 19.261719 32.476562 18.679688 L 30.605469 17.605469 Z M 30.605469 23.644531 "/>
<path style=" stroke:none;fill-rule:nonzero;fill:rgb(32.549021%,73.725492%,91.764706%);fill-opacity:1;" d="M 75.597656 24.25 C 69.335938 27.890625 64.179688 30.953125 64.179688 31.0625 C 64.152344 31.203125 66.441406 32.636719 69.226562 34.265625 L 74.300781 37.1875 L 75.128906 36.691406 C 75.597656 36.414062 78.382812 34.816406 81.332031 33.105469 C 84.28125 31.394531 86.871094 29.878906 87.066406 29.742188 C 87.316406 29.523438 87.398438 27.949219 87.398438 23.5625 C 87.398438 20.308594 87.316406 17.664062 87.203125 17.691406 C 87.066406 17.6875 81.855469 20.636719 75.597656 24.25 "/>
<path style=" stroke:none;fill-rule:nonzero;fill:rgb(21.568628%,57.647061%,82.745099%);fill-opacity:1;" d="M 92.082031 23.671875 L 92.082031 29.742188 L 98.175781 33.242188 C 101.539062 35.171875 104.515625 36.828125 104.765625 36.882812 C 105.179688 36.992188 115.710938 31.230469 115.460938 31.035156 C 115.40625 30.980469 94.894531 19.230469 92.304688 17.742188 C 92.167969 17.6875 92.082031 20.363281 92.082031 23.671875 "/>
<path style=" stroke:none;fill-rule:nonzero;fill:rgb(67.843139%,67.843139%,67.843139%);fill-opacity:1;" d="M 22.9375 36.882812 C 18.855469 39.253906 17.949219 39.863281 18.25 40.136719 C 18.746094 40.632812 27.929688 45.875 28.257812 45.875 C 28.5625 45.875 37.714844 40.632812 38.265625 40.136719 C 38.511719 39.917969 37.464844 39.171875 33.605469 36.964844 C 30.847656 35.367188 28.449219 34.042969 28.28125 34.015625 C 28.121094 33.988281 25.722656 35.28125 22.9375 36.882812 M 84.5 36.828125 C 81.773438 38.398438 79.511719 39.777344 79.484375 39.917969 C 79.429688 40.027344 81.71875 41.460938 84.558594 43.0625 L 89.683594 45.984375 L 94.675781 43.117188 C 97.433594 41.515625 99.75 40.136719 99.886719 40.027344 C 100.054688 39.863281 90.015625 33.933594 89.605469 33.933594 C 89.519531 33.933594 87.234375 35.226562 84.5 36.828125 "/>
<path style=" stroke:none;fill-rule:nonzero;fill:rgb(21.568628%,57.647061%,82.745099%);fill-opacity:1;" d="M 0.0546875 41.378906 L 0.136719 47.472656 L 12.820312 54.78125 C 19.796875 58.78125 25.585938 62.0625 25.695312 62.0625 C 25.832031 62.0625 25.886719 59.363281 25.859375 56.078125 L 25.777344 50.09375 L 14.335938 43.53125 C 8.050781 39.890625 2.234375 36.554688 1.433594 36.109375 L 0 35.253906 Z M 0.0546875 41.378906 "/>
<path style=" stroke:none;fill-rule:nonzero;fill:rgb(32.549021%,73.725492%,91.764706%);fill-opacity:1;" d="M 104.960938 42.675781 L 92.113281 50.066406 L 92.082031 56.050781 C 92.082031 59.363281 92.167969 62.0625 92.25 62.0625 C 92.332031 62.0625 98.175781 58.753906 105.207031 54.699219 L 118 47.363281 L 118 41.324219 C 118 38.011719 117.972656 35.3125 117.917969 35.3125 C 117.890625 35.3125 112.042969 38.621094 104.960938 42.675781 M 44.746094 42.152344 C 38.511719 45.734375 33.332031 48.742188 33.25 48.824219 C 33.195312 48.910156 35.484375 50.316406 38.351562 51.96875 L 43.589844 54.949219 L 50.039062 51.28125 L 56.488281 47.585938 L 56.519531 41.574219 C 56.519531 38.289062 56.433594 35.585938 56.324219 35.585938 C 56.1875 35.585938 51.003906 38.539062 44.746094 42.152344 "/>
<path style=" stroke:none;fill-rule:nonzero;fill:rgb(21.568628%,57.647061%,82.745099%);fill-opacity:1;" d="M 61.207031 41.351562 L 61.207031 47.140625 L 61.976562 47.664062 C 62.390625 47.941406 65.339844 49.707031 68.566406 51.527344 L 74.410156 54.894531 L 79.539062 51.941406 C 83.59375 49.625 84.585938 48.9375 84.308594 48.6875 C 83.816406 48.21875 61.757812 35.585938 61.453125 35.585938 C 61.316406 35.585938 61.207031 38.070312 61.207031 41.351562 "/>
<path style=" stroke:none;fill-rule:nonzero;fill:rgb(67.843139%,67.843139%,67.843139%);fill-opacity:1;" d="M 53.761719 54.644531 C 51.117188 56.160156 48.855469 57.511719 48.742188 57.625 C 48.578125 57.761719 57.621094 63.222656 58.777344 63.664062 C 59.054688 63.773438 69.199219 57.953125 69.199219 57.707031 C 69.171875 57.429688 59.386719 51.859375 58.945312 51.859375 C 58.75 51.859375 56.410156 53.101562 53.761719 54.644531 "/>
<path style=" stroke:none;fill-rule:nonzero;fill:rgb(21.568628%,57.647061%,82.745099%);fill-opacity:1;" d="M 30.65625 59.222656 L 30.738281 65.234375 L 42.59375 72.074219 C 49.128906 75.828125 54.917969 79.164062 55.5 79.46875 L 56.519531 79.992188 L 56.519531 67.9375 L 43.753906 60.574219 C 36.726562 56.546875 30.878906 53.238281 30.769531 53.238281 C 30.683594 53.238281 30.628906 55.941406 30.65625 59.222656 "/>
<path style=" stroke:none;fill-rule:nonzero;fill:rgb(32.549021%,73.725492%,91.764706%);fill-opacity:1;" d="M 74.714844 60.214844 C 68.097656 64.050781 62.363281 67.386719 61.949219 67.664062 L 61.207031 68.132812 L 61.207031 74.0625 C 61.207031 77.316406 61.261719 79.992188 61.34375 79.992188 C 61.425781 79.992188 67.273438 76.679688 74.300781 72.628906 L 87.121094 65.234375 L 87.121094 59.25 C 87.121094 55.941406 87.039062 53.238281 86.929688 53.265625 C 86.789062 53.265625 81.304688 56.410156 74.714844 60.214844 "/>
</g>
</svg>
