<?xml version="1.0" encoding="UTF-8"?>
<svg xmlns="http://www.w3.org/2000/svg" xmlns:xlink="http://www.w3.org/1999/xlink" width="80px" height="80px" viewBox="0 0 80 80" version="1.1">
<g id="surface1">
<path style=" stroke:none;fill-rule:evenodd;fill:rgb(3.137255%,42.745098%,83.92157%);fill-opacity:1;" d="M 0 16.03125 C 0 7.21875 7.15625 0.0625 16 0.0625 L 64 0.0625 C 72.84375 0.0625 80 7.21875 80 16.03125 L 80 63.953125 C 80 72.78125 72.84375 79.921875 64 79.921875 L 16 79.921875 C 7.15625 79.9375 0 72.78125 0 63.96875 Z M 16 7.046875 L 64 7.046875 C 68.96875 7.046875 73 11.0625 73 16.03125 L 73 63.953125 C 73 68.921875 68.96875 72.9375 64 72.9375 L 16 72.9375 C 11.03125 72.9375 7 68.921875 7 63.953125 L 7 16.03125 C 7 11.078125 11.03125 7.046875 16 7.046875 M 48.453125 38 L 48.453125 56.703125 L 55.4375 56.703125 L 55.4375 38 C 55.4375 29.546875 48.40625 22.703125 39.71875 22.703125 C 31.03125 22.703125 24 29.546875 24 38 L 24 56.703125 L 30.984375 56.703125 L 30.984375 38 C 30.984375 33.3125 34.890625 29.5 39.71875 29.5 C 44.546875 29.5 48.453125 33.296875 48.453125 38 "/>
</g>
</svg>
