<?xml version="1.0" encoding="UTF-8"?>
<svg xmlns="http://www.w3.org/2000/svg" xmlns:xlink="http://www.w3.org/1999/xlink" width="80px" height="80px" viewBox="0 0 80 80" version="1.1">
<g id="surface1">
<path style=" stroke:none;fill-rule:nonzero;fill:rgb(0%,0%,0%);fill-opacity:1;" d="M 79.453125 39.019531 L 76.09375 36.941406 C 76.066406 36.613281 76.035156 36.289062 76 35.960938 L 78.886719 33.269531 C 79.179688 32.996094 79.308594 32.589844 79.230469 32.199219 C 79.152344 31.804688 78.878906 31.480469 78.503906 31.339844 L 74.8125 29.960938 C 74.71875 29.640625 74.625 29.324219 74.523438 29.007812 L 76.824219 25.8125 C 77.328125 25.117188 76.921875 24.132812 76.074219 23.996094 L 72.183594 23.363281 C 72.03125 23.066406 71.875 22.777344 71.714844 22.488281 L 73.351562 18.898438 C 73.515625 18.535156 73.484375 18.109375 73.257812 17.777344 C 73.039062 17.445312 72.660156 17.25 72.257812 17.265625 L 68.308594 17.402344 C 68.105469 17.148438 67.898438 16.894531 67.6875 16.644531 L 68.59375 12.800781 C 68.683594 12.410156 68.570312 12 68.285156 11.71875 C 68.003906 11.433594 67.59375 11.316406 67.203125 11.410156 L 63.359375 12.316406 C 63.109375 12.105469 62.855469 11.894531 62.597656 11.691406 L 62.738281 7.742188 C 62.753906 7.34375 62.558594 6.964844 62.226562 6.742188 C 61.890625 6.519531 61.46875 6.484375 61.101562 6.652344 L 57.515625 8.285156 C 57.226562 8.125 56.933594 7.96875 56.640625 7.816406 L 56.007812 3.925781 C 55.867188 3.078125 54.886719 2.671875 54.191406 3.175781 L 50.992188 5.476562 C 50.679688 5.375 50.359375 5.28125 50.042969 5.1875 L 48.664062 1.496094 C 48.523438 1.121094 48.199219 0.84375 47.804688 0.765625 C 47.410156 0.691406 47.007812 0.820312 46.734375 1.113281 L 44.042969 4 C 43.714844 3.964844 43.390625 3.933594 43.0625 3.90625 L 40.984375 0.546875 C 40.53125 -0.183594 39.472656 -0.183594 39.019531 0.546875 L 36.941406 3.90625 C 36.613281 3.933594 36.289062 3.964844 35.960938 4 L 33.269531 1.113281 C 32.683594 0.484375 31.640625 0.691406 31.339844 1.496094 L 29.960938 5.1875 C 29.640625 5.28125 29.324219 5.375 29.011719 5.476562 L 25.8125 3.175781 C 25.488281 2.941406 25.0625 2.890625 24.695312 3.042969 C 24.324219 3.199219 24.058594 3.53125 23.996094 3.925781 L 23.359375 7.816406 C 23.066406 7.96875 22.777344 8.125 22.488281 8.285156 L 18.898438 6.652344 C 18.535156 6.484375 18.109375 6.519531 17.777344 6.742188 C 17.445312 6.964844 17.25 7.34375 17.265625 7.742188 L 17.402344 11.691406 C 17.148438 11.894531 16.894531 12.105469 16.644531 12.316406 L 12.796875 11.410156 C 12.410156 11.316406 12 11.433594 11.714844 11.71875 C 11.433594 12 11.316406 12.410156 11.40625 12.800781 L 12.3125 16.644531 C 12.101562 16.894531 11.894531 17.148438 11.691406 17.402344 L 7.742188 17.265625 C 7.34375 17.253906 6.964844 17.445312 6.742188 17.777344 C 6.519531 18.109375 6.484375 18.535156 6.648438 18.898438 L 8.285156 22.488281 C 8.125 22.777344 7.96875 23.066406 7.816406 23.363281 L 3.925781 23.996094 C 3.078125 24.132812 2.671875 25.117188 3.175781 25.8125 L 5.476562 29.007812 C 5.375 29.324219 5.277344 29.640625 5.1875 29.960938 L 1.496094 31.339844 C 0.695312 31.644531 0.488281 32.683594 1.113281 33.269531 L 4 35.960938 C 3.964844 36.285156 3.933594 36.613281 3.90625 36.941406 L 0.546875 39.019531 C 0.207031 39.230469 0 39.601562 0 40 C 0 40.402344 0.207031 40.773438 0.546875 40.984375 L 3.90625 43.0625 C 3.933594 43.390625 3.964844 43.714844 4 44.042969 L 1.113281 46.734375 C 0.484375 47.320312 0.691406 48.363281 1.496094 48.660156 L 5.1875 50.042969 C 5.277344 50.359375 5.375 50.679688 5.476562 50.992188 L 3.175781 54.191406 C 2.671875 54.886719 3.078125 55.871094 3.929688 56.007812 L 7.816406 56.640625 C 7.96875 56.933594 8.125 57.226562 8.285156 57.515625 L 6.648438 61.101562 C 6.484375 61.46875 6.519531 61.890625 6.742188 62.222656 C 6.964844 62.558594 7.34375 62.753906 7.742188 62.738281 L 11.6875 62.597656 C 11.894531 62.855469 12.101562 63.105469 12.3125 63.355469 L 11.40625 67.203125 C 11.316406 67.59375 11.433594 68.003906 11.714844 68.285156 C 12 68.570312 12.410156 68.6875 12.796875 68.59375 L 16.644531 67.6875 C 16.894531 67.898438 17.148438 68.105469 17.402344 68.308594 L 17.265625 72.257812 C 17.234375 73.117188 18.117188 73.707031 18.898438 73.347656 L 22.488281 71.714844 C 22.777344 71.875 23.066406 72.03125 23.359375 72.183594 L 23.996094 76.070312 C 24.058594 76.46875 24.324219 76.800781 24.695312 76.953125 C 25.0625 77.109375 25.488281 77.058594 25.8125 76.824219 L 29.007812 74.523438 C 29.324219 74.621094 29.640625 74.71875 29.960938 74.8125 L 31.339844 78.5 C 31.480469 78.875 31.804688 79.152344 32.199219 79.230469 C 32.589844 79.308594 32.996094 79.179688 33.269531 78.882812 L 35.960938 75.996094 C 36.285156 76.035156 36.613281 76.066406 36.941406 76.09375 L 39.019531 79.453125 C 39.230469 79.792969 39.601562 80 40 80 C 40.402344 80 40.773438 79.792969 40.984375 79.453125 L 43.0625 76.09375 C 43.390625 76.066406 43.71875 76.035156 44.042969 75.996094 L 46.734375 78.882812 C 47.007812 79.175781 47.410156 79.308594 47.804688 79.230469 C 48.195312 79.152344 48.519531 78.875 48.660156 78.5 L 50.039062 74.8125 C 50.359375 74.71875 50.679688 74.621094 50.992188 74.523438 L 54.191406 76.824219 C 54.886719 77.328125 55.871094 76.921875 56.007812 76.070312 L 56.640625 72.183594 C 56.933594 72.03125 57.226562 71.871094 57.515625 71.714844 L 61.101562 73.347656 C 61.882812 73.707031 62.769531 73.117188 62.738281 72.257812 L 62.597656 68.308594 C 62.855469 68.105469 63.109375 67.898438 63.355469 67.6875 L 67.203125 68.59375 C 67.59375 68.683594 68.003906 68.570312 68.285156 68.285156 C 68.566406 68.003906 68.683594 67.59375 68.59375 67.203125 L 67.6875 63.355469 C 67.898438 63.105469 68.105469 62.855469 68.308594 62.597656 L 72.257812 62.738281 C 72.65625 62.753906 73.035156 62.558594 73.257812 62.226562 C 73.480469 61.890625 73.515625 61.464844 73.347656 61.101562 L 71.714844 57.515625 C 71.875 57.226562 72.03125 56.933594 72.183594 56.640625 L 76.074219 56.007812 C 76.46875 55.945312 76.800781 55.679688 76.953125 55.308594 C 77.109375 54.9375 77.058594 54.515625 76.824219 54.191406 L 74.523438 50.992188 C 74.621094 50.679688 74.71875 50.359375 74.8125 50.042969 L 78.5 48.660156 C 78.878906 48.523438 79.152344 48.199219 79.230469 47.804688 C 79.308594 47.410156 79.179688 47.007812 78.882812 46.734375 L 76 44.042969 C 76.035156 43.714844 76.066406 43.390625 76.09375 43.0625 L 79.453125 40.984375 C 79.792969 40.773438 80 40.402344 80 40 C 80 39.601562 79.792969 39.230469 79.453125 39.019531 M 56.972656 66.878906 C 55.691406 66.601562 54.875 65.339844 55.152344 64.054688 C 55.425781 62.769531 56.6875 61.949219 57.972656 62.226562 C 59.253906 62.5 60.070312 63.765625 59.796875 65.050781 C 59.519531 66.335938 58.257812 67.15625 56.972656 66.878906 M 16.035156 34.328125 C 17.132812 33.839844 17.625 32.558594 17.136719 31.464844 C 17.136719 31.464844 14.871094 26.429688 14.941406 25.894531 C 15.417969 22.15625 18.25 18.679688 21.363281 15.953125 C 24.5625 13.152344 30.441406 12.003906 34.183594 10.988281 C 34.449219 10.917969 38.234375 14.835938 38.234375 14.835938 C 38.628906 15.25 39.175781 15.492188 39.75 15.503906 C 40.324219 15.519531 40.878906 15.300781 41.296875 14.90625 L 45.390625 10.988281 C 53.964844 12.585938 61.226562 17.925781 65.410156 25.25 L 62.609375 31.578125 C 62.125 32.675781 62.621094 33.957031 63.710938 34.441406 L 69.105469 36.835938 C 69.199219 37.792969 69.25 38.761719 69.25 39.742188 C 70 46.914062 66.695312 54.457031 60.859375 60.242188 L 55.832031 59.160156 C 55.269531 59.039062 54.683594 59.148438 54.203125 59.460938 C 53.71875 59.773438 53.382812 60.265625 53.261719 60.828125 L 52.070312 66.390625 C 48.390625 68.0625 44.304688 68.988281 40 68.988281 C 35.597656 68.988281 31.421875 68.015625 27.679688 66.273438 L 26.484375 60.710938 C 26.234375 59.539062 25.085938 58.792969 23.914062 59.046875 L 19.003906 60.101562 C 14.109375 54.582031 10.878906 46.007812 10.753906 39.742188 C 10.753906 38.679688 10.808594 37.632812 10.917969 36.601562 Z M 22.773438 66.765625 C 21.492188 67.042969 20.226562 66.222656 19.953125 64.9375 C 19.679688 63.652344 20.492188 62.386719 21.777344 62.109375 C 23.058594 61.835938 24.324219 62.65625 24.597656 63.9375 C 24.871094 65.222656 24.054688 66.488281 22.773438 66.765625 Z M 13.707031 29.996094 C 14.238281 31.195312 13.695312 32.601562 12.496094 33.132812 C 11.296875 33.667969 9.894531 33.125 9.363281 31.921875 C 8.832031 30.722656 9.371094 29.316406 10.570312 28.785156 C 11.773438 28.253906 13.175781 28.796875 13.707031 29.996094 Z M 38.234375 7.734375 C 39.183594 6.824219 40.6875 6.859375 41.59375 7.808594 C 42.5 8.761719 42.464844 10.265625 41.515625 11.175781 C 40.566406 12.082031 39.0625 12.046875 38.15625 11.097656 C 37.25 10.144531 37.285156 8.640625 38.234375 7.734375 M 66.042969 30.109375 C 66.296875 29.535156 66.769531 29.082031 67.359375 28.855469 C 67.945312 28.628906 68.601562 28.644531 69.175781 28.902344 C 70.375 29.433594 70.917969 30.839844 70.382812 32.039062 C 70.128906 32.617188 69.65625 33.070312 69.070312 33.296875 C 68.480469 33.523438 67.824219 33.507812 67.25 33.25 C 66.050781 32.71875 65.511719 31.3125 66.042969 30.109375 "/>
<path style=" stroke:none;fill-rule:nonzero;fill:rgb(0%,0%,0%);fill-opacity:1;" d="M 12.613281 17.582031 L 23.695312 12.257812 L 39.882812 55.960938 L 54.597656 14.257812 L 67.117188 17.582031 L 47.859375 69.578125 L 31.875 69.578125 Z M 12.613281 17.582031 "/>
</g>
</svg>
