<?xml version="1.0" encoding="UTF-8"?>
<svg xmlns="http://www.w3.org/2000/svg" xmlns:xlink="http://www.w3.org/1999/xlink" width="px" height="80px" viewBox="0 0 80 79" version="1.1">
<g id="surface1">
<path style=" stroke:none;fill-rule:nonzero;fill:rgb(55.686277%,74.509805%,97.647059%);fill-opacity:1;" d="M 37.988281 -0.0664062 C 38.09375 -0.0703125 38.203125 -0.0703125 38.308594 -0.0703125 C 38.652344 -0.0742188 38.992188 -0.0703125 39.332031 -0.0703125 C 39.445312 -0.0664062 39.5625 -0.0664062 39.683594 -0.0664062 C 42.285156 -0.0507812 45.09375 0.0585938 47.132812 1.886719 C 47.402344 2.191406 47.402344 2.191406 47.402344 2.503906 C 47.503906 2.503906 47.609375 2.503906 47.714844 2.503906 C 47.820312 2.761719 47.925781 3.019531 48.03125 3.285156 C 48.136719 3.285156 48.238281 3.285156 48.347656 3.285156 C 48.550781 3.515625 48.550781 3.515625 48.761719 3.8125 C 48.832031 3.910156 48.898438 4.007812 48.972656 4.109375 C 49.132812 4.378906 49.132812 4.378906 49.132812 4.691406 C 49.238281 4.691406 49.339844 4.691406 49.449219 4.691406 C 49.863281 5.066406 49.863281 5.066406 50.234375 5.476562 C 50.234375 5.578125 50.234375 5.683594 50.234375 5.789062 C 50.339844 5.789062 50.445312 5.789062 50.550781 5.789062 C 50.65625 6.046875 50.757812 6.304688 50.867188 6.570312 C 50.96875 6.570312 51.074219 6.570312 51.179688 6.570312 C 51.3125 6.835938 51.3125 6.835938 51.445312 7.109375 C 51.753906 7.722656 52.09375 8.316406 52.449219 8.90625 C 52.597656 9.230469 52.597656 9.230469 52.597656 9.855469 C 52.703125 9.855469 52.804688 9.855469 52.914062 9.855469 C 52.957031 9.949219 53.003906 10.042969 53.046875 10.140625 C 53.253906 10.570312 53.457031 11 53.660156 11.429688 C 53.730469 11.578125 53.800781 11.722656 53.871094 11.875 C 54.179688 12.519531 54.488281 13.152344 54.855469 13.765625 C 55.117188 14.234375 55.117188 14.234375 55.117188 14.703125 C 55.222656 14.703125 55.324219 14.703125 55.433594 14.703125 C 55.433594 14.910156 55.433594 15.117188 55.433594 15.332031 C 55.535156 15.332031 55.640625 15.332031 55.746094 15.332031 C 55.828125 15.503906 55.90625 15.675781 55.992188 15.851562 C 56.550781 17.054688 57.117188 18.238281 57.789062 19.382812 C 57.953125 19.710938 57.953125 19.710938 57.953125 20.179688 C 58.058594 20.179688 58.160156 20.179688 58.269531 20.179688 C 58.367188 20.417969 58.367188 20.417969 58.472656 20.664062 C 59.109375 22.140625 59.886719 23.554688 60.660156 24.964844 C 61.027344 25.65625 61.375 26.351562 61.722656 27.050781 C 62.082031 27.761719 62.453125 28.464844 62.835938 29.164062 C 63.347656 30.105469 63.808594 31.066406 64.261719 32.039062 C 64.660156 32.886719 65.09375 33.707031 65.546875 34.523438 C 65.859375 35.101562 66.15625 35.6875 66.445312 36.273438 C 66.914062 37.210938 67.398438 38.132812 67.898438 39.054688 C 68.207031 39.628906 68.507812 40.207031 68.800781 40.789062 C 69.210938 41.621094 69.644531 42.4375 70.078125 43.253906 C 70.671875 44.367188 71.25 45.488281 71.8125 46.617188 C 72.53125 48.0625 73.265625 49.5 74.039062 50.917969 C 74.355469 51.515625 74.660156 52.113281 74.960938 52.71875 C 76.292969 55.421875 76.292969 55.421875 77.804688 58.027344 C 78.382812 58.976562 78.804688 59.976562 79.210938 61.011719 C 79.289062 61.1875 79.367188 61.367188 79.445312 61.550781 C 80.4375 64.152344 80.359375 67.445312 79.527344 70.082031 C 79.488281 70.230469 79.449219 70.375 79.410156 70.523438 C 78.957031 72.09375 78.109375 73.507812 77.324219 74.933594 C 77.21875 74.933594 77.113281 74.933594 77.007812 74.933594 C 76.902344 75.191406 76.800781 75.449219 76.691406 75.714844 C 76.589844 75.714844 76.484375 75.714844 76.378906 75.714844 C 76.378906 75.816406 76.378906 75.921875 76.378906 76.027344 C 76.273438 76.027344 76.171875 76.027344 76.0625 76.027344 C 76.0625 76.132812 76.0625 76.234375 76.0625 76.339844 C 75.960938 76.339844 75.855469 76.339844 75.746094 76.339844 C 75.746094 76.445312 75.746094 76.546875 75.746094 76.652344 C 75.441406 76.9375 75.113281 77.175781 74.777344 77.421875 C 74.484375 77.632812 74.199219 77.851562 73.917969 78.078125 C 72.640625 79.03125 71.636719 79.171875 70.070312 79.132812 C 69.824219 79.132812 69.582031 79.132812 69.335938 79.128906 C 68.644531 79.128906 67.949219 79.117188 67.257812 79.105469 C 66.484375 79.09375 65.710938 79.089844 64.933594 79.082031 C 63.453125 79.070312 61.96875 79.054688 60.488281 79.035156 C 58.519531 79.007812 56.550781 78.984375 54.582031 78.964844 C 54.441406 78.964844 54.300781 78.964844 54.15625 78.960938 C 53.429688 78.953125 52.699219 78.949219 51.96875 78.941406 C 50.445312 78.925781 48.921875 78.910156 47.398438 78.894531 C 47.246094 78.890625 47.089844 78.890625 46.929688 78.886719 C 44.5625 78.863281 42.195312 78.835938 39.828125 78.808594 C 38.570312 78.792969 37.3125 78.777344 36.058594 78.765625 C 35.902344 78.761719 35.746094 78.761719 35.589844 78.757812 C 31.507812 78.710938 27.429688 78.675781 23.347656 78.660156 C 22.636719 78.660156 21.925781 78.65625 21.210938 78.652344 C 20.871094 78.652344 20.527344 78.648438 20.1875 78.648438 C 19.964844 78.648438 19.742188 78.648438 19.515625 78.644531 C 18.144531 78.640625 16.769531 78.636719 15.398438 78.640625 C 14.632812 78.640625 13.867188 78.636719 13.105469 78.632812 C 12.757812 78.632812 12.410156 78.632812 12.0625 78.632812 C 8.828125 78.648438 8.828125 78.648438 7.558594 77.75 C 7.359375 77.636719 7.160156 77.527344 6.960938 77.421875 C 6.785156 77.320312 6.609375 77.21875 6.425781 77.113281 C 6.25 77.011719 6.070312 76.910156 5.890625 76.804688 C 5.710938 76.703125 5.535156 76.601562 5.355469 76.496094 C 5.15625 76.386719 4.960938 76.277344 4.765625 76.167969 C 4.289062 75.890625 3.871094 75.613281 3.464844 75.246094 C 3.464844 75.140625 3.464844 75.039062 3.464844 74.933594 C 3.332031 74.882812 3.332031 74.882812 3.199219 74.835938 C 2.683594 74.53125 2.410156 74.160156 2.046875 73.679688 C 2.046875 73.578125 2.046875 73.476562 2.046875 73.367188 C 1.941406 73.367188 1.839844 73.367188 1.730469 73.367188 C 1.128906 72.425781 0.796875 71.460938 0.472656 70.394531 C 0.425781 70.257812 0.378906 70.117188 0.328125 69.972656 C -0.339844 67.789062 -0.109375 65.382812 0.347656 63.179688 C 0.460938 62.621094 0.539062 62.070312 0.609375 61.507812 C 0.859375 59.902344 1.597656 58.5625 2.449219 57.191406 C 2.648438 56.835938 2.761719 56.558594 2.835938 56.160156 C 2.9375 56.160156 3.042969 56.160156 3.148438 56.160156 C 3.179688 55.984375 3.179688 55.984375 3.207031 55.808594 C 3.300781 55.410156 3.421875 55.109375 3.621094 54.753906 C 3.726562 54.753906 3.828125 54.753906 3.9375 54.753906 C 3.964844 54.582031 3.964844 54.582031 3.992188 54.40625 C 4.097656 53.957031 4.246094 53.648438 4.476562 53.246094 C 4.941406 52.425781 5.386719 51.597656 5.828125 50.761719 C 6.335938 49.796875 6.851562 48.835938 7.390625 47.890625 C 7.550781 47.570312 7.644531 47.28125 7.714844 46.929688 C 7.820312 46.929688 7.925781 46.929688 8.03125 46.929688 C 8.0625 46.800781 8.0625 46.800781 8.089844 46.667969 C 8.199219 46.269531 8.34375 45.902344 8.503906 45.523438 C 8.609375 45.523438 8.710938 45.523438 8.820312 45.523438 C 8.835938 45.414062 8.851562 45.304688 8.867188 45.195312 C 8.996094 44.664062 9.207031 44.238281 9.457031 43.753906 C 9.546875 43.585938 9.632812 43.417969 9.71875 43.246094 C 9.785156 43.121094 9.851562 42.992188 9.921875 42.863281 C 10.023438 42.863281 10.128906 42.863281 10.234375 42.863281 C 10.234375 42.65625 10.234375 42.449219 10.234375 42.238281 C 10.339844 42.238281 10.445312 42.238281 10.550781 42.238281 C 10.566406 42.125 10.582031 42.015625 10.601562 41.898438 C 10.722656 41.398438 10.917969 41.0625 11.191406 40.625 C 11.628906 39.902344 12.027344 39.171875 12.402344 38.414062 C 12.988281 37.230469 13.601562 36.0625 14.222656 34.898438 C 14.328125 34.699219 14.328125 34.699219 14.4375 34.496094 C 14.53125 34.320312 14.53125 34.320312 14.628906 34.140625 C 14.8125 33.769531 14.96875 33.394531 15.117188 33.007812 C 15.222656 33.007812 15.324219 33.007812 15.433594 33.007812 C 15.453125 32.890625 15.472656 32.777344 15.492188 32.65625 C 15.582031 32.257812 15.707031 31.957031 15.90625 31.601562 C 16.007812 31.601562 16.113281 31.601562 16.21875 31.601562 C 16.234375 31.496094 16.246094 31.394531 16.257812 31.289062 C 16.421875 30.648438 16.714844 30.101562 17.019531 29.515625 C 17.078125 29.402344 17.136719 29.285156 17.199219 29.167969 C 17.34375 28.882812 17.492188 28.597656 17.636719 28.316406 C 17.742188 28.316406 17.84375 28.316406 17.953125 28.316406 C 17.96875 28.203125 17.988281 28.089844 18.003906 27.976562 C 18.121094 27.492188 18.296875 27.140625 18.542969 26.710938 C 18.667969 26.488281 18.667969 26.488281 18.796875 26.257812 C 18.960938 25.976562 19.125 25.691406 19.285156 25.410156 C 19.355469 25.289062 19.425781 25.164062 19.496094 25.039062 C 19.5625 24.929688 19.625 24.824219 19.6875 24.710938 C 19.84375 24.402344 19.929688 24.117188 20 23.777344 C 20.105469 23.777344 20.207031 23.777344 20.316406 23.777344 C 20.335938 23.6875 20.355469 23.597656 20.375 23.503906 C 20.472656 23.148438 20.605469 22.863281 20.78125 22.539062 C 20.84375 22.421875 20.902344 22.308594 20.96875 22.191406 C 21.03125 22.074219 21.09375 21.953125 21.160156 21.832031 C 21.222656 21.714844 21.289062 21.597656 21.351562 21.476562 C 21.613281 20.992188 21.878906 20.511719 22.164062 20.039062 C 22.359375 19.71875 22.453125 19.453125 22.519531 19.085938 C 22.625 19.085938 22.726562 19.085938 22.835938 19.085938 C 22.851562 18.972656 22.867188 18.859375 22.882812 18.746094 C 23.007812 18.246094 23.203125 17.910156 23.472656 17.472656 C 23.910156 16.75 24.3125 16.019531 24.683594 15.261719 C 25.269531 14.078125 25.882812 12.910156 26.507812 11.746094 C 26.578125 11.613281 26.648438 11.480469 26.722656 11.34375 C 26.785156 11.226562 26.847656 11.109375 26.910156 10.988281 C 27.097656 10.617188 27.25 10.242188 27.402344 9.855469 C 27.503906 9.855469 27.609375 9.855469 27.714844 9.855469 C 27.75 9.671875 27.75 9.671875 27.785156 9.484375 C 27.875 9.074219 27.875 9.074219 28.03125 8.761719 C 28.136719 8.761719 28.238281 8.761719 28.347656 8.761719 C 28.398438 8.609375 28.398438 8.609375 28.453125 8.457031 C 28.738281 7.800781 29.09375 7.191406 29.449219 6.570312 C 29.535156 6.414062 29.625 6.253906 29.714844 6.089844 C 29.78125 5.992188 29.851562 5.890625 29.921875 5.789062 C 30.023438 5.789062 30.128906 5.789062 30.234375 5.789062 C 30.234375 5.683594 30.234375 5.582031 30.234375 5.476562 C 30.480469 5.242188 30.480469 5.242188 30.808594 4.976562 C 31.515625 4.378906 32.101562 3.726562 32.667969 2.992188 C 33.246094 2.277344 33.898438 1.738281 34.644531 1.203125 C 34.78125 1.105469 34.78125 1.105469 34.921875 1.003906 C 35.898438 0.328125 36.78125 -0.0585938 37.988281 -0.0664062 Z M 34.332031 35.980469 C 34.332031 36.082031 34.332031 36.1875 34.332031 36.292969 C 34.242188 36.308594 34.15625 36.324219 34.066406 36.339844 C 32.035156 36.957031 29.863281 39.519531 28.820312 41.300781 C 28.820312 41.453125 28.820312 41.609375 28.820312 41.769531 C 28.714844 41.769531 28.609375 41.769531 28.503906 41.769531 C 27.933594 42.835938 27.472656 43.90625 27.085938 45.054688 C 27.042969 45.179688 27 45.308594 26.953125 45.4375 C 25.984375 48.410156 26 51.742188 26.773438 54.753906 C 26.835938 55.011719 26.835938 55.011719 26.90625 55.273438 C 27.289062 56.628906 27.878906 57.875 28.503906 59.132812 C 28.609375 59.132812 28.710938 59.132812 28.820312 59.132812 C 28.835938 59.222656 28.855469 59.3125 28.875 59.402344 C 28.984375 59.792969 29.144531 60.082031 29.359375 60.421875 C 29.429688 60.535156 29.496094 60.644531 29.566406 60.757812 C 29.632812 60.839844 29.695312 60.925781 29.765625 61.011719 C 29.867188 61.011719 29.972656 61.011719 30.078125 61.011719 C 30.113281 61.09375 30.148438 61.179688 30.183594 61.265625 C 30.46875 61.765625 30.851562 62.144531 31.261719 62.546875 C 31.34375 62.628906 31.425781 62.710938 31.511719 62.796875 C 32.75 64.066406 32.75 64.066406 34.332031 64.609375 C 34.332031 64.710938 34.332031 64.8125 34.332031 64.921875 C 37.96875 66.617188 41.527344 67.035156 45.355469 65.703125 C 45.96875 65.464844 46.566406 65.1875 47.15625 64.890625 C 47.339844 64.796875 47.527344 64.703125 47.714844 64.609375 C 47.714844 64.503906 47.714844 64.402344 47.714844 64.296875 C 47.804688 64.28125 47.894531 64.265625 47.984375 64.25 C 48.433594 64.109375 48.722656 63.890625 49.09375 63.601562 C 49.21875 63.503906 49.347656 63.40625 49.476562 63.308594 C 49.570312 63.222656 49.664062 63.132812 49.765625 63.042969 C 49.765625 62.941406 49.765625 62.835938 49.765625 62.730469 C 49.859375 62.6875 49.953125 62.648438 50.050781 62.605469 C 50.394531 62.417969 50.617188 62.246094 50.867188 61.949219 C 50.867188 61.84375 50.867188 61.742188 50.867188 61.636719 C 50.96875 61.636719 51.074219 61.636719 51.179688 61.636719 C 51.179688 61.53125 51.179688 61.429688 51.179688 61.324219 C 51.285156 61.324219 51.390625 61.324219 51.496094 61.324219 C 51.734375 61.007812 51.945312 60.695312 52.15625 60.363281 C 52.25 60.214844 52.25 60.214844 52.347656 60.066406 C 53.335938 58.484375 54.113281 56.855469 54.644531 55.066406 C 54.6875 54.929688 54.730469 54.796875 54.773438 54.65625 C 55.164062 53.285156 55.210938 51.953125 55.207031 50.539062 C 55.207031 50.417969 55.207031 50.296875 55.207031 50.171875 C 55.199219 48.132812 54.9375 46.335938 54.171875 44.425781 C 54.097656 44.226562 54.023438 44.023438 53.949219 43.820312 C 53.410156 42.449219 52.640625 41.257812 51.8125 40.046875 C 51.707031 39.894531 51.601562 39.738281 51.496094 39.578125 C 51.390625 39.578125 51.289062 39.578125 51.179688 39.578125 C 51.179688 39.476562 51.179688 39.371094 51.179688 39.265625 C 51.078125 39.265625 50.972656 39.265625 50.867188 39.265625 C 50.867188 39.160156 50.867188 39.058594 50.867188 38.953125 C 50.761719 38.953125 50.660156 38.953125 50.550781 38.953125 C 50.507812 38.851562 50.464844 38.753906 50.421875 38.648438 C 50.253906 38.273438 50.253906 38.273438 49.765625 38.171875 C 49.765625 38.066406 49.765625 37.964844 49.765625 37.859375 C 49.660156 37.859375 49.554688 37.859375 49.449219 37.859375 C 49.449219 37.753906 49.449219 37.652344 49.449219 37.542969 C 49.140625 37.296875 49.140625 37.296875 48.761719 37.054688 C 48.632812 36.972656 48.503906 36.886719 48.371094 36.800781 C 48.050781 36.578125 48.050781 36.578125 47.714844 36.605469 C 47.714844 36.503906 47.714844 36.398438 47.714844 36.292969 C 43.089844 34.101562 39.054688 33.78125 34.332031 35.980469 Z M 34.332031 35.980469 "/>
<path style=" stroke:none;fill-rule:nonzero;fill:rgb(15.686275%,34.901962%,77.254903%);fill-opacity:1;" d="M 69.765625 52.40625 C 69.953125 52.472656 70.140625 52.539062 70.332031 52.605469 C 71.609375 53.078125 72.742188 53.652344 73.859375 54.441406 C 73.976562 54.519531 74.097656 54.601562 74.21875 54.6875 C 74.308594 54.761719 74.398438 54.832031 74.488281 54.910156 C 74.488281 55.011719 74.488281 55.117188 74.488281 55.222656 C 74.625 55.28125 74.625 55.28125 74.765625 55.34375 C 75.851562 55.933594 76.613281 57.058594 77.324219 58.039062 C 77.75 58.589844 77.75 58.589844 78.25 59.070312 C 78.714844 59.59375 78.910156 60.164062 79.152344 60.8125 C 79.199219 60.933594 79.246094 61.054688 79.296875 61.179688 C 79.878906 62.710938 80.058594 64.007812 80.050781 65.644531 C 80.046875 65.839844 80.046875 66.035156 80.046875 66.238281 C 80.03125 67.585938 79.933594 68.792969 79.527344 70.082031 C 79.488281 70.230469 79.449219 70.375 79.410156 70.523438 C 78.957031 72.09375 78.109375 73.507812 77.324219 74.933594 C 77.21875 74.933594 77.113281 74.933594 77.007812 74.933594 C 76.902344 75.191406 76.800781 75.449219 76.691406 75.714844 C 76.589844 75.714844 76.484375 75.714844 76.378906 75.714844 C 76.378906 75.816406 76.378906 75.921875 76.378906 76.027344 C 76.273438 76.027344 76.171875 76.027344 76.0625 76.027344 C 76.0625 76.132812 76.0625 76.234375 76.0625 76.339844 C 75.960938 76.339844 75.855469 76.339844 75.746094 76.339844 C 75.746094 76.445312 75.746094 76.546875 75.746094 76.652344 C 75.441406 76.9375 75.113281 77.175781 74.773438 77.421875 C 74.488281 77.632812 74.207031 77.851562 73.933594 78.078125 C 72.554688 79.132812 71.363281 79.167969 69.707031 79.121094 C 69.449219 79.121094 69.191406 79.117188 68.929688 79.117188 C 68.257812 79.113281 67.582031 79.101562 66.910156 79.085938 C 66.21875 79.074219 65.527344 79.066406 64.835938 79.0625 C 63.488281 79.046875 62.136719 79.027344 60.789062 79 C 60.789062 78.898438 60.789062 78.792969 60.789062 78.6875 C 60.683594 78.699219 60.578125 78.707031 60.46875 78.71875 C 59.203125 78.792969 58.355469 78.472656 57.324219 77.75 C 57.109375 77.542969 56.898438 77.332031 56.691406 77.121094 C 56.542969 77.027344 56.394531 76.9375 56.238281 76.839844 C 55.300781 76.1875 54.644531 75.246094 54.015625 74.308594 C 54.015625 74.203125 54.015625 74.101562 54.015625 73.992188 C 53.859375 73.941406 53.703125 73.890625 53.542969 73.835938 C 53.433594 73.558594 53.328125 73.277344 53.230469 72.996094 C 53.035156 72.492188 52.777344 72.035156 52.519531 71.558594 C 51.921875 70.421875 51.683594 69.316406 51.496094 68.050781 C 51.46875 67.863281 51.4375 67.675781 51.410156 67.484375 C 51.101562 65.160156 51.554688 62.703125 52.441406 60.539062 C 52.519531 60.464844 52.519531 60.464844 52.597656 60.382812 C 52.589844 60.246094 52.578125 60.105469 52.570312 59.964844 C 52.605469 59.308594 52.8125 59.003906 53.226562 58.507812 C 53.382812 58.507812 53.539062 58.507812 53.699219 58.507812 C 53.742188 58.363281 53.785156 58.222656 53.828125 58.078125 C 54 57.609375 54.152344 57.304688 54.488281 56.941406 C 54.59375 56.941406 54.695312 56.941406 54.804688 56.941406 C 54.804688 56.839844 54.804688 56.734375 54.804688 56.628906 C 55.007812 56.417969 55.21875 56.210938 55.433594 56.003906 C 55.484375 55.902344 55.535156 55.796875 55.589844 55.691406 C 55.695312 55.691406 55.796875 55.691406 55.90625 55.691406 C 55.957031 55.535156 56.007812 55.382812 56.0625 55.222656 C 56.804688 54.535156 57.671875 54.082031 58.582031 53.65625 C 58.902344 53.5 59.21875 53.339844 59.539062 53.179688 C 59.847656 53.023438 60.160156 52.871094 60.472656 52.71875 C 60.625 52.644531 60.625 52.644531 60.78125 52.566406 C 63.335938 51.382812 67.148438 51.453125 69.765625 52.40625 Z M 69.765625 52.40625 "/>
<path style=" stroke:none;fill-rule:nonzero;fill:rgb(32.549021%,48.235294%,77.64706%);fill-opacity:1;" d="M 56.535156 54.910156 C 56.640625 54.960938 56.742188 55.011719 56.851562 55.066406 C 56.382812 55.53125 55.914062 55.996094 55.433594 56.472656 C 55.433594 56.003906 55.433594 56.003906 55.589844 55.691406 C 55.695312 55.691406 55.796875 55.691406 55.90625 55.691406 C 55.957031 55.535156 56.007812 55.382812 56.0625 55.222656 C 56.21875 55.117188 56.375 55.015625 56.535156 54.910156 Z M 54.804688 56.628906 C 54.960938 56.707031 54.960938 56.707031 55.117188 56.785156 C 54.960938 56.863281 54.960938 56.863281 54.804688 56.941406 C 54.804688 56.839844 54.804688 56.734375 54.804688 56.628906 Z M 54.488281 56.941406 C 54.59375 56.996094 54.695312 57.046875 54.804688 57.097656 C 54.542969 57.355469 54.285156 57.617188 54.015625 57.882812 C 54.3125 57.117188 54.3125 57.117188 54.488281 56.941406 Z M 54.488281 56.941406 "/>
<path style=" stroke:none;fill-rule:nonzero;fill:rgb(40.392157%,50.588238%,95.686275%);fill-opacity:1;" d="M 77.796875 73.367188 C 77.898438 73.421875 78.003906 73.472656 78.109375 73.523438 C 77.71875 74.222656 77.71875 74.222656 77.324219 74.933594 C 77.21875 74.933594 77.113281 74.933594 77.007812 74.933594 C 76.902344 75.191406 76.800781 75.449219 76.691406 75.714844 C 76.589844 75.714844 76.484375 75.714844 76.378906 75.714844 C 76.378906 75.816406 76.378906 75.921875 76.378906 76.027344 C 76.273438 76.027344 76.171875 76.027344 76.0625 76.027344 C 76.316406 75.472656 76.652344 75.011719 77.019531 74.523438 C 77.441406 73.964844 77.441406 73.964844 77.796875 73.367188 Z M 77.796875 73.367188 "/>
<path style=" stroke:none;fill-rule:nonzero;fill:rgb(52.941179%,69.01961%,90.980393%);fill-opacity:1;" d="M 76.851562 57.410156 C 77.058594 57.410156 77.265625 57.410156 77.480469 57.410156 C 77.738281 57.929688 78 58.445312 78.269531 58.976562 C 77.640625 58.664062 77.53125 58.578125 77.203125 58.019531 C 77.105469 57.847656 77.105469 57.847656 77 57.675781 C 76.949219 57.589844 76.902344 57.5 76.851562 57.410156 Z M 76.851562 57.410156 "/>
<path style=" stroke:none;fill-rule:nonzero;fill:rgb(50.196081%,65.882355%,87.843138%);fill-opacity:1;" d="M 52.597656 59.601562 C 52.652344 59.601562 52.703125 59.601562 52.757812 59.601562 C 52.824219 60.34375 52.597656 60.820312 52.285156 61.480469 C 52.085938 60.894531 52.164062 60.515625 52.285156 59.914062 C 52.386719 59.8125 52.492188 59.707031 52.597656 59.601562 Z M 52.597656 59.601562 "/>
</g>
</svg>
