<?xml version="1.0" encoding="UTF-8"?>
<svg xmlns="http://www.w3.org/2000/svg" xmlns:xlink="http://www.w3.org/1999/xlink" width="80px" height="80px" viewBox="0 0 80 80" version="1.1">
<g id="surface1">
<path style="fill-rule:nonzero;fill:rgb(100%,41.176471%,70.588237%);fill-opacity:1;stroke-width:60;stroke-linecap:butt;stroke-linejoin:miter;stroke:rgb(20%,20%,20%);stroke-opacity:1;stroke-miterlimit:4;" d="M 1166.015625 600 C 1166.015625 287.402344 912.597656 33.984375 600 33.984375 C 287.402344 33.984375 33.984375 287.402344 33.984375 600 C 33.984375 912.597656 287.402344 1166.015625 600 1166.015625 C 912.597656 1166.015625 1166.015625 912.597656 1166.015625 600 Z M 1166.015625 600 " transform="matrix(0.0666667,0,0,0.0666667,0,0)"/>
<path style=" stroke:none;fill-rule:nonzero;fill:rgb(20%,20%,20%);fill-opacity:1;" d="M 9.480469 64.414062 C 8.796875 64.414062 8.570312 63.921875 8.804688 62.941406 C 9.027344 62 9.652344 60.804688 10.679688 59.351562 L 25.890625 41.527344 C 30.566406 36.054688 34.136719 31.566406 36.597656 28.0625 C 39.058594 24.554688 40.464844 22.078125 40.808594 20.625 C 40.96875 19.941406 40.863281 19.425781 40.488281 19.085938 C 40.113281 18.742188 39.636719 18.507812 39.058594 18.378906 C 38.480469 18.25 37.925781 18.1875 37.394531 18.1875 C 34.167969 18.1875 29.140625 20.410156 22.316406 24.855469 C 20.390625 26.09375 18.5625 27.484375 16.828125 29.023438 C 15.097656 30.5625 13.4375 32.207031 11.84375 33.957031 C 8.738281 37.464844 6.898438 40.414062 6.332031 42.808594 C 5.898438 44.644531 6.394531 45.757812 7.820312 46.140625 C 8.351562 46.3125 8.976562 46.398438 9.699219 46.398438 C 11.066406 46.398438 12.523438 46.011719 14.074219 45.242188 C 15.621094 44.472656 17.183594 43.492188 18.757812 42.292969 C 19.96875 41.355469 20.648438 40.882812 20.800781 40.882812 C 20.953125 40.882812 20.976562 41.035156 20.867188 41.332031 C 20.425781 42.230469 19.671875 43.085938 18.609375 43.898438 C 17.542969 44.710938 16.324219 45.445312 14.949219 46.109375 C 13.578125 46.773438 12.234375 47.285156 10.914062 47.648438 C 9.59375 48.011719 8.457031 48.191406 7.507812 48.191406 C 5.988281 48.191406 4.761719 47.753906 3.832031 46.878906 C 2.898438 46 2.636719 44.707031 3.039062 43 C 3.65625 40.390625 5.765625 37.1875 9.359375 33.382812 C 12.8125 29.707031 16.777344 26.4375 21.253906 23.570312 C 23.09375 22.375 25.1875 21.230469 27.535156 20.140625 C 29.878906 19.050781 32.199219 18.15625 34.496094 17.449219 C 36.789062 16.746094 38.769531 16.390625 40.441406 16.390625 C 43.441406 16.390625 44.679688 17.503906 44.152344 19.726562 C 43.515625 22.417969 40.613281 27.058594 35.449219 33.640625 C 31.832031 38.171875 27.195312 43.554688 21.542969 49.796875 C 16.863281 54.96875 14.503906 57.554688 14.464844 57.554688 C 14.578125 57.554688 16.921875 55.351562 21.496094 50.949219 C 24.308594 48.214844 26.929688 45.769531 29.359375 43.609375 C 31.785156 41.453125 34.007812 39.558594 36.027344 37.9375 C 37.015625 37.125 38.226562 36.109375 39.652344 34.890625 L 44.648438 30.625 C 46.300781 29.257812 47.898438 28.019531 49.433594 26.90625 C 50.96875 25.796875 52.265625 25.242188 53.328125 25.242188 C 54.429688 25.242188 55.082031 25.539062 55.28125 26.140625 C 50.636719 31.011719 45.957031 36.972656 41.25 44.027344 C 37.890625 49.070312 35.902344 52.898438 35.285156 55.503906 C 34.921875 57.042969 35.019531 58.15625 35.582031 58.839844 C 36.140625 59.523438 37.007812 59.863281 38.1875 59.863281 C 39.476562 59.863281 40.929688 59.457031 42.546875 58.644531 C 44.164062 57.835938 45.828125 56.785156 47.535156 55.503906 C 49.242188 54.222656 50.871094 52.875 52.421875 51.464844 C 57.964844 46.507812 62.707031 41.144531 66.65625 35.371094 C 69.742188 30.84375 71.601562 27.230469 72.238281 24.535156 C 72.300781 24.28125 72.347656 24.046875 72.378906 23.832031 C 72.410156 23.617188 72.425781 23.425781 72.429688 23.253906 C 71.632812 23.253906 70.886719 22.785156 70.199219 21.84375 C 69.75 21.332031 69.59375 20.796875 69.722656 20.242188 C 69.84375 19.726562 70.136719 19.300781 70.597656 18.957031 C 71.058594 18.617188 71.535156 18.445312 72.027344 18.445312 C 72.75 18.445312 73.195312 18.808594 73.367188 19.535156 C 73.4375 19.878906 73.640625 20.304688 73.972656 20.816406 C 74.195312 21.160156 74.269531 21.417969 74.191406 21.585938 C 74.328125 21.972656 74.660156 22.164062 75.191406 22.164062 C 75.726562 22.164062 76.289062 21.910156 76.886719 21.394531 C 77.480469 20.882812 78.0625 20.625 78.632812 20.625 C 78.9375 20.625 79.058594 20.753906 79 21.011719 C 78.886719 21.480469 78.421875 21.929688 77.597656 22.355469 C 77.148438 22.65625 76.644531 22.847656 76.09375 22.933594 C 75.78125 22.976562 75.46875 23.007812 75.160156 23.03125 C 74.851562 23.050781 74.554688 23.019531 74.269531 22.933594 C 74.320312 24.644531 74.25 25.90625 74.058594 26.71875 C 73.25 30.136719 70.757812 34.5625 66.589844 39.988281 C 64.496094 42.726562 62.234375 45.3125 59.796875 47.746094 C 57.359375 50.183594 54.730469 52.46875 51.90625 54.605469 C 46.277344 58.96875 41.679688 61.148438 38.109375 61.148438 C 34.199219 61.148438 32.730469 59.09375 33.699219 54.992188 C 34.15625 53.066406 35.035156 50.875 36.335938 48.417969 C 37.640625 45.960938 39.074219 43.515625 40.636719 41.078125 L 47.121094 31.011719 C 45.105469 32.464844 43.46875 33.652344 42.207031 34.570312 C 40.945312 35.488281 39.886719 36.269531 39.03125 36.910156 C 38.175781 37.550781 37.359375 38.203125 36.574219 38.863281 C 35.792969 39.527344 34.851562 40.328125 33.757812 41.269531 C 32.554688 42.339844 30.921875 43.867188 28.855469 45.855469 C 26.789062 47.839844 24.34375 50.308594 21.519531 53.257812 L 12.757812 62.363281 C 12.253906 62.875 11.707031 63.347656 11.113281 63.773438 C 10.515625 64.203125 9.972656 64.414062 9.480469 64.414062 "/>
</g>
</svg>
