<?xml version="1.0" encoding="UTF-8"?>
<svg xmlns="http://www.w3.org/2000/svg" xmlns:xlink="http://www.w3.org/1999/xlink" width="80px" height="80px" viewBox="0 0 80 80" version="1.1">
<g id="surface1">
<path style=" stroke:none;fill-rule:nonzero;fill:rgb(100%,100%,100%);fill-opacity:1;" d="M 46.027344 39.996094 C 46.027344 36.523438 43.714844 33.710938 40.863281 33.710938 C 38.015625 33.710938 35.703125 36.523438 35.703125 39.996094 C 35.703125 43.464844 38.015625 46.28125 40.863281 46.28125 C 43.714844 46.28125 46.027344 43.464844 46.027344 39.996094 Z M 46.027344 39.996094 "/>
<path style=" stroke:none;fill-rule:nonzero;fill:rgb(50.980395%,12.54902%,11.764706%);fill-opacity:1;" d="M 79.929688 38.816406 C 79.929688 38.816406 81.78125 0 39.121094 0 C 1.390625 0 0.214844 37.234375 0.214844 37.234375 C 0.214844 37.234375 -5.335938 80 39.988281 80 C 83.460938 80 79.929688 38.816406 79.929688 38.816406 M 27.183594 25.253906 C 35.191406 20.355469 45.414062 23.347656 49.246094 30.710938 C 49.972656 32.109375 50.066406 34.257812 49.605469 35.71875 C 48.015625 40.773438 44.265625 43.609375 39.121094 44.816406 C 40.640625 43.515625 41.847656 42.042969 42.234375 40.007812 C 42.636719 38.058594 42.199219 36.027344 41.019531 34.421875 C 39.148438 31.84375 35.796875 30.824219 32.804688 31.914062 C 29.636719 33.117188 27.898438 36.011719 28.214844 39.566406 C 28.503906 42.867188 31.011719 45.007812 35.699219 45.820312 C 34.996094 46.191406 34.457031 46.460938 33.929688 46.757812 C 31.785156 47.933594 29.914062 49.558594 28.453125 51.523438 C 27.976562 52.164062 27.648438 52.21875 26.925781 51.773438 C 17.5 46.011719 16.894531 31.546875 27.183594 25.253906 M 20.132812 60.859375 C 18.617188 61.246094 17.152344 61.8125 15.605469 62.320312 C 16.363281 57.210938 22.34375 52.511719 27.398438 53.046875 C 25.933594 55.0625 25.078125 57.460938 24.933594 59.949219 C 23.253906 60.261719 21.671875 60.46875 20.132812 60.859375 M 52.34375 11 C 53.835938 11.054688 55.335938 11.03125 56.835938 11.066406 C 57.207031 11.09375 57.578125 11.144531 57.945312 11.222656 C 57.609375 11.738281 57.234375 12.222656 56.816406 12.671875 C 56.28125 13.171875 55.675781 13.65625 54.90625 12.898438 C 54.71875 12.71875 54.28125 12.761719 53.957031 12.753906 C 52.46875 12.734375 50.976562 12.6875 49.492188 12.746094 C 48.203125 12.789062 46.917969 12.917969 45.644531 13.136719 C 45.40625 13.179688 45.050781 13.972656 45.160156 14.265625 C 45.417969 14.953125 45.796875 15.714844 46.355469 16.15625 C 48.421875 17.785156 50.613281 19.246094 52.6875 20.863281 C 54.703125 22.4375 56.578125 24.160156 57.71875 26.53125 C 59.210938 29.621094 59.253906 32.863281 58.609375 36.121094 C 57.539062 41.554688 54.789062 46.054688 50.335938 49.324219 C 48.539062 50.640625 46.320312 51.390625 44.265625 52.335938 C 42.457031 53.171875 40.597656 53.886719 38.785156 54.710938 C 35.515625 56.195312 33.683594 59.738281 34.222656 63.425781 C 34.71875 66.808594 37.683594 69.632812 41.085938 70.214844 C 45.164062 70.914062 49.371094 68.265625 50.367188 64.121094 C 51.488281 59.460938 48.957031 55.296875 44.21875 54.039062 C 44.007812 53.984375 43.800781 53.929688 43.363281 53.816406 C 44.632812 53.25 45.726562 52.847656 46.738281 52.289062 C 48.503906 51.320312 50.234375 50.292969 51.933594 49.207031 C 52.433594 48.886719 52.703125 48.886719 53.132812 49.253906 C 56.390625 52.074219 58.335938 55.578125 58.882812 59.878906 C 59.785156 66.996094 56.417969 73.53125 50.0625 76.882812 C 40.234375 82.066406 28.203125 76.164062 26.035156 65.269531 C 24.175781 55.933594 30.761719 47.46875 38.691406 45.835938 C 42.101562 45.132812 45.21875 43.710938 47.644531 41.085938 C 49.210938 39.390625 49.96875 37.941406 50.226562 37.28125 C 50.703125 36.050781 50.953125 34.746094 50.949219 33.425781 C 50.898438 32.28125 50.628906 31.160156 50.160156 30.121094 C 49.332031 28.234375 46.164062 25.234375 45.378906 24.601562 L 37.910156 18.753906 C 37.648438 18.539062 37.351562 18.554688 36.707031 18.597656 C 35.945312 18.648438 33.996094 18.757812 33.152344 18.539062 C 33.832031 18.023438 35.691406 17.273438 36.484375 16.671875 C 34.066406 15.035156 31.300781 15.625 28.765625 15.136719 C 29.351562 14.046875 32.253906 12.367188 33.90625 12.179688 C 33.808594 11.257812 33.65625 10.34375 33.453125 9.4375 C 33.355469 9.066406 32.941406 8.707031 32.578125 8.496094 C 31.699219 7.980469 30.773438 7.558594 29.765625 7.046875 C 30.667969 6.460938 31.710938 6.136719 32.789062 6.109375 C 33.804688 6.074219 34.824219 6.171875 35.8125 6.40625 C 37.609375 6.816406 39.046875 6.546875 40.476562 5.324219 C 39.351562 4.871094 38.222656 4.457031 37.132812 3.96875 C 36.058594 3.476562 35.007812 2.929688 33.992188 2.324219 C 36.824219 2.71875 39.566406 3.78125 42.460938 3.390625 L 42.535156 2.996094 L 35.808594 1.425781 C 39.816406 1.058594 43.550781 0.996094 47.085938 2.71875 C 48.082031 3.203125 49.121094 3.605469 50.078125 4.160156 C 50.542969 4.429688 50.855469 4.960938 51.238281 5.375 C 51.539062 5.703125 51.785156 6.144531 52.15625 6.34375 C 53.570312 7.09375 55.128906 7.121094 56.710938 7.085938 L 56.746094 6.550781 C 58.34375 7.050781 60.136719 8.890625 60.136719 10.234375 C 57.550781 10.234375 54.96875 10.226562 52.386719 10.25 C 52.113281 10.253906 51.835938 10.453125 51.5625 10.5625 C 51.820312 10.714844 52.078125 10.988281 52.34375 11 "/>
<path style=" stroke:none;fill-rule:nonzero;fill:rgb(50.980395%,12.54902%,11.764706%);fill-opacity:1;" d="M 49.011719 7.175781 C 48.824219 7.289062 48.769531 7.535156 48.886719 7.71875 C 48.90625 7.753906 48.929688 7.78125 48.960938 7.808594 C 49.121094 8.09375 49.484375 8.191406 49.773438 8.03125 C 49.773438 8.027344 49.777344 8.027344 49.78125 8.023438 C 50.03125 7.898438 50.273438 7.765625 50.574219 7.609375 C 50.328125 7.398438 50.136719 7.230469 49.933594 7.066406 C 49.582031 6.777344 49.292969 6.960938 49.011719 7.175781 "/>
</g>
</svg>
