<?xml version="1.0" encoding="UTF-8"?>
<svg xmlns="http://www.w3.org/2000/svg" xmlns:xlink="http://www.w3.org/1999/xlink" width="80px" height="80px" viewBox="0 0 80 80" version="1.1">
<defs>
<linearGradient id="linear0" gradientUnits="userSpaceOnUse" x1="-841.450989" y1="-387.618011" x2="-837.913025" y2="-387.618011" gradientTransform="matrix(-2.783537,10.388597,10.388541,2.783523,1685.953143,9873.645371)">
<stop offset="0" style="stop-color:rgb(100%,56.078431%,0%);stop-opacity:1;"/>
<stop offset="1" style="stop-color:rgb(99.607843%,0%,100%);stop-opacity:1;"/>
</linearGradient>
<linearGradient id="linear1" gradientUnits="userSpaceOnUse" x1="230.434998" y1="1334.708984" x2="233.973007" y2="1334.708984" gradientTransform="matrix(10.388541,-2.783523,-2.783537,-10.388597,1322.667531,14518.504224)">
<stop offset="0" style="stop-color:rgb(100%,56.078431%,0%);stop-opacity:1;"/>
<stop offset="1" style="stop-color:rgb(99.607843%,0%,100%);stop-opacity:1;"/>
</linearGradient>
<linearGradient id="linear2" gradientUnits="userSpaceOnUse" x1="1181.227051" y1="-454.157013" x2="1184.765015" y2="-454.157013" gradientTransform="matrix(-7.604767,-7.604761,-7.604767,7.604761,5530.750249,12505.369279)">
<stop offset="0" style="stop-color:rgb(100%,56.078431%,0%);stop-opacity:1;"/>
<stop offset="1" style="stop-color:rgb(99.607843%,0%,100%);stop-opacity:1;"/>
</linearGradient>
<linearGradient id="linear3" gradientUnits="userSpaceOnUse" x1="102.344002" y1="-989.505981" x2="105.882004" y2="-989.505981" gradientTransform="matrix(-10.388541,2.783523,2.783537,10.388597,3819.082919,10064.493)">
<stop offset="0" style="stop-color:rgb(100%,56.078431%,0%);stop-opacity:1;"/>
<stop offset="1" style="stop-color:rgb(99.607843%,0%,100%);stop-opacity:1;"/>
</linearGradient>
<linearGradient id="linear4" gradientUnits="userSpaceOnUse" x1="1132.041016" y1="797.150024" x2="1135.578979" y2="797.150024" gradientTransform="matrix(-7.604934,-7.604928,7.604934,-7.604928,2548.219585,14701.987236)">
<stop offset="0" style="stop-color:rgb(100%,56.078431%,0%);stop-opacity:1;"/>
<stop offset="1" style="stop-color:rgb(99.607843%,0%,100%);stop-opacity:1;"/>
</linearGradient>
<linearGradient id="linear5" gradientUnits="userSpaceOnUse" x1="-891.922974" y1="727.567017" x2="-888.38501" y2="727.567017" gradientTransform="matrix(-2.783451,10.388546,-10.388491,-2.783437,5077.102277,11332.770362)">
<stop offset="0" style="stop-color:rgb(100%,56.078431%,0%);stop-opacity:1;"/>
<stop offset="1" style="stop-color:rgb(99.607843%,0%,100%);stop-opacity:1;"/>
</linearGradient>
</defs>
<g id="surface1">
<path style=" stroke:none;fill-rule:evenodd;fill:rgb(6.27451%,6.27451%,6.27451%);fill-opacity:1;" d="M 61.941406 61.308594 L 59.328125 51.554688 L 60.839844 51.152344 L 64.160156 63.542969 L 23.125 52.289062 L 53.070312 22.160156 L 56.386719 34.542969 L 54.878906 34.949219 L 52.265625 25.191406 L 26.128906 51.492188 Z M 61.941406 61.308594 "/>
<path style=" stroke:none;fill-rule:evenodd;fill:url(#linear0);" d="M 16.589844 41.875 L 18.226562 47.976562 L 10.570312 55.636719 L 21.03125 58.441406 L 22.664062 64.542969 L 0.00390625 58.46875 Z M 16.589844 41.875 "/>
<path style=" stroke:none;fill-rule:evenodd;fill:url(#linear1);" d="M 64.421875 22.667969 L 58.320312 21.03125 L 55.515625 10.570312 L 47.855469 18.226562 L 41.753906 16.589844 L 58.347656 0.00390625 Z M 64.421875 22.667969 "/>
<path style=" stroke:none;fill-rule:evenodd;fill:url(#linear2);" d="M 57.335938 73.925781 L 61.804688 69.457031 L 72.265625 72.261719 L 69.460938 61.804688 L 73.929688 57.335938 L 79.996094 80 Z M 57.335938 73.925781 "/>
<path style=" stroke:none;fill-rule:evenodd;fill:url(#linear3);" d="M 38.746094 76.710938 L 37.398438 62.863281 L 46.84375 65.394531 Z M 38.746094 76.710938 "/>
<path style=" stroke:none;fill-rule:evenodd;fill:url(#linear4);" d="M 23.332031 24.300781 L 29.089844 36.964844 L 36 30.058594 Z M 23.332031 24.300781 "/>
<path style=" stroke:none;fill-rule:evenodd;fill:url(#linear5);" d="M 76.460938 38.476562 L 62.613281 37.128906 L 65.144531 46.574219 Z M 76.460938 38.476562 "/>
<path style=" stroke:none;fill-rule:evenodd;fill:rgb(6.27451%,6.27451%,6.27451%);fill-opacity:1;" d="M 57.082031 34.226562 C 56.796875 33.355469 55.863281 32.882812 54.996094 33.167969 C 54.128906 33.453125 53.65625 34.390625 53.941406 35.257812 C 54.226562 36.125 55.160156 36.597656 56.027344 36.3125 C 56.894531 36.027344 57.367188 35.09375 57.082031 34.226562 Z M 57.082031 34.226562 "/>
<path style=" stroke:none;fill-rule:evenodd;fill:rgb(6.27451%,6.27451%,6.27451%);fill-opacity:1;" d="M 61.796875 50.832031 C 61.511719 49.964844 60.578125 49.492188 59.710938 49.777344 C 58.839844 50.0625 58.367188 50.996094 58.652344 51.863281 C 58.9375 52.730469 59.875 53.203125 60.742188 52.917969 C 61.609375 52.632812 62.082031 51.699219 61.796875 50.832031 Z M 61.796875 50.832031 "/>
<path style=" stroke:none;fill-rule:evenodd;fill:rgb(6.27451%,6.27451%,6.27451%);fill-opacity:1;" d="M 64.628906 61.910156 C 64.34375 61.039062 63.410156 60.566406 62.539062 60.851562 C 61.671875 61.136719 61.199219 62.074219 61.484375 62.941406 C 61.769531 63.808594 62.703125 64.28125 63.574219 63.996094 C 64.441406 63.710938 64.914062 62.777344 64.628906 61.910156 Z M 64.628906 61.910156 "/>
<path style=" stroke:none;fill-rule:evenodd;fill:rgb(6.27451%,6.27451%,6.27451%);fill-opacity:1;" d="M 26.304688 51.371094 C 26.019531 50.503906 25.085938 50.03125 24.214844 50.316406 C 23.347656 50.601562 22.875 51.535156 23.160156 52.40625 C 23.445312 53.273438 24.378906 53.746094 25.25 53.460938 C 26.117188 53.175781 26.589844 52.242188 26.304688 51.371094 Z M 26.304688 51.371094 "/>
<path style=" stroke:none;fill-rule:evenodd;fill:rgb(6.27451%,6.27451%,6.27451%);fill-opacity:1;" d="M 54.261719 23.152344 C 53.976562 22.285156 53.042969 21.8125 52.171875 22.097656 C 51.304688 22.382812 50.832031 23.316406 51.117188 24.183594 C 51.402344 25.054688 52.335938 25.527344 53.207031 25.242188 C 54.074219 24.957031 54.546875 24.019531 54.261719 23.152344 Z M 54.261719 23.152344 "/>
<path style=" stroke:none;fill-rule:evenodd;fill:rgb(6.27451%,6.27451%,6.27451%);fill-opacity:1;" d="M 57.035156 31.328125 C 57.035156 31.328125 55.929688 31.015625 55.59375 30.496094 C 55.328125 30.082031 54.835938 28.554688 54.746094 28.265625 C 54.359375 27.09375 55.574219 25.984375 55.574219 25.984375 L 50.96875 27.308594 C 50.96875 27.308594 52.53125 26.832031 53.195312 28.679688 C 53.300781 28.96875 53.488281 30.242188 53.578125 31.035156 C 53.675781 31.601562 52.960938 32.363281 52.960938 32.363281 Z M 57.035156 31.328125 "/>
<path style=" stroke:none;fill-rule:evenodd;fill:rgb(6.27451%,6.27451%,6.27451%);fill-opacity:1;" d="M 63.675781 58.835938 C 63.675781 58.835938 62.820312 58.773438 62.589844 58.050781 C 62.453125 57.546875 62.40625 57.386719 62.261719 56.828125 C 62.167969 56.53125 62.070312 56.214844 62.015625 55.914062 C 61.71875 54.527344 62.503906 53.996094 62.503906 53.996094 L 58.929688 54.84375 C 58.929688 54.84375 59.984375 54.933594 60.496094 56.265625 C 60.597656 56.546875 60.714844 57.007812 60.777344 57.316406 C 60.902344 57.808594 60.910156 57.84375 61.046875 58.328125 C 61.273438 59.125 60.777344 59.488281 60.777344 59.488281 Z M 63.675781 58.835938 "/>
<path style=" stroke:none;fill-rule:evenodd;fill:rgb(6.27451%,6.27451%,6.27451%);fill-opacity:1;" d="M 28.5 51.1875 C 28.5 51.1875 27.804688 50.589844 29.082031 48.859375 C 29.804688 47.882812 30.824219 46.828125 31.9375 45.636719 C 33.964844 43.460938 36.457031 40.972656 38.941406 38.476562 C 41.035156 36.363281 43.128906 34.253906 45.027344 32.417969 C 46.617188 30.894531 48.046875 29.539062 49.222656 28.515625 C 49.453125 28.3125 49.699219 28.164062 49.890625 27.972656 C 51.035156 26.828125 52.300781 27.300781 52.300781 27.300781 L 48.949219 24.101562 C 48.949219 24.101562 49.203125 25.53125 48.382812 26.476562 C 48.203125 26.6875 48.046875 26.921875 47.84375 27.148438 C 46.828125 28.335938 45.480469 29.777344 43.96875 31.371094 C 42.144531 33.289062 40.046875 35.394531 37.953125 37.5 C 35.464844 39.992188 33 42.503906 30.828125 44.546875 C 29.644531 45.660156 28.59375 46.675781 27.628906 47.414062 C 26.226562 48.492188 24.6875 48.210938 24.6875 48.210938 Z M 28.5 51.1875 "/>
<path style=" stroke:none;fill-rule:evenodd;fill:rgb(6.27451%,6.27451%,6.27451%);fill-opacity:1;" d="M 26.847656 54.683594 C 26.847656 54.683594 27.257812 53.992188 29.46875 54.34375 C 30.667969 54.535156 32.089844 54.855469 33.675781 55.230469 C 36.570312 55.914062 39.96875 56.855469 43.367188 57.769531 C 46.242188 58.542969 49.054688 59.363281 51.585938 60.113281 C 53.695312 60.738281 57.464844 61.722656 57.726562 61.800781 C 59.445312 62.292969 59.339844 63.046875 59.339844 63.046875 L 60.199219 60.007812 C 60.199219 60.007812 59.585938 60.761719 58.167969 60.300781 C 57.910156 60.214844 54.167969 59.164062 52.035156 58.636719 C 49.46875 58.007812 46.597656 57.21875 43.734375 56.4375 C 40.335938 55.507812 36.933594 54.605469 34.089844 53.734375 C 32.535156 53.257812 31.109375 52.875 30.003906 52.371094 C 27.78125 51.375 28.398438 50.050781 28.398438 50.050781 Z M 26.847656 54.683594 "/>
</g>
</svg>
